<svg width="55" height="55" viewBox="0 0 55 55" fill="none" xmlns="http://www.w3.org/2000/svg">
<path fill-rule="evenodd" clip-rule="evenodd" d="M23.4314 7.23377e-07C23.2736 -0.000193408 23.1183 0.0386892 22.9793 0.113157C22.8404 0.187625 22.7221 0.295346 22.6353 0.426645L22.0214 1.34671L21.9544 1.3059C21.7383 1.17634 21.4794 1.13756 21.2346 1.19807C20.9898 1.25858 20.779 1.41343 20.6486 1.62867L19.6627 3.25363C19.5396 3.45686 19.4973 3.69869 19.5441 3.93148C19.591 4.16427 19.7235 4.37112 19.9157 4.5113L19.1084 5.72445L9.87072 9.5828C9.71202 9.64926 9.57434 9.75737 9.47233 9.89563C9.37032 10.0339 9.30778 10.1971 9.29137 10.368C9.27496 10.5389 9.30529 10.711 9.37914 10.866C9.45298 11.0211 9.56757 11.1533 9.71074 11.2486L12.0955 12.829C11.0293 14.4313 10.833 16.4906 11.6304 18.2863C12.5548 20.3678 14.6381 21.704 16.9208 21.6772C18.8294 21.655 20.5676 20.6754 21.601 19.1285L23.9932 20.7126C24.1369 20.8081 24.3039 20.8629 24.4764 20.871C24.6489 20.8791 24.8204 20.8404 24.9725 20.7588C25.1246 20.6773 25.2516 20.556 25.3399 20.408C25.4282 20.2601 25.4745 20.0909 25.4739 19.9187L25.4553 9.93153L26.4375 8.45498L26.5007 8.49207C26.7164 8.62196 26.975 8.66131 27.2197 8.60151C27.4645 8.54171 27.6755 8.38764 27.8065 8.17302L27.907 8.00607L43.5288 16.999C42.8804 17.8106 42.4759 18.8217 42.4759 19.9336C42.4759 21.7537 43.5289 23.3258 45.0467 24.1221L33.6959 43.7255C32.3022 43.5692 30.8722 43.8458 29.6184 44.5676C27.8146 45.6062 26.6161 47.4229 26.3444 49.4499H16.7608C16.5082 49.4499 16.266 49.55 16.0874 49.7281C15.9088 49.9062 15.8084 50.1478 15.8084 50.3997V54.0503C15.8084 54.3021 15.9088 54.5437 16.0874 54.7218C16.266 54.8999 16.5082 55 16.7608 55H49.1428C49.3954 55 49.6376 54.8999 49.8162 54.7218C49.9948 54.5437 50.0952 54.3021 50.0952 54.0503V50.3997C50.0952 50.1478 49.9948 49.9062 49.8162 49.7281C49.6376 49.55 49.3954 49.4499 49.1428 49.4499H39.5591V49.4462C39.2875 47.4192 38.089 45.6062 36.2852 44.5676C36.0639 44.4402 35.8356 44.3338 35.6044 44.2337L46.9403 24.6526C47.0407 24.659 47.1361 24.6823 47.2379 24.6823C49.8567 24.6823 52 22.545 52 19.9336C52 17.3221 49.8567 15.1848 47.2379 15.1848C46.4673 15.1848 45.7483 15.3875 45.1025 15.7153L28.878 6.36998C28.9455 6.178 28.9494 5.96948 28.8891 5.77513C28.8288 5.58078 28.7076 5.41086 28.5432 5.29039L28.9822 4.63373C29.0687 4.50373 29.1217 4.3545 29.1366 4.19921C29.1516 4.04391 29.1279 3.88735 29.0677 3.74334L27.7433 0.582463C27.6707 0.409943 27.5487 0.262632 27.3925 0.159011C27.2363 0.0553904 27.0529 7.37177e-05 26.8653 7.23377e-07H23.4314ZM15.3285 1.32816L14.4021 1.54334L13.5874 1.73255L13.4497 1.76965L12.4638 2.1629L11.5784 2.51164L12.2852 4.28499L13.167 3.93626L14.097 3.56897L14.8299 3.39831L15.7563 3.18685L15.3285 1.32816ZM23.9411 1.89949H26.2291L27.1146 4.00675L26.9174 4.30354L23.6546 2.33356L23.9411 1.89949ZM9.7219 3.64317L8.98155 4.23676L8.41234 4.68567L8.30817 4.77842L7.50829 5.63912L6.86095 6.32917L8.24492 7.63879L8.89226 6.94132L9.6475 6.13626L10.1609 5.72816L10.905 5.13828L9.7219 3.64317ZM21.5452 5.49815L24.8079 7.47184L23.7104 9.12277C23.6061 9.27878 23.5505 9.46208 23.5505 9.64958L23.5653 18.1454L21.8651 17.0175C21.8176 16.9794 21.7665 16.9458 21.7126 16.9174L12.248 10.6476L20.1091 7.36425C20.2832 7.29272 20.432 7.17136 20.537 7.01551L21.5452 5.49815ZM5.68904 8.17302L5.26864 9.0226L4.99333 9.57909L4.94125 9.71265L4.55433 10.9369L4.26415 11.8422L6.07224 12.4283L6.36242 11.5194L6.73446 10.3508L6.97256 9.87218L7.39296 9.01889L5.68904 8.17302ZM30.7865 11.3895L28.9003 11.5899L29.0008 12.5396L29.2128 14.4354L29.317 15.3814L31.2032 15.1774L31.0991 14.2277L30.8907 12.3356L30.7865 11.3895ZM13.7101 13.9012L19.9938 18.0637C19.3046 19.0954 18.1736 19.7628 16.8985 19.7777C15.3723 19.7967 13.9858 18.91 13.3678 17.5184C12.8352 16.3189 12.9995 14.9698 13.7101 13.9012ZM4.01488 14.0162L4.00744 14.9734L4 15.5929L4.00744 15.7376L4.18602 17.0064L4.31995 17.9524L6.19873 17.689L6.0648 16.7467L5.89738 15.5373L5.90482 14.9919L5.90854 14.0422L4.01488 14.0162ZM29.131 16.8914L28.8185 17.7892L28.2567 19.4216L28.2381 19.455L27.7991 20.2971L29.4844 21.1838L29.9197 20.3379L29.9681 20.2489L30.0239 20.1265L30.6117 18.4199L30.9242 17.5184L29.131 16.8914ZM47.2379 17.0843C48.8272 17.0843 50.0952 18.3486 50.0952 19.9336C50.0952 21.5183 48.8272 22.7828 47.2379 22.7828C45.6487 22.7828 44.3807 21.5183 44.3807 19.9336C44.3807 18.3486 45.6487 17.0843 47.2379 17.0843ZM6.76422 19.2212L5.0417 20.0152L5.43978 20.8796L5.63696 21.3174L5.70764 21.4398L6.4852 22.6381L7.00605 23.4357L8.59464 22.397L8.07379 21.5956L7.33344 20.4641L7.1623 20.0894L6.76422 19.2212ZM27.0364 21.7477L26.3705 22.4304L25.2432 23.5879L25.1279 23.6695L24.3727 24.2445L25.5185 25.7656L26.2738 25.1943L26.4412 25.0681L26.5453 24.9754L27.7284 23.7659L28.3906 23.087L27.0364 21.7477ZM9.78887 23.5062L8.57603 24.968L9.30522 25.5764L9.62517 25.8435L9.74051 25.9288L11.0129 26.7005L11.8276 27.1939L12.8061 25.5616L11.9876 25.0681L10.7859 24.3373L10.5181 24.1147L9.78887 23.5062ZM23.0594 25.2128L22.1702 25.5319L20.63 26.0847L20.5109 26.1106L19.5808 26.2924L19.9529 28.1585L20.883 27.9767L21.0839 27.9359L21.2215 27.8988L22.8101 27.3275L23.7067 27.0047L23.0594 25.2128ZM14.3612 26.0327L13.9036 27.8803L14.8262 28.114L15.1685 28.1993L15.3062 28.2253L16.8464 28.3737L17.7914 28.4664L17.9699 26.5707L17.025 26.4742L15.5554 26.3332L15.2838 26.2627L14.3612 26.0327ZM32.9518 45.5767C33.7736 45.5767 34.5955 45.7866 35.3328 46.2111C36.5127 46.8904 37.1817 48.0782 37.4609 49.3757H32.9518H28.4427C28.7218 48.0782 29.3909 46.8904 30.5708 46.2111C31.3081 45.7866 32.13 45.5767 32.9518 45.5767ZM17.7132 51.3494H48.1904V53.1005H17.7132V51.3494Z" fill="white"/>
</svg>
