<svg width="438" height="438" viewBox="0 0 438 438" fill="none" xmlns="http://www.w3.org/2000/svg">
<path d="M199.433 124.744C183.437 97.107 147.718 83.6123 116.645 90.9985C85.5716 98.3847 60.5102 124.473 51.3484 155.068C42.1866 185.663 48.0145 219.723 64.0191 247.36C80.0238 274.997 105.523 296.42 134.119 310.633C209.374 348.054 313.811 346.881 373.979 288.168C386.807 275.645 405.63 260.75 409.191 236.596C413.12 209.965 402.322 192.252 385.801 176.544C364.301 156.083 331.889 162.673 308.07 169.105C284.252 175.537 261.815 187.763 241.567 173.717" fill="#EBEBEB"/>
<path d="M412 415.228C412 415.359 324.908 415.456 217.504 415.456C110.101 415.456 23 415.359 23 415.228C23 415.096 110.066 415 217.504 415C324.943 415 412 415.105 412 415.228Z" fill="#263238"/>
<path d="M134 141C134 141 136.425 126.977 137.004 125.911C137.584 124.845 144.279 118.293 145.072 118.173C145.866 118.053 156.43 114.837 155.841 116.453C155.253 118.07 147.818 120.185 147.818 120.185L147.114 121.045C147.114 121.045 153.452 119.05 155.021 119.102C156.59 119.153 156.733 120.606 155.601 121.019C154.469 121.432 148.888 123.005 148.674 123.349C148.46 123.693 154.914 121.913 155.699 121.947C156.786 121.99 157.571 123.314 156.466 123.77C155.806 124.028 149.601 125.404 149.601 125.404C151.514 125.161 153.44 125.018 155.369 124.974C156.323 125.223 156.26 126.341 155.191 126.607C154.469 126.788 150.68 126.951 149.717 127.201C149.717 127.201 148.995 127.785 149.022 129.642C149.048 131.499 146.552 136.426 146.552 136.426L134 141Z" fill="#FFBE9D"/>
<path d="M155 117.005C154.595 117.529 154.094 117.97 153.523 118.301C152.928 118.707 152.297 119.057 151.639 119.348C150.892 119.631 150.06 119.923 149.194 120.206L147.336 120.842L147.438 120.781C146.377 121.944 145.227 123.02 144 124C144.944 122.747 145.982 121.571 147.106 120.481V120.438H147.166L148.999 119.786L151.435 118.928C152.078 118.663 152.702 118.354 153.302 118.001C154.372 117.426 154.958 116.945 155 117.005Z" fill="#EB996E"/>
<path d="M293.747 297.963L152.062 283.396C149.986 283.175 148.081 282.142 146.765 280.524C145.449 278.905 144.829 276.832 145.041 274.758L169.556 37.0345C169.864 34.0869 171.33 31.3813 173.634 29.511C175.937 27.6407 178.89 26.7582 181.844 27.0571L316.945 40.9414C319.899 41.2486 322.61 42.7121 324.484 45.011C326.358 47.3099 327.242 50.2567 326.943 53.2052L302.366 290.929C302.151 293 301.124 294.901 299.509 296.219C297.894 297.537 295.823 298.164 293.747 297.963Z" fill="#5E88FF"/>
<path opacity="0.4" d="M293.747 297.963L152.062 283.396C149.986 283.175 148.081 282.142 146.765 280.524C145.449 278.905 144.829 276.832 145.041 274.758L169.556 37.0345C169.864 34.0869 171.33 31.3813 173.634 29.511C175.937 27.6407 178.89 26.7582 181.844 27.0571L316.945 40.9414C319.899 41.2486 322.61 42.7121 324.484 45.011C326.358 47.3099 327.242 50.2567 326.943 53.2052L302.366 290.929C302.151 293 301.124 294.901 299.509 296.219C297.894 297.537 295.823 298.164 293.747 297.963Z" fill="black"/>
<path d="M279.75 296.963L138.062 282.405C135.984 282.184 134.078 281.15 132.762 279.529C131.447 277.909 130.828 275.834 131.041 273.759L155.614 36.0361C155.764 34.5757 156.201 33.1591 156.9 31.8672C157.599 30.5754 158.546 29.4336 159.687 28.507C160.828 27.5805 162.14 26.8874 163.55 26.4673C164.959 26.0473 166.437 25.9084 167.901 26.0588L302.945 39.9167C304.408 40.0666 305.828 40.5028 307.122 41.2003C308.416 41.8978 309.56 42.8429 310.488 43.9817C311.417 45.1206 312.111 46.4308 312.532 47.8375C312.953 49.2443 313.092 50.72 312.941 52.1804L288.368 289.912C288.158 291.986 287.133 293.892 285.518 295.213C283.903 296.535 281.829 297.164 279.75 296.963Z" fill="#5E88FF"/>
<path d="M206.612 232.32L158.098 227.221C156.939 227.099 155.899 227.963 155.774 229.15L153.714 248.718C153.589 249.905 154.427 250.967 155.585 251.089L204.099 256.188C205.258 256.309 206.298 255.445 206.423 254.258L208.483 234.69C208.608 233.503 207.77 232.441 206.612 232.32Z" fill="#5E88FF"/>
<g opacity="0.4">
<path opacity="0.4" d="M206.612 232.32L158.098 227.221C156.939 227.099 155.899 227.963 155.774 229.15L153.72 248.718C153.595 249.906 154.433 250.967 155.592 251.089L204.105 256.188C205.264 256.31 206.304 255.446 206.429 254.258L208.484 234.69C208.609 233.503 207.77 232.441 206.612 232.32Z" fill="black"/>
</g>
<path d="M165.54 52.2903L160 105L294.263 119.089L299.803 66.3793L165.54 52.2903Z" fill="#FAFAFA"/>
<path d="M293.407 119C293.407 119 293.407 118.675 293.486 118.059C293.565 117.443 293.635 116.52 293.748 115.324C293.985 112.914 294.335 109.378 294.79 104.814C295.665 95.6934 297.022 82.4921 298.667 66.1159L298.807 66.2918L164.637 52.4573L164.891 52.2551C162.991 70.7245 161.153 88.6222 159.455 105.139L159.263 104.893L255.411 114.954L283.333 117.901L290.816 118.71L292.751 118.921L293.416 119C293.416 119 293.197 119 292.768 118.947L290.86 118.763L283.42 118.024L255.499 115.201L159.219 105.333H159V105.122C160.689 88.5958 162.501 70.7245 164.409 52.2287V52H164.637L298.842 65.9576H299V66.1159C297.249 82.5361 295.893 95.7725 294.939 104.91C294.457 109.449 294.063 112.975 293.827 115.368C293.696 116.555 293.6 117.461 293.53 118.077L293.407 119Z" fill="#263238"/>
<path d="M186.057 129.213L166.817 127.191C165.813 127.085 164.914 127.813 164.809 128.817L162.783 148.057C162.678 149.06 163.405 149.959 164.409 150.065L183.649 152.087C184.653 152.192 185.552 151.464 185.657 150.461L187.683 131.221C187.788 130.217 187.061 129.319 186.057 129.213Z" fill="#C2B2F8"/>
<g opacity="0.4">
<path opacity="0.4" d="M186.057 129.213L166.817 127.191C165.813 127.085 164.915 127.813 164.809 128.817L162.787 148.057C162.681 149.061 163.409 149.959 164.412 150.065L183.653 152.087C184.657 152.193 185.555 151.465 185.661 150.462L187.683 131.221C187.789 130.217 187.061 129.319 186.057 129.213Z" fill="black"/>
</g>
<path d="M183.057 129.213L163.817 127.191C162.813 127.085 161.914 127.813 161.809 128.817L159.783 148.057C159.678 149.06 160.405 149.959 161.409 150.065L180.649 152.087C181.653 152.192 182.552 151.464 182.657 150.461L184.683 131.221C184.788 130.217 184.061 129.319 183.057 129.213Z" fill="#263238"/>
<path d="M174 134.388L173.092 144L171.031 143.771L171.775 135.968L170 135.765L170.172 134L174 134.388Z" fill="white"/>
<path d="M218.057 132.213L198.817 130.191C197.813 130.085 196.914 130.813 196.809 131.817L194.783 151.057C194.678 152.06 195.405 152.959 196.409 153.065L215.649 155.087C216.653 155.192 217.552 154.464 217.657 153.461L219.683 134.221C219.788 133.217 219.061 132.319 218.057 132.213Z" fill="#5E88FF"/>
<g opacity="0.4">
<path opacity="0.4" d="M218.057 132.213L198.817 130.191C197.813 130.085 196.915 130.813 196.809 131.817L194.787 151.057C194.681 152.061 195.409 152.959 196.412 153.065L215.653 155.087C216.657 155.193 217.555 154.465 217.661 153.462L219.683 134.221C219.789 133.217 219.061 132.319 218.057 132.213Z" fill="black"/>
</g>
<path d="M214.057 132.213L194.817 130.191C193.813 130.085 192.914 130.813 192.809 131.817L190.783 151.057C190.678 152.06 191.405 152.959 192.409 153.065L211.649 155.087C212.653 155.192 213.552 154.464 213.657 153.461L215.683 134.221C215.788 133.217 215.061 132.319 214.057 132.213Z" fill="#263238"/>
<path d="M208.76 146.269L208.567 148L201 147.273L201.157 145.862L205.392 142.807C206.37 142.106 206.583 141.639 206.629 141.18C206.712 140.444 206.214 139.959 205.152 139.856C204.752 139.803 204.344 139.843 203.964 139.973C203.585 140.102 203.245 140.318 202.975 140.6L201.397 139.414C201.918 138.882 202.572 138.479 203.3 138.242C204.028 138.005 204.807 137.941 205.568 138.055C207.801 138.272 209.176 139.483 208.982 141.188C208.89 142.106 208.52 142.919 206.989 143.993L204.46 145.81L208.76 146.269Z" fill="white"/>
<path d="M251.057 136.213L231.817 134.191C230.813 134.085 229.914 134.813 229.809 135.817L227.783 155.057C227.678 156.06 228.405 156.959 229.409 157.065L248.649 159.087C249.653 159.192 250.552 158.464 250.657 157.461L252.683 138.221C252.788 137.217 252.061 136.319 251.057 136.213Z" fill="#5E88FF"/>
<g opacity="0.4">
<path opacity="0.4" d="M251.057 136.213L231.817 134.191C230.813 134.085 229.915 134.813 229.809 135.817L227.787 155.057C227.681 156.061 228.409 156.959 229.412 157.065L248.653 159.087C249.656 159.193 250.555 158.465 250.661 157.462L252.683 138.221C252.789 137.217 252.061 136.319 251.057 136.213Z" fill="black"/>
</g>
<path d="M247.057 136.213L227.817 134.191C226.813 134.085 225.914 134.813 225.809 135.817L223.783 155.057C223.678 156.06 224.405 156.959 225.409 157.065L244.649 159.087C245.653 159.192 246.552 158.464 246.657 157.461L248.683 138.221C248.788 137.217 248.061 136.319 247.057 136.213Z" fill="#263238"/>
<path d="M241.738 148.299C241.572 149.898 240.192 151.236 237.493 150.965C236.219 150.85 235.005 150.367 234 149.575L235.022 147.975C235.754 148.621 236.671 149.019 237.642 149.112C238.742 149.225 239.467 148.85 239.546 148.072C239.624 147.294 239.135 146.857 237.895 146.725L236.891 146.621L237.039 145.17L239.214 143.159L235.179 142.748L235.362 141L242 141.682L241.852 143.107L239.459 145.327C240.148 145.433 240.769 145.801 241.194 146.355C241.619 146.909 241.814 147.605 241.738 148.299Z" fill="white"/>
<path d="M284.057 139.213L264.817 137.191C263.813 137.085 262.914 137.813 262.809 138.817L260.783 158.057C260.678 159.06 261.405 159.959 262.409 160.065L281.649 162.087C282.653 162.192 283.552 161.464 283.657 160.461L285.683 141.221C285.788 140.217 285.061 139.319 284.057 139.213Z" fill="#5E88FF"/>
<g opacity="0.4">
<path opacity="0.4" d="M284.057 139.213L264.817 137.191C263.813 137.085 262.915 137.813 262.809 138.817L260.787 158.057C260.681 159.061 261.409 159.959 262.412 160.065L281.653 162.087C282.657 162.193 283.555 161.465 283.661 160.462L285.683 141.221C285.789 140.217 285.061 139.319 284.057 139.213Z" fill="black"/>
</g>
<path d="M281.057 139.213L261.817 137.191C260.813 137.085 259.914 137.813 259.809 138.817L257.783 158.057C257.678 159.06 258.405 159.959 259.409 160.065L278.649 162.087C279.653 162.192 280.552 161.464 280.657 160.461L282.683 141.221C282.788 140.217 282.061 139.319 281.057 139.213Z" fill="#263238"/>
<path d="M265.105 148.005L265 149L274.945 150.044L275.05 149.049L265.105 148.005Z" fill="white"/>
<path d="M271.993 144.65C271.963 144.945 271.846 145.225 271.658 145.454C271.469 145.683 271.217 145.851 270.933 145.936C270.649 146.022 270.346 146.021 270.062 145.935C269.778 145.848 269.526 145.679 269.339 145.449C269.151 145.22 269.035 144.939 269.007 144.644C268.978 144.349 269.038 144.051 269.179 143.79C269.319 143.529 269.534 143.315 269.796 143.176C270.058 143.036 270.355 142.978 270.65 143.008C271.046 143.047 271.41 143.243 271.661 143.551C271.913 143.859 272.032 144.254 271.993 144.65Z" fill="white"/>
<path d="M270.992 153.65C270.963 153.946 270.846 154.226 270.657 154.455C270.468 154.684 270.215 154.852 269.93 154.937C269.646 155.022 269.342 155.021 269.058 154.934C268.775 154.846 268.523 154.676 268.336 154.446C268.149 154.215 268.034 153.934 268.006 153.639C267.979 153.343 268.04 153.046 268.182 152.785C268.323 152.524 268.539 152.311 268.802 152.172C269.065 152.034 269.363 151.977 269.658 152.008C270.052 152.05 270.414 152.246 270.664 152.554C270.914 152.862 271.032 153.256 270.992 153.65Z" fill="white"/>
<path d="M183.057 163.213L163.817 161.191C162.813 161.085 161.914 161.813 161.809 162.817L159.783 182.057C159.678 183.06 160.405 183.959 161.409 184.065L180.649 186.087C181.653 186.192 182.552 185.464 182.657 184.461L184.683 165.221C184.788 164.217 184.061 163.319 183.057 163.213Z" fill="#C2B2F8"/>
<g opacity="0.4">
<path opacity="0.4" d="M182.057 163.213L162.817 161.191C161.813 161.085 160.915 161.813 160.809 162.817L158.787 182.057C158.681 183.061 159.409 183.959 160.412 184.065L179.653 186.087C180.657 186.193 181.555 185.465 181.661 184.462L183.683 165.221C183.789 164.217 183.061 163.319 182.057 163.213Z" fill="black"/>
</g>
<path d="M179.057 162.213L159.817 160.191C158.813 160.085 157.914 160.813 157.809 161.817L155.783 181.057C155.678 182.06 156.405 182.959 157.409 183.065L176.649 185.087C177.653 185.192 178.552 184.464 178.657 183.461L180.683 164.221C180.788 163.217 180.061 162.319 179.057 162.213Z" fill="#263238"/>
<path d="M172.816 176.123L171.267 175.962L171.056 178L168.911 177.777L169.122 175.739L164 175.194L164.149 173.684L169.253 168L171.564 168.25L166.819 173.612L169.375 173.88L169.559 172.093L171.634 172.307L171.45 174.095L173 174.256L172.816 176.123Z" fill="white"/>
<path d="M215.057 166.213L195.817 164.191C194.813 164.085 193.914 164.813 193.809 165.817L191.783 185.057C191.678 186.06 192.405 186.959 193.409 187.065L212.649 189.087C213.653 189.192 214.552 188.464 214.657 187.461L216.683 168.221C216.788 167.217 216.061 166.319 215.057 166.213Z" fill="#C2B2F8"/>
<g opacity="0.4">
<path opacity="0.4" d="M214.057 166.213L194.817 164.191C193.813 164.085 192.915 164.813 192.809 165.817L190.787 185.057C190.681 186.061 191.409 186.959 192.412 187.065L211.653 189.087C212.657 189.193 213.555 188.465 213.661 187.462L215.683 168.221C215.789 167.217 215.061 166.319 214.057 166.213Z" fill="black"/>
</g>
<path d="M211.057 166.213L191.817 164.191C190.813 164.085 189.914 164.813 189.809 165.817L187.783 185.057C187.678 186.06 188.405 186.959 189.409 187.065L208.649 189.087C209.653 189.192 210.552 188.464 210.657 187.461L212.683 168.221C212.788 167.217 212.061 166.319 211.057 166.213Z" fill="#263238"/>
<path d="M203.876 178.198C203.707 179.894 202.297 181.245 199.548 180.962C198.254 180.845 197.022 180.357 196 179.558L197.055 177.951C197.798 178.604 198.73 179.003 199.716 179.09C200.834 179.205 201.57 178.816 201.65 178.03C201.729 177.244 201.286 176.732 199.539 176.555L197.073 176.299L198.129 171L204 171.601L203.823 173.367L199.805 172.952L199.459 174.762L200.248 174.842C203.06 175.107 204.053 176.493 203.876 178.198Z" fill="white"/>
<path d="M248.057 169.213L228.817 167.191C227.813 167.085 226.914 167.813 226.809 168.817L224.783 188.057C224.678 189.06 225.405 189.959 226.409 190.065L245.649 192.087C246.653 192.192 247.552 191.464 247.657 190.461L249.683 171.221C249.788 170.217 249.061 169.319 248.057 169.213Z" fill="#5E88FF"/>
<g opacity="0.4">
<path opacity="0.4" d="M247.057 169.213L227.817 167.191C226.813 167.085 225.915 167.813 225.809 168.817L223.787 188.057C223.681 189.061 224.409 189.959 225.413 190.065L244.653 192.087C245.657 192.193 246.555 191.465 246.661 190.462L248.683 171.221C248.789 170.217 248.061 169.319 247.057 169.213Z" fill="black"/>
</g>
<path d="M244.057 169.213L224.817 167.191C223.813 167.085 222.914 167.813 222.809 168.817L220.783 188.057C220.678 189.06 221.405 189.959 222.409 190.065L241.649 192.087C242.653 192.192 243.552 191.464 243.657 190.461L245.683 171.221C245.788 170.217 245.061 169.319 244.057 169.213Z" fill="#263238"/>
<path d="M237.729 182.133C237.527 184.109 235.811 185.187 233.807 184.973C231.181 184.697 229.727 182.854 230.043 179.737C230.384 176.389 232.555 174.732 235.418 175.035C236.346 175.107 237.239 175.433 238 175.979L237.02 177.538C236.516 177.139 235.906 176.903 235.269 176.861C233.675 176.7 232.564 177.546 232.31 179.39C232.655 179.128 233.048 178.939 233.466 178.834C233.884 178.729 234.318 178.709 234.743 178.775C235.161 178.78 235.574 178.872 235.955 179.047C236.336 179.221 236.678 179.474 236.958 179.789C237.239 180.105 237.452 180.476 237.584 180.879C237.717 181.282 237.766 181.709 237.729 182.133ZM235.584 182.017C235.606 181.81 235.585 181.6 235.521 181.402C235.458 181.204 235.353 181.022 235.215 180.869C235.076 180.715 234.907 180.594 234.719 180.512C234.53 180.431 234.327 180.391 234.122 180.396C233.921 180.352 233.713 180.352 233.511 180.393C233.309 180.435 233.118 180.519 232.95 180.639C232.782 180.76 232.639 180.914 232.532 181.093C232.425 181.272 232.355 181.471 232.327 181.678C232.24 182.507 232.791 183.174 233.851 183.29C234.046 183.331 234.248 183.33 234.442 183.287C234.637 183.243 234.821 183.159 234.982 183.039C235.143 182.919 235.277 182.766 235.376 182.59C235.475 182.414 235.537 182.219 235.558 182.017H235.584Z" fill="white"/>
<path d="M281.057 173.213L261.817 171.191C260.813 171.085 259.914 171.813 259.809 172.817L257.783 192.057C257.678 193.06 258.405 193.959 259.409 194.065L278.649 196.087C279.653 196.192 280.552 195.464 280.657 194.461L282.683 175.221C282.788 174.217 282.061 173.319 281.057 173.213Z" fill="#5E88FF"/>
<g opacity="0.4">
<path opacity="0.4" d="M280.057 173.213L260.817 171.191C259.813 171.085 258.915 171.813 258.809 172.817L256.787 192.057C256.681 193.061 257.409 193.959 258.413 194.065L277.653 196.087C278.657 196.193 279.555 195.465 279.661 194.462L281.683 175.221C281.789 174.217 281.061 173.319 280.057 173.213Z" fill="black"/>
</g>
<path d="M277.057 172.213L257.817 170.191C256.813 170.085 255.914 170.813 255.809 171.817L253.783 191.057C253.678 192.06 254.405 192.959 255.409 193.065L274.649 195.087C275.653 195.192 276.552 194.464 276.657 193.461L278.683 174.221C278.788 173.217 278.061 172.319 277.057 172.213Z" fill="#263238"/>
<path d="M269.88 179.843L262 186L262.616 186.788L270.496 180.631L269.88 179.843Z" fill="white"/>
<path d="M263.777 178.371L263 179L269.299 186.766L270.077 186.137L263.777 178.371Z" fill="white"/>
<path d="M179.057 196.213L159.817 194.191C158.813 194.085 157.914 194.813 157.809 195.817L155.783 215.057C155.678 216.06 156.405 216.959 157.409 217.065L176.649 219.087C177.653 219.192 178.552 218.464 178.657 217.461L180.683 198.221C180.788 197.217 180.061 196.319 179.057 196.213Z" fill="#C2B2F8"/>
<g opacity="0.4">
<path opacity="0.4" d="M179.057 196.213L159.817 194.191C158.813 194.085 157.915 194.813 157.809 195.817L155.787 215.057C155.681 216.061 156.409 216.959 157.412 217.065L176.653 219.087C177.657 219.193 178.555 218.465 178.661 217.462L180.683 198.221C180.789 197.217 180.061 196.319 179.057 196.213Z" fill="black"/>
</g>
<path d="M176.057 196.213L156.817 194.191C155.813 194.085 154.914 194.813 154.809 195.817L152.783 215.057C152.678 216.06 153.405 216.959 154.409 217.065L173.649 219.087C174.653 219.192 175.552 218.464 175.657 217.461L177.683 198.221C177.788 197.217 177.061 196.319 176.057 196.213Z" fill="#263238"/>
<path d="M169 201.785L168.851 203.222L164.465 211L162.07 210.744L166.281 203.328L163.123 203.002L162.965 204.563L161 204.36L161.351 201L169 201.785Z" fill="white"/>
<path d="M211.057 199.213L191.817 197.191C190.813 197.085 189.914 197.813 189.809 198.817L187.783 218.057C187.678 219.06 188.405 219.959 189.409 220.065L208.649 222.087C209.653 222.192 210.552 221.464 210.657 220.461L212.683 201.221C212.788 200.217 212.061 199.319 211.057 199.213Z" fill="#5E88FF"/>
<g opacity="0.4">
<path opacity="0.4" d="M211.057 199.213L191.817 197.191C190.813 197.085 189.915 197.813 189.809 198.817L187.787 218.057C187.681 219.061 188.409 219.959 189.412 220.065L208.653 222.087C209.657 222.193 210.555 221.465 210.661 220.462L212.683 201.221C212.789 200.217 212.061 199.319 211.057 199.213Z" fill="black"/>
</g>
<path d="M208.057 199.213L188.817 197.191C187.813 197.085 186.914 197.813 186.809 198.817L184.783 218.057C184.678 219.06 185.405 219.959 186.409 220.065L205.649 222.087C206.653 222.192 207.552 221.464 207.657 220.461L209.683 201.221C209.788 200.217 209.061 199.319 208.057 199.213Z" fill="#263238"/>
<path d="M200.867 211.432C200.687 213.2 199.005 214.217 196.636 213.961C194.268 213.704 192.835 212.405 193.015 210.601C193.056 210.122 193.233 209.666 193.525 209.29C193.816 208.914 194.209 208.635 194.654 208.489C194.342 208.25 194.098 207.93 193.947 207.562C193.796 207.193 193.744 206.79 193.796 206.394C193.968 204.705 195.512 203.812 197.649 204.033C199.786 204.254 201.15 205.474 200.987 207.163C200.952 207.563 200.813 207.947 200.586 208.273C200.358 208.6 200.049 208.858 199.691 209.019C200.096 209.257 200.423 209.614 200.633 210.043C200.842 210.472 200.923 210.956 200.867 211.432ZM198.687 211.132C198.773 210.248 198.147 209.691 197.074 209.576C196.001 209.461 195.289 209.912 195.203 210.761C195.118 211.609 195.727 212.219 196.799 212.334C197.872 212.449 198.61 211.945 198.721 211.097L198.687 211.132ZM195.907 206.712C195.83 207.437 196.345 207.949 197.22 208.047C198.095 208.144 198.73 207.746 198.807 207.021C198.885 206.296 198.344 205.748 197.46 205.66C196.576 205.571 195.976 205.934 195.907 206.685V206.712Z" fill="white"/>
<path d="M244.057 203.213L224.817 201.191C223.813 201.085 222.914 201.813 222.809 202.817L220.783 222.057C220.678 223.06 221.405 223.959 222.409 224.065L241.649 226.087C242.653 226.192 243.552 225.464 243.657 224.461L245.683 205.221C245.788 204.217 245.061 203.319 244.057 203.213Z" fill="#5E88FF"/>
<g opacity="0.4">
<path opacity="0.4" d="M244.057 203.213L224.817 201.191C223.813 201.085 222.915 201.813 222.809 202.817L220.787 222.057C220.681 223.061 221.409 223.959 222.412 224.065L241.653 226.087C242.657 226.193 243.555 225.465 243.661 224.462L245.683 205.221C245.789 204.217 245.061 203.319 244.057 203.213Z" fill="black"/>
</g>
<path d="M240.057 201.213L220.817 199.191C219.813 199.085 218.914 199.813 218.809 200.817L216.783 220.057C216.678 221.06 217.405 221.959 218.409 222.065L237.649 224.087C238.653 224.192 239.552 223.464 239.657 222.461L241.683 203.221C241.788 202.217 241.061 201.319 240.057 201.213Z" fill="#263238"/>
<path d="M233.955 213.263C233.613 216.611 231.455 218.268 228.57 217.965C227.645 217.896 226.757 217.573 226 217.03L226.982 215.471C227.486 215.872 228.098 216.105 228.736 216.139C230.315 216.3 231.447 215.454 231.701 213.601C231.352 213.865 230.956 214.055 230.534 214.162C230.113 214.269 229.675 214.291 229.245 214.225C228.828 214.217 228.417 214.121 228.038 213.945C227.659 213.769 227.32 213.516 227.041 213.201C226.762 212.887 226.55 212.517 226.418 212.115C226.285 211.714 226.236 211.289 226.272 210.867C226.474 208.891 228.193 207.813 230.21 208.027C232.832 208.303 234.279 210.146 233.955 213.263ZM231.666 211.322C231.745 210.493 231.192 209.826 230.149 209.71C229.951 209.671 229.748 209.675 229.552 209.72C229.357 209.766 229.172 209.853 229.012 209.975C228.851 210.098 228.717 210.253 228.619 210.431C228.521 210.609 228.461 210.806 228.443 211.009C228.424 211.212 228.448 211.417 228.512 211.611C228.576 211.804 228.68 211.981 228.816 212.132C228.952 212.282 229.117 212.401 229.301 212.483C229.485 212.564 229.684 212.605 229.885 212.604C230.087 212.648 230.294 212.648 230.496 212.606C230.697 212.564 230.888 212.481 231.056 212.36C231.224 212.24 231.366 212.085 231.472 211.907C231.579 211.728 231.648 211.529 231.675 211.322H231.666Z" fill="white"/>
<path d="M277.057 206.213L257.817 204.191C256.813 204.085 255.914 204.813 255.809 205.817L253.783 225.057C253.678 226.06 254.405 226.959 255.409 227.065L274.649 229.087C275.653 229.192 276.552 228.464 276.657 227.461L278.683 208.221C278.788 207.217 278.061 206.319 277.057 206.213Z" fill="#5E88FF"/>
<g opacity="0.4">
<path opacity="0.4" d="M277.057 206.213L257.817 204.191C256.813 204.085 255.915 204.813 255.809 205.817L253.787 225.057C253.681 226.061 254.409 226.959 255.412 227.065L274.653 229.087C275.657 229.193 276.555 228.465 276.661 227.461L278.683 208.221C278.789 207.217 278.061 206.319 277.057 206.213Z" fill="black"/>
</g>
<path d="M274.057 206.213L254.817 204.191C253.813 204.085 252.914 204.813 252.809 205.817L250.783 225.057C250.678 226.06 251.405 226.959 252.409 227.065L271.649 229.087C272.653 229.192 273.552 228.464 273.657 227.461L275.683 208.221C275.788 207.217 275.061 206.319 274.057 206.213Z" fill="#263238"/>
<path d="M258.105 215.005L258 216L267.945 217.044L268.05 216.049L258.105 215.005Z" fill="white"/>
<path d="M241.057 236.213L221.817 234.191C220.813 234.085 219.914 234.813 219.809 235.817L217.783 255.057C217.678 256.06 218.405 256.959 219.409 257.065L238.649 259.087C239.653 259.192 240.552 258.464 240.657 257.461L242.683 238.221C242.788 237.217 242.061 236.319 241.057 236.213Z" fill="#5E88FF"/>
<g opacity="0.4">
<path opacity="0.4" d="M240.057 236.213L220.817 234.191C219.813 234.085 218.915 234.813 218.809 235.817L216.787 255.057C216.681 256.061 217.409 256.959 218.412 257.065L237.653 259.087C238.657 259.193 239.555 258.465 239.661 257.461L241.683 238.221C241.789 237.217 241.061 236.319 240.057 236.213Z" fill="black"/>
</g>
<path d="M237.057 236.213L217.817 234.191C216.813 234.085 215.914 234.813 215.809 235.817L213.783 255.057C213.678 256.06 214.405 256.959 215.409 257.065L234.649 259.087C235.653 259.192 236.552 258.464 236.657 257.461L238.683 238.221C238.788 237.217 238.061 236.319 237.057 236.213Z" fill="#263238"/>
<path d="M274.057 239.213L254.817 237.191C253.813 237.085 252.914 237.813 252.809 238.817L250.783 258.057C250.678 259.06 251.405 259.959 252.409 260.065L271.649 262.087C272.653 262.192 273.552 261.464 273.657 260.461L275.683 241.221C275.788 240.217 275.061 239.319 274.057 239.213Z" fill="#5E88FF"/>
<g opacity="0.4">
<path opacity="0.4" d="M273.057 239.213L253.817 237.191C252.813 237.085 251.915 237.813 251.809 238.817L249.787 258.057C249.681 259.061 250.409 259.959 251.412 260.065L270.653 262.087C271.656 262.193 272.555 261.465 272.661 260.462L274.683 241.221C274.789 240.217 274.061 239.319 273.057 239.213Z" fill="black"/>
</g>
<path d="M270.057 239.213L250.817 237.191C249.813 237.085 248.914 237.813 248.809 238.817L246.783 258.057C246.678 259.06 247.405 259.959 248.409 260.065L267.649 262.087C268.653 262.192 269.552 261.464 269.657 260.461L271.683 241.221C271.788 240.217 271.061 239.319 270.057 239.213Z" fill="#455A64"/>
<path d="M254.105 247.005L254 248L263.945 249.044L264.05 248.049L254.105 247.005Z" fill="white"/>
<path d="M254.105 251.005L254 252L263.945 253.044L264.05 252.049L254.105 251.005Z" fill="white"/>
<path d="M202.536 232.522L152.163 227.227C150.968 227.102 149.895 227.995 149.766 229.222L147.721 248.647C147.592 249.873 148.456 250.97 149.65 251.095L200.023 256.39C201.218 256.515 202.291 255.623 202.42 254.396L204.465 234.971C204.594 233.744 203.73 232.647 202.536 232.522Z" fill="#263238"/>
<path d="M174.042 240.578C174.356 237.397 176.227 235.784 178.497 236.023C180.768 236.263 182.273 238.248 181.958 241.429C181.644 244.61 179.79 246.223 177.511 245.975C175.232 245.727 173.727 243.751 174.042 240.578ZM179.807 241.199C180.028 239.01 179.373 238.026 178.31 237.911C177.247 237.796 176.423 238.62 176.21 240.809C175.997 242.998 176.644 243.981 177.698 244.096C178.753 244.212 179.594 243.379 179.807 241.199Z" fill="white"/>
<path d="M226.219 241.075L225 251L225.993 251.122L227.211 241.196L226.219 241.075Z" fill="white"/>
<path d="M221.105 245.005L221 246L230.945 247.044L231.05 246.049L221.105 245.005Z" fill="white"/>
<path d="M216 84.4483L214.631 99L214 98.9283L215.344 85.0221L212 84.6455L212.057 84L216 84.4483Z" fill="#263238"/>
<path d="M228.739 100.366L228.669 101L219 100.005L219.053 99.5126L225.803 93.9767C227.737 92.4014 228.203 91.398 228.326 90.2363C228.52 88.3353 227.324 86.9799 224.81 86.7159C224.02 86.5735 223.208 86.6137 222.436 86.8334C221.663 87.053 220.951 87.4463 220.354 87.9832L219.932 87.4904C220.605 86.9033 221.399 86.4726 222.257 86.2291C223.116 85.9856 224.018 85.9355 224.898 86.0822C227.623 86.3638 229.214 87.948 228.977 90.2539C228.836 91.6093 228.291 92.7446 226.217 94.4256L220.064 99.4686L228.739 100.366Z" fill="#263238"/>
<path d="M240.404 97.3998C240.148 99.7951 238.232 101.303 234.959 100.948C233.995 100.898 233.053 100.648 232.197 100.215C231.342 99.7819 230.592 99.1758 230 98.4378L230.44 97.9854C230.985 98.67 231.677 99.2322 232.469 99.6335C233.26 100.035 234.131 100.265 235.023 100.31C237.865 100.594 239.497 99.4225 239.726 97.3111C239.955 95.1997 238.644 93.7625 235.491 93.4166L234.666 93.3278L234.721 92.8399L239.973 87.4549L231.769 86.6387L231.833 86L241 86.8871L240.945 87.3751L235.665 92.7778C239.112 93.1504 240.661 94.9957 240.404 97.3998Z" fill="#263238"/>
<path d="M253.956 98.3014L250.857 97.9939L250.436 102L249.76 101.932L250.181 97.9256L242 97.0714L242.053 96.593L250.928 88L251.718 88.0769L242.939 96.5674L250.234 97.302L250.603 93.7742L251.279 93.8426L250.901 97.3618L254 97.6778L253.956 98.3014Z" fill="#263238"/>
<path d="M256.996 102.737C256.95 102.984 256.872 103.225 256.766 103.458L255.602 106L255 105.949L256.053 103.297C255.851 103.269 255.67 103.174 255.551 103.033C255.431 102.893 255.383 102.718 255.416 102.547C255.45 102.376 255.562 102.223 255.728 102.122C255.895 102.021 256.102 101.981 256.304 102.009C256.509 102.03 256.696 102.118 256.826 102.254C256.955 102.39 257.016 102.564 256.996 102.737Z" fill="#263238"/>
<path d="M270.93 100.301L267.844 99.9927L267.424 104L266.749 103.931L267.169 99.9242L259 99.0679L259.053 98.5884L267.906 90L268.695 90.0856L259.929 98.5969L267.213 99.3248L267.581 95.7884L268.256 95.8569L267.906 99.3933L271 99.7015L270.93 100.301Z" fill="#263238"/>
<path d="M280.693 102.277C280.455 104.64 278.717 106.296 275.583 105.956C274.691 105.902 273.821 105.648 273.03 105.211C272.24 104.774 271.547 104.164 271 103.423L271.426 102.966C271.93 103.66 272.573 104.229 273.308 104.634C274.044 105.039 274.855 105.27 275.685 105.311C278.385 105.607 279.859 104.255 280.063 102.197C280.284 99.9591 279.143 98.4913 275.191 98.0617L272.508 97.7753L273.871 91L281 91.7787L280.94 92.4231L274.356 91.7071L273.223 97.2025L275.353 97.4352C279.578 97.8916 280.94 99.6995 280.693 102.277Z" fill="#263238"/>
<path d="M125.595 393L120 413.371L138.182 415L142 395.608L125.595 393Z" fill="#5E88FF"/>
<path d="M139 413.97C138.12 414.028 137.236 414.001 136.362 413.89C134.726 413.769 132.475 413.535 129.987 413.245L123.638 412.439C122.746 412.378 121.863 412.237 121 412.02C121.881 411.974 122.764 412.007 123.638 412.117C125.274 412.238 127.525 412.472 130.013 412.762L136.362 413.568C137.252 413.633 138.135 413.768 139 413.97Z" fill="#263238"/>
<g opacity="0.6">
<path opacity="0.6" d="M120 414.255L137.717 416L138 414.404L120.514 412L120.026 414.032" fill="white"/>
</g>
<path d="M129 413C130.056 407.603 131.391 402.263 133 397C132.538 399.711 131.931 402.396 131.182 405.045C130.595 407.732 129.867 410.387 129 413Z" fill="#263238"/>
<path d="M137.514 414C137.802 412.734 137.802 411.42 137.514 410.153C137.191 408.793 136.497 407.547 135.507 406.553C134.272 405.358 132.66 404.622 130.942 404.466C129.227 404.291 127.501 404.681 126.032 405.576C124.839 406.326 123.856 407.361 123.172 408.586C122.564 409.736 122.17 410.986 122.009 412.275C121.997 412.184 121.997 412.092 122.009 412.002C122.005 411.74 122.02 411.478 122.053 411.218C122.181 410.249 122.482 409.31 122.941 408.445C123.616 407.145 124.619 406.041 125.854 405.241C127.392 404.277 129.213 403.855 131.022 404.044C132.837 404.208 134.536 404.996 135.826 406.271C136.848 407.329 137.55 408.649 137.851 410.083C138.05 411.041 138.05 412.029 137.851 412.988C137.794 413.246 137.717 413.499 137.62 413.745C137.597 413.834 137.561 413.92 137.514 414Z" fill="#263238"/>
<path d="M200.622 391.519L199.529 407.52C199.529 407.52 215.902 412.802 216 415.775L184 416L184.649 391L200.622 391.519Z" fill="#5E88FF"/>
<g opacity="0.6">
<path opacity="0.6" d="M189.78 406.015C189.529 406.085 189.313 406.245 189.171 406.465C189.029 406.685 188.973 406.95 189.012 407.209C189.071 407.465 189.225 407.689 189.443 407.833C189.661 407.977 189.926 408.031 190.182 407.983C190.447 407.908 190.675 407.738 190.823 407.505C190.972 407.271 191.029 406.991 190.986 406.717C190.897 406.458 190.713 406.243 190.47 406.118C190.228 405.992 189.948 405.966 189.687 406.044" fill="white"/>
</g>
<g opacity="0.6">
<path opacity="0.6" d="M184 415.969L184.168 413L214.824 414.017C215.148 414.209 215.425 414.491 215.63 414.837C215.836 415.183 215.963 415.583 216 416L184 415.969Z" fill="white"/>
</g>
<path d="M199.999 407.168C199.999 407.336 199.2 407.382 198.401 407.886C197.602 408.389 197.18 409.061 197.037 408.996C196.893 408.93 197.153 407.988 198.123 407.392C199.092 406.795 200.035 407.019 199.999 407.168Z" fill="#263238"/>
<path d="M203 409.059C203 409.183 202.409 409.38 201.907 409.913C201.405 410.445 201.243 411.007 201.097 411C200.951 410.993 200.886 410.27 201.526 409.614C202.166 408.957 203.008 408.935 203 409.059Z" fill="#263238"/>
<path d="M205.114 413C205.019 413 204.889 412.138 205.173 411.195C205.457 410.253 205.955 409.882 205.996 410.032C206.038 410.183 205.724 410.684 205.499 411.466C205.274 412.248 205.22 412.99 205.114 413Z" fill="#263238"/>
<path d="M198.995 403.822C198.931 404.015 198.291 403.689 197.5 403.737C196.709 403.786 196.078 404.135 196.006 403.942C195.934 403.749 196.549 403.038 197.484 403.001C198.419 402.965 199.066 403.665 198.995 403.822Z" fill="#263238"/>
<g opacity="0.3">
<path opacity="0.3" d="M200 394.302L199.803 397L184 396.428L184.063 394L200 394.302Z" fill="black"/>
</g>
<path d="M200 400.876C199.448 401.009 198.872 400.989 198.33 400.819C197.73 400.69 197.147 400.487 196.595 400.214C196.272 400.055 195.962 399.872 195.667 399.665C195.481 399.556 195.315 399.415 195.175 399.249C195.071 399.127 195.009 398.974 195.001 398.812C194.993 398.651 195.038 398.491 195.129 398.359C195.215 398.248 195.325 398.158 195.451 398.096C195.576 398.033 195.713 398.001 195.853 398C196.065 398.004 196.274 398.043 196.474 398.114C196.83 398.211 197.174 398.344 197.504 398.511C198.062 398.785 198.572 399.15 199.017 399.589C199.768 400.346 200.019 400.97 199.944 400.999C199.87 401.027 199.508 400.526 198.738 399.892C198.291 399.528 197.798 399.226 197.272 398.993C196.973 398.856 196.663 398.745 196.344 398.662C195.992 398.558 195.695 398.539 195.593 398.662C195.491 398.785 195.593 398.747 195.593 398.851C195.7 398.971 195.822 399.076 195.955 399.164C196.246 399.365 196.533 399.545 196.818 399.703C197.328 399.979 197.862 400.207 198.413 400.384C198.952 400.514 199.482 400.678 200 400.876Z" fill="#263238"/>
<path d="M199.44 400C199.113 399.531 198.962 398.986 199.008 398.44C198.989 397.504 199.274 396.583 199.831 395.78C199.937 395.572 200.103 395.391 200.314 395.254C200.525 395.117 200.774 395.03 201.035 395C201.202 395.006 201.362 395.054 201.497 395.137C201.633 395.22 201.737 395.336 201.797 395.47C201.885 395.657 201.944 395.854 201.972 396.055C202.036 396.534 201.99 397.02 201.837 397.484C201.683 397.948 201.425 398.381 201.076 398.759C200.325 399.574 199.564 399.734 199.553 399.645C199.543 399.557 200.14 399.282 200.716 398.502C201.051 398.054 201.269 397.549 201.354 397.021C201.406 396.713 201.406 396.399 201.354 396.09C201.354 395.754 201.169 395.479 201.025 395.505C200.881 395.532 200.521 395.745 200.356 396.011C200.165 396.295 200 396.591 199.862 396.897C199.64 397.404 199.502 397.935 199.451 398.475C199.368 399.388 199.543 399.973 199.44 400Z" fill="#263238"/>
<path d="M131.615 138.027C131.615 138.027 128.179 156.771 125.464 168.114C123.32 176.914 117.785 193.441 127.81 198.237C137.836 203.033 151.28 183.664 151.28 183.664L157 139.541C153.02 140.289 148.503 144.918 143.697 151.72L144.576 135L131.615 138.027Z" fill="#FFEDE0"/>
<path d="M270.312 166.447L264.946 169L260 161.26L262.889 155.288C263.166 154.735 263.461 154.119 263.783 153.405C264.141 152.569 264.355 151.679 264.418 150.771C264.543 149.654 264.515 148.525 264.337 147.415C264.069 146.415 265.124 145.63 265.84 146.183C266.555 146.737 267.36 149.486 266.833 152.78C266.305 156.074 270.133 152.584 271.555 151.334C272.977 150.084 277.547 146.442 278.271 146.585C279.317 146.79 279.291 147.986 277.842 149.191C276.393 150.397 272.306 154.351 272.977 155.083C273.815 155.177 274.602 155.53 275.231 156.091C275.859 156.653 276.296 157.395 276.482 158.216C276.84 159.832 277.135 162.073 276.223 162.814C274.333 164.15 272.358 165.364 270.312 166.447Z" fill="#FFBE9D"/>
<path d="M167.141 94.5674L167 140.04L186.699 141L187.272 129.944C187.272 129.944 194.274 131.323 196.09 124.883C197.245 120.772 196.972 89 196.972 89L167.141 94.5674Z" fill="#FFBE9D"/>
<path d="M201.239 93.5721C199.923 96.2779 193.675 101.237 193.675 101.237L190.852 108.789C188.403 106.875 185.109 106.988 184.49 111.286C184.037 114.4 187.906 115.027 187.906 115.027C185.649 118.855 184.124 121.987 180.848 125.589C177.293 129.539 175.306 129.939 171.454 130H167.202C167.202 130 158.488 122.744 160.23 103.647C161.973 84.55 179.149 90.1268 183.253 85.3765C189.937 77.5811 205.622 84.5326 201.239 93.5721Z" fill="#263238"/>
<path d="M161 120.929H161.542C162.062 120.919 162.581 120.86 163.09 120.751C164.959 120.319 166.686 119.401 168.101 118.087C170.129 116.065 171.84 113.738 173.173 111.188C174.047 109.793 174.869 108.31 175.919 106.881C176.975 105.378 178.273 104.067 179.757 103C181.285 101.996 182.971 101.266 184.742 100.842C186.438 100.398 188.109 100.123 189.683 99.8124C192.831 99.2174 195.655 98.3294 197.553 96.8109C199.106 95.6572 200.231 94.0053 200.745 92.1223C200.869 91.6108 200.934 91.0862 200.937 90.5594C200.937 90.1954 200.937 90 200.937 90C200.937 90 200.937 90.1954 200.998 90.5594C201.01 91.0909 200.957 91.6217 200.841 92.1401C200.344 94.0528 199.221 95.7373 197.658 96.9175C195.717 98.4626 192.866 99.3772 189.718 99.9722C188.135 100.292 186.473 100.567 184.786 101.02C183.035 101.443 181.367 102.163 179.854 103.151C178.392 104.212 177.11 105.508 176.058 106.987C175.018 108.408 174.152 109.882 173.321 111.276C171.972 113.835 170.241 116.165 168.188 118.185C166.755 119.512 165.003 120.431 163.107 120.849C162.592 120.951 162.068 121.002 161.542 121C161.184 120.956 161 120.929 161 120.929Z" fill="#455A64"/>
<path d="M160 104.381C160 104.381 160.308 104.258 160.88 104.067C161.755 103.761 162.661 103.548 163.581 103.43C165.046 103.208 166.542 103.518 167.795 104.302C168.182 104.557 168.515 104.886 168.773 105.27C169.031 105.653 169.21 106.083 169.3 106.536C169.405 107.046 169.379 107.575 169.226 108.073C169.072 108.572 168.795 109.024 168.42 109.389C167.993 109.762 167.449 109.977 166.88 110C166.289 110.008 165.708 109.854 165.2 109.555C164.122 108.921 163.32 107.914 162.947 106.728C162.524 105.478 162.466 104.135 162.78 102.854C163.104 101.5 163.845 100.28 164.901 99.3636C166.005 98.3819 167.394 97.7712 168.869 97.6186C170.396 97.5239 171.928 97.7194 173.382 98.1944C174.878 98.6705 176.407 99.0351 177.957 99.2851C179.558 99.4945 181.179 99.4945 182.779 99.2851C184.381 99.0961 185.944 98.6665 187.415 98.0112C188.135 97.7236 188.785 97.2868 189.32 96.73C189.856 96.1732 190.265 95.5094 190.521 94.7829C190.731 94.0715 190.746 93.3177 190.565 92.5986C190.384 91.8795 190.014 91.2211 189.492 90.6908C188.961 90.215 188.3 89.9057 187.593 89.8016C186.885 89.6976 186.162 89.8036 185.515 90.1062C184.885 90.3804 184.37 90.861 184.055 91.4673C183.754 92.0634 183.644 92.7358 183.738 93.3956C183.828 94.0271 184.052 94.6324 184.397 95.1711C184.741 95.7097 185.197 96.1693 185.735 96.5192C186.77 97.1489 187.961 97.4812 189.175 97.479C190.295 97.4989 191.41 97.3338 192.474 96.9904C194.319 96.4147 195.995 95.4025 197.358 94.0412C198.394 93.0293 199.248 91.8489 199.883 90.5512C200.283 89.7135 200.593 88.8361 200.806 87.9336C200.921 87.3228 201 87 201 87L200.842 87.9423C200.646 88.8443 200.351 89.7221 199.962 90.5599C199.341 91.8815 198.489 93.0837 197.445 94.111C196.08 95.4933 194.395 96.5236 192.536 97.1125C191.456 97.4583 190.327 97.6292 189.193 97.6186C187.952 97.6263 186.733 97.291 185.673 96.6501C185.115 96.2902 184.641 95.8159 184.282 95.2591C183.924 94.7022 183.691 94.0757 183.597 93.4218C183.493 92.7299 183.607 92.023 183.923 91.3975C184.256 90.7585 184.799 90.2509 185.462 89.9578C186.14 89.639 186.899 89.5268 187.641 89.6356C188.383 89.7443 189.076 90.069 189.633 90.5686C190.176 91.1201 190.563 91.8047 190.753 92.5527C190.943 93.3007 190.93 94.0853 190.715 94.8265C190.451 95.5781 190.029 96.2654 189.477 96.843C188.924 97.4206 188.255 97.8753 187.512 98.177C186.023 98.8371 184.442 99.2723 182.823 99.4683C181.205 99.6734 179.567 99.6734 177.948 99.4683C176.393 99.2162 174.858 98.8516 173.356 98.3777C171.921 97.9106 170.412 97.7123 168.904 97.7931C167.881 97.9011 166.896 98.2352 166.02 98.7708C165.145 99.3064 164.402 100.03 163.845 100.888C163.289 101.746 162.934 102.717 162.806 103.729C162.678 104.741 162.78 105.769 163.106 106.736C163.468 107.887 164.244 108.866 165.288 109.485C165.772 109.772 166.325 109.923 166.889 109.921C167.428 109.901 167.944 109.698 168.35 109.345C168.706 108.992 168.969 108.558 169.115 108.08C169.26 107.602 169.285 107.095 169.185 106.606C169.009 105.725 168.491 104.948 167.742 104.442C166.509 103.665 165.035 103.356 163.59 103.569C162.674 103.679 161.772 103.88 160.897 104.171L160 104.381Z" fill="#455A64"/>
<path d="M147.267 229L121 400.285L142.819 403.027L173.596 259.37L181.354 404L205 403.588L201.081 229.403L147.267 229Z" fill="#263238"/>
<path d="M180.756 404V403.579L173.268 262.126L143.412 403.079L121 400.22L147.095 228L201.108 228.403L205 403.623L180.756 404ZM173.774 255.452L181.628 403.114L204.153 402.719L200.296 229.237L147.845 228.877L121.995 399.457L142.722 402.088L173.774 255.452Z" fill="#263238"/>
<path d="M198.228 403C198.097 403 198 368.751 198 326.509C198 284.266 198.097 250 198.228 250C198.36 250 198.456 284.249 198.456 326.509C198.456 368.769 198.351 403 198.228 403Z" fill="#455A64"/>
<path d="M138 402C138.006 401.876 138.024 401.753 138.053 401.632C138.053 401.361 138.167 401.002 138.254 400.547C138.438 399.576 138.71 398.176 139.052 396.39C139.788 392.759 140.805 387.551 142.129 381.119C144.759 368.228 148.485 350.446 152.764 330.842C157.042 311.239 161.066 293.509 164.047 280.706C165.546 274.317 166.764 269.145 167.615 265.54C168.044 263.789 168.386 262.389 168.614 261.426C168.728 260.971 168.825 260.621 168.886 260.359C168.916 260.237 168.954 260.117 169 260C169 260 169 260.123 168.93 260.368C168.86 260.613 168.807 260.989 168.711 261.444C168.492 262.415 168.185 263.807 167.79 265.583C166.975 269.189 165.809 274.335 164.362 280.776C161.46 293.605 157.489 311.336 153.211 330.939C148.932 350.542 145.154 368.316 142.445 381.18C141.086 387.604 139.99 392.802 139.227 396.425C138.85 398.176 138.552 399.593 138.351 400.565L138.105 401.641C138.082 401.764 138.047 401.884 138 402Z" fill="#455A64"/>
<path d="M181 259.064C180.679 259.166 180.349 259.218 180.017 259.218L177.328 259.445C175.057 259.62 171.915 259.806 168.47 260.207C165.024 260.609 161.917 261.166 159.663 261.516L156.992 261.918C156.665 261.992 156.332 262.016 156 261.99C156.312 261.854 156.636 261.761 156.966 261.712C157.584 261.557 158.489 261.361 159.576 261.135C161.821 260.692 164.928 260.104 168.391 259.672C171.855 259.239 175.005 259.146 177.276 259.064C178.416 259.064 179.338 259.012 179.973 259.012C180.316 258.985 180.66 259.003 181 259.064Z" fill="#455A64"/>
<path d="M202 247.746C201.783 247.836 201.551 247.889 201.314 247.905C200.678 247.991 200.034 248.019 199.392 247.988C197.254 247.881 195.195 247.202 193.458 246.032C191.722 244.862 190.382 243.25 189.599 241.388C189.362 240.829 189.186 240.249 189.073 239.657C188.993 239.241 188.984 239.008 189.02 239C189.056 238.992 189.251 239.915 189.91 241.264C190.763 243.024 192.088 244.549 193.756 245.691C195.441 246.806 197.408 247.491 199.463 247.68C200.994 247.83 201.982 247.663 202 247.746Z" fill="#455A64"/>
<path d="M143 232L202.859 231.807L199.581 192.089C199.223 183.001 199.275 181.912 199.048 173.527C199.048 173.527 207.545 183.854 214.232 191.105C216.202 193.235 218.796 194.679 221.638 195.228C224.479 195.776 227.421 195.4 230.035 194.155L265 169.625L258.453 152.776L226.679 172.332C225.219 171.453 212.85 153.673 204.302 145.015C198.828 139.474 191.445 136.261 183.681 136.042C177.238 135.89 170.791 136.151 164.381 136.824C159.711 137.327 155.362 139.45 152.08 142.828C148.799 146.206 146.79 150.628 146.4 155.334C145.78 162.76 146.278 171.382 146.278 186.034L143 232Z" fill="#FFEDE0"/>
<path d="M146.222 160C146.222 160 146.222 160.168 146.222 160.47C146.222 160.771 146.222 161.276 146.222 161.808C146.222 162.977 146.222 164.661 146.222 166.744C146.222 170.908 146.495 176.651 146.768 183.004C147.041 189.358 147.08 195.118 146.846 199.274C146.742 201.357 146.599 203.04 146.456 204.201C146.456 204.742 146.339 205.185 146.3 205.539C146.261 205.894 146.222 206 146.222 206C146.222 206 146.222 205.841 146.222 205.539C146.222 205.238 146.287 204.733 146.326 204.201C146.443 203.04 146.547 201.357 146.625 199.274C146.807 195.109 146.729 189.358 146.469 183.004C146.209 176.651 145.988 170.908 146.001 166.744C146.001 164.661 146.001 162.977 146.092 161.808C146.092 161.267 146.092 160.833 146.157 160.47C146.222 160.106 146.222 160 146.222 160Z" fill="#263238"/>
<path d="M226 179C226.008 178.699 226.04 178.4 226.095 178.109C226.176 177.559 226.291 176.801 226.432 175.976C226.574 175.152 226.703 174.393 226.804 173.863C226.844 173.565 226.91 173.275 227 173C226.992 173.302 226.958 173.601 226.899 173.891C226.824 174.441 226.703 175.19 226.568 176.024C226.432 176.858 226.297 177.597 226.196 178.137C226.153 178.434 226.088 178.723 226 179Z" fill="#263238"/>
<path d="M228 179C227.769 178.023 227.582 177.028 227.44 176.021C227.254 175.025 227.107 174.017 227 173C227.227 173.978 227.414 174.973 227.56 175.979C227.746 176.975 227.893 177.983 228 179Z" fill="#263238"/>
<path d="M200 175L199.686 174.703L198.794 173.828C198.03 173.058 196.926 171.929 195.601 170.485C194.047 168.807 192.601 167.027 191.27 165.157C189.623 162.868 188.294 160.353 187.321 157.686C186.337 155.012 185.894 152.16 186.021 149.304C186.064 146.971 186.56 144.672 187.482 142.541C188.142 141.115 189.123 139.873 190.344 138.919C190.671 138.662 191.014 138.428 191.372 138.219L191.754 138C191.754 138 191.227 138.297 190.386 138.971C189.195 139.939 188.238 141.179 187.592 142.593C186.696 144.715 186.217 146.999 186.183 149.313C186.064 152.146 186.509 154.975 187.49 157.624C188.458 160.275 189.773 162.777 191.397 165.061C192.722 166.929 194.157 168.711 195.694 170.398C197.002 171.85 198.089 173.023 198.845 173.784L199.694 174.659C199.907 174.886 200 175 200 175Z" fill="#263238"/>
<path d="M162 159C161.157 158.325 160.418 157.531 159.809 156.643C159.081 155.853 158.472 154.963 158 154C158.842 154.673 159.58 155.464 160.191 156.348C160.923 157.139 161.532 158.032 162 159Z" fill="#FAFAFA"/>
<path d="M175 175C174.17 176.151 173.218 177.21 172.162 178.158C171.211 179.215 170.151 180.167 169 181C170.781 178.792 172.793 176.781 175 175Z" fill="#FAFAFA"/>
<path d="M188 197C187.887 197 187.443 195.571 186.619 193.924C185.795 192.276 184.939 191.067 185.003 191C185.837 191.683 186.509 192.603 186.958 193.676C187.535 194.664 187.893 195.807 188 197Z" fill="#FAFAFA"/>
<path d="M154.967 194C153.385 191.199 152.738 188.088 153.096 185C153.262 185 153.304 187.053 153.834 189.526C154.364 192 155.175 193.947 154.967 194Z" fill="#FAFAFA"/>
<path d="M171.978 205C170.945 202.498 170.722 199.668 171.348 197C171.473 197 171.29 198.818 171.473 201.019C171.655 203.219 172.103 204.953 171.978 205Z" fill="#FAFAFA"/>
<path d="M165 218C163.554 217.369 162.175 216.597 160.882 215.693C159.506 214.92 158.206 214.019 157 213C158.448 213.631 159.83 214.404 161.127 215.307C162.501 216.079 163.798 216.981 165 218Z" fill="#FAFAFA"/>
<path d="M193.999 214C194.063 214.113 191.928 215.043 189.453 216.425C186.978 217.807 185.092 219.092 185 218.995C186.224 217.84 187.638 216.854 189.196 216.069C190.667 215.168 192.287 214.471 193.999 214Z" fill="#FAFAFA"/>
<path d="M158 230C156.472 229.921 154.956 229.673 153.473 229.26C151.946 229.012 150.448 228.589 149 228C150.528 228.08 152.045 228.331 153.527 228.75C155.053 228.998 156.551 229.417 158 230Z" fill="#FAFAFA"/>
<path d="M176.992 227C175.453 225.379 174.409 223.285 174 221C174.113 221 174.613 222.384 175.444 224.031C176.274 225.677 177.089 226.912 176.992 227Z" fill="#FAFAFA"/>
<path d="M198 229.005C197.684 229.808 197.238 230.537 196.685 231.157C195.843 232.257 195.135 233.054 195 232.997C195.31 232.185 195.756 231.447 196.315 230.826C197.157 229.745 197.874 228.929 198 229.005Z" fill="#FAFAFA"/>
<path d="M158.995 168C159.07 168.126 158.242 168.902 157.135 169.72C156.506 170.301 155.782 170.736 155.005 171C154.93 170.874 155.767 170.098 156.865 169.269C157.493 168.69 158.217 168.258 158.995 168Z" fill="#FAFAFA"/>
<path d="M174 152C173.427 150.595 172.995 149.113 172.714 147.586C172.328 146.096 172.088 144.557 172 143C172.449 144.459 172.812 145.954 173.086 147.474C173.479 148.955 173.785 150.467 174 152Z" fill="#FAFAFA"/>
<path d="M188 165.985C187.939 166.08 186.658 165.701 185.018 165.464C183.377 165.227 182 165.207 182 165.099C184.073 164.82 186.207 165.135 188 165.985Z" fill="#FAFAFA"/>
<path d="M199 153.789C197.828 154.036 196.589 154.067 195.396 153.878C194.181 153.802 193.012 153.505 192 153.014C192.057 152.919 193.547 153.32 195.472 153.524C197.396 153.728 198.981 153.688 199 153.789Z" fill="#FAFAFA"/>
<path d="M208.1 168C207.9 166.471 208 164.927 208.399 163.421C208.627 161.892 209.16 160.401 209.979 159C210.128 159 209.456 161.011 208.911 163.488C208.367 165.964 208.271 168.008 208.1 168Z" fill="#FAFAFA"/>
<path d="M220 185C217.781 183.214 215.769 181.203 214 179C216.213 180.791 218.224 182.803 220 185Z" fill="#FAFAFA"/>
<path d="M230 184C228.967 185.809 227.62 187.492 226 189C226.444 188.065 227.05 187.184 227.8 186.384C228.39 185.511 229.13 184.708 230 184Z" fill="#FAFAFA"/>
<path d="M241 178C240.321 176.949 239.756 175.81 239.317 174.606C238.756 173.466 238.314 172.256 238 171C238.677 172.055 239.242 173.197 239.683 174.403C240.243 175.54 240.685 176.747 241 178Z" fill="#FAFAFA"/>
<path d="M256 171C253.288 170.881 250.604 170.545 248 170C249.362 170.01 250.718 170.126 252.044 170.346C253.394 170.458 254.721 170.678 256 171Z" fill="#FAFAFA"/>
<path d="M134 188C135.022 185.205 136.363 182.523 138 180C137.563 181.42 136.966 182.793 136.22 184.094C135.629 185.466 134.885 186.775 134 188Z" fill="#FAFAFA"/>
<path d="M142 174C141.011 173.171 140.119 172.216 139.345 171.156C138.452 170.205 137.665 169.146 137 168C137.992 168.825 138.884 169.781 139.655 170.844C140.552 171.791 141.34 172.851 142 174Z" fill="#FAFAFA"/>
<path d="M140.993 197.019C141.071 197.133 140.471 197.893 139.653 198.715C138.835 199.538 138.095 200.1 138.008 199.985C137.921 199.871 138.539 199.111 139.357 198.299C140.175 197.487 140.915 196.884 140.993 197.019Z" fill="#FAFAFA"/>
<path d="M143.982 158.01C144.086 158.104 143.723 158.846 143.18 159.673C142.636 160.499 142.11 161.084 142.015 160.99C141.92 160.896 142.283 160.154 142.826 159.327C143.37 158.501 143.931 157.916 143.982 158.01Z" fill="#FAFAFA"/>
<g opacity="0.3">
<path opacity="0.3" d="M190 162C193.609 173.805 196.391 186.195 200 198L199.147 173.556C195.637 170.126 192.563 166.242 190 162Z" fill="black"/>
</g>
<path d="M129 177C129.031 176.905 129.069 176.812 129.115 176.723L129.467 175.918C129.784 175.225 130.251 174.238 130.851 173.017C132.049 170.576 133.777 167.243 135.857 163.641C137.937 160.039 139.955 156.871 141.471 154.611C142.229 153.477 142.854 152.568 143.295 151.953L143.806 151.243C143.93 151.079 143.991 150.992 144 151.001L143.841 151.26L143.357 151.988L141.594 154.68C140.105 156.957 138.069 160.135 136.033 163.728C133.997 167.321 132.208 170.654 130.992 173.069L129.555 175.952C129.405 176.247 129.273 176.507 129.167 176.732C129.122 176.827 129.065 176.917 129 177Z" fill="#263238"/>
<path d="M136 167C135.673 167.156 135.337 167.291 134.992 167.404C134.195 167.738 133.434 168.144 132.719 168.617C132.008 169.096 131.348 169.641 130.748 170.243C130.281 170.709 130.024 171.017 130.006 170.999C129.988 170.982 130.006 170.911 130.153 170.762C130.305 170.55 130.47 170.348 130.647 170.155C131.224 169.516 131.883 168.948 132.609 168.468C133.335 167.985 134.12 167.589 134.946 167.29C135.195 167.197 135.449 167.118 135.707 167.053C135.801 167.022 135.9 167.004 136 167Z" fill="#263238"/>
<path d="M137 149C136.206 150.458 135.275 151.843 134.218 153.138C133.275 154.52 132.198 155.814 131 157C131.798 155.547 132.729 154.165 133.782 152.871C134.726 151.487 135.803 150.191 137 149Z" fill="#FAFAFA"/>
<path d="M143 133.968C143.434 134.043 143.882 133.985 144.281 133.801C144.68 133.617 145.01 133.316 145.227 132.941C145.718 132.221 145.946 131.365 146.375 130.611C147.681 128.376 150.645 127.4 151.837 125.105C152.003 124.78 152.1 124.335 151.837 124.112C151.574 123.889 151.179 124.043 150.873 124.189L143.07 128.008" fill="#FFBE9D"/>
<path d="M143.017 128.483C143.253 128.269 143.515 128.091 143.797 127.954C144.311 127.643 145.074 127.214 146.017 126.685L149.326 124.859L150.294 124.339C150.654 124.066 151.099 123.951 151.537 124.019C151.671 124.074 151.787 124.17 151.869 124.295C151.952 124.421 151.997 124.569 152 124.722C152.004 124.975 151.951 125.226 151.846 125.452C151.66 125.854 151.429 126.231 151.16 126.575C150.087 127.731 148.941 128.807 147.731 129.798C147.247 130.25 146.828 130.776 146.488 131.359C146.18 131.916 145.983 132.491 145.743 133.011C145.591 133.451 145.35 133.85 145.038 134.179C144.725 134.509 144.349 134.762 143.934 134.919C143.784 134.983 143.621 135.01 143.459 134.997C143.297 134.984 143.14 134.933 143 134.846C143.29 134.857 143.58 134.817 143.857 134.727C144.22 134.551 144.545 134.299 144.813 133.985C145.081 133.671 145.287 133.303 145.417 132.901C145.623 132.32 145.858 131.75 146.12 131.194C146.465 130.562 146.899 129.99 147.406 129.496C148.606 128.501 149.751 127.431 150.834 126.292C151.073 125.977 151.283 125.638 151.46 125.279C151.614 124.941 151.614 124.585 151.46 124.54C151.306 124.494 150.911 124.649 150.603 124.823L149.634 125.334L146.274 127.068C145.314 127.552 144.56 127.981 143.986 128.191C143.679 128.341 143.352 128.439 143.017 128.483Z" fill="#EB996E"/>
<path d="M387 368H332V376H387V368Z" fill="#263238"/>
<path d="M388 375H332V367H388V375ZM332.194 374.829H387.806V367.215H332.194V374.829Z" fill="#263238"/>
<path d="M337 373L344.942 412H374.329L382 375.508L337 373Z" fill="#263238"/>
<path d="M337 408L341.237 414H376.953L382 408H337Z" fill="#455A64"/>
<path d="M357.34 373C357.226 373 357.086 354.868 357.025 332.504C356.963 310.14 357.025 292 357.112 292C357.2 292 357.358 310.132 357.419 332.504C357.481 354.877 357.445 373 357.34 373Z" fill="#263238"/>
<path d="M370 328C369.964 328.146 369.915 328.289 369.854 328.427L369.363 329.594C369.259 329.855 369.139 330.134 369.009 330.465L368.648 331.501C368.518 331.867 368.372 332.259 368.225 332.677C368.079 333.095 367.967 333.548 367.821 334.027C367.173 336.243 366.664 338.497 366.296 340.777C365.868 343.574 365.58 346.391 365.435 349.217C365.235 354.36 365.379 359.51 365.865 364.633C366.046 366.602 366.218 368.195 366.348 369.293C366.408 369.807 366.451 370.225 366.485 370.556C366.497 370.704 366.497 370.852 366.485 371C366.429 370.864 366.395 370.72 366.382 370.573C366.33 370.242 366.261 369.824 366.175 369.31C365.994 368.222 365.779 366.628 365.572 364.659C365.026 359.517 364.87 354.34 365.107 349.173C365.244 346.332 365.531 343.5 365.969 340.69C366.355 338.397 366.896 336.133 367.588 333.914C367.734 333.444 367.864 332.991 368.019 332.573L368.467 331.397C368.613 331.031 368.742 330.691 368.863 330.369C368.984 330.047 369.139 329.785 369.251 329.498L369.81 328.357C369.861 328.231 369.924 328.112 370 328Z" fill="#263238"/>
<path d="M368 313C367.955 313.203 367.898 313.402 367.83 313.598C367.686 314.014 367.499 314.569 367.269 315.271C367.142 315.644 367.006 316.042 366.862 316.485L366.428 317.941C366.114 318.99 365.749 320.168 365.426 321.512C365.248 322.171 365.069 322.873 364.882 323.592C364.696 324.312 364.551 325.092 364.381 325.881C364.007 327.45 363.736 329.157 363.387 330.934C362.793 334.523 362.275 338.484 361.909 342.662C361.544 346.84 361.425 350.845 361.374 354.485C361.323 358.126 361.374 361.42 361.552 364.141C361.603 365.52 361.688 366.742 361.756 367.851C361.824 368.961 361.884 369.88 361.952 370.651C362.02 371.422 362.054 371.977 362.088 372.385C362.108 372.589 362.108 372.795 362.088 373C362.039 372.801 362.008 372.598 361.994 372.393L361.79 370.66C361.697 369.897 361.603 368.926 361.527 367.869C361.451 366.811 361.332 365.537 361.264 364.159C361.085 361.411 361.009 358.091 361 354.476C360.992 350.862 361.17 346.823 361.51 342.636C361.85 338.449 362.41 334.462 363.022 330.873C363.379 329.088 363.659 327.406 364.05 325.803C364.237 325.014 364.407 324.251 364.577 323.523C364.746 322.795 364.967 322.101 365.146 321.434C365.486 320.099 365.868 318.912 366.208 317.871L366.666 316.424C366.828 315.99 366.981 315.557 367.108 315.219L367.737 313.572C367.813 313.376 367.901 313.185 368 313Z" fill="#263238"/>
<path d="M353.918 377V376.79C353.918 376.624 353.918 376.423 353.863 376.161C353.818 375.585 353.763 374.781 353.69 373.759C353.554 371.636 353.363 368.614 353.117 364.893C352.616 357.415 351.888 347.081 350.577 335.716C349.913 330.038 349.13 324.64 348.329 319.748C347.892 317.31 347.51 314.987 347.063 312.82C346.617 310.654 346.226 308.645 345.816 306.81C345.407 304.976 345.015 303.316 344.678 301.875C344.342 300.433 344.023 299.184 343.768 298.162C343.513 297.14 343.313 296.415 343.176 295.821C343.113 295.568 343.067 295.367 343.031 295.21C342.994 295.052 342.985 295 343.031 295C343.06 295.065 343.085 295.132 343.104 295.201C343.104 295.358 343.213 295.55 343.286 295.804C343.45 296.363 343.677 297.14 343.959 298.127C344.242 299.114 344.606 300.372 344.961 301.822C345.316 303.273 345.762 304.915 346.162 306.758C346.563 308.601 347.073 310.593 347.455 312.759C347.837 314.926 348.311 317.249 348.757 319.695C349.585 324.587 350.377 329.986 351.042 335.672C352.352 347.029 353.035 357.398 353.463 364.884C353.672 368.623 353.818 371.654 353.909 373.75C353.909 374.772 353.982 375.585 354 376.161C354 376.415 354 376.624 354 376.79C353.988 376.865 353.96 376.936 353.918 377Z" fill="#263238"/>
<path d="M356.543 301.505C356.305 298.954 353.672 297.026 351.048 297C349.738 297.057 348.458 297.405 347.306 298.018C346.153 298.631 345.158 299.492 344.396 300.537C342.89 302.643 341.802 305.007 341.189 307.506C339.278 313.493 338.609 319.794 339.219 326.038C339.97 332.246 342.54 338.36 347.09 342.744C347.832 343.462 348.795 344.171 349.811 343.963C350.357 343.802 350.851 343.504 351.243 343.099C355.697 339.104 359.228 334.223 361.598 328.785C363.969 323.346 365.125 317.474 364.989 311.562C364.919 309.201 364.601 306.745 363.267 304.783C361.932 302.82 358.849 300.727 356.543 301.514" fill="#FFEDE0"/>
<path d="M337 280.215L333.374 286.666C333.287 286.811 333.174 286.982 333 286.999C332.826 287.016 332.67 286.837 332.565 286.683C329.365 281.865 326.177 277.047 323 272.229L325.209 271L337 280.215Z" fill="#5E88FF"/>
<g opacity="0.2">
<path opacity="0.2" d="M337 280.215L333.374 286.666C333.287 286.811 333.174 286.982 333 286.999C332.826 287.016 332.67 286.837 332.565 286.683C329.365 281.865 326.177 277.047 323 272.229L325.209 271L337 280.215Z" fill="#5E88FF"/>
</g>
<path d="M357.226 292L323.844 272.912C323.476 272.761 323.183 272.478 323.028 272.121C322.895 271.64 323.267 271.185 323.622 270.824C325.917 268.516 328.699 266.715 331.777 265.543C334.856 264.371 338.159 263.857 341.462 264.034C344.762 264.266 347.955 265.272 350.764 266.965C353.574 268.659 355.916 270.989 357.589 273.754C360.81 279.332 360.916 286.706 357.226 292Z" fill="#FFEDE0"/>
<path d="M329 267.117C329.137 267.076 329.28 267.056 329.423 267.055C329.708 267.055 330.122 266.993 330.648 267.002C332.161 266.982 333.671 267.103 335.162 267.364C340.108 268.22 344.713 270.5 348.435 273.936C352.157 277.373 354.843 281.823 356.177 286.765C356.58 288.251 356.852 289.771 356.988 291.307C357.004 291.63 357.004 291.954 356.988 292.277C356.966 292.536 356.88 292.785 356.737 293C356.838 292.447 356.855 291.882 356.789 291.324C356.601 289.809 356.295 288.311 355.874 286.845C354.242 281.258 350.92 276.343 346.385 272.805C341.85 269.268 336.335 267.289 330.631 267.152C329.587 267.126 329 267.152 329 267.117Z" fill="#263238"/>
<path d="M353 279C352.47 279.336 351.905 279.607 351.316 279.807C350.253 280.244 348.773 280.8 347.106 281.357C345.44 281.914 343.925 282.35 342.817 282.629C342.225 282.819 341.616 282.944 341 283C341.565 282.712 342.16 282.494 342.773 282.35L347.027 280.958L351.254 279.529C351.818 279.292 352.403 279.114 353 279Z" fill="#263238"/>
<path d="M347.154 265C347.733 266.142 347.99 267.317 347.918 268.492C348.106 269.664 347.972 270.844 347.518 272C347.193 270.84 347.065 269.67 347.136 268.5C346.949 267.335 346.955 266.165 347.154 265Z" fill="#263238"/>
<path d="M324 273C324.781 272.652 325.59 272.365 326.418 272.142C327.933 271.687 330.042 271.12 332.398 270.571C334.755 270.021 336.89 269.601 338.458 269.335C339.294 269.153 340.144 269.041 341 269C340.185 269.254 339.353 269.455 338.511 269.601C336.969 269.936 334.834 270.399 332.487 270.94C330.139 271.481 328.057 272.021 326.498 272.408C325.68 272.66 324.846 272.858 324 273Z" fill="#263238"/>
<path d="M343.499 295.417C340.638 293.299 337.601 292.886 334.015 293.024C330.417 293.249 326.894 294.125 323.627 295.607C318.004 298 312.727 301.521 309.371 306.514C306.015 311.507 304.837 318.119 307.352 323.551C307.549 324.121 307.956 324.599 308.494 324.894C309.116 325.073 309.784 325.024 310.371 324.757C316.765 322.734 323.202 320.685 329.073 317.508C334.944 314.331 340.302 309.923 343.454 304.155C344.263 302.793 344.779 301.284 344.968 299.722C345.053 298.944 344.966 298.157 344.713 297.415C344.459 296.672 344.045 295.991 343.499 295.417Z" fill="#FFEDE0"/>
<path d="M343 295C342.851 295.07 342.699 295.132 342.543 295.185L341.218 295.644L340.252 295.962L339.128 296.403C338.329 296.73 337.372 297.057 336.414 297.533L334.86 298.248C334.325 298.495 333.789 298.804 333.218 299.131C332.068 299.696 330.909 300.42 329.706 301.161C324.389 304.462 319.663 308.64 315.727 313.519C314.849 314.666 313.971 315.726 313.268 316.802C312.908 317.332 312.54 317.826 312.224 318.338C311.907 318.85 311.609 319.327 311.345 319.795C310.748 320.677 310.301 321.56 309.879 322.354C309.677 322.734 309.475 323.087 309.3 323.423L308.861 324.305C308.606 324.817 308.404 325.241 308.246 325.567C308.174 325.717 308.092 325.862 308 326C308.039 325.839 308.095 325.682 308.167 325.532C308.313 325.197 308.498 324.764 308.72 324.235C308.852 323.952 308.983 323.634 309.133 323.299C309.282 322.964 309.484 322.602 309.686 322.213C310.09 321.445 310.52 320.545 311.1 319.618L311.978 318.135C312.285 317.623 312.654 317.12 313.014 316.582C313.707 315.487 314.568 314.41 315.446 313.254C317.432 310.807 319.604 308.52 321.944 306.413C324.317 304.345 326.851 302.47 329.522 300.808C330.768 300.075 331.945 299.36 333.113 298.804C333.684 298.513 334.228 298.213 334.772 297.966L336.344 297.277C337.345 296.81 338.285 296.501 339.093 296.2C339.505 296.05 339.883 295.9 340.234 295.786L341.209 295.494L342.561 295.106C342.703 295.055 342.85 295.02 343 295Z" fill="#263238"/>
<path d="M321 307C318.728 307.849 316.41 308.578 314.057 309.181C311.742 309.916 309.385 310.523 307 311C309.272 310.147 311.589 309.416 313.943 308.81C316.26 308.083 318.616 307.479 321 307Z" fill="#263238"/>
<path d="M321.289 322C321.1 321.275 321.02 320.54 321.052 319.805C320.983 318.443 320.983 316.57 321.052 314.491C321.122 312.412 321.317 310.539 321.498 309.186C321.527 308.45 321.672 307.718 321.93 307C322.023 307.734 322.023 308.471 321.93 309.204C321.846 310.692 321.763 312.502 321.665 314.5C321.568 316.498 321.526 318.317 321.456 319.805C321.494 320.538 321.438 321.272 321.289 322Z" fill="#263238"/>
<path d="M333.971 316C333.885 316 333.598 312.209 333.34 307.518C333.082 302.826 332.939 299.009 333.025 299C333.111 298.991 333.398 302.791 333.663 307.491C333.928 312.191 334.064 315.991 333.971 316Z" fill="#263238"/>
<path d="M318 298.135C318.73 298.002 319.466 297.967 320.2 298.031C321.562 298.031 323.431 298.109 325.5 298.213C327.569 298.317 329.446 298.434 330.808 298.552C331.544 298.55 332.279 298.659 333 298.877C332.27 299.001 331.534 299.031 330.8 298.968C329.438 298.968 327.561 298.903 325.491 298.799C323.422 298.695 321.545 298.565 320.191 298.447C319.456 298.442 318.723 298.338 318 298.135Z" fill="#263238"/>
<path d="M349.15 343C349.116 342.858 349.101 342.713 349.105 342.568C349.105 342.239 349.105 341.824 349.043 341.314C348.99 340.225 348.981 338.652 349.043 336.707C349.105 334.763 349.212 332.446 349.451 329.887C349.69 327.329 350.089 324.52 350.629 321.589C351.17 318.659 351.843 315.902 352.525 313.412C353.208 310.923 353.934 308.719 354.608 306.878C355.281 305.037 355.848 303.567 356.291 302.556L356.796 301.398C356.846 301.257 356.915 301.123 357 301C356.97 301.145 356.926 301.287 356.867 301.424L356.433 302.608C356.034 303.619 355.503 305.106 354.873 306.93C354.244 308.753 353.562 310.992 352.88 313.473C352.198 315.954 351.568 318.711 351.019 321.624C350.47 324.537 350.133 327.338 349.823 329.887C349.513 332.437 349.398 334.745 349.327 336.681C349.256 338.618 349.15 340.251 349.15 341.314C349.15 341.824 349.15 342.239 349.15 342.568C349.165 342.711 349.165 342.856 349.15 343Z" fill="#263238"/>
<path d="M351 322C350.622 322.548 350.18 323.047 349.684 323.485C348.807 324.385 347.623 325.528 346.237 326.779C344.851 328.03 343.605 329.101 342.605 329.857C342.114 330.299 341.575 330.682 341 331C341.432 330.497 341.911 330.039 342.43 329.632L345.939 326.473L349.447 323.278C349.927 322.806 350.447 322.378 351 322Z" fill="#263238"/>
<path d="M361 330C360.497 329.41 360.044 328.779 359.647 328.112L356.5 323.504C355.282 321.761 354.174 320.197 353.286 318.93C352.81 318.32 352.38 317.675 352 317C352.549 317.547 353.053 318.139 353.506 318.768C354.351 319.899 355.57 321.481 356.813 323.283C358.056 325.086 359.122 326.744 359.867 327.968C360.301 328.612 360.68 329.292 361 330Z" fill="#263238"/>
<path d="M355.999 304.005C356.053 304.1 352.527 306.397 348.107 309.187C343.688 311.976 340.072 314.092 340.001 313.997C339.93 313.902 343.474 311.605 347.884 308.815C352.294 306.026 355.937 303.884 355.999 304.005Z" fill="#263238"/>
<path d="M365 315C361.491 311.856 358.153 308.518 355 305C356.8 306.525 358.519 308.147 360.15 309.859C361.86 311.478 363.479 313.195 365 315Z" fill="#263238"/>
<path d="M368.009 315L370.965 314.752C373.068 314.579 375.108 313.945 376.946 312.894C377.844 312.358 378.776 311.885 379.737 311.477C383.399 309.982 387.489 310.247 391.421 310.044C397.876 309.713 404.2 308.073 410.02 305.22C410.359 305.062 410.642 304.802 410.831 304.477C411.433 303.353 410.308 302.352 409.331 301.742C404.344 298.617 399.269 295.458 393.636 293.909C388.003 292.36 381.55 292.626 376.72 295.998C371.052 299.954 368.994 308.088 368 315" fill="#FFEDE0"/>
<path d="M411 304.08C410.826 304.019 410.659 303.94 410.501 303.845L409.093 303.112C407.869 302.476 406.11 301.525 403.845 300.496C401.259 299.232 398.566 298.199 395.798 297.408C392.411 296.433 388.865 296.137 385.363 296.536C381.857 296.927 378.545 298.344 375.846 300.609C373.738 302.576 372.053 304.95 370.895 307.587C370.088 309.352 369.37 311.157 368.743 312.994C368.516 313.613 368.341 314.11 368.21 314.485C368.159 314.664 368.089 314.837 368 315C368.031 314.817 368.075 314.636 368.131 314.459C368.254 314.076 368.402 313.587 368.595 312.942C369.164 311.079 369.848 309.252 370.642 307.473C371.785 304.79 373.477 302.375 375.61 300.382C378.35 298.049 381.729 296.587 385.31 296.187C388.861 295.764 392.461 296.06 395.894 297.059C398.68 297.868 401.383 298.937 403.967 300.252C406.18 301.351 407.921 302.327 409.119 303.016L410.493 303.81C410.67 303.884 410.84 303.975 411 304.08Z" fill="#263238"/>
<path d="M403.999 307.997C403.939 308.097 400.077 305.482 395.392 302.177C390.706 298.872 386.94 296.103 387.001 296.003C387.061 295.903 390.914 298.518 395.608 301.832C400.303 305.146 404.06 307.906 403.999 307.997Z" fill="#263238"/>
<path d="M400 296C399.04 296.505 398.036 296.783 397.023 296.825C396.021 297.058 395.002 297.058 394 296.825C394.989 296.548 395.991 296.392 396.995 296.356C397.989 296.113 398.994 295.994 400 296Z" fill="#263238"/>
<path d="M383 294C382.672 294.76 382.224 295.462 381.673 296.078C381.211 296.797 380.647 297.444 380 298C380.331 297.252 380.779 296.563 381.327 295.959C381.787 295.227 382.351 294.568 383 294Z" fill="#263238"/>
<path d="M386 310C385.333 309.738 384.696 309.412 384.099 309.028C382.962 308.375 381.434 307.42 379.773 306.297C378.113 305.175 376.682 304.103 375.634 303.324C375.049 302.929 374.502 302.486 374 302C374.628 302.314 375.223 302.685 375.776 303.106L379.987 305.987C381.621 307.11 383.131 308.098 384.232 308.802C384.855 309.156 385.446 309.556 386 310Z" fill="#263238"/>
<path d="M372.058 327.327C369.185 326.575 365.761 329.36 365.167 332.26C364.572 335.16 365.663 338.13 366.94 340.809C369.672 346.815 373.736 352.123 378.826 356.334C383.955 360.538 390.36 362.888 397 363C395.785 357.377 397.319 351.507 396.645 345.787C396.047 340.753 393.753 336.071 390.14 332.504C386.526 328.937 381.806 326.698 376.75 326.151C374.914 325.956 372.786 325.665 372.058 327.353" fill="#FFEDE0"/>
<path d="M397 362C396.856 361.953 396.718 361.889 396.591 361.809C396.205 361.611 395.842 361.376 395.506 361.105C394.3 360.078 393.333 358.811 392.67 357.388C392.208 356.52 391.692 355.573 391.194 354.531L389.638 351.179C389.085 349.946 388.45 348.751 387.736 347.6C386.954 346.381 386.08 345.22 385.122 344.127C383.148 341.86 381.033 339.906 379.192 338.047C377.536 336.415 376.028 334.645 374.685 332.758C373.782 331.477 373.039 330.095 372.471 328.641C372.293 328.12 372.16 327.721 372.089 327.434C372.038 327.294 372.009 327.148 372 327C372 327 372.196 327.573 372.622 328.589C373.236 330.004 374.005 331.349 374.916 332.602C376.282 334.457 377.802 336.2 379.459 337.813C381.299 339.663 383.433 341.617 385.424 343.892C386.405 345.001 387.297 346.183 388.091 347.427C388.802 348.597 389.438 349.809 389.994 351.057L391.514 354.418C391.994 355.46 392.492 356.416 392.937 357.293C393.557 358.699 394.464 359.967 395.604 361.019C396.448 361.696 397.017 361.965 397 362Z" fill="#263238"/>
<path d="M382 358C382.026 357.334 382.125 356.672 382.296 356.024C382.552 354.818 382.956 353.159 383.507 351.346C384.059 349.533 384.66 347.928 385.133 346.813C385.351 346.182 385.641 345.574 386 345C385.875 345.656 385.684 346.299 385.429 346.922C385.034 348.091 384.493 349.714 383.941 351.509C383.389 353.304 382.956 354.954 382.601 356.142C382.469 356.778 382.268 357.401 382 358Z" fill="#263238"/>
<path d="M397 344C396.303 343.906 395.616 343.754 394.947 343.547C393.696 343.239 391.958 342.812 390.023 342.402C388.087 341.992 386.331 341.667 385.053 341.436C384.356 341.352 383.668 341.206 383 341.001C383.703 340.993 384.405 341.048 385.098 341.163C386.394 341.325 388.177 341.607 390.113 342.018C392.048 342.428 393.786 342.872 395.028 343.282C395.712 343.449 396.374 343.69 397 344Z" fill="#263238"/>
<path d="M372 348C372.034 347.241 372.141 346.488 372.32 345.749C372.584 344.364 372.995 342.47 373.553 340.388C374.11 338.307 374.694 336.448 375.151 335.126C375.368 334.394 375.652 333.682 376 333C375.875 333.75 375.685 334.488 375.434 335.207C375.041 336.556 374.521 338.414 373.945 340.487C373.37 342.559 372.941 344.435 372.603 345.802C372.471 346.551 372.269 347.287 372 348Z" fill="#263238"/>
<path d="M390 332.974C390 333.097 386.391 332.77 382 332.23C377.609 331.689 374 331.148 374 331.026C374 330.903 377.609 331.23 382 331.77C386.391 332.311 390.009 332.852 390 332.974Z" fill="#263238"/>
<path d="M388 375.201C388 375.306 375.461 375.393 360.004 375.393C344.547 375.393 332 375.306 332 375.201C332 375.096 344.538 375 360.004 375C375.47 375 388 375.087 388 375.201Z" fill="#455A64"/>
<path d="M379 391.192C379 391.306 370.492 391.393 359.996 391.393C349.499 391.393 341 391.306 341 391.192C341 391.079 349.508 391 359.996 391C370.484 391 379 391.087 379 391.192Z" fill="#455A64"/>
<path d="M378 393.201C378 393.306 369.71 393.393 359.5 393.393C349.29 393.393 341 393.306 341 393.201C341 393.096 349.29 393 359.5 393C369.71 393 378 393.052 378 393.201Z" fill="#455A64"/>
<path d="M379 389.201C379 389.306 370.268 389.393 359.5 389.393C348.732 389.393 340 389.306 340 389.201C340 389.096 348.732 389 359.5 389C370.268 389 379 389.087 379 389.201Z" fill="#455A64"/>
<path d="M123.202 95.6373C123.202 95.6373 123.298 95.874 123.465 96.33C123.632 96.786 123.877 97.4787 124.193 98.3556C124.825 100.109 125.754 102.74 126.939 106.142L127 106.3H126.825L115.562 104.739H115.676C111.747 107.825 107.094 109.856 102.16 110.64C100.77 110.863 99.3655 110.983 97.9581 111C97.2389 111 96.5108 110.939 95.7741 110.921L94.6776 110.868C94.3092 110.868 93.9408 110.763 93.5724 110.711C90.4903 110.335 87.4929 109.446 84.7046 108.08C81.7284 106.639 79.0107 104.716 76.6613 102.389C73.5546 99.2882 71.1789 95.5335 69.7074 91.3986C68.2359 87.2637 67.7056 82.8527 68.1552 78.4869C68.6047 74.1212 70.0228 69.9107 72.3061 66.1621C74.5894 62.4136 77.6805 59.2215 81.354 56.8184C83.978 55.0941 86.867 53.8115 89.906 53.0215L91.02 52.7322L91.5726 52.5919L92.134 52.5042L94.3794 52.171C95.125 52.1008 95.8705 52.0833 96.6161 52.0394C97.352 51.9869 98.0906 51.9869 98.8265 52.0394C99.5545 52.1008 100.291 52.0394 101.002 52.1973L103.133 52.5305C103.835 52.6445 104.519 52.8637 105.203 53.0303L106.221 53.2934C106.554 53.3986 106.879 53.5301 107.203 53.6441C114.414 56.1435 120.364 61.3563 123.79 68.1738C125.578 71.7264 126.628 75.604 126.877 79.5731C127.21 84.4849 126.268 89.3994 124.141 93.8397C123.851 94.4272 123.623 94.8656 123.465 95.1462C123.307 95.4268 123.202 95.5847 123.202 95.5847C123.202 95.5847 123.263 95.4356 123.413 95.1375C123.562 94.8393 123.79 94.3921 124.053 93.8046C124.836 92.0876 125.453 90.2994 125.895 88.4645C126.608 85.564 126.851 82.568 126.614 79.5906C126.246 73.8763 124.198 68.398 120.726 63.8441C117.253 59.2901 112.512 55.8635 107.098 53.9949C106.773 53.8809 106.458 53.7581 106.124 53.6529L105.124 53.3898C104.449 53.232 103.774 53.0128 103.081 52.9075L100.975 52.5831C100.274 52.4603 99.5545 52.4866 98.8265 52.434C98.1025 52.377 97.3752 52.377 96.6512 52.434C95.9232 52.434 95.1864 52.4954 94.4496 52.5568L92.2392 52.8988L91.6866 52.9865L91.134 53.1268L90.0376 53.4074C87.0467 54.1885 84.2048 55.4565 81.6259 57.1604C77.311 59.9682 73.8206 63.8726 71.5124 68.4734C69.2043 73.0741 68.1615 78.2057 68.4909 83.3421C68.8203 88.4785 70.51 93.435 73.3869 97.7034C76.2637 101.972 80.2243 105.399 84.8625 107.633C87.618 108.995 90.5832 109.884 93.6338 110.263C93.9935 110.316 94.3531 110.386 94.7215 110.421L95.8091 110.474C96.5372 110.474 97.2476 110.579 97.9581 110.562C99.3477 110.551 100.734 110.437 102.107 110.22C106.99 109.468 111.601 107.482 115.501 104.45H115.553H115.562L126.842 106.063L126.728 106.195C125.579 102.801 124.693 100.162 124.097 98.303L123.421 96.2774C123.263 95.874 123.202 95.6373 123.202 95.6373Z" fill="#263238"/>
<path d="M98.4709 75.1129C98.6657 75.2087 98.8301 75.3579 98.9453 75.5436C99.0605 75.7293 99.1219 75.944 99.1226 76.1633V81.9448C99.1212 82.1234 99.0792 82.2993 98.9998 82.4589C98.9204 82.6184 98.8057 82.7573 98.6648 82.8648C98.5238 82.9722 98.3603 83.0454 98.1869 83.0785C98.0135 83.1117 97.8348 83.1039 97.6649 83.0559C97.194 82.9341 96.7037 82.9097 96.2234 82.9843C95.743 83.0589 95.2825 83.2309 94.8694 83.49C94.4909 83.7129 94.1606 84.0107 93.8984 84.3657C93.6361 84.7207 93.4472 85.1255 93.343 85.5561C93.2709 85.9952 93.2853 86.4445 93.3854 86.8781C93.4855 87.3116 93.6692 87.7208 93.9261 88.0822C94.1971 88.4897 94.545 88.839 94.9496 89.1101C95.3543 89.3812 95.8078 89.5688 96.2843 89.6621C97.2519 89.7602 98.2237 89.5223 99.0402 88.9876C99.8567 88.4528 100.469 87.653 100.778 86.7193C100.882 86.442 101.088 86.2157 101.352 86.0868C101.616 85.9579 101.919 85.9362 102.199 86.026C102.478 86.1159 102.713 86.3106 102.856 86.5703C102.998 86.8299 103.037 87.1348 102.964 87.4225C102.485 88.8827 101.523 90.1308 100.241 90.9564C98.9581 91.7819 97.4335 92.1343 95.9241 91.9539C95.1409 91.8134 94.3934 91.515 93.7262 91.0766C93.0589 90.6382 92.4854 90.0687 92.0396 89.4017C91.6021 88.7796 91.2931 88.0746 91.131 87.3288C90.9689 86.583 90.9571 85.8118 91.0963 85.0612C91.2642 84.3212 91.5788 83.6234 92.021 83.0101C92.4632 82.3968 93.0238 81.8808 93.6689 81.4934C94.6211 80.9139 95.7135 80.6134 96.8245 80.6253V76.1633C96.8245 75.8562 96.9444 75.5617 97.158 75.3438C97.3717 75.1259 97.6617 75.0023 97.965 75C98.1398 74.9991 98.3127 75.0376 98.4709 75.1129Z" fill="#5E88FF"/>
<path d="M97.0004 72.0272C96.995 71.8291 97.0486 71.6339 97.1543 71.4663C97.2601 71.2987 97.4133 71.1663 97.5944 71.086C97.7755 71.0056 97.9764 70.9808 98.1716 71.0148C98.3668 71.0488 98.5475 71.1401 98.6908 71.277C98.8341 71.4138 98.9334 71.5902 98.9763 71.7837C99.0192 71.9771 99.0036 72.179 98.9316 72.3636C98.8596 72.5482 98.7343 72.7072 98.5718 72.8205C98.4092 72.9338 98.2167 72.9963 98.0186 73C97.7555 73.0025 97.5019 72.9022 97.3117 72.7205C97.1216 72.5388 97.0098 72.29 97.0004 72.0272Z" fill="#5E88FF"/>
</svg>
