<svg width="55" height="55" viewBox="0 0 55 55" fill="none" xmlns="http://www.w3.org/2000/svg">
<path d="M2.69263 0.0123431C2.48308 0.080954 2.3019 0.216488 2.17697 0.398086C2.05205 0.579684 1.9903 0.79728 2.00124 1.01738V47.2492C2.00127 47.5158 2.10723 47.7714 2.29582 47.9599C2.48441 48.1483 2.74019 48.2542 3.00689 48.2543H42.856L48.8271 54.2845C49.0541 54.5113 49.3236 54.6913 49.6201 54.814C49.9167 54.9368 50.2346 55 50.5556 55C50.8766 55 51.1944 54.9368 51.491 54.814C51.7876 54.6913 52.0571 54.5113 52.284 54.2845C52.511 54.0576 52.6911 53.7883 52.8139 53.4919C52.9368 53.1955 53 52.8779 53 52.5571C53 52.2363 52.9368 51.9186 52.8139 51.6222C52.6911 51.3258 52.511 51.0565 52.284 50.8297L49.6442 48.1914C49.8316 48.1157 49.9917 47.9853 50.1039 47.8172C50.216 47.6491 50.2748 47.4512 50.2727 47.2492V12.0728V1.01738C50.2727 0.750838 50.1667 0.495218 49.9781 0.306742C49.7896 0.118266 49.5338 0.0123698 49.2671 0.0123431H3.00689C2.90279 -0.00411437 2.79674 -0.00411437 2.69263 0.0123431ZM4.01255 2.02242H48.2614V8.05266H4.01255V2.02242ZM7.02952 4.0325C6.47409 4.0325 6.02386 4.48236 6.02386 5.03754C6.02386 5.59253 6.47409 6.04258 7.02952 6.04258C7.58494 6.04258 8.03517 5.59253 8.03517 5.03754C8.03517 4.48236 7.58494 4.0325 7.02952 4.0325ZM11.0521 4.0325C10.4967 4.0325 10.0465 4.48236 10.0465 5.03754C10.0465 5.59253 10.4967 6.04258 11.0521 6.04258C11.6075 6.04258 12.0578 5.59253 12.0578 5.03754C12.0578 4.48236 11.6075 4.0325 11.0521 4.0325ZM15.0748 4.0325C14.5194 4.0325 14.0691 4.48236 14.0691 5.03754C14.0691 5.59253 14.5194 6.04258 15.0748 6.04258C15.6302 6.04258 16.0804 5.59253 16.0804 5.03754C16.0804 4.48236 15.6302 4.0325 15.0748 4.0325ZM4.01255 10.0627H48.2614V12.0728V46.2442H47.6957L42.7303 41.3446C42.4193 41.0244 42.0258 40.7962 41.5932 40.6854C41.1607 40.5745 40.7058 40.5853 40.279 40.7165L37.3249 37.827C41.3341 33.0683 41.1851 25.981 36.7592 21.5579C32.0813 16.8828 24.3985 16.9516 19.6631 21.6835C14.9276 26.416 14.9222 34.0941 19.6002 38.7692C19.7628 38.9317 19.9336 39.0579 20.103 39.2089H16.0804C15.9763 39.1924 15.8703 39.1924 15.7662 39.2089C15.5566 39.2775 15.3754 39.413 15.2505 39.5946C15.1256 39.7762 15.0638 39.9938 15.0748 40.2139V44.2341C15.0748 44.5006 15.1808 44.7563 15.3693 44.9447C15.5579 45.1332 15.8137 45.2391 16.0804 45.2391H20.103C20.3698 45.2391 20.6255 45.1332 20.8141 44.9447C21.0027 44.7563 21.1087 44.5006 21.1087 44.2341V40.2139C21.1146 40.1513 21.1146 40.0882 21.1087 40.0255C21.7495 40.4813 22.4193 40.9062 23.12 41.219V44.2341C23.12 44.5006 23.226 44.7563 23.4146 44.9447C23.6032 45.1332 23.859 45.2391 24.1257 45.2391H28.1483C28.415 45.2391 28.6708 45.1332 28.8594 44.9447C29.048 44.7563 29.1539 44.5006 29.1539 44.2341V42.1612C29.8367 42.0937 30.4982 41.9678 31.1653 41.7843V44.2341C31.1653 44.5006 31.2712 44.7563 31.4598 44.9447C31.6484 45.1332 31.9042 45.2391 32.1709 45.2391H36.1935C36.4602 45.2391 36.716 45.1332 36.9046 44.9447C37.0932 44.7563 37.1992 44.5006 37.1992 44.2341V40.6536L38.7705 42.1612C38.6058 42.5992 38.5715 43.0755 38.6719 43.5326C38.7723 43.9896 39.0031 44.4078 39.3362 44.7366L40.8447 46.2442H4.01255V10.0627ZM28.274 20.1131C30.8561 20.0902 33.428 21.0551 35.3764 23.0026C38.4227 26.047 38.9803 30.5728 37.1992 34.3093V30.1635C37.1992 29.897 37.0932 29.6414 36.9046 29.4529C36.716 29.2644 36.4602 29.1585 36.1935 29.1585H32.1709C32.0668 29.142 31.9608 29.142 31.8566 29.1585C31.6471 29.2271 31.4659 29.3626 31.341 29.5442C31.2161 29.7258 31.1543 29.9434 31.1653 30.1635V39.6486C30.5056 39.8696 29.8353 40.0076 29.1539 40.0883V26.1434C29.1539 25.8768 29.048 25.6212 28.8594 25.4327C28.6708 25.2443 28.415 25.1384 28.1483 25.1383H24.1257C24.0216 25.1219 23.9155 25.1219 23.8114 25.1383C23.6019 25.2069 23.4207 25.3425 23.2957 25.5241C23.1708 25.7057 23.1091 25.9233 23.12 26.1434V38.9576C22.3619 38.5283 21.6302 37.9713 20.983 37.3244C17.0861 33.4301 17.1296 27.105 21.1087 23.1283C23.0983 21.1399 25.6919 20.1361 28.274 20.1131ZM25.1313 27.1484H27.1426V40.1511C26.462 40.0937 25.789 39.9721 25.1313 39.7742V27.1484ZM33.1766 31.1686H35.1879V37.1988C34.5826 37.8038 33.8727 38.2832 33.1766 38.7064V31.1686ZM7.72091 33.1787C7.51136 33.2473 7.33018 33.3828 7.20525 33.5644C7.08033 33.746 7.01858 33.9636 7.02952 34.1837V44.2341C7.02954 44.5006 7.13551 44.7563 7.3241 44.9447C7.51269 45.1332 7.76847 45.2391 8.03517 45.2391H12.0578C12.3245 45.2391 12.5803 45.1332 12.7689 44.9447C12.9575 44.7563 13.0634 44.5006 13.0635 44.2341V34.1837C13.0634 33.9172 12.9575 33.6615 12.7689 33.4731C12.5803 33.2846 12.3245 33.1787 12.0578 33.1787H8.03517C7.93107 33.1622 7.82502 33.1622 7.72091 33.1787ZM9.04083 35.1887H11.0521V43.2291H9.04083V35.1887ZM35.1879 39.837V43.2291H33.1766V41.0305C33.8817 40.6965 34.5428 40.3135 35.1879 39.837ZM17.0861 41.219H19.0974V43.2291H17.0861V41.219ZM25.1313 41.9099C25.7925 42.0698 26.466 42.1157 27.1426 42.1612V43.2291H25.1313V41.9099Z" fill="white"/>
</svg>
