<svg width="55" height="55" viewBox="0 0 55 55" fill="none" xmlns="http://www.w3.org/2000/svg">
<path d="M0.665994 2L0.610494 3.76824H1.49849H3.27447H4.16246L4.21796 2H3.32997H1.55399H0.665994ZM5.99395 2.05526L5.93845 3.8235H6.82644H8.60242H9.49041L9.54591 2.05526H8.65792H6.88194H5.99395ZM11.2664 2.05526V3.8235H12.1544H13.9304H14.8184V2.05526H13.9304H12.1544H11.2664ZM16.5943 2.05526V3.8235H17.4823H19.2583H20.1463V2.05526H19.2583H17.4823H16.5943ZM21.9223 2.05526V3.8235H22.8103H24.5863H25.4743V2.05526H24.5863H22.8103H21.9223ZM27.1393 4.04453L25.3633 4.48659L25.5853 5.31546L26.0293 7.02845L26.2513 7.91257L27.9717 7.47051L27.7497 6.58638L27.3058 4.8734L27.1393 4.04453ZM0 4.8734V5.75752V7.52576V8.40989H1.77598V7.52576V5.75752V4.8734H0ZM4.16246 5.53649C3.97743 5.59685 3.81745 5.71607 3.70714 5.87582C3.59683 6.03557 3.54231 6.22699 3.55197 6.42061V11.5596V16.6433C3.54965 16.6801 3.54965 16.717 3.55197 16.7538V41.6197V41.675C3.55139 41.6934 3.55139 41.7118 3.55197 41.7302C3.55139 41.7487 3.55139 41.7671 3.55197 41.7855C3.55139 41.8039 3.55139 41.8223 3.55197 41.8408C3.55139 41.8592 3.55139 41.8776 3.55197 41.896C3.57046 41.8966 3.58897 41.8966 3.60747 41.896C3.60225 41.9512 3.60225 42.0067 3.60747 42.0618C3.62596 42.0624 3.64447 42.0624 3.66297 42.0618C3.66239 42.0802 3.66239 42.0986 3.66297 42.117C3.68146 42.1176 3.69997 42.1176 3.71847 42.117C3.71789 42.1355 3.71789 42.1539 3.71847 42.1723C3.73614 42.1915 3.75466 42.21 3.77397 42.2276C3.77339 42.246 3.77339 42.2644 3.77397 42.2828C3.79246 42.2834 3.81097 42.2834 3.82947 42.2828C3.82889 42.3012 3.82889 42.3197 3.82947 42.3381C3.84796 42.3387 3.86647 42.3387 3.88496 42.3381C3.88439 42.3565 3.88439 42.3749 3.88496 42.3933C3.90346 42.3939 3.92197 42.3939 3.94046 42.3933C4.0863 42.4976 4.26046 42.5554 4.43996 42.5591H16.4833C18.9309 48.7802 23.0212 52.4604 27.0838 54.8816C27.2187 54.9592 27.3719 55 27.5277 55C27.6836 55 27.8368 54.9592 27.9717 54.8816C31.99 52.4867 36.11 48.7904 38.5721 42.5591H50.6155C50.7104 42.5556 50.8041 42.5369 50.893 42.5038C50.9115 42.5044 50.93 42.5044 50.9485 42.5038C51.008 42.4734 51.0639 42.4363 51.115 42.3933C51.2706 42.2852 51.3873 42.1303 51.448 41.9513C51.4486 41.9329 51.4486 41.9144 51.448 41.896C51.4691 41.8605 51.4876 41.8236 51.5035 41.7855C51.5058 41.7487 51.5058 41.7118 51.5035 41.675V41.6197V16.7538C51.5087 16.6987 51.5087 16.6432 51.5035 16.588V11.5596C51.5035 11.3251 51.4099 11.1002 51.2434 10.9344C51.0769 10.7686 50.851 10.6755 50.6155 10.6754H24.9193L23.9758 6.3101C23.9365 6.10536 23.8259 5.92101 23.6635 5.78957C23.501 5.65814 23.2971 5.58807 23.0878 5.59175H11.2109L4.43996 5.53649C4.34803 5.52201 4.25439 5.52201 4.16246 5.53649ZM28.5267 7.24948V9.01772H29.4147H31.1907H32.0787V7.24948H31.1907H29.4147H28.5267ZM33.8547 7.24948V9.01772H34.7427H36.5187H37.4067V7.24948H36.5187H34.7427H33.8547ZM39.1826 7.24948V9.01772H40.0706H41.8466H42.7346V7.24948H41.8466H40.0706H39.1826ZM44.5106 7.24948V9.01772H45.3986H47.1746H48.0626V7.24948H47.1746H45.3986H44.5106ZM49.8385 7.24948V9.01772H50.7265H52.5025H53.3905V7.24948H52.5025H50.7265H49.8385ZM5.32795 7.30473L11.2109 7.35999H22.3663L23.3653 11.7806C23.4133 11.9659 23.5204 12.1308 23.6705 12.2504C23.8206 12.3699 24.0056 12.4378 24.1978 12.4437H49.7275V15.8697H5.32795V11.5596V7.30473ZM53.224 9.18349V10.0676V11.8359V12.72H55V11.8359V10.0676V9.18349H53.224ZM0 10.1781V11.0623V12.8305V13.7146H1.77598V12.8305V11.0623V10.1781H0ZM53.224 14.4882V15.3723V17.1406V18.0247H55V17.1406V15.3723V14.4882H53.224ZM0 15.4829V16.367V18.1352V19.0194H1.77598V18.1352V16.367V15.4829H0ZM5.32795 17.6379H49.7275V40.7356H39.1826C40.2132 37.4959 40.8476 33.6271 40.8476 29.021C40.8476 28.7865 40.754 28.5616 40.5875 28.3958C40.421 28.23 40.1951 28.1369 39.9596 28.1369C34.5347 28.1369 30.665 26.1143 27.8607 25.0424C27.6703 24.9525 27.4539 24.9329 27.2503 24.9872C27.2309 25.0048 27.2124 25.0232 27.1948 25.0424C24.0489 26.2021 19.1864 28.1369 15.0959 28.1369C14.8604 28.1369 14.6345 28.23 14.468 28.3958C14.3015 28.5616 14.2079 28.7865 14.2079 29.021C14.2079 33.6394 14.8493 37.4994 15.8729 40.7356H5.32795V17.6379ZM53.224 19.793V20.6771V22.4453V23.3294H55V22.4453V20.6771V19.793H53.224ZM0 20.7876V21.6717V23.44V24.3241H1.77598V23.44V21.6717V20.7876H0ZM53.224 25.0977V25.9818V27.7501V28.6342H55V27.7501V25.9818V25.0977H53.224ZM0 26.0923V26.9765V28.7447V29.6288H1.77598V28.7447V26.9765V26.0923H0ZM27.5277 26.8107C29.9789 27.7788 33.8741 29.5003 39.0161 29.7393C38.8004 43.3591 33.2413 49.5186 27.5277 53.0581C21.7447 49.4805 16.2525 43.4017 16.0394 29.7393C20.268 29.496 24.6428 27.8847 27.5277 26.8107ZM53.224 30.4024V31.2866V33.0548V33.9389H55V33.0548V31.2866V30.4024H53.224ZM0 31.3971V32.2812V34.0494V34.9336H1.77598V34.0494V32.2812V31.3971H0ZM53.224 35.7072V36.5913V38.3595V39.2436H55V38.3595V36.5913V35.7072H53.224ZM30.5802 36.3703L26.3068 40.4593L24.4753 38.6911L23.2543 39.962L25.6963 42.2828L26.3068 42.8354L26.9173 42.2828L31.8012 37.6964L30.5802 36.3703ZM0 36.7018V37.5859V39.3542V40.2383H1.77598V39.3542V37.5859V36.7018H0ZM53.224 41.0119V41.896V43.6643V44.5484H55V43.6643V41.896V41.0119H53.224ZM0 42.0065V42.8907V44.6589V45.543H1.77598V44.6589V42.8907V42.0065H0ZM2.94147 44.4379V46.2061H3.82947H5.60545H6.49344V44.4379H5.60545H3.82947H2.94147ZM8.26942 44.4379V46.2061H9.15742H10.9334H11.8214V44.4379H10.9334H9.15742H8.26942ZM13.5974 44.4379V46.2061H14.4854H14.7074H15.5954V44.4379H14.7074H14.4854H13.5974ZM39.9041 44.4379V46.2061H40.7921H41.5136H42.4016V44.4379H41.5136H40.7921H39.9041ZM44.1776 44.4379V46.2061H45.0656H46.8416H47.7296V44.4379H46.8416H45.0656H44.1776ZM49.5056 44.4379V46.2061H50.3935H52.1695H53.0575V44.4379H52.1695H50.3935H49.5056Z" fill="white"/>
</svg>
