<svg width="1090" height="62" viewBox="0 0 1090 62" fill="none" xmlns="http://www.w3.org/2000/svg">
<g id="Frame 142">
<g id="Frame" clip-path="url(#clip0)">
<g id="Group">
<path id="Vector" fill-rule="evenodd" clip-rule="evenodd" d="M90.5002 11H92.6028L94.7072 11.0808L96.8134 11.2442L98.8329 11.4058L100.854 11.65L102.874 11.8942L104.81 12.2209L106.662 12.5459L108.515 12.9552L110.282 13.4436L112.05 13.9319L113.733 14.4203L115.334 14.9912L116.933 15.5621L118.448 16.2139L119.879 16.8656L121.226 17.5156L122.574 18.2499L123.751 19.065L124.929 19.7976L126.024 20.6127L127.034 21.5086L127.875 22.3237L128.717 23.2196L129.474 24.1155L130.148 25.0923L130.737 25.9899L131.163 26.9684L131.495 27.9434L131.83 29.0027L131.998 29.9811V31.0404V31.2038V31.448V31.6921V31.9363L131.914 32.0997V32.3439V32.5881L131.83 32.7514L131.663 32.0172L131.329 31.2038L130.986 30.4695L130.569 29.7369L129.98 29.0027L129.391 28.2701L128.717 27.5376L127.96 26.8858L127.119 26.1533L126.277 25.5015L125.267 24.9306L124.257 24.2789L123.163 23.708L122.068 23.1388L120.805 22.5679L119.541 22.0795L118.195 21.5894L116.848 21.101L115.417 20.6127L113.901 20.2051L112.386 19.8784L110.787 19.4708L109.187 19.1458L107.503 18.8208L105.82 18.5749L104.053 18.3307L102.2 18.1691L100.348 18.0057L98.4969 17.8424L96.6436 17.7598L94.7072 17.6807H92.6877H90.7531L88.8167 17.7598L86.9634 17.9249L85.195 18.0865L83.4284 18.2499L81.7448 18.4941L80.1444 18.8208L78.544 19.1458L77.0303 19.4708L75.5148 19.8784L74.1672 20.3685L72.8215 20.776L71.474 21.2644L70.2962 21.8353L69.1167 22.4045L67.9389 22.9754L66.9274 23.5446L65.9176 24.1963L64.991 24.8498L64.1492 25.5015L63.3075 26.1533L62.5506 26.8858L61.8768 27.5376L61.288 28.2701L60.784 29.0027L60.2782 29.7369L59.8573 30.552L59.5213 31.2846L59.2667 32.0172L59.0156 32.8323L58.9307 33.5665L58.8458 34.3799V34.4624V34.5433V34.6241V34.7875L59.1004 34.1357L59.3516 33.484L59.7724 32.8323L60.1933 32.2613L60.6991 31.6096L61.288 31.0404L61.9617 30.4695L62.6355 29.8986L63.3924 29.3294L64.2341 28.841L65.0759 28.2701L66.0025 27.7817L66.9274 27.2916L67.9389 26.8033L69.0318 26.3974L70.1264 25.9899L71.306 25.5823L72.4837 25.1748L73.7464 24.8498L75.009 24.4422L76.2716 24.1155L77.6209 23.8713L79.0498 23.6271L80.3973 23.383L81.9128 23.1388L83.3435 22.9754L84.859 22.812L86.3745 22.6487L87.89 22.5679L89.4887 22.487L91.0891 22.4045H92.6877H94.4561L96.2228 22.487L97.908 22.5679L99.5916 22.7312L101.275 22.812L102.874 23.0562L104.474 23.3004L105.99 23.5446L107.503 23.7905L109.019 24.1155L110.451 24.4422L111.797 24.8498L113.145 25.2573L114.492 25.6632L115.755 26.1533L116.933 26.5591L118.027 27.13L119.122 27.6184L120.132 28.1893L121.056 28.6777L121.983 29.3294L122.825 29.8986L123.582 30.4695L124.257 31.1212L124.846 31.773L125.35 32.4247L125.856 33.159L126.194 33.8107L126.53 34.5433L126.781 35.2775L126.866 36.0084L126.951 36.7427L126.866 37.1502V37.6386L126.781 38.0461L126.698 38.5362L126.53 38.942L126.362 39.3496L126.109 39.7571L125.856 40.2472L125.603 40.6531L125.35 41.0606L125.014 41.4682L124.676 41.8757L124.257 42.2833L123.836 42.61L123.415 43.0158L122.993 43.4234L122.489 43.7501L121.983 44.1559L121.394 44.4827L120.888 44.8077L120.3 45.2169L119.626 45.5419L119.037 45.8669L118.363 46.1937L117.689 46.4379L117.017 46.7629L116.259 47.0896L115.585 47.3338L114.828 47.6605L113.986 47.9047L113.228 48.1489L112.386 48.3931L112.892 48.2297L113.397 47.9855L113.901 47.8221L114.407 47.578L114.911 47.4146L115.334 47.1704L115.755 46.9262L116.176 46.682L116.597 46.4379L117.017 46.1937L117.353 46.0303L117.774 45.7053L118.112 45.4611L118.448 45.2169L118.784 44.971L119.037 44.7268L119.375 44.4827L119.626 44.1559L119.879 43.9117L120.132 43.6676L120.3 43.3425L120.552 43.0984L120.72 42.7716L120.888 42.5274L121.056 42.2007L121.141 41.9565L121.226 41.6315L121.309 41.3048L121.394 41.0606L121.477 40.7356V40.4089V40.0839V39.513L121.394 38.942L121.141 38.3729L120.973 37.8019L120.637 37.3136L120.216 36.7427L119.796 36.2526L119.29 35.7659L118.699 35.195L118.112 34.7066L117.437 34.2991L116.68 33.8107L115.923 33.4032L115.081 32.9148L114.154 32.5072L113.228 32.1805L112.303 31.773L111.293 31.448L110.198 31.0404L109.104 30.7962L107.924 30.4695L106.747 30.2253L105.569 29.9811L104.304 29.7369L103.042 29.4928L101.779 29.3294L100.433 29.166L99.0858 29.0852L97.6552 29.0027L96.2228 28.9218L94.7921 28.841H93.3615H92.7726H92.0157L91.342 28.9218H90.5002L89.6567 29.0027H88.8167L87.89 29.0852L86.8803 29.2486L85.9536 29.3294L84.9439 29.4928L83.9341 29.6544L82.9226 29.8178L81.9128 30.0637L80.8182 30.3079L79.8084 30.552L78.7987 30.7962L77.7872 31.1212L76.7774 31.5288L75.7676 31.8555L74.7579 32.2613L73.8312 32.7514L72.9895 33.2398L72.1477 33.7282L71.306 34.2991L70.5473 34.9508L69.7904 35.6026L69.2016 36.2526L68.5278 36.9868L68.022 37.8019L67.6029 38.617L67.1803 39.513L66.9274 40.4089L67.0972 40.0839L67.3483 39.6763L67.686 39.3496L68.022 39.0246L68.3598 38.6979L68.7807 38.2903L69.2847 37.9636L69.7904 37.6386L70.2962 37.3136L70.8851 36.9868L71.474 36.7427L72.1477 36.4177L72.7366 36.0909L73.4935 35.8467L74.1672 35.5217L74.9259 35.2775L75.7676 35.0316L76.5245 34.7875L77.3663 34.5433L78.208 34.3799L79.1347 34.1357L80.0613 33.9741L80.9862 33.8107L81.9128 33.6473L82.8395 33.484L83.8492 33.4032L84.859 33.3223L85.8688 33.159H86.8803L87.9749 33.0764H88.9829L90.0793 32.9956L91.342 33.0764H92.5197L93.6975 33.159L94.877 33.2398L95.9716 33.3223L97.1494 33.4032L98.244 33.5665L99.2538 33.7282L100.348 33.8915L101.36 34.1357L102.37 34.2991L103.296 34.5433L104.221 34.7875L105.146 35.1142L105.99 35.3584L106.83 35.6851L107.588 35.9293L108.345 36.2526L109.019 36.5793L109.693 36.9868L110.282 37.3136L110.87 37.7194L111.376 38.0461L111.882 38.4537L112.303 38.8612L112.639 39.2688L112.977 39.7571L113.228 40.1647L113.481 40.5722L113.565 41.0606L113.65 41.4682L113.733 41.9565V42.2833L113.65 42.61L113.565 42.8542L113.481 43.1792L113.397 43.5059L113.228 43.8309L113.06 44.0751L112.807 44.4001L112.639 44.646L112.386 44.971L112.05 45.2169L111.797 45.5419L111.459 45.7861L111.123 46.0303L110.702 46.2745L110.366 46.5187L109.946 46.7629L109.525 47.0896L109.019 47.2512L108.598 47.4971L108.094 47.7413L107.588 47.9855L106.999 48.1489L106.494 48.3931L105.905 48.5564L105.316 48.8006L104.725 48.964L104.138 49.1256L103.463 49.289L102.874 49.4523L102.2 49.6157L101.526 49.7774L101.779 49.6965L102.032 49.5332L102.37 49.4523L102.621 49.3698L102.874 49.2082L103.127 49.1256L103.296 48.964L103.547 48.8814L103.8 48.8006L103.968 48.6372L104.221 48.4739L104.389 48.3931L104.557 48.2297L104.725 48.1489L104.895 47.9855L105.063 47.8221L105.231 47.7413L105.399 47.578L105.484 47.4146L105.652 47.2512L105.737 47.1704L105.905 47.007L105.99 46.8454L106.073 46.682L106.158 46.5187V46.4379L106.241 46.2745L106.326 46.1111V45.9495L106.411 45.7861V45.6228V45.4611V45.1344L106.326 44.8902L106.241 44.5635L106.073 44.2385L105.905 43.9943L105.652 43.7501L105.484 43.4234L105.146 43.1792L104.81 42.935L104.474 42.61L104.138 42.3641L103.715 42.1199L103.296 41.9565L102.789 41.7124L102.285 41.4682L101.779 41.3048L101.275 41.0606L100.684 40.899L100.097 40.7356L99.5067 40.5722L98.8329 40.4089L98.1609 40.2472L97.4872 40.1647L96.8134 40.0013L96.0565 39.9205L95.381 39.8397L94.6241 39.7571L93.8672 39.6763L93.1086 39.5938H92.2668L91.51 39.513H90.6664H89.9096L89.0678 39.5938H88.3109L87.5523 39.6763L86.7954 39.7571L86.0385 39.8397L85.2799 39.9205L84.6061 40.0839L83.9341 40.2472L83.2604 40.3263L82.5848 40.4914L81.9128 40.6531L81.3222 40.8164L80.7351 41.0606L80.2293 41.224L79.6404 41.3873L79.1347 41.6315L78.6289 41.8757L78.208 42.0391L77.7872 42.2833L77.3663 42.5274L77.0303 42.6891L76.6943 42.935L76.3565 43.1792L76.1036 43.4234L75.8525 43.6676L75.5996 43.9117L75.4299 44.0751L75.345 44.3193L75.1788 44.5635V44.7268V44.971V45.2169V45.3786L75.2619 45.6228V45.7861L75.345 46.0303L75.5148 46.1937L75.5996 46.3553L75.7676 46.6012L75.9356 46.7629L76.1036 46.9262L76.2716 47.1704L76.4414 47.3338L76.6094 47.4971L76.8623 47.6605L77.1134 47.8221L77.3663 47.9855L77.6209 48.1489L77.872 48.3122L78.1249 48.4739L78.376 48.6372L78.6289 48.7181L78.9667 48.8814L79.2196 49.0448L79.5556 49.1256L79.8084 49.289L80.1444 49.4523L80.4822 49.5332L80.7351 49.6157L81.0711 49.7774L81.4071 49.8599L81.7448 49.9407L81.9977 50.0233L82.3337 50.1849L82.7546 50.2657L83.0906 50.3483L83.4284 50.4291L83.7644 50.5116L84.0172 50.5925H84.3532L84.691 50.675L84.9439 50.7558H85.2799L85.5328 50.8366H85.7856L86.0385 50.9192H86.2896H86.5425L86.7954 51L86.0385 50.9192H85.363L84.6061 50.8366H83.9341L83.2604 50.7558L82.5017 50.675H81.828L81.1542 50.5925L80.4822 50.5116L79.8933 50.4291L79.3027 50.3483L78.7138 50.2657L78.208 50.1849L77.704 50.1041H77.2832L76.9454 50.0233L75.6845 49.7774L74.337 49.5332L73.0726 49.2082L71.8117 48.8814L70.5473 48.5564L69.2847 48.2297L68.022 47.8221L66.8443 47.4971L65.5816 47.007L64.4039 46.6012L63.2244 46.1111L62.1297 45.6228L60.9502 45.1344L59.9422 44.5635L58.8458 44.0751L57.836 43.4234L56.9094 42.8542L55.9845 42.2007L55.0579 41.5507L54.2179 40.899L53.4592 40.2472L52.7024 39.513L52.0268 38.7787L51.4397 37.9636L50.8491 37.231L50.4282 36.4177L50.0073 35.5217L49.6713 34.7066L49.3353 33.8107L49.1673 32.9148L48.9976 31.9363V31.0404L49.0824 29.9811L49.2504 29.0027L49.5033 27.9434L49.8393 26.9684L50.3451 25.9899L50.8491 25.0923L51.5228 24.1155L52.2815 23.2196L53.1232 22.3237L54.0481 21.5086L54.9748 20.6127L56.0676 19.7976L57.2472 19.065L58.5098 18.2499L59.7724 17.5156L61.12 16.8656L62.6355 16.2139L64.0661 15.5621L65.6648 14.9912L67.2634 14.4203L68.9487 13.9319L70.7171 13.4436L72.4837 12.9552L74.337 12.5459L76.2716 12.2209L78.1249 11.8942L80.1444 11.65L82.1657 11.4058L84.1852 11.2442L86.2896 11.0808L88.394 11H90.5002Z" fill="#5E88FF"/>
<path id="Vector_2" fill-rule="evenodd" clip-rule="evenodd" d="M90.4545 44H91.0543L91.6524 44.0772H92.2505H92.8486L93.3622 44.1544H93.8741L94.474 44.2332L94.9858 44.3103L95.4995 44.3875L96.0114 44.4663L96.4388 44.5452L96.9525 44.6207L97.38 44.6995L97.8074 44.8555L98.2349 44.9327L98.5779 45.0887L99.0054 45.1658L99.3466 45.3218L99.6879 45.4007L100.031 45.555L100.288 45.711L100.629 45.867L100.886 46.0213L101.056 46.1773L101.313 46.3333L101.484 46.4877L101.656 46.6437L101.741 46.7997L101.827 46.9557L101.911 47.1888L101.998 47.3432V47.4992V47.734L101.911 47.8883L101.827 48.0443L101.741 48.2003L101.656 48.4335L101.484 48.5895L101.313 48.7438L101.056 48.8998L100.886 49.0558L100.629 49.2118L100.288 49.3662L100.031 49.5222L99.6879 49.601L99.3466 49.7553L99.0054 49.9113L98.5779 49.9885L98.2349 50.1445L97.8074 50.2217L97.38 50.3005L96.9525 50.4565L96.4388 50.5337L96.0114 50.6125L95.4995 50.6897L94.9858 50.7668L94.474 50.8456H93.8741L93.3622 50.9228H92.8486L92.2505 51H91.6524H91.0543H90.4545H89.9426H89.3445H88.7446L88.1466 50.9228H87.6329L87.0348 50.8456H86.5229L86.0093 50.7668L85.4956 50.6897L84.9819 50.6125L84.5563 50.5337L84.0426 50.4565L83.6152 50.3005L83.1877 50.2217L82.7602 50.1445L82.3328 49.9885L81.9898 49.9113L81.6485 49.7553L81.3073 49.601L80.9642 49.5222L80.623 49.3662L80.3661 49.2118L80.1093 49.0558L79.9387 48.8998L79.6818 48.7438L79.5112 48.5895L79.3406 48.4335L79.2544 48.2003L79.17 48.0443L79.0838 47.8883L78.9976 47.734V47.4992V47.3432L79.0838 47.1888L79.17 46.9557L79.2544 46.7997L79.3406 46.6437L79.5112 46.4877L79.6818 46.3333L79.9387 46.1773L80.1093 46.0213L80.3661 45.867L80.623 45.711L80.9642 45.555L81.3073 45.4007L81.6485 45.3218L81.9898 45.1658L82.3328 45.0887L82.7602 44.9327L83.1877 44.8555L83.6152 44.6995L84.0426 44.6207L84.5563 44.5452L84.9819 44.4663L85.4956 44.3875L86.0093 44.3103L86.5229 44.2332L87.0348 44.1544H87.6329L88.1466 44.0772H88.7446H89.3445L89.9426 44H90.4545Z" fill="#5E88FF"/>
</g>
</g>
<g id="Frame_2" clip-path="url(#clip1)">
<path id="Vector_3" fill-rule="evenodd" clip-rule="evenodd" d="M242.539 5.28201C244.607 4.72732 246.755 4.46237 248.899 4.5043C266.905 4.5043 284.911 4.5043 302.917 4.5043C308.077 4.49096 313.236 6.17217 317.322 9.26773C321.19 12.1765 324.057 16.3223 325.435 20.9009C326.841 25.529 326.688 30.5898 325.031 35.1359C327.096 35.1435 329.16 35.1244 331.225 35.1187C331.697 35.1054 332.226 35.0749 332.623 35.3742C332.969 35.6239 333.057 36.0909 332.962 36.4816C332.88 36.8647 332.615 37.1678 332.4 37.4842C331.61 38.6127 330.797 39.7259 329.897 40.7723C329.496 41.2279 329.2 41.7826 328.691 42.1352C328.098 42.5469 327.347 42.6327 326.639 42.648C324.687 42.6632 322.734 42.6918 320.782 42.6918C320.675 42.6994 320.56 42.6785 320.463 42.7223C316.155 47.4476 309.825 50.3983 303.345 50.5222C285.386 50.5241 267.426 50.5222 249.468 50.5222C248.053 50.5394 246.631 50.5051 245.227 50.3068C243.234 50.038 241.277 49.5253 239.416 48.7781C239.424 50.5832 239.435 52.3864 239.443 54.1915C239.432 54.8587 239.484 55.5277 239.428 56.193C239.377 56.6218 239.257 57.1136 238.862 57.3633C238.459 57.6054 237.952 57.4853 237.545 57.3157C236.635 56.9192 235.914 56.2235 235.188 55.5735C234.513 54.9521 233.866 54.3002 233.123 53.755C232.676 53.4291 232.294 53.0173 232.016 52.5446C231.375 51.4543 231.235 50.1677 231.203 48.9325C231.2 47.0187 231.201 45.105 231.201 43.1912C229.498 41.3804 228.1 39.2989 227.065 37.0554C225.634 33.9541 224.924 30.5364 225.004 27.1339C225.101 22.1189 226.929 17.1534 230.132 13.242C233.261 9.37638 237.697 6.58199 242.539 5.28201ZM232.24 11.7C228.831 15.0224 226.552 19.4293 225.809 24.0841C225.138 28.1709 225.653 32.4387 227.291 36.2567C228.245 38.4907 229.568 40.576 231.196 42.3983C231.196 33.6834 231.203 24.9686 231.188 16.2556C231.192 15.7486 231.178 15.2397 231.198 14.7345C231.223 14.0636 231.552 13.4079 232.086 12.9866C232.541 12.6187 233.136 12.4357 233.724 12.4434C236.524 12.4434 239.319 12.1937 242.119 12.2299C243.71 12.2585 245.312 12.3843 246.851 12.8017C248.093 13.1372 249.287 13.6842 250.303 14.4696C251.613 15.4665 252.59 16.8275 253.305 18.2818C253.296 17.9502 253.284 17.6204 253.259 17.2907C253.179 16.2766 253.228 15.2568 253.315 14.2447C253.406 13.3373 254.25 12.5711 255.184 12.5711C258.642 12.6587 262.099 12.5177 265.557 12.5711C266.111 12.5692 266.666 12.8151 267.008 13.2477C267.459 13.7986 267.585 14.5306 267.568 15.2206C267.562 15.9869 267.582 16.7512 267.585 17.5175C268.091 16.3281 268.764 15.2149 269.46 14.1246C269.76 13.6728 270.11 13.2268 270.592 12.9504C271.098 12.6587 271.699 12.5844 272.276 12.573C277.241 12.4719 282.21 12.4491 287.175 12.573C288.029 12.5882 288.874 13.2458 288.921 14.1112C288.937 15.2473 288.923 16.3833 288.976 17.5194C289.374 16.7874 289.79 16.065 290.166 15.3197C290.522 14.6468 290.794 13.9092 291.36 13.3716C291.887 12.8455 292.638 12.5768 293.382 12.5768C296.632 12.5749 299.88 12.5997 303.129 12.5768C303.971 12.5596 304.866 12.8151 305.442 13.446C306.009 14.0521 306.229 14.8794 306.346 15.6743C306.325 15.1882 306.338 14.6983 306.432 14.2199C306.527 13.7338 306.725 13.2325 307.139 12.9237C307.542 12.6187 308.073 12.5596 308.567 12.5768C309.928 12.5615 311.289 12.5482 312.649 12.5806C313.182 12.5978 313.755 12.7636 314.092 13.1944C314.516 13.7281 314.595 14.4334 314.634 15.0853C314.652 15.7543 314.636 16.4253 314.642 17.0943C314.642 23.1006 314.642 29.1049 314.642 35.1111C317.915 35.1054 321.188 35.1473 324.463 35.1359C325.715 31.7716 326.143 28.1137 325.677 24.5587C325.06 19.74 322.779 15.1443 319.302 11.6866C315.982 8.3566 311.556 6.13214 306.879 5.35444C305.339 5.08949 303.771 4.99609 302.209 5.02277C284.157 5.02277 266.106 5.02277 248.055 5.02277C242.164 5.13142 236.406 7.6418 232.24 11.7ZM296.828 33.55C296.642 33.9045 296.412 34.261 296.383 34.6689C296.375 35.0101 296.782 35.1054 297.058 35.1073C300.125 35.113 303.192 35.1073 306.256 35.1092C306.256 29.3927 306.256 23.6762 306.256 17.9597C303.112 23.152 299.866 28.291 296.828 33.55ZM261.635 20.0393C261.627 21.3736 261.623 22.7079 261.627 24.0422C264.633 24.0917 267.638 24.0288 270.645 24.0441C271.113 24.0574 271.625 23.9774 272.047 24.229C272.307 24.3777 272.41 24.6941 272.371 24.9743C272.313 25.4832 272.012 25.9178 271.806 26.3753C271.144 27.763 270.398 29.1125 269.532 30.3877C268.997 31.1082 268.085 31.4818 267.195 31.5104C265.343 31.579 263.49 31.6419 261.637 31.6038C261.64 32.7704 261.625 33.9369 261.644 35.1035C264.952 35.1111 268.262 35.1492 271.57 35.0882C271.909 35.092 272.29 35.2808 272.344 35.6372C272.438 36.2033 272.159 36.7428 271.93 37.246C271.263 38.6832 270.466 40.0537 269.717 41.449C269.505 41.8245 269.182 42.1409 268.791 42.3392C268.235 42.6251 267.589 42.6556 266.973 42.6441C263.467 42.6804 259.958 42.7013 256.452 42.6461C255.602 42.6613 254.744 42.4116 254.05 41.9313C253.646 41.6453 253.28 41.2107 253.301 40.6961C253.309 37.0191 253.381 33.3422 253.301 29.6672C252.257 31.215 250.834 32.5111 249.198 33.4413C247.985 34.1256 246.629 34.6022 245.223 34.6822C244.731 34.7127 244.229 34.7375 243.747 34.6231C243.263 34.5088 242.829 34.2438 242.454 33.9312C241.439 33.0734 240.437 32.1985 239.441 31.3179C239.387 32.9877 239.391 34.6574 239.383 36.3291C239.381 40.2882 239.385 44.2491 239.41 48.2082C242.463 49.4757 245.797 50.0724 249.109 49.9999C266.901 49.9999 284.695 49.9999 302.488 49.9999C308.956 50.1238 315.362 47.3256 319.755 42.6994C316.025 42.7071 312.295 42.6746 308.565 42.6461C308.073 42.6384 307.561 42.5012 307.2 42.1581C306.785 41.773 306.593 41.2203 306.48 40.6846C306.29 39.7239 306.303 38.7404 306.274 37.7663C305.477 39.1407 304.78 40.6065 303.647 41.7559C303.151 42.242 302.507 42.6556 301.784 42.648C297.042 42.5717 292.303 42.6956 287.562 42.6689C286.854 42.648 286.107 42.4612 285.584 41.9656C285.102 41.5138 284.903 40.8409 284.925 40.2005C284.954 39.276 285.319 38.3992 285.784 37.6081C289.178 31.7697 292.688 25.9941 295.881 20.045C291.272 19.9383 286.665 20.0469 282.056 20.0431C282.056 26.7413 282.056 33.4413 282.056 40.1395C282.052 40.658 282.023 41.1898 281.823 41.6739C281.685 42.0151 281.42 42.3201 281.066 42.4593C280.742 42.5946 280.382 42.5812 280.038 42.5774C278.488 42.5736 276.936 42.6041 275.384 42.5717C274.946 42.5565 274.483 42.383 274.244 42.0056C273.941 41.5348 273.902 40.9572 273.883 40.4159C273.881 33.6243 273.883 26.8328 273.883 20.0431C269.802 19.9916 265.717 19.9287 261.635 20.0393ZM239.447 20.0374C239.447 22.4944 239.447 24.9533 239.447 27.4103C240.649 27.4694 241.866 27.4809 243.049 27.235C243.864 27.0615 244.682 26.7298 245.25 26.1103C245.834 25.4908 246.063 24.6312 246.088 23.8058C246.108 23.03 246.02 22.218 245.624 21.5318C245.248 20.8666 244.548 20.4396 243.811 20.2585C242.384 19.8963 240.9 20.0908 239.447 20.0374ZM318.814 24.0879C317.942 24.2099 317.133 24.7379 316.706 25.4947C316.103 26.5259 316.26 27.9288 317.096 28.7942C317.917 29.6786 319.317 29.955 320.432 29.4823C321.058 29.225 321.591 28.7446 321.89 28.1442C322.334 27.2731 322.283 26.1732 321.74 25.3536C321.136 24.412 319.93 23.9049 318.814 24.0879ZM318.689 24.6026C318.3 24.6979 317.935 24.8904 317.649 25.1668C316.752 25.9941 316.692 27.4999 317.476 28.4187C318.207 29.3165 319.656 29.4956 320.603 28.8266C321.645 28.1308 321.9 26.6021 321.223 25.5785C320.714 24.7551 319.634 24.3586 318.689 24.6026ZM318.156 25.2469C318.156 26.3372 318.156 27.4256 318.156 28.5159C318.325 28.5159 318.497 28.5159 318.668 28.5159C318.668 28.047 318.668 27.5762 318.668 27.1053C318.856 27.1053 319.047 27.1053 319.238 27.1053C319.531 27.5743 319.821 28.0489 320.117 28.5178C320.307 28.5159 320.5 28.5159 320.692 28.5159C320.377 28.0413 320.066 27.5609 319.749 27.0863C319.959 27.0424 320.183 26.9891 320.344 26.8385C320.638 26.5716 320.655 26.118 320.533 25.7672C320.401 25.4165 320 25.2755 319.648 25.2583C319.152 25.2316 318.654 25.2526 318.156 25.2469ZM318.668 25.6796C318.668 26.0112 318.668 26.3429 318.668 26.6746C319.039 26.6574 319.422 26.7222 319.784 26.6155C320.163 26.4916 320.171 25.853 319.778 25.7386C319.422 25.6262 319.037 25.7005 318.668 25.6796Z" fill="#5E88FF"/>
</g>
<g id="Black and White Collection 3">
<path id="Vector_4" d="M455.787 18.0764C457.576 18.078 459.345 18.4615 460.978 19.2016C462.611 19.9419 464.071 21.0223 465.264 22.3723L468.998 18.9642C466.608 16.2733 463.472 14.3742 460 13.5149C456.527 12.6555 452.88 12.8757 449.533 14.1468C446.186 15.4179 443.295 17.6807 441.238 20.6401C439.181 23.5996 438.052 27.118 438 30.7366C437.948 34.355 438.974 37.9055 440.945 40.9246C442.916 43.9437 445.74 46.2913 449.048 47.661C452.357 49.0306 455.997 49.3588 459.492 48.6027C462.988 47.8467 466.178 46.0413 468.644 43.4224L464.995 39.9141C463.541 41.4532 461.734 42.6035 459.734 43.2624C457.733 43.9213 455.603 44.0682 453.533 43.6898C451.463 43.3116 449.518 42.4199 447.872 41.0946C446.225 39.7693 444.929 38.0516 444.099 36.0951C443.268 34.1386 442.93 32.0042 443.113 29.8829C443.297 27.7615 443.996 25.7193 445.15 23.9387C446.304 22.1581 447.875 20.6946 449.724 19.6791C451.573 18.6635 453.641 18.1277 455.745 18.1193L455.787 18.0764Z" fill="#5E88FF"/>
<path id="Vector_5" d="M438.998 13.5694L435.246 10C432.315 12.753 429.989 16.0254 428.402 19.6292C426.815 23.233 425.998 27.0973 425.998 31C425.998 34.9027 426.815 38.767 428.402 42.3708C429.989 45.9746 432.315 49.247 435.246 52L438.998 48.4306C436.554 46.1514 434.614 43.4371 433.29 40.445C431.966 37.4529 431.284 34.2426 431.284 31C431.284 27.7574 431.966 24.5471 433.29 21.555C434.614 18.5629 436.554 15.8486 438.998 13.5694Z" fill="#5E88FF"/>
<path id="Vector_6" d="M473.001 6.88664C468.072 3.05474 462.116 0.992204 456.001 1.00002V6.15992C461.046 6.15501 465.962 7.8501 470.038 11L473.001 6.88664Z" fill="#5E88FF"/>
<path id="Vector_7" d="M456.007 55.9605V61C461.689 61.0065 467.249 59.3291 472.007 56.1735L469.212 52C465.281 54.5911 460.693 55.967 456.007 55.9605Z" fill="#5E88FF"/>
<path id="Vector_8" d="M456.007 49.0654C452.023 49.0628 448.136 47.9042 444.873 45.7461C441.609 43.5881 439.126 40.5349 437.76 37L433.007 39.085C434.797 43.4749 437.952 47.2497 442.058 49.9121C446.164 52.5746 451.027 53.9997 456.007 54V49.0654Z" fill="#5E88FF"/>
<path id="Vector_9" d="M437.099 30C437.409 25.1603 439.535 20.6205 443.047 17.3016C446.558 13.9828 451.191 12.1334 456.007 12.1287V7C449.84 6.99982 443.909 9.3874 439.442 13.6686C434.974 17.9499 432.312 23.7971 432.007 30H437.099Z" fill="#5E88FF"/>
</g>
<g id="invitro 1" clip-path="url(#clip2)">
<g id="layer1">
<g id="g3199">
<path id="polygon3178" fill-rule="evenodd" clip-rule="evenodd" d="M631.662 19L627.001 42H632.34L637.001 19H631.662Z" fill="#5E88FF"/>
<path id="polygon3180" fill-rule="evenodd" clip-rule="evenodd" d="M571.178 19L566.001 42H571.825L577.001 19H571.178Z" fill="#5E88FF"/>
<path id="polygon3182" fill-rule="evenodd" clip-rule="evenodd" d="M609.806 42H614.966L630.001 19H624.396L613.898 34.9676L610.606 19H605.001L609.806 42Z" fill="#5E88FF"/>
<path id="polygon3184" fill-rule="evenodd" clip-rule="evenodd" d="M646.969 42L650.822 23.7986H657.038L658.001 19H639.965L639.001 23.7986H645.306L641.453 42H646.969Z" fill="#5E88FF"/>
<path id="polygon3186" fill-rule="evenodd" clip-rule="evenodd" d="M582.419 42L585.705 26.777L594.232 42H599.117L604.001 19H598.673L595.386 34.223L586.771 19H581.975L577.001 42H582.419Z" fill="#5E88FF"/>
<path id="path3188" fill-rule="evenodd" clip-rule="evenodd" d="M670.947 19H660.808L656.001 42H661.508L665.353 23.7986H670.16C671.296 23.7986 672.17 24.1295 672.782 24.7086C673.307 25.205 673.569 25.9496 673.481 26.6942C673.219 29.0108 671.296 30.0863 668.849 30.0863H664.741L669.898 42H675.404L671.996 34.1403C676.191 33.4784 678.813 30.5827 678.988 26.6942C679.25 22.1439 675.754 19 670.947 19Z" fill="#5E88FF"/>
<path id="path3190" d="M680.029 31C680.478 24.3706 686.223 19 693.765 19C701.306 19 706.423 24.3706 705.974 31C705.525 37.6294 699.78 43 692.238 43C684.697 43 679.58 37.7133 680.029 31ZM700.767 31C701.036 27.0559 697.984 23.6993 693.495 23.6993C688.917 23.6993 685.595 26.972 685.326 31C685.056 34.9441 688.109 38.3007 692.597 38.3007C697.086 38.3007 700.498 35.028 700.767 31Z" fill="#5E88FF"/>
</g>
</g>
</g>
<g id="Black and White Collection 2">
<path id="Vector_10" d="M826.501 42.6262C824.825 42.6337 823.171 42.225 821.675 41.4337C820.179 40.6424 818.883 39.491 817.894 38.074L811.001 42.2191C811.264 42.5357 811.574 42.8045 811.921 43.0148L824.186 50.4167C824.903 50.8001 825.696 51 826.501 51C827.306 51 828.1 50.8001 828.817 50.4167L841.082 43.0148C841.429 42.8045 841.739 42.5357 842.001 42.2191L835.126 38C834.143 39.4332 832.848 40.6004 831.348 41.405C829.848 42.2095 828.187 42.6282 826.501 42.6262Z" fill="#5E88FF"/>
<path id="Vector_11" d="M815.683 30.6814C815.689 28.0367 816.745 25.4869 818.649 23.5195C820.552 21.5521 823.17 20.3049 826.001 20.0165V12C825.572 12.0829 825.159 12.2268 824.776 12.4266L811.49 19.5366C810.768 19.9851 810.168 20.5828 809.736 21.2829C809.304 21.9829 809.053 22.7661 809.001 23.5714V37.7913C809.007 38.2016 809.078 38.6089 809.212 39L816.678 35.0007C816.025 33.6412 815.686 32.1699 815.683 30.6814Z" fill="#5E88FF"/>
<path id="Vector_12" d="M842.659 19.5316L830.155 12.4263C829.795 12.2266 829.406 12.0828 829.001 12V19.9934C830.7 20.1832 832.33 20.7634 833.76 21.6877C835.189 22.6119 836.379 23.8541 837.233 25.3144C838.086 26.7747 838.58 28.4122 838.675 30.0951C838.769 31.7779 838.461 33.4591 837.776 35.0033L844.803 39C844.929 38.6091 844.996 38.2021 845.001 37.7921V23.5816C844.956 22.7738 844.721 21.9875 844.314 21.2846C843.908 20.5817 843.341 19.9816 842.659 19.5316Z" fill="#5E88FF"/>
<path id="Vector_13" d="M851.162 12.6367L830.841 0.90843C829.65 0.311047 828.335 0 827.001 0C825.668 0 824.353 0.311047 823.162 0.90843L802.841 12.6367C801.726 13.3629 800.797 14.341 800.13 15.4921C799.463 16.6431 799.077 17.9347 799.001 19.2625V42.719C799.075 44.0498 799.461 45.3445 800.128 46.4987C800.795 47.6529 801.725 48.6342 802.841 49.3633L823.162 61.0918C824.353 61.6891 825.668 62 827.001 62C828.335 62 829.65 61.6891 830.841 61.0918L851.162 49.3633C852.278 48.6342 853.208 47.6529 853.875 46.4987C854.542 45.3445 854.928 44.0498 855.001 42.719V19.2625C854.926 17.9347 854.54 16.6431 853.873 15.4921C853.206 14.341 852.277 13.3629 851.162 12.6367ZM848.553 40.021C848.493 41.0433 848.194 42.0373 847.681 42.9234C847.167 43.8095 846.453 44.563 845.595 45.1235L829.941 54.1537C829.027 54.615 828.017 54.8554 826.992 54.8554C825.968 54.8554 824.958 54.615 824.044 54.1537L808.408 45.1235C807.55 44.563 806.836 43.8095 806.322 42.9234C805.809 42.0373 805.51 41.0433 805.45 40.021V21.979C805.51 20.9567 805.809 19.9627 806.322 19.0766C806.836 18.1905 807.55 17.4369 808.408 16.8765L824.025 7.84632C824.939 7.38498 825.949 7.14458 826.974 7.14458C827.998 7.14458 829.008 7.38498 829.923 7.84632L845.576 16.8765C846.437 17.4349 847.156 18.1876 847.673 19.0738C848.19 19.96 848.491 20.9551 848.553 21.979V40.021Z" fill="#5E88FF"/>
<path id="Vector_14" d="M819.007 31.5C819.007 32.9833 819.476 34.4334 820.355 35.6667C821.234 36.9002 822.484 37.8614 823.945 38.4291C825.407 38.9967 827.016 39.1452 828.568 38.8559C830.119 38.5665 831.545 37.8522 832.664 36.8033C833.782 35.7545 834.544 34.418 834.853 32.9632C835.162 31.5083 835.003 30.0004 834.398 28.6299C833.792 27.2594 832.767 26.0881 831.451 25.264C830.136 24.4399 828.589 24 827.007 24C824.885 24 822.85 24.7901 821.35 26.1967C819.85 27.6033 819.007 29.5109 819.007 31.5Z" fill="#5E88FF"/>
</g>
<g id="&#208;&#160;&#208;&#150;&#208;&#148;">
<path id="Vector_15" fill-rule="evenodd" clip-rule="evenodd" d="M998.274 20H1011L995.729 41H983.002L998.274 20Z" fill="#5E88FF"/>
<path id="Vector_16" fill-rule="evenodd" clip-rule="evenodd" d="M1037.76 13.2288C1034.53 10 1029.67 10.0034 1026.43 10.0017L1017.1 10C1016.33 10 1015.36 10 1014.58 10.7764C1013.8 11.5511 1013.8 12.5208 1013.8 13.2955V15.1664H1026.75C1027.62 15.1664 1028.91 15.1664 1029.78 16.0283C1030.64 16.8902 1030.64 18.1814 1030.64 19.0416V31.9584C1030.64 32.8203 1030.64 34.1115 1029.78 34.9734C1028.91 35.8336 1027.62 35.8336 1026.75 35.8336H1020.49C1019.41 35.8336 1018.01 35.8336 1017.47 34.6502C1016.93 33.4668 1017.69 32.3894 1018.33 31.5292L1026.75 20.3345H1013.8L1008.62 27.223C1007.75 28.3773 1007 29.3761 1007 30.6672C1007 31.9584 1007.7 32.8887 1008.62 34.1115L1009.92 35.8336C1011.21 37.5557 1012.51 39.2779 1014.23 40.1398C1015.96 41 1018.01 41 1020.82 41H1026.43C1029.67 41 1034.53 41 1037.76 37.7712C1041 34.5424 1041 29.807 1041 28.0832V22.9168C1041 21.1947 1041 16.4575 1037.76 13.2288Z" fill="#5E88FF"/>
<path id="Vector_17" fill-rule="evenodd" clip-rule="evenodd" d="M985.39 27.8885L984.101 26.1664C982.813 24.4443 981.522 22.7221 979.803 21.8619C978.084 21 976.043 21 973.249 21H951.287C950.514 21 949.546 21 948.773 21.7747C948.001 22.5494 948.001 23.5173 948.001 24.2921V26.1647H953.158V52H963.471V26.1647H973.571C974.645 26.1647 976.043 26.1647 976.581 27.3498C977.118 28.5332 976.366 29.6106 975.72 30.4708L967.341 41.6655H980.233L985.39 34.777C986.254 33.6227 987.001 32.6239 987.001 31.3328C987.001 30.0399 986.305 29.1096 985.39 27.8885Z" fill="#5E88FF"/>
</g>
</g>
<defs>
<clipPath id="clip0">
<rect width="83" height="40" fill="white" transform="translate(48.9976 11)"/>
</clipPath>
<clipPath id="clip1">
<rect width="108" height="53" fill="white" transform="translate(224.998 4.5)"/>
</clipPath>
<clipPath id="clip2">
<rect width="140" height="24" fill="white" transform="translate(566.001 19)"/>
</clipPath>
</defs>
</svg>
