<svg width="27" height="27" viewBox="0 0 27 27" fill="none" xmlns="http://www.w3.org/2000/svg">
<path d="M9.35526 3C5.85103 3 3 5.85103 3 9.35526V17.6447C3 21.149 5.85103 24 9.35526 24H17.6447C21.149 24 24 21.149 24 17.6447V9.35526C24 5.85103 21.149 3 17.6447 3H9.35526ZM19.0263 6.86842C19.637 6.86842 20.1316 7.36303 20.1316 7.97368C20.1316 8.58379 19.637 9.07895 19.0263 9.07895C18.4157 9.07895 17.9211 8.58379 17.9211 7.97368C17.9211 7.36303 18.4157 6.86842 19.0263 6.86842ZM13.5 7.97368C16.5472 7.97368 19.0263 10.4528 19.0263 13.5C19.0263 16.5472 16.5472 19.0263 13.5 19.0263C10.4528 19.0263 7.97368 16.5472 7.97368 13.5C7.97368 10.4528 10.4528 7.97368 13.5 7.97368ZM13.5 9.63158C12.992 9.63158 12.489 9.73164 12.0196 9.92604C11.5503 10.1205 11.1238 10.4054 10.7646 10.7646C10.4054 11.1238 10.1205 11.5503 9.92604 12.0196C9.73164 12.489 9.63158 12.992 9.63158 13.5C9.63158 14.008 9.73164 14.511 9.92604 14.9804C10.1205 15.4497 10.4054 15.8762 10.7646 16.2354C11.1238 16.5946 11.5503 16.8795 12.0196 17.074C12.489 17.2684 12.992 17.3684 13.5 17.3684C14.008 17.3684 14.511 17.2684 14.9804 17.074C15.4497 16.8795 15.8762 16.5946 16.2354 16.2354C16.5946 15.8762 16.8795 15.4497 17.074 14.9804C17.2684 14.511 17.3684 14.008 17.3684 13.5C17.3684 12.992 17.2684 12.489 17.074 12.0196C16.8795 11.5503 16.5946 11.1238 16.2354 10.7646C15.8762 10.4054 15.4497 10.1205 14.9804 9.92604C14.511 9.73164 14.008 9.63158 13.5 9.63158Z" fill="#C4C4C4"/>
</svg>
