<svg width="70" height="70" viewBox="0 0 70 70" fill="none" xmlns="http://www.w3.org/2000/svg">
<path d="M28.7083 35C29.5819 35 30.4358 34.7435 31.1621 34.2627C31.8884 33.782 32.4545 33.0987 32.7888 32.2993C33.1231 31.4999 33.2106 30.6202 33.0401 29.7715C32.8697 28.9229 32.4491 28.1433 31.8314 27.5315C31.2137 26.9196 30.4267 26.5029 29.57 26.3341C28.7132 26.1653 27.8252 26.2519 27.0181 26.5831C26.2111 26.9142 25.5213 27.475 25.036 28.1944C24.5507 28.9139 24.2917 29.7598 24.2917 30.625C24.2952 31.7843 24.7616 32.8951 25.5891 33.7148C26.4167 34.5345 27.538 34.9966 28.7083 35ZM28.7083 28.4375C29.1451 28.4375 29.5721 28.5658 29.9352 28.8062C30.2984 29.0466 30.5814 29.3882 30.7486 29.7879C30.9157 30.1876 30.9594 30.6275 30.8742 31.0518C30.789 31.4761 30.5787 31.8659 30.2699 32.1718C29.961 32.4778 29.5675 32.6861 29.1392 32.7705C28.7108 32.8549 28.2668 32.8116 27.8632 32.646C27.4597 32.4805 27.1148 32.2001 26.8722 31.8404C26.6295 31.4806 26.5 31.0577 26.5 30.625C26.5 30.0449 26.7327 29.4885 27.1468 29.0783C27.5609 28.668 28.1226 28.4375 28.7083 28.4375ZM6.625 25.1563V47.2063C6.62791 48.0292 6.95923 48.8176 7.54668 49.3995C8.13413 49.9814 8.93005 50.3096 9.76083 50.3125H43.2392C44.0699 50.3096 44.8659 49.9814 45.4533 49.3995C46.0408 48.8176 46.3721 48.0292 46.375 47.2063V25.1563C46.375 24.2861 46.026 23.4515 45.4048 22.8361C44.7836 22.2208 43.941 21.8751 43.0625 21.8751H9.9375C9.05897 21.8751 8.21642 22.2208 7.59521 22.8361C6.97399 23.4515 6.625 24.2861 6.625 25.1563ZM25.5504 48.125H9.9375C9.64466 48.125 9.36381 48.0098 9.15674 47.8047C8.94966 47.5996 8.83333 47.3214 8.83333 47.0313V46.8563L17.49 38.2813C17.6997 38.0867 17.9756 37.9773 18.2629 37.975C18.5576 37.9731 18.842 38.0826 19.0579 38.2813L27.0742 46.2438L28.6421 47.7969L28.9733 48.125H25.5504ZM44.1667 47.0313C44.1667 47.3214 44.0503 47.5996 43.8433 47.8047C43.6362 48.0098 43.3553 48.125 43.0625 48.125H32.0871L30.0333 46.0907L34.4942 40.5782C34.6763 40.3528 34.9411 40.2079 35.2307 40.1751C35.5203 40.1424 35.8112 40.2243 36.04 40.4032L44.1667 46.7469V47.0313ZM44.1667 25.1563V43.9688L37.3871 38.6969C36.7006 38.1604 35.8279 37.9145 34.9591 38.0129C34.0904 38.1112 33.2961 38.5458 32.7496 39.2219L28.4654 44.5375L20.6037 36.75C20.2996 36.4411 19.9353 36.1965 19.533 36.031C19.1306 35.8656 18.6985 35.7828 18.2629 35.7875C17.8276 35.7848 17.3961 35.8685 16.994 36.0338C16.592 36.1992 16.2275 36.4427 15.9221 36.75L8.83333 43.7719V25.1563C8.83333 24.8662 8.94966 24.588 9.15674 24.3829C9.36381 24.1778 9.64466 24.0626 9.9375 24.0626H43.0625C43.3553 24.0626 43.6362 24.1778 43.8433 24.3829C44.0503 24.588 44.1667 24.8662 44.1667 25.1563ZM52.6688 15.6407L37.2104 0.328213C37.1119 0.223024 36.9922 0.139471 36.8591 0.082952C36.726 0.0264329 36.5823 -0.00179605 36.4375 8.85105e-05H5.52083C4.05662 8.85105e-05 2.65237 0.576258 1.61701 1.60185C0.581658 2.62743 0 4.01843 0 5.46883V64.5312C0 65.9817 0.581658 67.3727 1.61701 68.3982C2.65237 69.4238 4.05662 70 5.52083 70H47.4792C48.9434 70 50.3476 69.4238 51.383 68.3982C52.4183 67.3727 53 65.9817 53 64.5312V16.4063C52.9998 16.2632 52.9703 16.1215 52.9134 15.99C52.8565 15.8584 52.7733 15.7396 52.6688 15.6407ZM37.5417 3.74071L49.2238 15.3126H40.8542C39.9756 15.3126 39.1331 14.9669 38.5119 14.3515C37.8907 13.7362 37.5417 12.9016 37.5417 12.0313V3.74071ZM36.4375 15.3126H8.83333C8.54049 15.3126 8.25964 15.1973 8.05257 14.9922C7.8455 14.7871 7.72917 14.5089 7.72917 14.2188V9.84383C7.72917 9.55375 7.8455 9.27555 8.05257 9.07043C8.25964 8.86531 8.54049 8.75008 8.83333 8.75008H35.3333V12.0313C35.3333 13.2146 35.7208 14.366 36.4375 15.3126ZM50.7917 64.5312C50.7917 65.4015 50.4427 66.2361 49.8215 66.8514C49.2002 67.4668 48.3577 67.8125 47.4792 67.8125H5.52083C4.6423 67.8125 3.79976 67.4668 3.17854 66.8514C2.55733 66.2361 2.20833 65.4015 2.20833 64.5312V5.46883C2.20833 4.59859 2.55733 3.76399 3.17854 3.14864C3.79976 2.53329 4.6423 2.18759 5.52083 2.18759H35.3333V6.56258H8.83333C7.9548 6.56258 7.11226 6.90828 6.49104 7.52363C5.86983 8.13899 5.52083 8.97359 5.52083 9.84383V14.2188C5.52083 15.0891 5.86983 15.9237 6.49104 16.539C7.11226 17.1544 7.9548 17.5001 8.83333 17.5001H39.75C39.8456 17.4937 39.94 17.4745 40.0305 17.4432L40.0812 17.4563C40.3242 17.4782 40.5892 17.5001 40.8542 17.5001H50.7917V64.5312ZM44.1667 61.25H6.625C6.33216 61.25 6.05131 61.3652 5.84424 61.5704C5.63717 61.7755 5.52083 62.0537 5.52083 62.3438C5.52083 62.6338 5.63717 62.912 5.84424 63.1172C6.05131 63.3223 6.33216 63.4375 6.625 63.4375H44.1667C44.4595 63.4375 44.7404 63.3223 44.9474 63.1172C45.1545 62.912 45.2708 62.6338 45.2708 62.3438C45.2708 62.0537 45.1545 61.7755 44.9474 61.5704C44.7404 61.3652 44.4595 61.25 44.1667 61.25ZM44.1667 54.6875H6.625C6.33216 54.6875 6.05131 54.8027 5.84424 55.0079C5.63717 55.213 5.52083 55.4912 5.52083 55.7813C5.52083 56.0713 5.63717 56.3495 5.84424 56.5547C6.05131 56.7598 6.33216 56.875 6.625 56.875H44.1667C44.4595 56.875 44.7404 56.7598 44.9474 56.5547C45.1545 56.3495 45.2708 56.0713 45.2708 55.7813C45.2708 55.4912 45.1545 55.213 44.9474 55.0079C44.7404 54.8027 44.4595 54.6875 44.1667 54.6875Z" fill="white"/>
</svg>
