<svg width="300" height="62" viewBox="0 0 300 62" fill="none" xmlns="http://www.w3.org/2000/svg">
<path fill-rule="evenodd" clip-rule="evenodd" d="M46.0015 19H47.2175L48.4345 19.0485L49.6525 19.1465L50.8205 19.2435L51.9894 19.39L53.1573 19.5365L54.2771 19.7326L55.3479 19.9276L56.4197 20.1731L57.4414 20.4661L58.464 20.7592L59.4376 21.0522L60.3632 21.3947L61.2877 21.7373L62.1641 22.1283L62.9915 22.5194L63.7708 22.9094L64.5501 23.3499L65.2312 23.839L65.9123 24.2785L66.5453 24.7676L67.1293 25.3051L67.6161 25.7942L68.1029 26.3318L68.5406 26.8693L68.9303 27.4554L69.2708 27.9939L69.5173 28.581L69.7096 29.166L69.9028 29.8016L70 30.3887V31.0242V31.1223V31.2688V31.4153V31.5618L69.9519 31.6598V31.8063V31.9528L69.9028 32.0509L69.8067 31.6103L69.6134 31.1223L69.415 30.6817L69.1737 30.2422L68.8331 29.8016L68.4925 29.3621L68.1029 28.9225L67.6652 28.5315L67.1784 28.092L66.6916 27.7009L66.1076 27.3584L65.5237 26.9673L64.8906 26.6248L64.2576 26.2833L63.5274 25.9407L62.7962 25.6477L62.0179 25.3536L61.2386 25.0606L60.4112 24.7676L59.5348 24.5231L58.6584 24.327L57.7338 24.0825L56.8083 23.8875L55.8347 23.6925L54.8611 23.5449L53.8394 23.3984L52.7677 23.3014L51.6969 23.2034L50.6261 23.1054L49.5544 23.0559L48.4345 23.0084H47.2666H46.1478L45.0279 23.0559L43.9562 23.1549L42.9335 23.2519L41.9118 23.3499L40.9382 23.4965L40.0127 23.6925L39.0871 23.8875L38.2117 24.0825L37.3352 24.327L36.556 24.6211L35.7777 24.8656L34.9984 25.1586L34.3173 25.5012L33.6352 25.8427L32.954 26.1852L32.3691 26.5268L31.7851 26.9178L31.2492 27.3099L30.7624 27.7009L30.2756 28.092L29.8379 28.5315L29.4483 28.9225L29.1077 29.3621L28.8162 29.8016L28.5237 30.2422L28.2803 30.7312L28.086 31.1708L27.9388 31.6103L27.7935 32.0994L27.7445 32.5399L27.6954 33.0279V33.0775V33.126V33.1745V33.2725L27.8426 32.8814L27.9879 32.4904L28.2313 32.0994L28.4747 31.7568L28.7671 31.3658L29.1077 31.0242L29.4973 30.6817L29.887 30.3392L30.3247 29.9976L30.8115 29.7046L31.2983 29.3621L31.8342 29.069L32.3691 28.775L32.954 28.482L33.5861 28.2385L34.2191 27.9939L34.9012 27.7494L35.5824 27.5049L36.3126 27.3099L37.0428 27.0653L37.773 26.8693L38.5533 26.7228L39.3796 26.5763L40.1589 26.4298L41.0353 26.2833L41.8627 26.1852L42.7391 26.0872L43.6156 25.9892L44.492 25.9407L45.4166 25.8922L46.3421 25.8427H47.2666H48.2893L49.311 25.8922L50.2856 25.9407L51.2592 26.0387L52.2328 26.0872L53.1573 26.2337L54.0828 26.3802L54.9593 26.5268L55.8347 26.6743L56.7112 26.8693L57.5395 27.0653L58.3178 27.3099L59.0971 27.5544L59.8764 27.7979L60.6066 28.092L61.2877 28.3355L61.9207 28.678L62.5538 28.971L63.1377 29.3136L63.6726 29.6066L64.2085 29.9976L64.6953 30.3392L65.133 30.6817L65.5237 31.0727L65.8642 31.4638L66.1557 31.8548L66.4482 32.2954L66.6435 32.6864L66.8378 33.126L66.9831 33.5665L67.0321 34.005L67.0812 34.4456L67.0321 34.6901V34.9831L66.9831 35.2277L66.935 35.5217L66.8378 35.7652L66.7407 36.0098L66.5944 36.2543L66.4482 36.5483L66.3019 36.7918L66.1557 37.0364L65.9614 37.2809L65.7661 37.5254L65.5237 37.77L65.2803 37.966L65.0369 38.2095L64.7925 38.454L64.501 38.6501L64.2085 38.8936L63.8679 39.0896L63.5755 39.2846L63.2349 39.5302L62.8453 39.7252L62.5047 39.9202L62.1151 40.1162L61.7254 40.2627L61.3368 40.4577L60.898 40.6538L60.5084 40.8003L60.0707 40.9963L59.5839 41.1428L59.1452 41.2893L58.6584 41.4358L58.9508 41.3378L59.2433 41.1913L59.5348 41.0933L59.8273 40.9468L60.1188 40.8488L60.3632 40.7022L60.6066 40.5557L60.85 40.4092L61.0934 40.2627L61.3368 40.1162L61.5311 40.0182L61.7745 39.8232L61.9698 39.6767L62.1641 39.5302L62.3585 39.3826L62.5047 39.2361L62.7 39.0896L62.8453 38.8936L62.9915 38.747L63.1377 38.6005L63.2349 38.4055L63.3811 38.259L63.4783 38.063L63.5755 37.9165L63.6726 37.7204L63.7217 37.5739L63.7708 37.3789L63.8189 37.1829L63.8679 37.0364L63.916 36.8414V36.6453V36.4503V36.1078L63.8679 35.7652L63.7217 35.4237L63.6245 35.0812L63.4302 34.7881L63.1868 34.4456L62.9434 34.1515L62.6509 33.8596L62.3094 33.517L61.9698 33.224L61.5792 32.9795L61.1415 32.6864L60.7037 32.4419L60.2169 32.1489L59.681 31.9043L59.1452 31.7083L58.6103 31.4638L58.0263 31.2688L57.3933 31.0242L56.7602 30.8777L56.0781 30.6817L55.397 30.5352L54.7159 30.3887L53.9847 30.2422L53.2545 30.0957L52.5243 29.9976L51.746 29.8996L50.9667 29.8511L50.1393 29.8016L49.311 29.7531L48.4836 29.7046H47.6562H47.3157H46.878L46.4883 29.7531H46.0015L45.5137 29.8016H45.0279L44.492 29.8511L43.9081 29.9491L43.3722 29.9976L42.7882 30.0957L42.2043 30.1926L41.6193 30.2907L41.0353 30.4382L40.4023 30.5847L39.8183 30.7312L39.2344 30.8777L38.6494 31.0727L38.0655 31.3173L37.4815 31.5133L36.8975 31.7568L36.3616 32.0509L35.8748 32.3439L35.388 32.6369L34.9012 32.9795L34.4625 33.3705L34.0248 33.7615L33.6842 34.1515L33.2946 34.5921L33.0021 35.0812L32.7597 35.5702L32.5153 36.1078L32.3691 36.6453L32.4672 36.4503L32.6125 36.2058L32.8078 36.0098L33.0021 35.8148L33.1974 35.6187L33.4408 35.3742L33.7323 35.1782L34.0248 34.9831L34.3173 34.7881L34.6578 34.5921L34.9984 34.4456L35.388 34.2506L35.7286 34.0546L36.1663 33.908L36.556 33.713L36.9947 33.5665L37.4815 33.419L37.9192 33.2725L38.406 33.126L38.8928 33.0279L39.4287 32.8814L39.9646 32.7844L40.4995 32.6864L41.0353 32.5884L41.5712 32.4904L42.1552 32.4419L42.7391 32.3934L43.3231 32.2954H43.9081L44.5411 32.2459H45.1241L45.7581 32.1974L46.4883 32.2459H47.1694L47.8506 32.2954L48.5327 32.3439L49.1657 32.3934L49.8469 32.4419L50.4799 32.5399L51.0639 32.6369L51.6969 32.7349L52.2819 32.8814L52.8658 32.9795L53.4017 33.126L53.9366 33.2725L54.4715 33.4685L54.9593 33.615L55.4451 33.8111L55.8838 33.9576L56.3215 34.1515L56.7112 34.3476L57.1008 34.5921L57.4414 34.7881L57.7819 35.0316L58.0744 35.2277L58.3669 35.4722L58.6103 35.7167L58.8046 35.9613L58.9999 36.2543L59.1452 36.4988L59.2914 36.7433L59.3405 37.0364L59.3896 37.2809L59.4376 37.5739V37.77L59.3896 37.966L59.3405 38.1125L59.2914 38.3075L59.2433 38.5035L59.1452 38.6986L59.048 38.8451L58.9018 39.0401L58.8046 39.1876L58.6584 39.3826L58.464 39.5302L58.3178 39.7252L58.1225 39.8717L57.9282 40.0182L57.6848 40.1647L57.4904 40.3112L57.247 40.4577L57.0036 40.6538L56.7112 40.7507L56.4678 40.8983L56.1763 41.0448L55.8838 41.1913L55.5432 41.2893L55.2507 41.4358L54.9102 41.5339L54.5696 41.6804L54.2281 41.7784L53.8885 41.8754L53.4979 41.9734L53.1573 42.0714L52.7677 42.1694L52.378 42.2664L52.5243 42.2179L52.6705 42.1199L52.8658 42.0714L53.0111 42.0219L53.1573 41.9249L53.3035 41.8754L53.4017 41.7784L53.5469 41.7289L53.6932 41.6804L53.7903 41.5823L53.9366 41.4843L54.0337 41.4358L54.1309 41.3378L54.2281 41.2893L54.3262 41.1913L54.4234 41.0933L54.5205 41.0448L54.6177 40.9468L54.6668 40.8488L54.7639 40.7507L54.813 40.7022L54.9102 40.6042L54.9593 40.5072L55.0073 40.4092L55.0564 40.3112V40.2627L55.1045 40.1647L55.1536 40.0667V39.9697L55.2027 39.8717V39.7737V39.6767V39.4806L55.1536 39.3341L55.1045 39.1381L55.0073 38.9431L54.9102 38.7966L54.7639 38.6501L54.6668 38.454L54.4715 38.3075L54.2771 38.161L54.0828 37.966L53.8885 37.8185L53.6441 37.6719L53.4017 37.5739L53.1082 37.4274L52.8167 37.2809L52.5243 37.1829L52.2328 37.0364L51.8912 36.9394L51.5517 36.8414L51.2101 36.7433L50.8205 36.6453L50.4318 36.5483L50.0422 36.4988L49.6525 36.4008L49.2148 36.3523L48.8242 36.3038L48.3864 36.2543L47.9487 36.2058L47.51 36.1563H47.0232L46.5855 36.1078H46.0977H45.66L45.1732 36.1563H44.7354L44.2967 36.2058L43.859 36.2543L43.4213 36.3038L42.9825 36.3523L42.5929 36.4503L42.2043 36.5483L41.8146 36.5958L41.424 36.6949L41.0353 36.7918L40.6938 36.8899L40.3542 37.0364L40.0617 37.1344L39.7212 37.2324L39.4287 37.3789L39.1362 37.5254L38.8928 37.6234L38.6494 37.77L38.406 37.9165L38.2117 38.0135L38.0174 38.161L37.8221 38.3075L37.6758 38.454L37.5306 38.6005L37.3843 38.747L37.2862 38.8451L37.2371 38.9916L37.1409 39.1381V39.2361V39.3826V39.5302V39.6271L37.189 39.7737V39.8717L37.2371 40.0182L37.3352 40.1162L37.3843 40.2132L37.4815 40.3607L37.5787 40.4577L37.6758 40.5557L37.773 40.7022L37.8711 40.8003L37.9683 40.8983L38.1145 40.9963L38.2598 41.0933L38.406 41.1913L38.5533 41.2893L38.6985 41.3873L38.8447 41.4843L38.99 41.5823L39.1362 41.6308L39.3315 41.7289L39.4778 41.8269L39.6721 41.8754L39.8183 41.9734L40.0127 42.0714L40.208 42.1199L40.3542 42.1694L40.5485 42.2664L40.7429 42.3159L40.9382 42.3644L41.0844 42.414L41.2787 42.5109L41.5221 42.5594L41.7165 42.609L41.9118 42.6575L42.1061 42.707L42.2523 42.7555H42.4467L42.642 42.805L42.7882 42.8535H42.9825L43.1288 42.902H43.275L43.4213 42.9515H43.5665H43.7128L43.859 43L43.4213 42.9515H43.0306L42.5929 42.902H42.2043L41.8146 42.8535L41.3759 42.805H40.9863L40.5966 42.7555L40.208 42.707L39.8674 42.6575L39.5259 42.609L39.1853 42.5594L38.8928 42.5109L38.6013 42.4624H38.3579L38.1626 42.414L37.4334 42.2664L36.6541 42.1199L35.9229 41.9249L35.1937 41.7289L34.4625 41.5339L33.7323 41.3378L33.0021 41.0933L32.321 40.8983L31.5908 40.6042L30.9097 40.3607L30.2275 40.0667L29.5945 39.7737L28.9124 39.4806L28.3294 39.1381L27.6954 38.8451L27.1114 38.454L26.5755 38.1125L26.0407 37.7204L25.5048 37.3304L25.019 36.9394L24.5802 36.5483L24.1425 36.1078L23.7519 35.6672L23.4123 35.1782L23.0708 34.7386L22.8274 34.2506L22.584 33.713L22.3896 33.224L22.1953 32.6864L22.0982 32.1489L22 31.5618V31.0242L22.0491 30.3887L22.1462 29.8016L22.2925 29.166L22.4868 28.581L22.7793 27.9939L23.0708 27.4554L23.4604 26.8693L23.8991 26.3318L24.3859 25.7942L24.9208 25.3051L25.4567 24.7676L26.0887 24.2785L26.7709 23.839L27.5011 23.3499L28.2313 22.9094L29.0105 22.5194L29.887 22.1283L30.7143 21.7373L31.6389 21.3947L32.5634 21.0522L33.538 20.7592L34.5607 20.4661L35.5824 20.1731L36.6541 19.9276L37.773 19.7326L38.8447 19.5365L40.0127 19.39L41.1816 19.2435L42.3495 19.1465L43.5665 19.0485L44.7835 19H46.0015Z" fill="#5E88FF"/>
<path fill-rule="evenodd" clip-rule="evenodd" d="M45.4756 39H45.8147L46.1527 39.0441H46.4908H46.8288L47.1192 39.0882H47.4085L47.7475 39.1332L48.0369 39.1773L48.3272 39.2214L48.6165 39.2665L48.8581 39.3115L49.1484 39.3547L49.3901 39.3997L49.6317 39.4889L49.8733 39.533L50.0672 39.6221L50.3088 39.6662L50.5016 39.7553L50.6945 39.8004L50.8884 39.8886L51.0336 39.9777L51.2265 40.0669L51.3716 40.1551L51.4681 40.2442L51.6132 40.3333L51.7097 40.4215L51.8071 40.5107L51.8548 40.5998L51.9036 40.689L51.9513 40.8222L52 40.9104V40.9995V41.1337L51.9513 41.2219L51.9036 41.311L51.8548 41.4002L51.8071 41.5334L51.7097 41.6226L51.6132 41.7108L51.4681 41.7999L51.3716 41.889L51.2265 41.9782L51.0336 42.0664L50.8884 42.1555L50.6945 42.2006L50.5016 42.2888L50.3088 42.3779L50.0672 42.422L49.8733 42.5111L49.6317 42.5552L49.3901 42.6003L49.1484 42.6894L48.8581 42.7335L48.6165 42.7786L48.3272 42.8227L48.0369 42.8668L47.7475 42.9118H47.4085L47.1192 42.9559H46.8288L46.4908 43H46.1527H45.8147H45.4756H45.1863H44.8483H44.5092L44.1712 42.9559H43.8808L43.5428 42.9118H43.2535L42.9631 42.8668L42.6728 42.8227L42.3825 42.7786L42.1419 42.7335L41.8516 42.6894L41.6099 42.6003L41.3683 42.5552L41.1267 42.5111L40.8851 42.422L40.6912 42.3779L40.4984 42.2888L40.3055 42.2006L40.1116 42.1555L39.9187 42.0664L39.7735 41.9782L39.6284 41.889L39.5319 41.7999L39.3868 41.7108L39.2903 41.6226L39.1939 41.5334L39.1452 41.4002L39.0975 41.311L39.0487 41.2219L39 41.1337V40.9995V40.9104L39.0487 40.8222L39.0975 40.689L39.1452 40.5998L39.1939 40.5107L39.2903 40.4215L39.3868 40.3333L39.5319 40.2442L39.6284 40.1551L39.7735 40.0669L39.9187 39.9777L40.1116 39.8886L40.3055 39.8004L40.4984 39.7553L40.6912 39.6662L40.8851 39.6221L41.1267 39.533L41.3683 39.4889L41.6099 39.3997L41.8516 39.3547L42.1419 39.3115L42.3825 39.2665L42.6728 39.2214L42.9631 39.1773L43.2535 39.1332L43.5428 39.0882H43.8808L44.1712 39.0441H44.5092H44.8483L45.1863 39H45.4756Z" fill="#5E88FF"/>
<path fill-rule="evenodd" clip-rule="evenodd" d="M131.233 16.4426C132.439 16.1287 133.692 15.9787 134.942 16.0024C145.446 16.0024 155.95 16.0024 166.453 16.0024C169.463 15.9949 172.472 16.9465 174.856 18.6987C177.112 20.3452 178.784 22.6919 179.589 25.2835C180.409 27.9032 180.319 30.7678 179.353 33.3411C180.558 33.3454 181.761 33.3346 182.966 33.3314C183.242 33.3238 183.55 33.3065 183.782 33.4759C183.984 33.6173 184.035 33.8816 183.979 34.1028C183.931 34.3197 183.777 34.4912 183.651 34.6703C183.191 35.3091 182.716 35.9392 182.191 36.5315C181.957 36.7894 181.785 37.1033 181.488 37.3029C181.142 37.536 180.704 37.5846 180.291 37.5932C179.152 37.6018 178.013 37.618 176.874 37.618C176.812 37.6223 176.745 37.6104 176.688 37.6353C174.175 40.31 170.483 41.9802 166.703 42.0503C156.226 42.0514 145.75 42.0503 135.275 42.0503C134.449 42.06 133.619 42.0406 132.8 41.9284C131.638 41.7763 130.496 41.486 129.411 41.0631C129.415 42.0848 129.422 43.1055 129.427 44.1273C129.42 44.5049 129.45 44.8836 129.418 45.2602C129.388 45.5029 129.318 45.7813 129.087 45.9226C128.853 46.0597 128.557 45.9917 128.319 45.8957C127.789 45.6712 127.368 45.2774 126.945 44.9095C126.551 44.5578 126.173 44.1888 125.74 43.8802C125.479 43.6957 125.256 43.4626 125.094 43.1951C124.72 42.5779 124.638 41.8496 124.62 41.1505C124.618 40.0672 124.619 38.9839 124.619 37.9007C123.625 36.8757 122.81 35.6975 122.206 34.4276C121.371 32.6721 120.957 30.7376 121.004 28.8117C121.06 25.973 122.127 23.1623 123.995 20.9483C125.82 18.7602 128.408 17.1785 131.233 16.4426ZM125.225 20.0754C123.236 21.956 121.907 24.4506 121.473 27.0854C121.082 29.3986 121.382 31.8144 122.338 33.9755C122.895 35.24 123.666 36.4204 124.616 37.4518C124.616 32.5189 124.62 27.586 124.611 22.6541C124.613 22.3671 124.605 22.079 124.617 21.7931C124.631 21.4133 124.823 21.0422 125.135 20.8037C125.401 20.5955 125.748 20.4919 126.09 20.4962C127.724 20.4962 129.354 20.3549 130.988 20.3754C131.916 20.3916 132.85 20.4628 133.748 20.6991C134.473 20.889 135.169 21.1986 135.761 21.6432C136.526 22.2074 137.095 22.9778 137.513 23.801C137.507 23.6133 137.5 23.4267 137.486 23.24C137.439 22.666 137.467 22.0888 137.519 21.5158C137.572 21.0023 138.064 20.5685 138.609 20.5685C140.626 20.6182 142.643 20.5383 144.66 20.5685C144.983 20.5674 145.306 20.7066 145.506 20.9516C145.769 21.2634 145.843 21.6777 145.833 22.0683C145.829 22.502 145.841 22.9347 145.843 23.3684C146.138 22.6951 146.53 22.065 146.937 21.4479C147.111 21.1922 147.315 20.9397 147.597 20.7832C147.892 20.6182 148.242 20.5761 148.579 20.5696C151.475 20.5124 154.374 20.4995 157.27 20.5696C157.768 20.5782 158.262 20.9505 158.289 21.4403C158.298 22.0834 158.29 22.7264 158.321 23.3695C158.553 22.9552 158.796 22.5462 159.015 22.1244C159.222 21.7435 159.381 21.3259 159.711 21.0217C160.019 20.7239 160.457 20.5718 160.891 20.5718C162.787 20.5707 164.681 20.5847 166.577 20.5718C167.068 20.5621 167.59 20.7066 167.926 21.0638C168.257 21.4069 168.385 21.8751 168.453 22.325C168.441 22.0499 168.449 21.7726 168.503 21.5018C168.559 21.2267 168.674 20.9429 168.916 20.7681C169.151 20.5955 169.461 20.5621 169.749 20.5718C170.543 20.5631 171.337 20.5556 172.13 20.5739C172.441 20.5836 172.775 20.6775 172.972 20.9213C173.219 21.2234 173.265 21.6227 173.288 21.9917C173.298 22.3704 173.289 22.7502 173.293 23.1289C173.293 26.5286 173.293 29.9273 173.293 33.327C175.202 33.3238 177.111 33.3475 179.022 33.3411C179.752 31.4367 180.002 29.3662 179.729 27.354C179.37 24.6264 178.039 22.0251 176.011 20.0679C174.074 18.183 171.492 16.9239 168.764 16.4836C167.866 16.3337 166.951 16.2808 166.04 16.2959C155.509 16.2959 144.98 16.2959 134.45 16.2959C131.014 16.3574 127.655 17.7784 125.225 20.0754ZM162.901 32.4434C162.792 32.6441 162.659 32.8458 162.642 33.0767C162.637 33.2699 162.874 33.3238 163.035 33.3249C164.824 33.3281 166.613 33.3249 168.401 33.326C168.401 30.0902 168.401 26.8545 168.401 23.6187C166.567 26.5577 164.673 29.4666 162.901 32.4434ZM142.372 24.7958C142.367 25.5511 142.365 26.3064 142.367 27.0616C144.121 27.0897 145.874 27.0541 147.627 27.0627C147.901 27.0702 148.199 27.0249 148.445 27.1673C148.597 27.2515 148.657 27.4306 148.635 27.5892C148.601 27.8773 148.425 28.1233 148.305 28.3822C147.919 29.1677 147.483 29.9316 146.979 30.6534C146.667 31.0613 146.134 31.2727 145.615 31.2889C144.535 31.3278 143.454 31.3634 142.373 31.3418C142.375 32.0021 142.366 32.6624 142.377 33.3227C144.307 33.327 146.238 33.3486 148.167 33.3141C148.365 33.3163 148.587 33.4231 148.619 33.6248C148.673 33.9453 148.511 34.2506 148.377 34.5355C147.988 35.349 147.523 36.1247 147.086 36.9145C146.963 37.1271 146.774 37.3062 146.546 37.4184C146.222 37.5802 145.845 37.5975 145.486 37.591C143.44 37.6115 141.394 37.6234 139.348 37.5921C138.853 37.6007 138.352 37.4594 137.947 37.1875C137.711 37.0257 137.498 36.7797 137.511 36.4883C137.515 34.4071 137.557 32.3258 137.511 30.2456C136.901 31.1217 136.071 31.8554 135.117 32.3819C134.409 32.7692 133.618 33.039 132.798 33.0843C132.511 33.1015 132.218 33.1156 131.937 33.0508C131.655 32.9861 131.402 32.8361 131.183 32.6592C130.591 32.1737 130.006 31.6784 129.426 31.1799C129.394 32.1251 129.396 33.0703 129.391 34.0165C129.39 36.2575 129.393 38.4995 129.407 40.7405C131.188 41.458 133.133 41.7957 135.065 41.7547C145.444 41.7547 155.824 41.7547 166.203 41.7547C169.976 41.8248 173.712 40.2409 176.275 37.6223C174.099 37.6266 171.923 37.6083 169.748 37.5921C169.461 37.5878 169.162 37.5101 168.951 37.3159C168.71 37.098 168.597 36.7851 168.531 36.4819C168.42 35.9381 168.428 35.3813 168.411 34.83C167.946 35.6079 167.54 36.4376 166.879 37.0882C166.589 37.3634 166.214 37.5975 165.792 37.5932C163.026 37.55 160.262 37.6202 157.496 37.6051C157.083 37.5932 156.647 37.4874 156.342 37.2069C156.061 36.9512 155.945 36.5703 155.958 36.2078C155.975 35.6845 156.188 35.1882 156.459 34.7405C158.438 31.4357 160.486 28.1665 162.349 24.7991C159.66 24.7386 156.973 24.8001 154.284 24.798C154.284 28.5894 154.284 32.3819 154.284 36.1733C154.282 36.4668 154.265 36.7678 154.148 37.0418C154.068 37.235 153.913 37.4076 153.707 37.4864C153.517 37.563 153.307 37.5554 153.107 37.5533C152.203 37.5511 151.297 37.5684 150.392 37.55C150.137 37.5414 149.867 37.4432 149.727 37.2296C149.55 36.9631 149.528 36.6362 149.516 36.3297C149.515 32.4855 149.516 28.6412 149.516 24.798C147.136 24.7689 144.753 24.7333 142.372 24.7958ZM129.429 24.7948C129.429 26.1855 129.429 27.5773 129.429 28.9681C130.13 29.0016 130.84 29.008 131.53 28.8688C132.005 28.7707 132.483 28.5829 132.814 28.2323C133.154 27.8816 133.288 27.395 133.303 26.9278C133.314 26.4887 133.263 26.0291 133.032 25.6406C132.813 25.2641 132.405 25.0224 131.975 24.9199C131.142 24.7149 130.276 24.825 129.429 24.7948ZM175.726 27.0875C175.218 27.1566 174.746 27.4554 174.496 27.8838C174.145 28.4675 174.237 29.2616 174.724 29.7514C175.203 30.2521 176.02 30.4085 176.67 30.1409C177.035 29.9953 177.346 29.7234 177.521 29.3835C177.779 28.8904 177.75 28.2679 177.433 27.8039C177.081 27.2709 176.377 26.9839 175.726 27.0875ZM175.653 27.3788C175.427 27.4328 175.213 27.5417 175.047 27.6982C174.524 28.1665 174.488 29.0188 174.946 29.5389C175.372 30.0471 176.217 30.1485 176.77 29.7698C177.378 29.3759 177.526 28.5106 177.132 27.9312C176.834 27.4651 176.205 27.2407 175.653 27.3788ZM175.343 27.7435C175.343 28.3607 175.343 28.9767 175.343 29.5939C175.441 29.5939 175.541 29.5939 175.641 29.5939C175.641 29.3285 175.641 29.062 175.641 28.7955C175.751 28.7955 175.862 28.7955 175.973 28.7955C176.145 29.0609 176.314 29.3296 176.486 29.595C176.597 29.5939 176.71 29.5939 176.822 29.5939C176.638 29.3252 176.457 29.0533 176.272 28.7847C176.394 28.7599 176.525 28.7297 176.619 28.6444C176.79 28.4934 176.8 28.2366 176.729 28.0381C176.652 27.8395 176.418 27.7597 176.213 27.75C175.923 27.7349 175.633 27.7467 175.343 27.7435ZM175.641 27.9884C175.641 28.1762 175.641 28.3639 175.641 28.5516C175.858 28.5419 176.081 28.5786 176.292 28.5182C176.513 28.4481 176.518 28.0866 176.289 28.0219C176.081 27.9582 175.856 28.0003 175.641 27.9884Z" fill="#5E88FF"/>
<path d="M268.329 23.9612C269.368 23.9622 270.395 24.1859 271.343 24.6176C272.291 25.0494 273.139 25.6796 273.832 26.4671L276 24.4791C274.612 22.9094 272.791 21.8016 270.775 21.3004C268.759 20.799 266.641 20.9275 264.698 21.669C262.754 22.4104 261.076 23.7304 259.881 25.4567C258.687 27.1831 258.031 29.2355 258.001 31.3463C257.971 33.4571 258.567 35.5282 259.711 37.2893C260.855 39.0505 262.495 40.4199 264.416 41.2189C266.337 42.0179 268.451 42.2093 270.481 41.7683C272.51 41.3272 274.362 40.2741 275.795 38.7464L273.676 36.6999C272.832 37.5977 271.782 38.2687 270.621 38.6531C269.459 39.0374 268.222 39.1231 267.02 38.9024C265.818 38.6817 264.689 38.1616 263.733 37.3885C262.777 36.6154 262.024 35.6134 261.542 34.4721C261.06 33.3308 260.864 32.0858 260.97 30.8484C261.077 29.6109 261.483 28.4196 262.153 27.3809C262.823 26.3422 263.735 25.4885 264.809 24.8961C265.882 24.3037 267.083 23.9911 268.305 23.9863L268.329 23.9612Z" fill="#5E88FF"/>
<path d="M258 21.0396L255.98 19C254.401 20.5731 253.149 22.4431 252.295 24.5024C251.44 26.5617 251 28.7699 251 31C251 33.2301 251.44 35.4383 252.295 37.4976C253.149 39.5569 254.401 41.4269 255.98 43L258 40.9604C256.684 39.6579 255.639 38.1069 254.926 36.3971C254.213 34.6874 253.846 32.8529 253.846 31C253.846 29.1471 254.213 27.3126 254.926 25.6029C255.639 23.8931 256.684 22.3421 258 21.0396Z" fill="#5E88FF"/>
<path d="M278 17.532C275.1 15.2328 271.597 13.9953 268 14V17.096C270.968 17.093 273.859 18.1101 276.257 20L278 17.532Z" fill="#5E88FF"/>
<path d="M268 46.2003V49C271.196 49.0036 274.324 48.0717 277 46.3186L275.428 44C273.217 45.4395 270.636 46.2039 268 46.2003Z" fill="#5E88FF"/>
<path d="M268 42.0973C265.748 42.0958 263.551 41.4142 261.707 40.1448C259.862 38.8754 258.459 37.0794 257.686 35L255 36.2265C256.012 38.8088 257.795 41.0293 260.116 42.5954C262.436 44.1615 265.185 44.9998 268 45V42.0973Z" fill="#5E88FF"/>
<path d="M257.758 31C257.926 28.2645 259.078 25.6985 260.98 23.8226C262.882 21.9468 265.392 20.9015 268 20.8988V18C264.66 17.9999 261.447 19.3494 259.027 21.7692C256.607 24.1891 255.166 27.494 255 31H257.758Z" fill="#5E88FF"/>
</svg>
