<svg width="45" height="45" viewBox="0 0 45 45" fill="none" xmlns="http://www.w3.org/2000/svg">
<path d="M38.3862 38.3761C42.6294 34.1607 45.0082 28.4509 45 22.5009C44.9955 22.1337 44.845 21.7829 44.5809 21.5249C44.3169 21.2666 43.9608 21.122 43.5897 21.122C43.2185 21.122 42.8624 21.2666 42.5983 21.5249C42.3343 21.7829 42.1838 22.1337 42.1793 22.5009C42.1853 27.7152 40.0996 32.7188 36.3805 36.4124C34.5751 38.2467 32.4167 39.7047 30.0326 40.7003C27.6486 41.6957 25.0873 42.2085 22.4998 42.2085C19.9123 42.2085 17.3509 41.6957 14.9669 40.7003C12.5829 39.7047 10.4245 38.2467 8.61909 36.4124C4.90502 32.7151 2.82033 27.7135 2.82033 22.5001C2.82033 17.2865 4.90502 12.2849 8.61909 8.58763C10.414 6.76738 12.5562 5.31786 14.9215 4.3231C17.2867 3.32836 19.828 2.80816 22.3979 2.79268C22.9466 2.80969 23.4669 3.0382 23.8479 3.42945C24.2288 3.82068 24.4402 4.34374 24.4369 4.88704C24.4338 5.43034 24.2163 5.95091 23.8308 6.33776C23.4453 6.72459 22.9223 6.94707 22.3734 6.95777C22.3226 6.95787 22.2718 6.96066 22.2213 6.96612C18.3114 7.09073 14.6016 8.70637 11.8675 11.4752C8.98003 14.3518 7.35949 18.2418 7.35949 22.2964C7.35949 26.3511 8.98003 30.241 11.8675 33.1176C13.2781 34.5477 14.9634 35.684 16.8244 36.4598C18.6853 37.2357 20.6843 37.6353 22.7036 37.6353C24.7228 37.6353 26.7219 37.2357 28.5828 36.4598C30.4436 35.684 32.129 34.5477 33.5396 33.1176C36.4315 30.2441 38.0527 26.3521 38.047 22.2964C38.0529 21.6577 37.9309 21.0238 37.688 20.4319C37.445 19.8401 37.086 19.3017 36.6316 18.8479C36.1772 18.3941 35.6365 18.0339 35.0406 17.788C34.4448 17.5422 33.8058 17.4156 33.1601 17.4156C32.5145 17.4156 31.8754 17.5422 31.2796 17.788C30.6838 18.0339 30.1431 18.3941 29.6887 18.8479C29.2342 19.3017 28.8753 19.8401 28.6322 20.4319C28.3894 21.0238 28.2673 21.6577 28.2733 22.2964C28.2733 22.3372 28.276 22.3755 28.2793 22.4146C28.276 22.4537 28.2733 22.4928 28.2733 22.5327C28.2825 23.6464 27.9572 24.7377 27.3385 25.6684C26.72 26.5988 25.836 27.3263 24.7989 27.759C23.7618 28.1914 22.6181 28.3093 21.5133 28.0977C20.4083 27.8859 19.3919 27.3542 18.5928 26.5699C17.7937 25.7855 17.2481 24.784 17.0251 23.6923C16.8022 22.6005 16.9119 21.4678 17.3405 20.438C17.769 19.4081 18.497 18.5274 19.4322 17.9076C20.3673 17.2878 21.4674 16.9569 22.5928 16.9569C22.7795 16.9591 22.9647 16.9247 23.1378 16.8556C23.3109 16.7864 23.4684 16.684 23.6011 16.5541C23.7339 16.4243 23.8394 16.2697 23.9113 16.0992C23.9833 15.9288 24.0203 15.7459 24.0203 15.5612C24.0203 15.3765 23.9833 15.1936 23.9113 15.0231C23.8394 14.8527 23.7339 14.6981 23.6011 14.5682C23.4684 14.4384 23.3109 14.3359 23.1378 14.2668C22.9647 14.1977 22.7795 14.1632 22.5928 14.1654C20.9226 14.1746 19.2925 14.6732 17.9083 15.5981C16.5241 16.5231 15.4476 17.8332 14.8149 19.3629C14.1822 20.8926 14.0214 22.5736 14.3529 24.1937C14.6845 25.8138 15.4934 27.3003 16.6778 28.4659C17.8621 29.6314 19.3687 30.4237 21.0076 30.7429C22.6463 31.0619 24.3441 30.8934 25.8863 30.2587C27.4284 29.6241 28.7462 28.5517 29.6732 27.1766C30.6002 25.8016 31.0948 24.1856 31.0948 22.5327C31.0948 22.492 31.0921 22.4537 31.0888 22.4146C31.0921 22.3755 31.0948 22.3363 31.0948 22.2964C31.0892 22.0245 31.1386 21.7542 31.2401 21.5012C31.3414 21.2485 31.4928 21.0181 31.6851 20.824C31.8775 20.6297 32.1072 20.4753 32.3605 20.37C32.6139 20.2647 32.8862 20.2104 33.161 20.2104C33.4357 20.2104 33.708 20.2647 33.9614 20.37C34.2147 20.4753 34.4444 20.6297 34.6368 20.824C34.8291 21.0181 34.9805 21.2485 35.0818 21.5012C35.1833 21.7542 35.2327 22.0245 35.2271 22.2964C35.2308 25.6168 33.9027 28.8028 31.5344 31.1547C30.3862 32.3222 29.0132 33.25 27.4965 33.8837C25.9799 34.5173 24.3503 34.8436 22.704 34.8436C21.0579 34.8436 19.4283 34.5173 17.9116 33.8837C16.395 33.25 15.022 32.3222 13.8737 31.1547C11.5086 28.8008 10.1811 25.616 10.1811 22.2964C10.1811 18.9768 11.5086 15.7921 13.8737 13.4381C15.0229 12.2721 16.3959 11.3451 17.9122 10.7117C19.4284 10.0782 21.0572 9.75097 22.7031 9.74922C22.8297 9.74888 22.9557 9.73163 23.0777 9.6979C24.2784 9.51566 25.3686 8.90113 26.1396 7.97222C26.9106 7.04329 27.3078 5.86538 27.2551 4.66445C27.2024 3.4635 26.7033 2.32411 25.8539 1.46484C25.0046 0.605553 23.8645 0.0868927 22.6525 0.00835102C22.6019 0.00289338 22.5508 0.000105731 22.4998 0C22.4714 0 22.4432 0 22.4148 0C22.4008 0 22.3872 0 22.3736 0C22.36 0 22.3461 0.00162833 22.3325 0.0020357C19.4004 0.0248553 16.502 0.621819 13.8042 1.75851C11.1064 2.89519 8.66266 4.54913 6.61385 6.62495C2.37758 10.8448 0 16.5516 0 22.5001C0 28.4484 2.37758 34.1552 6.61385 38.375C8.6816 40.472 11.1523 42.1385 13.8806 43.276C16.6089 44.4138 19.5396 45 22.5002 45C25.4608 45 28.3914 44.4138 31.1199 43.276C33.8482 42.1385 36.3188 40.472 38.3866 38.375L38.3862 38.3761Z" fill="white"/>
</svg>
