<svg width="300" height="36" viewBox="0 0 300 36" fill="none" xmlns="http://www.w3.org/2000/svg">
<path d="M42 24.8469C41.0267 24.8515 40.0663 24.6 39.1976 24.1131C38.3289 23.6261 37.5765 22.9175 37.0023 22.0455L33 24.5964C33.1523 24.7912 33.3326 24.9566 33.5336 25.086L40.6556 29.6411C41.0719 29.877 41.5326 30 42 30C42.4674 30 42.9281 29.877 43.3443 29.6411L50.4664 25.086C50.6674 24.9566 50.8477 24.7912 51 24.5964L47.008 22C46.4371 22.882 45.6852 23.6003 44.8142 24.0954C43.9433 24.5905 42.9785 24.8481 42 24.8469Z" fill="#5E88FF"/>
<path d="M35.9302 18.0704C35.934 16.5032 36.5552 14.9923 37.6749 13.8264C38.7946 12.6605 40.3345 11.9214 42 11.7505V7C41.7473 7.04914 41.5042 7.1344 41.2793 7.2528L33.4639 11.4661C33.0392 11.7319 32.6859 12.0861 32.432 12.501C32.178 12.9158 32.0302 13.3799 32 13.8571V22.2837C32.0035 22.5269 32.0452 22.7683 32.1238 23L36.5158 20.63C36.1317 19.8244 35.9323 18.9525 35.9302 18.0704Z" fill="#5E88FF"/>
<path d="M50.6824 11.4632L43.6487 7.25264C43.4463 7.1343 43.2274 7.04908 43 7V11.7368C43.9556 11.8493 44.8724 12.1931 45.6766 12.7409C46.4808 13.2885 47.1499 14.0247 47.6301 14.89C48.1103 15.7554 48.3881 16.7257 48.4412 17.723C48.4943 18.7203 48.3212 19.7165 47.9358 20.6316L51.8885 23C51.9593 22.7684 51.9969 22.5272 52 22.2842V13.8632C51.9744 13.3845 51.842 12.9185 51.6134 12.502C51.3847 12.0855 51.066 11.7299 50.6824 11.4632Z" fill="#5E88FF"/>
<path d="M55.8058 7.33746L44.1942 0.527475C43.5133 0.180608 42.7619 0 42 0C41.2381 0 40.4868 0.180608 39.8058 0.527475L28.1942 7.33746C27.5569 7.75912 27.0262 8.32705 26.645 8.99538C26.2639 9.66372 26.0429 10.4137 26 11.1847V24.8046C26.0421 25.5773 26.2627 26.3291 26.6438 26.9992C27.025 27.6694 27.5561 28.2392 28.1942 28.6625L39.8058 35.4727C40.4868 35.8195 41.2381 36 42 36C42.7619 36 43.5133 35.8195 44.1942 35.4727L55.8058 28.6625C56.444 28.2392 56.9751 27.6694 57.3562 26.9992C57.7374 26.3291 57.9579 25.5773 58 24.8046V11.1847C57.9571 10.4137 57.7361 9.66372 57.355 8.99538C56.9738 8.32705 56.4432 7.75912 55.8058 7.33746ZM54.3149 23.238C54.2808 23.8316 54.1102 24.4088 53.8167 24.9233C53.5231 25.4378 53.1149 25.8753 52.6246 26.2007L43.6797 31.4441C43.1572 31.7119 42.5801 31.8515 41.9947 31.8515C41.4094 31.8515 40.8322 31.7119 40.3097 31.4441L31.3754 26.2007C30.8851 25.8753 30.4768 25.4378 30.1833 24.9233C29.8898 24.4088 29.7191 23.8316 29.685 23.238V12.762C29.7191 12.1684 29.8898 11.5912 30.1833 11.0767C30.4768 10.5622 30.8851 10.1247 31.3754 9.79925L40.2992 4.55593C40.8217 4.28806 41.3988 4.14847 41.9842 4.14847C42.5696 4.14847 43.1468 4.28806 43.6693 4.55593L52.6142 9.79925C53.1063 10.1235 53.5166 10.5605 53.812 11.0751C54.1075 11.5897 54.2797 12.1675 54.3149 12.762V23.238Z" fill="#5E88FF"/>
<path d="M37 18.5C37 19.39 37.2639 20.26 37.7584 21C38.2528 21.7401 38.9557 22.3169 39.778 22.6575C40.6002 22.998 41.505 23.0871 42.3779 22.9136C43.2508 22.7399 44.0526 22.3113 44.6819 21.682C45.3113 21.0527 45.7399 20.2508 45.9136 19.3779C46.0872 18.505 45.9981 17.6002 45.6575 16.7779C45.3169 15.9556 44.7401 15.2529 44.0001 14.7584C43.2601 14.2639 42.39 14 41.5 14C40.3066 14 39.162 14.4741 38.3181 15.318C37.4741 16.162 37 17.3066 37 18.5Z" fill="#5E88FF"/>
<g clip-path="url(#clip0)">
<path fill-rule="evenodd" clip-rule="evenodd" d="M149.263 9.5L146 26.5H149.737L153 9.5H149.263Z" fill="#5E88FF"/>
<path fill-rule="evenodd" clip-rule="evenodd" d="M108.294 9.5L105 26.5H108.706L112 9.5H108.294Z" fill="#5E88FF"/>
<path fill-rule="evenodd" clip-rule="evenodd" d="M134.267 26.5H137.776L148 9.5H144.189L137.05 21.3022L134.811 9.5H131L134.267 26.5Z" fill="#5E88FF"/>
<path fill-rule="evenodd" clip-rule="evenodd" d="M159.452 26.5L162.088 13.0468H166.341L167 9.5H154.659L154 13.0468H158.313L155.677 26.5H159.452Z" fill="#5E88FF"/>
<path fill-rule="evenodd" clip-rule="evenodd" d="M115.612 26.5L117.803 15.2482L123.487 26.5H126.743L130 9.5H126.447L124.257 20.7518L118.513 9.5H115.316L112 26.5H115.612Z" fill="#5E88FF"/>
<path fill-rule="evenodd" clip-rule="evenodd" d="M176.397 9.5H169.344L166 26.5H169.83L172.506 13.0468H175.85C176.64 13.0468 177.248 13.2914 177.674 13.7194C178.038 14.0863 178.221 14.6367 178.16 15.187C177.978 16.8993 176.64 17.6942 174.938 17.6942H172.08L175.667 26.5H179.498L177.126 20.6906C180.045 20.2014 181.869 18.0612 181.99 15.187C182.173 11.8237 179.741 9.5 176.397 9.5Z" fill="#5E88FF"/>
<path d="M182.018 18C182.311 13.3042 186.068 9.5 190.999 9.5C195.93 9.5 199.276 13.3042 198.982 18C198.689 22.6958 194.932 26.5 190.001 26.5C185.07 26.5 181.724 22.7552 182.018 18ZM195.578 18C195.754 15.2063 193.758 12.8287 190.823 12.8287C187.829 12.8287 185.657 15.1469 185.481 18C185.305 20.7937 187.301 23.1713 190.236 23.1713C193.171 23.1713 195.401 20.8531 195.578 18Z" fill="#5E88FF"/>
</g>
<path fill-rule="evenodd" clip-rule="evenodd" d="M274.726 12H282L273.273 24H266L274.726 12Z" fill="#5E88FF"/>
<path fill-rule="evenodd" clip-rule="evenodd" d="M298.096 7.87477C296.19 6 293.333 6.00199 291.428 6.00099L285.942 6C285.485 6 284.914 6 284.457 6.45082C284 6.90065 284 7.46367 284 7.9135V8.99983H291.618C292.127 8.99983 292.888 8.99983 293.396 9.5003C293.904 10.0008 293.904 10.7505 293.904 11.25V18.75C293.904 19.2505 293.904 20.0002 293.396 20.5007C292.887 21.0002 292.126 21.0002 291.618 21.0002H287.936C287.3 21.0002 286.475 21.0002 286.157 20.313C285.84 19.6259 286.284 19.0003 286.665 18.5008L291.617 12.0007H283.999L280.952 16.0004C280.442 16.6707 280 17.2506 280 18.0003C280 18.75 280.412 19.2902 280.952 20.0002L281.714 21.0002C282.475 22.0001 283.238 23.0001 284.254 23.5005C285.27 24 286.476 24 288.127 24H291.429C293.333 24 296.191 24 298.096 22.1252C300 20.2505 300 17.5009 300 16.4999V13.5001C300 12.5001 300 9.74954 298.096 7.87477Z" fill="#5E88FF"/>
<path fill-rule="evenodd" clip-rule="evenodd" d="M268.05 15.9998L267.29 14.9998C266.53 13.9999 265.769 12.9999 264.755 12.5005C263.741 12 262.537 12 260.889 12H247.938C247.482 12 246.911 12 246.455 12.4498C246 12.8997 246 13.4617 246 13.9115V14.9988H249.041V30H255.123V14.9988H261.08C261.713 14.9988 262.537 14.9988 262.854 15.687C263.171 16.3741 262.728 16.9997 262.347 17.4992L257.405 23.9993H265.009L268.05 19.9996C268.559 19.3293 269 18.7494 269 17.9997C269 17.249 268.589 16.7088 268.05 15.9998Z" fill="#5E88FF"/>
<defs>
<clipPath id="clip0">
<rect width="94" height="17" fill="white" transform="translate(105 9.5)"/>
</clipPath>
</defs>
</svg>
