<svg width="646" height="430" viewBox="0 0 646 430" fill="none" xmlns="http://www.w3.org/2000/svg">
<path d="M536.718 125.757L534.996 122.524C520.468 95.2844 492.437 77.8124 461.84 78.0015C457.894 78.0323 453.956 78.3571 450.058 78.9731C422 83.3498 396.697 102.946 385.181 129.214C378.416 144.691 375.714 162.748 363.88 174.64C348.44 190.117 323.747 189.257 302.102 187.365C280.456 185.474 255.746 184.665 240.366 200.22C230.736 209.962 227.043 224.382 227 238.148C226.889 274.597 250.41 308.509 281.738 326.471C313.066 344.434 350.936 347.968 386.619 342.877C436.597 335.698 485.13 310.994 515.718 270.366C546.305 229.739 556.762 172.593 536.718 125.757Z" fill="white"/>
<path d="M164.5 210C195.152 210 220 185.152 220 154.5C220 123.848 195.152 99 164.5 99C133.848 99 109 123.848 109 154.5C109 185.152 133.848 210 164.5 210Z" fill="white"/>
<path d="M521.864 267.502L496.103 299.173C492.128 297.384 466.376 263 466.376 263L449 289.475C449 289.475 479.091 325.965 494.111 325.965C496.562 325.965 500.504 326.445 503.561 323.842C518.105 311.499 536 273.956 536 273.956L521.864 267.502Z" fill="#FFBE9D"/>
<path d="M405 216.294C406.297 217.104 408.139 216.234 408.822 214.864C409.386 213.426 409.419 211.836 408.917 210.376C408.409 208.931 408.084 207.429 407.948 205.905C407.967 204.509 408.435 203.157 409.283 202.046C410.132 200.936 411.316 200.126 412.661 199.737C412.067 199.169 411.594 198.488 411.271 197.733C410.948 196.979 410.782 196.168 410.782 195.348C410.782 194.528 410.948 193.716 411.271 192.962C411.594 192.208 412.067 191.526 412.661 190.958C413.837 189.942 415.35 189.434 416.699 188.658C417.465 188.206 418.183 187.678 418.843 187.082C417.667 187.313 416.455 187.29 415.289 187.013C414.355 186.756 413.501 186.268 412.805 185.595C412.11 184.922 411.597 184.085 411.312 183.162C411.051 182.232 411.056 181.247 411.328 180.32C411.6 179.393 412.128 178.56 412.851 177.916C413.592 177.293 414.507 176.91 415.472 176.817C416.437 176.725 417.408 176.928 418.255 177.399C419.889 178.373 420.719 180.242 421.445 181.991L422.12 183.619C424.653 180.612 427.04 177.502 430.766 176.589C434.13 175.728 437.632 177.063 441.09 176.986C443.615 176.934 446.07 176.124 448.586 176.012C451.103 175.9 453.93 176.546 455.305 178.657C456.109 179.889 456.308 181.448 457.121 182.68C458.807 185.264 462.697 185.755 464.038 188.486C465.136 190.7 464.038 193.379 464.461 195.826C464.885 198.488 466.96 200.512 468.637 202.623C470.315 204.733 471.724 207.593 470.592 210.04C469.606 212.193 466.969 213.244 466.018 215.415C465.317 216.992 465.672 218.809 465.62 220.541C465.568 222.272 464.755 224.271 463.026 224.581L443.641 228.647C436.888 230.99 429.928 233.359 422.786 232.955C415.644 232.55 408.208 228.776 405.726 222.1C406.771 222.106 407.779 221.715 408.545 221.006C407.639 220.533 406.851 219.865 406.237 219.05C405.624 218.234 405.201 217.293 405 216.294Z" fill="#263238"/>
<path d="M420.114 223C418.734 218.154 417.757 213.192 417.195 208.169C416.636 203.122 417.282 198.008 419.074 193.287C419.358 192.588 421.765 187.891 422.489 188.002C423.009 188.087 421.448 192.502 421.676 192.988C423.961 197.634 424.375 203.097 423.717 208.28C423.034 213.312 421.82 218.249 420.098 223" fill="#263238"/>
<path d="M441.514 265.959C433.534 265.384 419 249.423 419 249.423L421.202 203.695C421.445 190.926 429.182 180.432 442.088 181.024L443.281 181.153C449.064 181.753 454.406 184.477 458.244 188.785C462.082 193.092 464.134 198.667 463.993 204.399C463.715 215.46 463.271 227.679 462.566 233.574C461.113 245.733 448.554 246.343 448.554 246.343C448.554 246.343 448.337 249.174 448.111 252.761C447.606 260.827 446.135 266.414 442.95 265.976L441.514 265.959Z" fill="#FFBE9D"/>
<path d="M448 246.063C442.509 245.487 437.303 243.382 433 240C433 240 435.864 248.836 447.841 249L448 246.063Z" fill="#EB996E"/>
<path d="M459.999 212.581C459.98 212.783 459.908 212.981 459.79 213.162C459.672 213.343 459.509 213.504 459.311 213.635C459.113 213.767 458.883 213.866 458.635 213.928C458.387 213.989 458.126 214.012 457.867 213.994C457.355 213.974 456.873 213.798 456.524 213.504C456.175 213.21 455.987 212.82 456.001 212.419C456.02 212.217 456.091 212.019 456.21 211.838C456.328 211.657 456.491 211.496 456.689 211.365C456.887 211.233 457.117 211.134 457.365 211.072C457.613 211.011 457.874 210.988 458.133 211.006C458.645 211.026 459.127 211.202 459.476 211.496C459.825 211.79 460.013 212.18 459.999 212.581Z" fill="#263238"/>
<path d="M459.964 208.979C459.721 209.156 458.485 208.154 456.587 207.984C454.69 207.814 453.193 208.524 453.019 208.3C452.923 208.2 453.193 207.853 453.889 207.529C454.771 207.102 455.78 206.927 456.779 207.028C457.751 207.123 458.665 207.487 459.39 208.069C459.93 208.509 460.078 208.894 459.964 208.979Z" fill="#263238"/>
<path d="M441.999 211.579C441.98 211.782 441.908 211.98 441.79 212.161C441.672 212.342 441.509 212.504 441.311 212.635C441.113 212.767 440.883 212.866 440.635 212.928C440.387 212.989 440.126 213.012 439.867 212.994C439.355 212.974 438.873 212.798 438.524 212.504C438.175 212.209 437.987 211.819 438.001 211.418C438.053 211.012 438.304 210.638 438.702 210.374C439.1 210.11 439.612 209.977 440.133 210.003C440.645 210.023 441.127 210.199 441.476 210.494C441.825 210.788 442.013 211.178 441.999 211.579Z" fill="#263238"/>
<path d="M441.948 207.979C441.705 208.156 440.473 207.154 438.582 206.984C436.691 206.814 435.198 207.524 435.016 207.3C434.929 207.2 435.19 206.853 435.884 206.529C436.763 206.102 437.769 205.927 438.764 206.028C439.733 206.123 440.644 206.487 441.367 207.069C441.905 207.485 442.105 207.871 441.948 207.979Z" fill="#263238"/>
<path d="M447 222.681C448.038 222.479 449.097 222.404 450.153 222.458C450.651 222.458 451.123 222.407 451.236 222.09C451.327 221.6 451.266 221.095 451.062 220.64L450.014 216.857C448.572 211.47 447.585 207.061 447.804 207.001C448.022 206.941 449.376 211.29 450.817 216.66C451.158 217.981 451.49 219.233 451.804 220.46C452.046 221.069 452.064 221.742 451.857 222.364C451.767 222.523 451.641 222.661 451.49 222.766C451.339 222.871 451.166 222.942 450.983 222.973C450.693 223.009 450.4 223.009 450.11 222.973C449.065 223.005 448.02 222.907 447 222.681Z" fill="#263238"/>
<path d="M441.412 224.001C441.719 224.001 441.509 226.094 443.164 227.75C444.819 229.405 447.009 229.414 447 229.712C447 229.843 446.466 230.062 445.529 229.983C444.312 229.875 443.173 229.338 442.315 228.468C441.488 227.635 441.017 226.514 441.001 225.341C440.983 224.465 441.264 223.975 441.412 224.001Z" fill="#263238"/>
<path d="M442.982 200.717C442.731 201.191 440.804 200.767 438.5 200.8C436.196 200.833 434.26 201.233 434.018 200.8C433.91 200.576 434.287 200.143 435.085 199.736C436.152 199.252 437.325 199 438.513 199C439.702 199 440.874 199.252 441.942 199.736C442.713 200.06 443.09 200.493 442.982 200.717Z" fill="#263238"/>
<path d="M459.938 201.893C459.584 202.209 458.419 201.739 456.973 201.591C455.526 201.444 454.265 201.591 454.024 201.184C453.919 200.995 454.16 200.665 454.731 200.391C455.496 200.051 456.364 199.928 457.214 200.04C458.066 200.129 458.865 200.451 459.496 200.96C459.97 201.353 460.09 201.732 459.938 201.893Z" fill="#263238"/>
<path d="M421 212.72C420.797 212.608 412.659 209.331 412.032 217.753C411.405 226.175 420.161 225.059 420.188 224.817C420.214 224.575 421 212.72 421 212.72Z" fill="#FFBE9D"/>
<path d="M417.994 221.416C417.994 221.416 417.817 221.506 417.532 221.596C417.123 221.714 416.675 221.694 416.284 221.539C415.302 221.171 414.565 219.78 414.644 218.34C414.682 217.657 414.9 216.989 415.282 216.384C415.396 216.142 415.577 215.926 415.811 215.754C416.045 215.582 416.325 215.458 416.628 215.394C416.828 215.358 417.038 215.382 417.218 215.463C417.398 215.544 417.538 215.677 417.611 215.836C417.719 216.065 417.611 216.221 417.689 216.237C417.768 216.253 417.915 216.114 417.866 215.787C417.827 215.586 417.71 215.402 417.532 215.263C417.283 215.081 416.959 214.987 416.628 215.001C416.23 215.043 415.851 215.168 415.528 215.366C415.205 215.563 414.948 215.827 414.781 216.131C414.306 216.793 414.04 217.544 414.005 218.315C413.926 219.952 414.781 221.49 416.137 221.907C416.388 221.985 416.658 222.015 416.925 221.993C417.192 221.972 417.45 221.901 417.679 221.785C417.954 221.613 418.023 221.433 417.994 221.416Z" fill="#EB996E"/>
<path d="M458.697 189.871C460.112 189.206 456.292 184.528 453.019 182.791C448.088 180.197 440.413 178.252 435.655 179.28C429.908 180.508 425.038 183.007 421.877 187.926C418.807 192.959 417.14 198.716 417.05 204.604C416.872 206.379 417.171 208.17 417.918 209.791C418.978 211.728 421.165 213.042 420.905 215.61C420.792 216.534 421.048 217.465 421.617 218.203C423.058 219.933 425.046 218.523 426.019 217.036C428.094 213.855 428.554 209.929 428.962 206.16C429.4 203.495 429.4 200.776 428.962 198.111C428.64 196.684 428.094 195.31 427.816 193.866C427.648 193.15 427.638 192.406 427.788 191.687C427.938 190.967 428.244 190.289 428.684 189.698C428.905 189.459 429.149 189.241 429.413 189.05C430.658 188.1 432.135 187.498 433.691 187.305C435.248 187.112 436.828 187.335 438.269 187.952C442.922 189.941 450.901 192.967 453.123 191.488C456.335 189.37 457.16 187.909 457.16 187.909L458.697 189.871Z" fill="#263238"/>
<path d="M436.257 178.681C438.582 178.028 441.015 177.842 443.413 178.134C445.81 178.425 448.126 179.188 450.226 180.379C452.415 181.695 454.34 183.699 454.877 186.196C455.414 188.692 454.162 191.639 451.734 192.445L451.564 192.539C447.952 193.498 445.678 192.879 442.194 191.435C439.289 190.212 436.768 188.217 433.855 187.019C430.736 185.737 427.304 185.415 424 186.094C427.36 182.59 431.588 180.033 436.257 178.681Z" fill="#263238"/>
<path d="M420 185.62C420.07 185.686 420.791 184.956 422.216 184.12C423.034 183.636 423.908 183.243 424.822 182.948C425.937 182.58 427.124 182.451 428.298 182.571C430.443 182.904 432.445 183.799 434.076 185.153C435.336 186.202 435.901 187.055 435.979 186.997C436.057 186.94 435.91 186.751 435.649 186.366C435.277 185.828 434.843 185.33 434.354 184.883C432.724 183.372 430.634 182.38 428.376 182.047C427.118 181.915 425.844 182.063 424.657 182.481C423.699 182.805 422.793 183.252 421.964 183.809C421.179 184.272 420.509 184.89 420 185.62Z" fill="#455A64"/>
<path d="M419 189.001C419.029 189.854 419.201 190.696 419.509 191.488C420.799 195.423 423.369 198.767 426.776 200.942C427.449 201.43 428.202 201.789 428.997 202C429.108 201.841 425.606 200.236 422.782 196.515C419.958 192.793 419.178 188.93 419 189.001Z" fill="#455A64"/>
<path d="M415.089 190C415.009 190.319 414.982 190.649 415.012 190.976C415.011 191.862 415.09 192.745 415.245 193.616C415.747 196.534 416.952 199.282 418.753 201.612C420.555 203.942 422.897 205.783 425.57 206.97C426.368 207.337 427.197 207.632 428.047 207.85C428.354 207.957 428.676 208.007 429 207.999C429 207.902 427.692 207.594 425.735 206.618C423.182 205.367 420.944 203.54 419.194 201.275C417.443 199.011 416.226 196.37 415.635 193.554C415.167 191.39 415.193 190 415.089 190Z" fill="#455A64"/>
<path d="M446 178C446 178.09 446.893 178.349 448.259 178.985C450.044 179.811 451.691 180.908 453.143 182.237C454.591 183.574 455.828 185.123 456.813 186.832C457.165 187.578 457.561 188.302 458 189C457.865 188.17 457.587 187.37 457.179 186.635C456.273 184.813 455.037 183.176 453.536 181.807C452.046 180.428 450.31 179.343 448.42 178.609C447.658 178.255 446.838 178.049 446 178Z" fill="#455A64"/>
<path d="M413.032 178.001C412.895 178.001 413.136 180.465 414.924 182.834C416.712 185.203 418.965 186.126 419 185.986C419.034 185.847 417.031 184.75 415.371 182.503C413.712 180.256 413.204 177.949 413.032 178.001Z" fill="#455A64"/>
<path d="M447.42 251.422C447.42 251.422 458.432 253.278 464.171 258.993C469.911 264.707 488 289.344 488 289.344L472.051 317.211L464.681 310.887L458.916 358.716L369.004 359C368.719 358.141 383.167 282.701 383.167 282.701C383.167 282.701 379.637 261.751 388.181 255.942C392.367 253.098 399.789 251.087 405.329 249.592C413.744 247.315 418.275 246 418.275 246C418.275 246 434.259 264.458 440.878 264.415C447.316 264.372 447.42 251.422 447.42 251.422Z" fill="#5E88FF"/>
<path d="M544.869 237.11C542.497 237.568 531.97 249.311 531.97 249.311L529.983 249.017C529.119 248.89 528.238 248.943 527.395 249.173C526.552 249.403 525.764 249.805 525.081 250.355C524.398 250.904 523.834 251.589 523.423 252.367C523.012 253.145 522.764 254 522.694 254.879C522.231 260.577 522 267.668 522 267.668L531.961 274.975H535.387C538.445 275.424 542.634 269.83 545.375 265.826C548.116 261.823 545.238 260.344 545.238 260.344C546.094 256.021 542.291 256.116 542.291 256.116C542.968 252.225 539.122 251.541 539.122 251.541C539.122 251.541 545.803 243.543 547.387 240.569C548.972 237.594 547.25 236.652 544.869 237.11Z" fill="#FFBE9D"/>
<path d="M403.325 288.781C400.613 297.68 389.387 336.602 389.387 336.602L442 346.317L440.996 358L361.175 357.923C359.141 348.431 357.407 336.447 361.441 322.772C366.384 306.073 373.792 283 373.792 283" fill="#FFBE9D"/>
<path d="M363 297.647C363 297.647 383.493 257.233 387.83 255.568C395.421 252.642 411.823 261.496 409.834 271.248C407.845 281 395.925 314 395.925 314L363 297.647Z" fill="#5E88FF"/>
<path d="M467.983 282C468.006 282.182 468.006 282.366 467.983 282.547C467.983 282.949 467.921 283.462 467.886 284.095C467.798 285.447 467.63 287.388 467.4 289.791C466.942 294.598 466.165 301.226 465.23 308.53C464.294 315.834 463.465 322.445 462.926 327.243C462.662 329.595 462.45 331.519 462.291 332.922C462.22 333.546 462.159 334.059 462.115 334.461C462.1 334.643 462.067 334.824 462.017 335C461.994 334.818 461.994 334.634 462.017 334.453C462.017 334.051 462.079 333.538 462.115 332.905C462.203 331.553 462.37 329.612 462.6 327.209C463.059 322.402 463.835 315.782 464.771 308.47C465.706 301.158 466.536 294.555 467.074 289.757C467.339 287.405 467.55 285.481 467.709 284.087C467.78 283.454 467.842 282.941 467.886 282.539C467.9 282.357 467.933 282.176 467.983 282Z" fill="#263238"/>
<path d="M410.996 278C411.117 278 408.305 285.652 404.716 295.072C401.127 304.492 398.125 312.076 398.004 311.999C397.883 311.923 400.704 304.348 404.293 294.919C407.882 285.49 410.867 277.958 410.996 278Z" fill="#263238"/>
<path d="M409 266.999C408.933 267.042 408.346 266.066 407.196 264.666C404.197 260.985 400.238 258.263 395.786 256.822C394.108 256.269 392.983 256.088 393 256.01C393.261 255.987 393.524 256.004 393.78 256.062C394.485 256.166 395.183 256.316 395.87 256.511C400.454 257.804 404.512 260.585 407.439 264.441C407.876 265.022 408.279 265.627 408.648 266.256C408.801 266.484 408.919 266.734 409 266.999Z" fill="#263238"/>
<path d="M495.019 307C494.901 307 495.363 305.257 495.498 303.017C495.632 300.778 495.422 299.026 495.548 299C495.962 300.302 496.094 301.683 495.934 303.044C495.92 304.417 495.607 305.77 495.019 307Z" fill="#EB996E"/>
<path d="M542 255.426C541.465 256.343 540.864 257.222 540.2 258.055C539.891 258.5 539.551 258.925 539.184 259.326C538.735 259.773 538.216 260.146 537.645 260.43C537.012 260.78 536.302 260.976 535.575 261C535.174 260.993 534.779 260.904 534.415 260.739C534.051 260.575 533.726 260.338 533.461 260.045C533.193 259.723 533.032 259.328 533.002 258.914C532.987 258.528 533.055 258.143 533.2 257.784C533.482 257.158 533.813 256.554 534.19 255.978C534.81 255.012 535.498 254.09 536.25 253.217C536.754 252.628 537.292 252.066 537.861 251.535C538.057 251.324 538.284 251.144 538.536 251C538.59 251.053 537.708 251.876 536.502 253.419C535.8 254.308 535.151 255.235 534.559 256.197C534.218 256.761 533.917 257.346 533.659 257.95C533.516 258.24 533.459 258.563 533.492 258.883C533.525 259.203 533.648 259.508 533.848 259.764C534.075 260.011 534.352 260.21 534.662 260.347C534.971 260.484 535.307 260.558 535.647 260.562C536.296 260.542 536.931 260.374 537.501 260.071C538.039 259.809 538.534 259.47 538.968 259.063C539.337 258.692 539.677 258.293 539.984 257.871C540.591 257.007 541.265 256.19 542 255.426Z" fill="#EB996E"/>
<path d="M545 259.814C544.923 260.085 544.81 260.343 544.663 260.58C544.422 261.049 544.051 261.725 543.533 262.527C542.92 263.476 542.165 264.316 541.299 265.015C540.781 265.455 540.172 265.764 539.521 265.917C539.152 266.03 538.759 266.028 538.391 265.91C538.023 265.792 537.696 265.564 537.451 265.254C537.206 264.944 537.053 264.566 537.011 264.166C536.97 263.767 537.042 263.363 537.218 263.005C537.446 262.375 537.735 261.771 538.08 261.202C538.63 260.232 539.229 259.293 539.875 258.39C540.3 257.765 540.755 257.163 541.238 256.587C541.575 256.181 541.782 255.983 541.808 256.001C541.834 256.019 541.152 256.975 540.134 258.552C539.625 259.345 539.038 260.301 538.408 261.392C538.08 261.942 537.806 262.524 537.589 263.131C537.441 263.413 537.377 263.735 537.405 264.055C537.433 264.375 537.552 264.679 537.747 264.928C537.942 265.177 538.203 265.359 538.498 265.452C538.792 265.545 539.107 265.543 539.4 265.448C539.989 265.304 540.539 265.027 541.014 264.637C541.862 263.981 542.61 263.193 543.231 262.302C544.353 260.806 544.931 259.769 545 259.814Z" fill="#EB996E"/>
<path d="M547 263.598C546.846 264.355 546.542 265.071 546.105 265.701C545.676 266.415 545.175 267.08 544.611 267.685C544.279 268.056 543.907 268.386 543.501 268.668C543.261 268.84 542.984 268.949 542.694 268.986C542.404 269.023 542.11 268.986 541.836 268.879C541.568 268.739 541.345 268.52 541.197 268.251C541.049 267.981 540.982 267.672 541.004 267.364C541.033 266.847 541.161 266.342 541.38 265.876C541.73 265.117 542.169 264.404 542.687 263.754C543.121 263.139 543.593 262.553 544.101 262C543.816 262.707 543.43 263.367 542.955 263.956C542.49 264.609 542.094 265.311 541.774 266.05C541.59 266.467 541.484 266.916 541.461 267.373C541.445 267.587 541.49 267.802 541.59 267.991C541.69 268.18 541.841 268.335 542.024 268.438C542.23 268.513 542.449 268.537 542.666 268.508C542.882 268.48 543.088 268.399 543.268 268.273C543.647 268.008 543.995 267.7 544.306 267.355C544.867 266.792 545.377 266.177 545.828 265.518C546.651 264.324 546.937 263.515 547 263.598Z" fill="#EB996E"/>
<path d="M530.241 249C533.085 249.464 537.27 250.299 539.952 251.064C540.287 252.784 538.826 254.393 537.167 254.874C535.466 255.22 533.705 255.119 532.054 254.582C532.583 255.321 532.95 256.162 533.134 257.052C533.317 257.942 533.312 258.86 533.118 259.748C532.924 260.635 532.547 261.473 532.01 262.205C531.473 262.937 530.788 263.549 530 264" fill="#FFBE9D"/>
<path d="M530 264C530.808 263.413 531.504 262.681 532.054 261.841C532.646 260.891 532.981 259.8 533.027 258.676C533.068 257.26 532.656 255.869 531.851 254.712L531.522 254.247L532.063 254.376C533.516 254.822 535.045 254.954 536.552 254.763C538.378 254.454 539.933 252.716 539.587 251.108L539.731 251.263C536.992 250.48 534.591 249.982 532.908 249.612L530.938 249.19C530.697 249.159 530.462 249.095 530.237 249.001C530.477 248.995 530.718 249.012 530.955 249.053C531.42 249.113 532.105 249.216 532.95 249.362C534.641 249.663 537.068 250.102 539.841 250.859H539.959V250.988C540.036 251.468 540.004 251.961 539.867 252.427C539.729 252.893 539.489 253.322 539.164 253.68C538.511 254.456 537.616 254.982 536.628 255.168C535.061 255.373 533.47 255.232 531.961 254.755L532.181 254.428C533.034 255.662 533.454 257.153 533.373 258.659C533.303 259.839 532.921 260.977 532.266 261.953C531.845 262.584 531.315 263.132 530.702 263.57C530.495 263.756 530.258 263.901 530 264Z" fill="#EB996E"/>
<path d="M442.054 347C442.054 347 455.38 348.562 458.663 350.776C461.947 352.991 468 359 468 359H441L442.054 347Z" fill="#FFBE9D"/>
<path d="M203.99 262.017L203.896 296.334L188.739 293.216L176 290.546C176 290.546 193.453 325 212.446 325C231.439 325 233.89 296.317 233.89 296.317L235 262L203.99 262.017Z" fill="#FFBE9D"/>
<path d="M283 174.225C281.589 175.022 279.695 173.992 279.059 172.494C278.544 170.937 278.596 169.247 279.205 167.725C279.811 166.218 280.233 164.643 280.461 163.034C280.517 161.551 280.098 160.09 279.266 158.865C278.434 157.641 277.233 156.717 275.84 156.23C276.493 155.658 277.025 154.959 277.403 154.174C277.781 153.39 277.998 152.537 278.041 151.667C278.083 150.796 277.951 149.926 277.651 149.109C277.351 148.291 276.89 147.542 276.296 146.908C275.117 145.766 273.542 145.177 272.174 144.251C271.395 143.725 270.667 143.128 269.997 142.468C271.222 142.773 272.499 142.811 273.74 142.58C274.737 142.363 275.662 141.895 276.43 141.22C277.198 140.545 277.782 139.684 278.129 138.72C278.453 137.746 278.5 136.7 278.266 135.7C278.032 134.7 277.526 133.786 276.804 133.059C276.06 132.355 275.121 131.895 274.111 131.74C273.101 131.586 272.068 131.744 271.15 132.194C269.377 133.128 268.405 135.076 267.544 136.894L266.744 138.581C264.248 135.258 261.907 131.821 258.052 130.653C254.567 129.597 250.814 130.774 247.183 130.514C244.532 130.315 242.019 129.355 239.352 129.069C236.684 128.783 233.706 129.346 232.149 131.51C231.236 132.774 230.944 134.418 230.023 135.682C228.104 138.278 223.999 138.633 222.415 141.464C221.142 143.758 222.123 146.657 221.555 149.254C220.961 152.058 218.672 154.101 216.787 156.248C214.903 158.394 213.276 161.346 214.335 164.038C215.255 166.383 217.975 167.638 218.853 169.993C219.498 171.724 219.033 173.619 218.999 175.454C218.965 177.289 219.696 179.471 221.477 179.886L241.71 185.261C248.68 188.109 255.875 191.009 263.405 191C270.935 190.991 278.955 187.356 281.933 180.397C280.833 180.352 279.792 179.884 279.024 179.09C280.007 178.631 280.875 177.956 281.564 177.114C282.252 176.271 282.743 175.284 283 174.225Z" fill="#263238"/>
<path d="M266.413 180C268.255 174.973 269.644 169.8 270.564 164.539C271.343 159.261 271.177 153.761 269.259 148.764C268.97 148.007 266.501 142.924 265.669 143.001C265.074 143.06 266.597 147.803 266.299 148.296C263.445 153.064 262.666 158.793 263.121 164.293C263.617 169.63 264.721 174.898 266.413 180Z" fill="#263238"/>
<path d="M248.621 224.922C256.974 224.752 266.442 206.582 266.442 206.582L266.983 159.921C267.404 146.477 259.935 135 246.432 135L245.179 135.068C239.12 135.393 233.406 137.976 229.174 142.303C224.941 146.631 222.5 152.387 222.336 158.425C222.019 170.073 221.821 182.944 222.233 189.191C223.092 202.062 236.14 203.378 236.14 203.378C236.14 203.378 236.208 206.369 236.251 210.155C236.337 218.658 245.282 225.281 248.621 224.991V224.922Z" fill="#FFBE9D"/>
<path d="M236 202.776C242.128 202.447 248.029 200.442 253 197C253 197 249.311 206.447 236 205.984V202.776Z" fill="#EB996E"/>
<path d="M228 169.005C228.024 169.549 228.251 170.062 228.632 170.435C229.014 170.808 229.519 171.01 230.042 170.999C230.297 171.006 230.55 170.959 230.788 170.862C231.025 170.764 231.241 170.618 231.424 170.433C231.606 170.247 231.751 170.025 231.85 169.779C231.949 169.534 232 169.271 232 169.005C231.976 168.461 231.751 167.948 231.372 167.575C230.993 167.201 230.489 166.995 229.968 167.001C229.711 166.994 229.457 167.041 229.218 167.139C228.98 167.237 228.762 167.383 228.579 167.57C228.396 167.757 228.25 167.98 228.151 168.226C228.051 168.473 228 168.738 228 169.005Z" fill="#263238"/>
<path d="M225.03 162.97C225.267 163.183 226.546 162.183 228.447 162.064C230.348 161.946 231.791 162.852 231.979 162.584C232.077 162.474 231.832 162.088 231.201 161.694C230.349 161.19 229.356 160.95 228.357 161.009C227.368 161.057 226.42 161.408 225.653 162.009C225.095 162.466 224.923 162.876 225.03 162.97Z" fill="#263238"/>
<path d="M246 168C246.022 168.545 246.247 169.059 246.626 169.433C247.006 169.806 247.511 170.01 248.032 169.999C248.288 170.007 248.543 169.961 248.781 169.864C249.02 169.767 249.237 169.621 249.42 169.435C249.604 169.248 249.75 169.025 249.849 168.779C249.949 168.532 250 168.268 250 168C249.978 167.455 249.753 166.941 249.374 166.567C248.994 166.194 248.489 165.99 247.968 166.001C247.712 165.993 247.457 166.039 247.219 166.136C246.98 166.233 246.763 166.379 246.58 166.565C246.396 166.752 246.25 166.975 246.151 167.221C246.051 167.468 246 167.732 246 168Z" fill="#263238"/>
<path d="M245.034 162.97C245.263 163.183 246.551 162.182 248.445 162.064C250.339 161.946 251.79 162.852 251.979 162.584C252.077 162.474 251.831 162.088 251.2 161.693C250.346 161.192 249.354 160.953 248.355 161.008C247.366 161.06 246.419 161.41 245.649 162.009C245.091 162.466 244.919 162.844 245.034 162.97Z" fill="#263238"/>
<path d="M237.951 178.796C237.951 178.674 236.748 178.527 234.798 178.38C234.308 178.38 233.836 178.276 233.736 177.929C233.667 177.403 233.754 176.867 233.985 176.394L235.238 172.406C236.963 166.735 238.191 162.079 237.975 162.001C237.76 161.923 236.175 166.466 234.441 172.145C234.026 173.544 233.631 174.88 233.255 176.151C232.978 176.788 232.925 177.507 233.105 178.18C233.184 178.355 233.3 178.509 233.443 178.63C233.587 178.752 233.755 178.838 233.935 178.882C234.208 178.938 234.486 178.965 234.765 178.961C235.829 179.047 236.9 178.991 237.951 178.796Z" fill="#263238"/>
<path d="M243.617 180C243.323 180 243.426 182.172 241.785 183.809C240.143 185.447 238 185.326 238 185.636C238 185.766 238.494 186.024 239.402 185.998C240.586 185.956 241.716 185.458 242.589 184.594C243.423 183.771 243.929 182.631 244 181.414C244.008 180.509 243.753 179.983 243.617 180Z" fill="#263238"/>
<path d="M244.015 154.405C244.235 154.843 246.18 154.546 248.488 154.673C250.796 154.801 252.715 155.239 252.977 154.829C253.096 154.631 252.749 154.228 251.971 153.833C250.939 153.337 249.779 153.056 248.589 153.013C247.406 152.949 246.221 153.118 245.131 153.508C244.32 153.833 243.914 154.2 244.015 154.405Z" fill="#263238"/>
<path d="M225.062 155.866C225.441 156.219 226.825 155.774 228.518 155.681C230.211 155.589 231.658 155.802 231.966 155.391C232.098 155.2 231.843 154.839 231.19 154.514C230.329 154.113 229.333 153.94 228.342 154.018C227.35 154.079 226.405 154.383 225.635 154.889C225.062 155.299 224.894 155.689 225.062 155.866Z" fill="#263238"/>
<path d="M266 169.594C266.216 169.479 274.798 166.39 274.997 175.523C275.195 184.656 266.199 182.974 266.181 182.709C266.164 182.443 266 169.594 266 169.594Z" fill="#FFBE9D"/>
<path d="M269.006 179.232C269.049 179.232 269.17 179.338 269.429 179.462C269.804 179.615 270.222 179.615 270.596 179.462C271.53 179.081 272.326 177.532 272.326 175.92C272.334 175.137 272.168 174.362 271.841 173.653C271.752 173.369 271.596 173.112 271.389 172.902C271.181 172.692 270.927 172.537 270.648 172.449C270.475 172.417 270.296 172.445 270.139 172.528C269.983 172.611 269.858 172.746 269.784 172.91C269.671 173.166 269.732 173.352 269.68 173.37C269.628 173.388 269.49 173.22 269.55 172.839C269.595 172.61 269.714 172.404 269.888 172.254C270.135 172.063 270.444 171.974 270.752 172.006C271.121 172.073 271.467 172.234 271.757 172.476C272.048 172.718 272.273 173.032 272.412 173.388C272.805 174.171 273.006 175.04 273 175.92C273 177.762 272.135 179.506 270.813 179.923C270.574 179.999 270.323 180.019 270.076 179.982C269.829 179.945 269.593 179.852 269.386 179.71C269.032 179.453 268.98 179.25 269.006 179.232Z" fill="#EB996E"/>
<path d="M227.289 143.378C225.848 142.604 230.086 137.888 233.586 136.236C238.879 133.749 246.995 132.148 251.919 133.482C257.856 135.091 262.798 137.974 265.835 143.335C268.766 148.793 270.196 154.935 269.978 161.131C270.074 163.017 269.665 164.895 268.794 166.57C267.585 168.549 265.226 169.822 265.363 172.525C265.406 173.014 265.353 173.506 265.206 173.975C265.059 174.443 264.82 174.877 264.505 175.252C262.909 176.973 260.902 175.399 259.975 173.789C257.976 170.347 257.71 166.182 257.487 162.19C257.333 159.358 257.178 156.467 257.942 153.739C258.354 152.25 259.031 150.839 259.366 149.333C259.578 148.59 259.626 147.81 259.508 147.046C259.389 146.282 259.107 145.553 258.68 144.91C258.461 144.646 258.216 144.404 257.951 144.187C256.701 143.121 255.192 142.408 253.577 142.121C251.963 141.833 250.301 141.982 248.762 142.552C243.795 144.385 235.319 147.139 233.071 145.469C229.777 143.069 229.005 141.511 229.005 141.511L227.289 143.378Z" fill="#263238"/>
<path d="M251.409 132.06C248.975 131.213 246.399 130.868 243.833 131.045C241.267 131.223 238.761 131.92 236.46 133.095C234.059 134.411 231.906 136.49 231.203 139.175C230.499 141.859 231.657 145.158 234.196 146.193L234.367 146.299C238.158 147.553 240.611 147 244.359 145.623C247.516 144.456 250.312 142.421 253.468 141.237C256.855 140.013 260.523 139.855 264 140.78C260.624 136.793 256.282 133.786 251.409 132.06Z" fill="#263238"/>
<path d="M269 141.323C268.922 141.39 268.201 140.556 266.743 139.569C265.898 138.997 264.986 138.524 264.025 138.162C262.871 137.701 261.625 137.496 260.379 137.563C258.092 137.82 255.926 138.696 254.128 140.092C252.739 141.163 252.097 142.056 252.019 141.997C251.941 141.938 252.114 141.727 252.409 141.323C252.828 140.755 253.315 140.237 253.859 139.78C255.665 138.225 257.927 137.259 260.327 137.015C261.663 136.936 263 137.167 264.225 137.69C265.217 138.091 266.149 138.621 266.995 139.266C267.809 139.802 268.494 140.504 269 141.323Z" fill="#455A64"/>
<path d="M269 144.001C268.931 144.902 268.709 145.783 268.345 146.603C266.81 150.619 263.982 153.95 260.349 156.02C259.628 156.489 258.834 156.821 258.002 157C257.902 156.827 261.602 155.361 264.704 151.641C267.806 147.921 268.818 143.923 269 144.001Z" fill="#455A64"/>
<path d="M273.959 146C274.014 146.336 274.014 146.679 273.959 147.015C273.911 147.942 273.778 148.863 273.563 149.766C272.869 152.783 271.426 155.582 269.363 157.914C267.3 160.245 264.682 162.034 261.743 163.122C260.865 163.459 259.957 163.714 259.03 163.886C258.697 163.984 258.347 164.019 258 163.99C258 163.886 259.427 163.643 261.585 162.732C264.403 161.564 266.912 159.776 268.92 157.505C270.927 155.233 272.38 152.538 273.166 149.628C273.783 147.441 273.836 145.991 273.959 146Z" fill="#455A64"/>
<path d="M242 131C242 131.09 241.065 131.295 239.606 131.819C237.711 132.526 235.944 133.5 234.364 134.71C232.801 135.928 231.443 137.361 230.337 138.96C229.463 140.196 229.087 141.04 229 140.999C229.174 140.201 229.503 139.441 229.97 138.755C231.003 137.042 232.366 135.523 233.989 134.276C235.604 133.02 237.456 132.06 239.449 131.442C240.262 131.145 241.127 130.995 242 131Z" fill="#455A64"/>
<path d="M275.971 133.001C276.123 133.001 275.722 135.571 273.639 137.926C271.555 140.282 269.027 141.13 269 140.984C268.974 140.839 271.226 139.802 273.167 137.558C275.108 135.314 275.775 132.941 275.971 133.001Z" fill="#455A64"/>
<path d="M267.361 203L293.408 218.225L293.572 308.864L300 358L212.123 357.734C212.123 357.734 211.846 291.93 212.123 274.437C212.347 262.166 212.019 238.371 216.192 223.773C218.006 217.547 235.448 209.492 235.448 209.492C244.952 217.856 255.655 215.357 267.361 203Z" fill="#5E88FF"/>
<path opacity="0.3" d="M239 319.916C239 319.916 291.262 344.808 297 339.169C295.196 327.152 290.609 285 290.609 285L239 319.916Z" fill="black"/>
<path d="M206 297.074H271.376L271.695 262.867L301.862 259C301.862 259 302 293.739 302 305.141C302 318.815 290.094 328.289 280.105 326.857C270.115 325.425 206 313.534 206 313.534V297.074Z" fill="#FFBE9D"/>
<path d="M303.886 265.39L269 269V228.221C269 228.221 272.427 214.445 284.472 215.017C296.518 215.589 303.629 228.588 303.886 240.494C304.143 252.4 303.886 265.39 303.886 265.39Z" fill="#5E88FF"/>
<path d="M220 219C220 219 208.683 226.426 205.648 234.603C202.466 243.187 198 271 198 271H213.878L220 219Z" fill="#5E88FF"/>
<path d="M268.85 230C268.896 230.497 268.896 230.996 268.85 231.493C268.85 232.531 268.766 233.904 268.71 235.568C268.589 239 268.477 243.753 268.496 249.004C268.514 254.255 268.663 259 268.803 262.44C268.868 264.096 268.924 265.469 268.971 266.507C269.01 267.004 269.01 267.503 268.971 268C268.859 267.511 268.79 267.015 268.766 266.516C268.673 265.563 268.561 264.173 268.449 262.449C268.225 259.017 268.02 254.264 268.001 249.004C267.983 243.745 268.151 238.992 268.356 235.551C268.458 233.835 268.561 232.445 268.645 231.484C268.677 230.986 268.746 230.49 268.85 230Z" fill="#263238"/>
<path d="M286 215.503C286 215.585 284.841 215.282 282.971 215.315C280.538 215.342 278.159 216.007 276.085 217.238C274.012 218.469 272.321 220.22 271.194 222.306C270.348 223.903 270.077 225.024 270.001 225C269.993 224.721 270.039 224.443 270.136 224.181C270.327 223.476 270.588 222.791 270.915 222.134C272.004 219.951 273.721 218.117 275.859 216.853C277.997 215.588 280.466 214.946 282.971 215.004C283.725 215.018 284.476 215.103 285.213 215.257C285.487 215.3 285.752 215.383 286 215.503Z" fill="#263238"/>
<path d="M212.878 238C212.932 238.153 212.952 238.311 212.939 238.468L213 239.812C213 240.974 213 242.656 213 244.736C213 248.897 212.903 254.654 212.732 261C212.562 267.346 212.392 273.042 212.282 277.264C212.282 279.293 212.173 280.957 212.136 282.188C212.136 282.726 212.136 283.168 212.075 283.532C212.081 283.69 212.056 283.847 212.002 284C211.993 283.831 212.013 283.662 212.063 283.497V282.153C212.063 280.992 212.063 279.301 212.063 277.221C212.063 273.059 212.16 267.311 212.331 260.957C212.501 254.602 212.659 248.923 212.781 244.701C212.842 242.673 212.89 241 212.927 239.769C212.927 239.231 212.927 238.789 212.988 238.433C212.929 238.292 212.893 238.147 212.878 238Z" fill="#263238"/>
<path d="M182.043 291.135L187.284 287.869C188.169 287.311 189.187 287.011 190.229 287H200.376L210.866 296.687L214 298.276L212.835 315L205.985 314.131C205.985 314.131 191.428 314.765 190.024 313.81C188.619 312.854 186.599 309.848 186.599 309.848C186.599 309.848 178.601 307.242 177.83 306.512C176.855 305.657 176.226 304.465 176.066 303.168L174.705 302.542C174.448 303.029 172.461 299.745 172.667 298.094C172.786 297.138 172.512 297.138 172.512 297.138C171.85 296.891 171.266 296.465 170.824 295.906C170.382 295.348 170.098 294.677 170.003 293.967C169.866 292.986 173.805 293.203 173.805 293.203L183.661 293.333L182.043 291.135Z" fill="#FFBE9D"/>
<path d="M189 292.725L178.6 279H157V280.775L167.882 293L189 292.725Z" fill="#455A64"/>
<path d="M186 298.564C185.331 298.807 184.64 298.926 183.945 298.919C182.275 299.051 180.599 299.022 178.932 298.83C177.264 298.643 175.609 298.302 173.978 297.81C173.296 297.647 172.631 297.375 172 297C172.69 297.057 173.375 297.194 174.046 297.41C175.3 297.699 177.039 298.043 178.966 298.253C180.893 298.464 182.658 298.52 183.937 298.52C184.624 298.461 185.314 298.475 186 298.564Z" fill="#EB996E"/>
<path d="M188 303.562C187.327 303.797 186.634 303.917 185.938 303.919C182.597 304.182 179.244 303.806 175.985 302.803C175.301 302.643 174.634 302.373 174 302C174.69 302.049 175.375 302.183 176.045 302.402C177.298 302.692 179.036 303.038 180.97 303.261C182.904 303.484 184.66 303.528 185.929 303.517C186.619 303.454 187.312 303.469 188 303.562Z" fill="#EB996E"/>
<path d="M170.023 293C170.098 293.382 170.198 293.758 170.322 294.128C170.738 295.157 171.544 295.986 172.57 296.442H172.638V296.509C172.615 297.608 172.861 298.697 173.356 299.682C173.959 300.894 174.967 301.866 176.211 302.434L176.382 302.518L176.305 302.67C176.212 302.863 176.164 303.074 176.164 303.288C176.164 303.502 176.212 303.713 176.305 303.907C176.521 304.328 176.827 304.699 177.203 304.992C178.044 305.625 178.967 306.146 179.946 306.541C182.113 307.427 184.355 308.12 186.648 308.611H186.742V308.687C187.329 309.526 188.021 310.289 188.802 310.959C189.552 311.688 190.474 312.222 191.485 312.516C192.267 312.708 193.073 312.79 193.879 312.76L196.289 312.819L200.922 312.945L209.29 313.172L219.256 315.167L222.034 315.756L222.752 315.924L223 316H222.744L222.008 315.891L219.222 315.402L209.221 313.551L200.853 313.374L196.212 313.273L193.802 313.214C192.962 313.243 192.121 313.155 191.306 312.954C190.224 312.636 189.24 312.057 188.443 311.27C187.636 310.572 186.921 309.778 186.314 308.906L186.451 308.998C184.133 308.498 181.867 307.788 179.681 306.877C178.673 306.461 177.724 305.915 176.861 305.253C176.441 304.922 176.102 304.502 175.869 304.025C175.753 303.787 175.693 303.527 175.693 303.263C175.693 302.999 175.753 302.739 175.869 302.501L175.963 302.728C174.654 302.116 173.597 301.079 172.972 299.791C172.477 298.759 172.242 297.625 172.288 296.484L172.365 296.594C171.837 296.35 171.364 296.004 170.973 295.578C170.583 295.152 170.283 294.653 170.091 294.111C170 293.748 169.977 293.371 170.023 293Z" fill="#EB996E"/>
<path d="M192 309.02C191.125 309.527 190.117 309.826 189.075 309.888C188.053 310.077 186.993 310.026 186 309.739C186 309.622 187.37 309.684 189.013 309.481C190.656 309.278 191.912 308.91 192 309.02Z" fill="#EB996E"/>
<path d="M196 293.232C194.519 293.68 193.015 293.89 191.509 293.858C190.008 294.076 188.497 294.043 187 293.761C188.482 293.319 189.986 293.11 191.491 293.135C192.993 292.927 194.503 292.959 196 293.232Z" fill="#EB996E"/>
<path d="M214 296.726C213.812 296.878 213.579 296.968 213.335 296.984C212.676 297.051 212.012 296.906 211.446 296.571C210.653 296.069 209.91 295.493 209.23 294.853L206.641 292.662L201.915 288.718C201.225 288.202 200.584 287.627 200 287C200.751 287.417 201.46 287.9 202.119 288.443C203.387 289.389 205.107 290.737 206.951 292.293C207.838 293.074 208.725 293.822 209.522 294.518C210.167 295.148 210.867 295.723 211.615 296.236C212.119 296.57 212.716 296.747 213.326 296.743C213.752 296.795 213.982 296.692 214 296.726Z" fill="#EB996E"/>
<g opacity="0.3">
<path opacity="0.3" d="M423.176 340.998C420.638 333.164 417.605 325.495 414.096 318.036C412.949 315.604 411.75 312.726 413.028 310.354C413.54 309.408 414.409 308.635 414.809 307.664C415.417 306.16 414.809 304.467 414.227 302.963C408.727 289.308 400.889 276.091 389.029 267.283C387.891 266.348 386.581 265.638 385.171 265.195C384.462 264.981 383.711 264.942 382.983 265.083C382.256 265.224 381.575 265.54 381 266.002L416.972 358.692C417.45 359.217 426.748 358.916 427.938 358.899C428.624 358.881 423.394 341.651 423.176 340.998Z" fill="black"/>
</g>
<path d="M316 261.865L322.629 259.857L351.492 259L358 260.775L357.142 276.625L342.42 286L328.149 285.714L319.163 277.542L317.178 269.44L316 261.865Z" fill="#FFBE9D"/>
<path d="M399.511 286.817C397.784 283.203 395.834 279.702 393.671 276.333C390.183 270.959 384.847 267.061 378.679 265.381L355.251 259C355.251 259 354.035 282.497 337.922 282.497C321.809 282.497 318.669 260.48 318.669 260.48L291.549 271.328C290.618 271.692 284.329 273.874 277.015 289.622C270.045 304.626 267 312.296 267 312.296L294.931 320.391L296.656 345.602L296.069 360L380.836 359.818L380.37 343.369L380.724 318.14L381.785 319.872L410 308.513C410 308.513 406.377 300.998 399.511 286.817Z" fill="#5E88FF"/>
<path d="M381.088 320C381.262 319.902 381.441 319.816 381.625 319.741L383.202 319.069L389.126 316.612L409.582 308.293L409.48 308.595C407.818 305.405 406.028 301.966 404.187 298.414L396.516 283.759C394.061 279.328 392.169 275.069 389.416 272.397C387.293 270.241 384.804 268.489 382.068 267.224C381.105 266.776 380.364 266.483 379.81 266.293L379.205 266.086L379 266H379.213L379.835 266.172C380.62 266.418 381.391 266.706 382.145 267.034C384.931 268.245 387.471 269.967 389.637 272.112C391.116 273.614 392.381 275.317 393.396 277.172C394.513 279.147 395.663 281.267 396.874 283.5C399.286 287.983 401.894 292.922 404.613 298.155L409.889 308.336L410 308.552L409.778 308.638L389.271 316.819L383.304 319.155L381.702 319.759C381.505 319.857 381.3 319.938 381.088 320Z" fill="#263238"/>
<path d="M380.935 302C381.069 302 380.992 311.18 380.744 322.504C380.495 333.829 380.199 343 380.065 343C379.932 343 380.008 333.82 380.247 322.496C380.486 311.171 380.839 302 380.935 302Z" fill="#263238"/>
<path d="M290 272C289.888 272.101 289.767 272.191 289.637 272.267L289.178 272.568L288.599 273.024C287.399 274.055 286.311 275.209 285.354 276.466C282.255 280.675 279.545 285.153 277.257 289.847C274.471 295.294 272.204 300.362 270.604 304.037C269.825 305.835 269.185 307.315 268.718 308.408L268.199 309.596C268.143 309.735 268.076 309.87 268 310C268.017 309.848 268.058 309.7 268.121 309.561C268.234 309.234 268.381 308.83 268.554 308.339C268.952 307.289 269.54 305.758 270.284 303.916C271.815 300.207 274.03 295.113 276.824 289.64C279.123 284.922 281.888 280.442 285.077 276.268C286.067 275.012 287.202 273.877 288.46 272.886L289.074 272.456L289.559 272.189C289.695 272.104 289.844 272.04 290 272Z" fill="#263238"/>
<path d="M290 297C290.13 297.29 290.225 297.597 290.282 297.913C290.439 298.504 290.642 299.375 290.885 300.448C291.363 302.594 291.966 305.577 292.522 308.899C293.079 312.22 293.478 315.237 293.721 317.434C293.839 318.532 293.925 319.42 293.972 320.037C294.009 320.356 294.009 320.68 293.972 321C293.878 320.693 293.815 320.375 293.784 320.054C293.682 319.352 293.549 318.49 293.4 317.476C293.087 315.296 292.616 312.287 292.084 308.975C291.551 305.662 290.979 302.67 290.572 300.524C290.384 299.51 290.227 298.656 290.094 297.989C290.031 297.664 289.999 297.332 290 297Z" fill="#263238"/>
<path d="M368 229.321C366.671 230.067 364.888 229.106 364.288 227.709C363.802 226.251 363.851 224.668 364.425 223.243C364.995 221.83 365.392 220.353 365.608 218.845C365.662 217.458 365.268 216.09 364.486 214.944C363.703 213.797 362.573 212.932 361.262 212.476C361.877 211.939 362.376 211.284 362.732 210.55C363.087 209.815 363.29 209.017 363.33 208.202C363.369 207.387 363.243 206.573 362.96 205.807C362.677 205.042 362.242 204.342 361.682 203.749C360.576 202.677 359.11 202.095 357.799 201.254C357.066 200.768 356.383 200.211 355.759 199.591C356.912 199.877 358.113 199.914 359.282 199.703C360.22 199.495 361.091 199.054 361.813 198.42C362.535 197.786 363.086 196.98 363.414 196.077C363.722 195.165 363.768 194.185 363.546 193.249C363.325 192.312 362.845 191.456 362.162 190.779C361.459 190.123 360.574 189.697 359.623 189.556C358.672 189.415 357.701 189.567 356.839 189.99C355.176 190.847 354.267 192.691 353.41 194.396L352.655 195.974C350.307 192.862 348.095 189.647 344.469 188.55C341.185 187.564 337.654 188.67 334.225 188.421C331.73 188.241 329.338 187.341 326.852 187.067C324.366 186.793 321.538 187.324 320.072 189.347C319.214 190.539 318.94 192.082 318.066 193.256C316.265 195.699 312.391 196.025 310.908 198.674C309.708 200.826 310.633 203.543 310.11 205.952C309.553 208.524 307.393 210.478 305.627 212.493C303.861 214.508 302.318 217.268 303.313 219.762C304.17 221.948 306.742 223.131 307.599 225.335C308.207 226.946 307.77 228.764 307.736 230.478C307.702 232.193 308.396 234.241 310.068 234.627L329.167 239.634C335.733 242.3 342.506 245.017 349.595 245C356.684 244.983 364.245 241.571 367.04 235.082C366.006 235.035 365.028 234.596 364.305 233.856C365.217 233.419 366.022 232.786 366.66 232.002C367.299 231.218 367.757 230.302 368 229.321Z" fill="#263238"/>
<path d="M351.982 235C353.583 230.243 354.793 225.35 355.599 220.375C356.394 215.377 356.003 210.251 354.461 205.451C354.202 204.737 352.039 199.924 351.328 200.001C350.812 200.06 352.136 204.542 351.877 205.018C349.383 209.524 348.705 214.941 349.109 220.136C349.536 225.189 350.5 230.174 351.982 235Z" fill="#263238"/>
<path d="M335.443 278C343.415 277.836 352.462 260.468 352.462 260.468L352.983 215.857C353.399 203.008 346.243 192.06 333.344 192L332.147 192.06C326.358 192.369 320.897 194.838 316.853 198.975C312.809 203.112 310.477 208.615 310.322 214.388C310.018 225.526 309.827 237.83 310.226 243.766C311.042 256.07 323.507 257.332 323.507 257.332C323.507 257.332 323.576 260.183 323.62 263.803C323.706 271.934 332.242 278.268 335.443 277.991V278Z" fill="#FFBE9D"/>
<path d="M324 257.778C329.766 257.454 335.32 255.449 340 252C340 252 336.507 261.446 324.052 260.984L324 257.778Z" fill="#EB996E"/>
<path d="M316 224.523C316.02 224.93 316.246 225.313 316.627 225.59C317.009 225.866 317.515 226.014 318.034 225.999C318.547 225.999 319.04 225.842 319.407 225.562C319.774 225.282 319.987 224.901 320 224.5C319.994 224.297 319.936 224.096 319.83 223.911C319.724 223.725 319.572 223.558 319.383 223.418C319.194 223.279 318.971 223.17 318.728 223.099C318.484 223.027 318.225 222.994 317.966 223.001C317.448 223.001 316.951 223.161 316.583 223.446C316.215 223.731 316.005 224.118 316 224.523Z" fill="#263238"/>
<path d="M313.033 219.972C313.266 220.181 314.548 219.137 316.446 219.07C318.343 219.003 319.789 219.814 319.98 219.58C320.075 219.479 319.833 219.087 319.2 218.694C318.349 218.189 317.357 217.949 316.359 218.009C315.371 218.054 314.424 218.402 313.656 219.003C313.093 219.429 312.92 219.881 313.033 219.972Z" fill="#263238"/>
<path d="M333 223.5C333.025 223.908 333.252 224.291 333.631 224.571C334.01 224.851 334.513 225.004 335.034 225C335.547 225 336.04 224.843 336.407 224.563C336.774 224.283 336.987 223.902 337 223.5C336.994 223.297 336.936 223.097 336.83 222.911C336.724 222.725 336.572 222.558 336.383 222.419C336.194 222.279 335.971 222.17 335.728 222.099C335.484 222.027 335.225 221.994 334.966 222.001C334.453 222.001 333.96 222.158 333.593 222.438C333.226 222.718 333.013 223.099 333 223.5Z" fill="#263238"/>
<path d="M332.032 218.973C332.266 219.181 333.548 218.14 335.445 218.065C337.343 217.99 338.789 218.814 338.98 218.581C339.075 218.473 338.833 218.09 338.2 217.698C337.348 217.195 336.357 216.954 335.359 217.007C334.37 217.056 333.423 217.406 332.656 218.007C332.101 218.465 331.919 218.873 332.032 218.973Z" fill="#263238"/>
<path d="M325.957 233.808C324.935 233.545 323.883 233.415 322.828 233.419C322.339 233.419 321.869 233.316 321.773 232.996C321.698 232.499 321.784 231.992 322.017 231.546C322.409 230.355 322.828 229.103 323.263 227.791C325.007 222.455 326.192 218.07 325.974 218.001C325.756 217.932 324.187 222.214 322.488 227.557L321.259 231.321C320.98 231.922 320.925 232.601 321.102 233.238C321.185 233.407 321.307 233.555 321.458 233.669C321.61 233.783 321.786 233.86 321.973 233.894C322.245 233.953 322.524 233.976 322.801 233.963C323.856 234.044 324.916 233.992 325.957 233.808Z" fill="#263238"/>
<path d="M331.642 235.001C331.337 235.001 331.439 237.161 329.798 238.802C328.157 240.443 326 240.325 326 240.625C326 240.762 326.499 241.017 327.404 240.999C328.582 240.949 329.705 240.452 330.576 239.595C331.415 238.774 331.925 237.633 331.997 236.414C332.031 235.502 331.777 234.974 331.642 235.001Z" fill="#263238"/>
<path d="M332.017 211.404C332.241 211.836 334.185 211.546 336.496 211.673C338.807 211.799 340.715 212.239 340.975 211.829C341.1 211.628 340.751 211.225 339.972 210.83C338.936 210.346 337.781 210.066 336.594 210.01C335.408 209.955 334.223 210.126 333.128 210.51C332.313 210.83 331.91 211.195 332.017 211.404Z" fill="#263238"/>
<path d="M314.057 212.863C314.385 213.222 315.568 212.773 317.014 212.684C318.461 212.594 319.708 212.796 319.971 212.392C320.083 212.198 319.868 211.839 319.308 211.51C318.559 211.119 317.702 210.947 316.848 211.014C315.993 211.082 315.18 211.388 314.513 211.891C314.057 212.295 313.905 212.691 314.057 212.863Z" fill="#263238"/>
<path d="M352 225.552C352.195 225.447 359.827 222.571 359.997 231.06C360.168 239.549 352.179 237.968 352.162 237.733C352.146 237.499 352 225.552 352 225.552Z" fill="#FFBE9D"/>
<path d="M355.01 233.358C355.01 233.358 355.169 233.456 355.44 233.555C355.82 233.692 356.247 233.692 356.627 233.555C357.561 233.227 358.365 231.916 358.374 230.432C358.377 229.745 358.208 229.065 357.879 228.441C357.785 228.193 357.625 227.969 357.412 227.786C357.199 227.604 356.939 227.468 356.655 227.392C356.47 227.352 356.275 227.371 356.105 227.444C355.934 227.517 355.798 227.641 355.72 227.793C355.599 228.023 355.664 228.178 355.618 228.195C355.571 228.211 355.412 228.064 355.478 227.736C355.525 227.536 355.651 227.356 355.833 227.228C355.954 227.142 356.093 227.079 356.242 227.041C356.391 227.003 356.547 226.991 356.702 227.006C357.078 227.063 357.431 227.204 357.727 227.415C358.023 227.626 358.252 227.9 358.393 228.211C358.793 228.899 359.002 229.66 359 230.432C359 232.071 358.066 233.571 356.767 233.932C356.523 233.999 356.266 234.017 356.013 233.984C355.761 233.951 355.52 233.869 355.309 233.743C355.029 233.555 354.973 233.375 355.01 233.358Z" fill="#EB996E"/>
<path d="M316.276 200.868C314.901 200.131 318.941 195.667 322.28 194.072C327.332 191.705 335.066 190.18 339.764 191.471C345.413 192.997 350.145 195.745 353.026 200.851C355.82 206.048 357.185 211.897 356.98 217.798C357.071 219.6 356.683 221.395 355.855 222.999C354.696 224.888 352.447 226.093 352.576 228.676C352.612 229.146 352.553 229.617 352.405 230.064C352.256 230.51 352.021 230.923 351.711 231.277C350.189 232.941 348.251 231.416 347.386 229.881C345.491 226.587 345.232 222.635 345.015 218.838C344.868 216.142 344.721 213.385 345.448 210.785C345.846 209.372 346.495 208.028 346.806 206.589C347.009 205.882 347.056 205.139 346.944 204.411C346.832 203.684 346.564 202.99 346.157 202.376C345.948 202.127 345.717 201.898 345.465 201.692C344.274 200.676 342.834 199.996 341.294 199.722C339.754 199.447 338.169 199.589 336.702 200.131C331.969 201.865 323.881 204.465 321.735 202.914C318.655 200.625 317.903 199.117 317.903 199.117L316.276 200.868Z" fill="#263238"/>
<path d="M338.208 189.995C335.918 189.2 333.497 188.876 331.083 189.042C328.67 189.208 326.312 189.86 324.147 190.961C321.886 192.198 319.881 194.148 319.199 196.673C318.516 199.198 319.625 202.28 322.014 203.238L322.176 203.342C325.743 204.518 328.047 204.004 331.562 202.698C334.523 201.61 337.151 199.694 340.094 198.623C343.28 197.474 346.73 197.326 350 198.197C346.842 194.455 342.776 191.626 338.208 189.995Z" fill="#263238"/>
<path d="M355 198.382C354.931 198.444 354.251 197.615 352.89 196.599C352.088 196.023 351.22 195.55 350.307 195.191C349.218 194.726 348.04 194.521 346.863 194.594C344.72 194.842 342.688 195.71 341 197.098C339.699 198.168 339.097 199.059 339.019 198.997C338.942 198.935 339.105 198.73 339.381 198.328C339.778 197.761 340.234 197.241 340.741 196.777C342.44 195.228 344.561 194.263 346.812 194.014C348.066 193.938 349.32 194.17 350.471 194.692C351.399 195.091 352.268 195.622 353.054 196.269C353.852 196.808 354.518 197.531 355 198.382Z" fill="#455A64"/>
<path d="M356 201.001C355.926 201.823 355.703 202.625 355.342 203.372C353.803 207.088 350.979 210.171 347.352 212.091C346.631 212.527 345.835 212.835 345.002 213C344.905 212.839 348.598 211.479 351.711 208.037C354.825 204.596 355.825 200.925 356 201.001Z" fill="#455A64"/>
<path d="M358.96 203C359.013 203.318 359.013 203.644 358.96 203.962C358.911 204.838 358.785 205.708 358.584 206.562C357.931 209.408 356.578 212.049 354.646 214.25C352.714 216.45 350.262 218.141 347.511 219.172C346.685 219.489 345.831 219.73 344.961 219.891C344.648 219.978 344.324 220.013 344 219.995C344 219.891 345.336 219.657 347.353 218.799C349.989 217.701 352.335 216.018 354.214 213.881C356.092 211.743 357.453 209.207 358.191 206.467C358.811 204.361 358.855 202.991 358.96 203Z" fill="#455A64"/>
<path d="M329 189C328.279 189.329 327.54 189.617 326.786 189.861C323.271 191.273 320.283 193.757 318.239 196.966C317.453 198.198 317.085 199.033 317 198.999C317.146 198.209 317.435 197.452 317.855 196.768C319.784 193.333 322.908 190.741 326.624 189.491C327.378 189.178 328.184 189.012 329 189Z" fill="#455A64"/>
<path d="M360.975 190.001C361.105 190.001 360.765 192.565 358.981 194.921C357.197 197.278 355.024 198.129 355 197.984C354.976 197.839 356.914 196.806 358.577 194.541C360.241 192.275 360.822 189.947 360.975 190.001Z" fill="#455A64"/>
<path d="M269.197 313L257.757 335.89C256.48 338.443 255.881 341.281 256.019 344.131C256.227 348.409 258.078 352.444 261.19 355.398C264.302 358.353 268.435 360.001 272.732 360L305.541 358.139L307 343.196L282.035 337.197L291.503 319.372L269.197 313Z" fill="#FFBE9D"/>
<path d="M282 336.493C282 336.599 280.888 336.405 279.1 336.414C276.77 336.462 274.461 336.881 272.256 337.657C270.053 338.411 267.988 339.54 266.147 340.997C264.753 342.125 264.094 343.059 264.017 342.997C263.94 342.935 264.129 342.733 264.419 342.301C264.86 341.712 265.355 341.168 265.899 340.679C267.714 339.087 269.812 337.875 272.076 337.11C274.325 336.31 276.696 335.937 279.074 336.009C279.79 336.039 280.502 336.128 281.204 336.273C281.743 336.379 282.008 336.449 282 336.493Z" fill="#EB996E"/>
<path d="M260 332C260.033 331.718 260.105 331.442 260.215 331.18C260.376 330.66 260.654 329.92 261.021 329.021C262.016 326.68 263.152 324.399 264.423 322.191C265.9 319.6 267.305 317.309 268.308 315.644C268.817 314.73 269.383 313.847 270 313C269.927 313.275 269.816 313.539 269.669 313.784C269.436 314.278 269.069 314.974 268.594 315.829C267.699 317.538 266.303 319.865 264.834 322.447C263.366 325.029 262.149 327.408 261.325 329.171C260.501 330.933 260.09 332.026 260 332Z" fill="#EB996E"/>
<path d="M292 319C291.898 319.609 291.717 320.201 291.463 320.761C290.38 323.547 288.948 326.179 287.2 328.591C286.867 329.114 286.465 329.588 286.005 330C285.901 329.912 287.538 327.64 289.184 324.592C290.83 321.545 291.87 319 292 319Z" fill="#EB996E"/>
<path d="M407.608 309C407.608 309 414.598 330.036 422.204 349.157C422.357 349.547 422.528 350.249 422.665 350.648C424.374 355.38 419.247 360 414 360L370 359.931V345.421L397.345 339.527L387.433 317.2L407.608 309Z" fill="#FFBE9D"/>
<path d="M415.998 342.994C415.936 343.071 415.053 342.396 413.482 341.516C409.37 339.244 404.653 338.209 399.931 338.543C398.165 338.68 397.018 338.919 397 338.825C397.232 338.694 397.486 338.605 397.75 338.56C398.454 338.371 399.171 338.234 399.896 338.15C402.294 337.867 404.725 337.985 407.081 338.5C409.436 339.014 411.68 339.922 413.711 341.183C414.332 341.557 414.922 341.977 415.477 342.439C415.821 342.772 416.024 342.968 415.998 342.994Z" fill="#EB996E"/>
<path d="M408 309C408.103 309.161 408.185 309.334 408.245 309.514L408.857 311.023L411.027 316.596L418.025 335.037C419.355 338.647 420.737 342.05 421.857 345.197C422.417 346.766 422.942 348.266 423.396 349.681C423.51 350.032 423.624 350.384 423.729 350.727C423.834 351.07 423.886 351.438 423.965 351.781C424.044 352.124 423.965 352.493 423.965 352.827C423.917 353.158 423.844 353.484 423.746 353.805C423.344 354.899 422.657 355.872 421.752 356.625C421.094 357.198 420.372 357.696 419.6 358.108C419.118 358.379 418.619 358.617 418.104 358.82C417.926 358.897 417.742 358.957 417.553 359C417.715 358.899 417.884 358.81 418.06 358.734C418.401 358.571 418.935 358.323 419.504 357.963C420.25 357.531 420.945 357.019 421.577 356.437C422.426 355.699 423.068 354.761 423.44 353.71C423.525 353.409 423.586 353.103 423.624 352.793C423.624 352.484 423.624 352.15 423.624 351.824C423.624 351.498 423.484 351.173 423.388 350.83L423.046 349.792C422.574 348.395 422.04 346.903 421.463 345.334C420.335 342.205 418.935 338.81 417.605 335.192L410.729 316.707C409.855 314.367 409.198 312.464 408.7 311.083L408.175 309.592C408.1 309.399 408.041 309.202 408 309Z" fill="#EB996E"/>
<path d="M388.136 317C388.136 317 388.229 317.128 388.347 317.375L388.881 318.473L390.763 322.561C392.331 326.027 394.466 330.813 396.805 336.119C397.178 336.971 397.542 337.822 397.898 338.614L398 338.853L397.746 338.912L385.136 341.893L381.373 342.745C380.922 342.861 380.463 342.947 380 343C380.434 342.825 380.882 342.689 381.339 342.591L385.068 341.629L397.644 338.486L397.5 338.793L396.398 336.298C394.059 331.001 391.966 326.18 390.466 322.672L388.712 318.533L388.263 317.392C388.207 317.266 388.164 317.135 388.136 317Z" fill="#EB996E"/>
<path d="M300.401 341.686H306.788C306.788 341.686 321.147 336.569 324.1 337.029C326.76 337.473 336.496 343.853 338.408 345.149C338.619 345.294 338.781 345.499 338.872 345.738C339.058 346.239 339.041 346.793 338.824 347.282C338.607 347.772 338.208 348.16 337.71 348.365L337.504 348.45L337.59 348.731C337.708 349.103 337.758 349.493 337.736 349.883C337.707 350.171 337.588 350.443 337.396 350.661C337.204 350.879 336.947 351.032 336.663 351.099C336.378 351.165 336.08 351.142 335.81 351.033C335.539 350.923 335.31 350.733 335.154 350.488L335.524 351.128C335.67 351.388 335.742 351.683 335.73 351.981V352.569C335.712 352.888 335.596 353.193 335.4 353.446C335.203 353.698 334.934 353.886 334.628 353.985C334.337 354.08 334.025 354.089 333.729 354.011C333.432 353.934 333.165 353.774 332.958 353.55C331.719 352.203 329.05 349.507 327.251 349.209C325.294 348.976 323.324 348.879 321.354 348.919C320.953 348.921 320.562 349.043 320.232 349.268C319.902 349.493 319.648 349.811 319.503 350.181C320.571 350.258 328.034 354.113 330.694 355.495C331.102 355.695 331.455 355.991 331.722 356.356C331.989 356.722 332.162 357.146 332.227 357.593C332.321 358.446 331.908 359.299 330.272 358.898C326.76 358.088 320.45 355.205 320.45 355.205C320.45 355.205 317.196 354.284 315.087 355.759C312.117 357.832 310.783 358.599 308.2 357.755C306.649 357.244 305.162 356.56 303.767 355.717L298.748 355.222C298.748 355.222 293.875 343.486 300.401 341.686Z" fill="#FFBE9D"/>
<path d="M319 344.581C319 344.638 320.022 344.329 321.711 344.232C323.913 344.092 326.118 344.443 328.147 345.256C330.177 346.069 331.973 347.32 333.389 348.909C334.48 350.129 334.948 351.024 335 351C334.913 350.78 334.806 350.567 334.679 350.365C334.345 349.815 333.966 349.29 333.545 348.795C332.141 347.146 330.324 345.849 328.256 345.022C326.188 344.194 323.933 343.861 321.694 344.053C321.021 344.103 320.355 344.209 319.702 344.37C319.46 344.414 319.224 344.485 319 344.581Z" fill="#EB996E"/>
<path d="M321 340.746C322.598 340.232 324.288 340.093 325.945 340.341C327.602 340.588 329.184 341.214 330.572 342.173C332.563 343.481 334.378 345.051 335.971 346.842L337.435 348.422C337.612 348.626 337.8 348.819 338 349C337.861 348.766 337.698 348.549 337.515 348.35C337.197 347.952 336.712 347.374 336.103 346.679C334.537 344.829 332.719 343.22 330.704 341.902C328.658 340.593 326.279 339.934 323.867 340.005C323.138 340.039 322.417 340.172 321.723 340.403C321.538 340.465 321.355 340.537 321.176 340.619C321.111 340.651 321.051 340.694 321 340.746Z" fill="#EB996E"/>
<path d="M379.571 342.676H373.21C373.21 342.676 358.844 337.562 355.892 338.03C353.232 338.465 343.497 344.85 341.595 346.145C341.379 346.282 341.216 346.486 341.13 346.725C340.942 347.226 340.958 347.78 341.175 348.27C341.392 348.76 341.792 349.147 342.292 349.35L342.49 349.435L342.404 349.717C342.294 350.09 342.244 350.479 342.258 350.867C342.286 351.155 342.405 351.427 342.598 351.645C342.79 351.863 343.046 352.016 343.331 352.082C343.615 352.149 343.913 352.126 344.184 352.017C344.454 351.908 344.684 351.717 344.84 351.473L344.478 352.12C344.326 352.378 344.254 352.675 344.272 352.973V353.561C344.295 353.893 344.424 354.208 344.638 354.464C344.853 354.719 345.143 354.901 345.468 354.985C345.759 355.079 346.072 355.088 346.368 355.011C346.664 354.934 346.931 354.774 347.138 354.55C348.369 353.203 351.037 350.509 352.845 350.211C354.798 349.978 356.765 349.882 358.732 349.921C359.135 349.922 359.527 350.042 359.859 350.268C360.191 350.493 360.446 350.812 360.592 351.183C359.516 351.26 352.062 355.112 349.402 356.493C348.992 356.695 348.638 356.992 348.37 357.358C348.102 357.725 347.927 358.151 347.861 358.599C347.766 359.451 348.188 360.303 349.824 359.894C353.327 359.085 359.645 356.212 359.645 356.212C359.645 356.212 362.898 355.283 365.007 356.758C367.977 358.837 369.311 359.596 371.893 358.761C373.44 358.246 374.924 357.563 376.318 356.723L381.344 356.22C381.344 356.22 386.061 344.474 379.571 342.676Z" fill="#FFBE9D"/>
<path d="M361 344.582C361 344.639 359.976 344.33 358.284 344.232C356.083 344.098 353.878 344.451 351.849 345.264C349.82 346.076 348.024 347.325 346.605 348.909C346.031 349.579 345.495 350.277 345 351C345.077 350.779 345.185 350.568 345.321 350.374C345.652 349.819 346.032 349.291 346.458 348.796C347.861 347.146 349.68 345.849 351.75 345.021C353.82 344.193 356.078 343.861 358.319 344.053C358.995 344.108 359.665 344.214 360.323 344.37C360.555 344.421 360.782 344.492 361 344.582Z" fill="#EB996E"/>
<path d="M359.998 341.701C359.062 341.415 358.096 341.242 357.12 341.186C354.759 341.19 352.447 341.868 350.444 343.146C348.456 344.457 346.642 346.026 345.049 347.815L343.565 349.431C343.396 349.64 343.207 349.83 343 350C343.143 349.769 343.306 349.552 343.486 349.35C343.812 348.952 344.289 348.374 344.907 347.679C346.471 345.829 348.288 344.22 350.303 342.902C352.354 341.593 354.738 340.933 357.155 341.005C357.882 341.039 358.6 341.173 359.292 341.403C359.539 341.475 359.716 341.574 359.848 341.619C359.981 341.665 360.007 341.701 359.998 341.701Z" fill="#EB996E"/>
<path d="M370.591 360H303.564C302.648 359.999 301.767 359.646 301.104 359.016C300.442 358.385 300.049 357.524 300.007 356.613L298.003 310.697C297.982 310.219 298.059 309.743 298.227 309.296C298.396 308.849 298.654 308.44 298.986 308.095C299.317 307.749 299.716 307.474 300.157 307.286C300.598 307.098 301.073 307.001 301.552 307H372.448C372.927 307 373.402 307.096 373.843 307.283C374.284 307.47 374.682 307.744 375.014 308.089C375.345 308.434 375.603 308.842 375.772 309.288C375.941 309.735 376.018 310.211 375.997 310.688L374.123 356.596C374.085 357.506 373.698 358.367 373.04 359C372.383 359.634 371.506 359.992 370.591 360Z" fill="#E0E0E0"/>
<path d="M341 334.5C341 335.192 340.795 335.869 340.41 336.444C340.026 337.02 339.479 337.469 338.839 337.734C338.2 337.998 337.496 338.068 336.817 337.933C336.138 337.798 335.515 337.464 335.025 336.975C334.536 336.485 334.202 335.862 334.067 335.183C333.932 334.504 334.002 333.8 334.266 333.161C334.531 332.521 334.98 331.974 335.556 331.59C336.131 331.205 336.808 331 337.5 331C338.428 331 339.319 331.369 339.975 332.025C340.631 332.681 341 333.572 341 334.5Z" fill="white"/>
<path d="M147.93 240.173L186.433 240C186.582 239.998 186.726 240.054 186.834 240.158C186.942 240.261 187.005 240.403 187.01 240.552L187.999 266.396C188.003 266.475 187.99 266.553 187.962 266.627C187.934 266.701 187.892 266.768 187.837 266.825C187.782 266.881 187.716 266.926 187.644 266.956C187.571 266.986 187.493 267.001 187.414 267L147.568 266.517C147.492 266.516 147.418 266.499 147.348 266.469C147.279 266.439 147.216 266.396 147.163 266.341C147.11 266.287 147.069 266.222 147.041 266.152C147.013 266.081 146.999 266.006 147 265.93L147.362 240.742C147.362 240.591 147.421 240.446 147.528 240.339C147.635 240.233 147.779 240.173 147.93 240.173Z" fill="#5E88FF"/>
<path d="M147 240L165.991 225.465C166.379 225.164 166.865 225 167.365 225C167.866 225 168.351 225.164 168.739 225.465L187 239.818" fill="#5E88FF"/>
<g opacity="0.3">
<path opacity="0.3" d="M153 240L166.759 229.34C167.04 229.12 167.391 229 167.753 229C168.115 229 168.466 229.12 168.747 229.34L182 239.868" fill="black"/>
</g>
<g opacity="0.5">
<path opacity="0.5" d="M187 240L166.87 256L147 240.174" fill="black"/>
</g>
<path d="M149.034 241.391L149 233L183.948 233.1L184 241.718L166.693 255L149.034 241.391Z" fill="#FAFAFA"/>
<path d="M149.086 241.43L149.412 241.673L150.347 242.393L153.924 245.139L166.732 255L184 241.723C184 240.501 184 239.212 184 237.881C184 236.265 184 234.666 184 233.1L149.043 233.059C149.043 235.712 149.043 237.805 149.043 239.245V241.43C149.043 241.43 149.043 241.38 149.043 241.288V240.861C149.043 240.492 149.043 239.94 149.043 239.186C149.043 237.755 149.043 235.654 149 233L183.888 233.084C183.888 234.649 183.888 236.248 183.888 237.864C183.888 239.178 183.888 240.484 183.888 241.706L166.612 254.967L153.804 245.08L150.252 242.326L149.317 241.597L149.086 241.43Z" fill="#263238"/>
<path d="M176 239.022C176 239.022 171.972 239.073 167 239.098C162.028 239.124 158 239.098 158 239.098C158 239.098 162.028 239.039 167 239.013C171.972 238.987 176 239.005 176 239.022Z" fill="#263238"/>
<path d="M179 243.022C179 243.022 173.632 243.073 167 243.09C160.368 243.107 155 243.09 155 243.09C155 243.09 160.377 243.039 167 243.013C173.623 242.987 179 243.005 179 243.022Z" fill="#263238"/>
<path d="M179 247.016C179 247.016 173.852 247.067 167.496 247.084C161.139 247.101 156 247.084 156 247.084C156 247.084 161.148 247.042 167.496 247.016C173.843 246.991 179 246.999 179 247.016Z" fill="#263238"/>
<path d="M174 250.009H173.452H171.94L166.97 250.06C165.033 250.06 163.273 250.06 162 250.06L166.97 250C168.915 250 170.666 250 171.94 250H174V250.009Z" fill="#263238"/>
<path d="M170 254.062C170 254.062 168.884 254.062 167.496 254.062C166.107 254.062 165 254.062 165 254.019C165 253.976 166.116 254.019 167.496 254.019C168.876 254.019 170 254.002 170 254.062Z" fill="#263238"/>
<path d="M187.999 267L187.894 266.958L187.581 266.796L186.379 266.169L182.024 263.812L175.543 260.301L171.719 258.223L169.699 257.121L169.176 256.841C169.011 256.748 168.836 256.646 168.662 256.561C168.31 256.398 167.934 256.289 167.547 256.239C166.775 256.131 165.987 256.268 165.3 256.629L163.279 257.723L159.456 259.809L152.975 263.328L148.62 265.686L147.427 266.313L147.113 266.474L147 266.525L147.105 266.457L147.409 266.279L148.585 265.618L152.94 263.201L159.395 259.648L163.192 257.553L165.213 256.451C165.941 256.072 166.773 255.926 167.591 256.035C167.999 256.092 168.395 256.209 168.767 256.383L169.289 256.663L169.803 256.943L171.824 258.045L175.648 260.14L182.111 263.684L186.466 266.093L187.581 266.796L187.885 266.975C187.973 266.975 188.007 267 187.999 267Z" fill="#263238"/>
<path d="M92.6646 177.516L48 183L55.6321 243.521L100.297 238.037L92.6646 177.516Z" fill="white"/>
<path d="M99.9567 237.426C99.9567 237.426 99.9567 237.323 99.9047 237.134C99.8527 236.944 99.8354 236.643 99.7834 236.274C99.6882 235.508 99.5409 234.407 99.359 232.988C98.9865 230.106 98.4928 225.917 97.7651 220.619C96.4311 210.022 94.5341 194.995 92.2905 177.215L92.5157 177.387L48.1992 182.832L48.3898 182.582C51.1618 205.084 53.7345 225.917 55.8134 242.794L55.6142 242.639L87.8121 238.802L96.7776 237.753L99.1338 237.486L100 237.4L99.2117 237.521L96.8902 237.822L87.9767 238.957L55.6922 243H55.5102V242.819C53.3966 225.917 50.8066 205.093 48 182.608V182.393H48.2252L92.5504 177H92.7496V177.198C94.9239 195.046 96.7516 210.125 98.051 220.756C98.6747 226.038 99.1771 230.218 99.5236 233.091C99.6882 234.502 99.8094 235.594 99.8961 236.351C99.8961 236.704 99.9654 236.979 99.9913 237.211L99.9567 237.426Z" fill="#263238"/>
<path d="M77 191.021C77 191.156 72.1062 191.93 66.0266 192.742C59.9469 193.554 55.0089 194.115 55 193.98C54.9912 193.844 59.8938 193.071 65.9735 192.249C72.0531 191.427 76.9911 190.885 77 191.021Z" fill="#263238"/>
<path d="M89 195.012C89 195.13 81.6437 196.118 72.5302 197.215C63.4166 198.313 56.0086 199.107 56 198.988C55.9914 198.87 63.3563 197.882 72.4699 196.785C81.5834 195.687 88.9914 194.893 89 195.012Z" fill="#263238"/>
<path d="M90 201.012C90 201.138 82.6437 202.124 73.5302 203.219C64.4166 204.314 57.0086 205.106 57 204.988C56.9914 204.87 64.3563 203.885 73.4699 202.789C82.5834 201.694 89.9914 200.894 90 201.012Z" fill="#263238"/>
<path d="M90 206.012C90 206.13 82.6437 207.115 73.5302 208.211C64.4166 209.306 57.0173 210.106 57 209.988C56.9828 209.871 64.3563 208.885 73.4785 207.781C82.6006 206.677 89.9914 205.894 90 206.012Z" fill="#263238"/>
<path d="M91 212.006C91 212.125 83.637 213.113 74.5258 214.212C65.4147 215.311 58.0173 216.114 58 215.987C57.9828 215.86 65.3544 214.88 74.4742 213.781C83.594 212.682 90.9828 211.922 91 212.006Z" fill="#263238"/>
<path d="M92 217.012C92 217.13 84.637 218.118 75.5259 219.215C66.4147 220.313 59.0173 221.107 59 220.988C58.9828 220.87 66.363 219.882 75.4742 218.785C84.5853 217.687 92 216.893 92 217.012Z" fill="#263238"/>
<path d="M92 223.013C92 223.131 84.637 224.119 75.5259 225.216C66.4147 226.313 59.0173 227.106 59 226.988C58.9828 226.87 66.363 225.883 75.4742 224.786C84.5853 223.688 91.9828 222.887 92 223.013Z" fill="#263238"/>
<path d="M78 230.02C75.0339 230.551 72.0386 230.947 69.0262 231.204C64.0544 231.746 60.0175 232.094 60.0001 231.978C59.9826 231.862 64.002 231.343 68.9738 230.801C73.9456 230.26 77.9825 229.911 78 230.02Z" fill="#263238"/>
<path d="M100.168 240.682C104.429 238.122 105.767 232.618 103.156 228.388C100.545 224.158 94.9751 222.805 90.7145 225.365C86.4539 227.925 85.1163 233.429 87.727 237.659C90.3376 241.888 95.9078 243.242 100.168 240.682Z" fill="#5E88FF"/>
<path d="M100.92 229.028C101.374 229.331 99.8407 231.991 97.5088 234.963C97.1278 235.443 96.7558 235.906 96.4019 236.327L95.8303 237L95.1135 236.562C92.5275 235.005 90.7854 233.608 91.0213 233.237C91.2573 232.867 93.4077 233.633 96.1115 235.013L94.8231 235.258C95.1498 234.811 95.5036 234.34 95.8756 233.86C98.2166 230.889 100.476 228.725 100.92 229.028Z" fill="white"/>
<path d="M625 185H541V250H625V185Z" fill="white"/>
<path d="M541.322 250.15V250.275L541.196 250.15L541.086 250.15H541.086H541H540.85V250V249.915V249.807L540.722 249.679L540.85 249.679V249.574V249.461V249.347V249.234V249.12V249.006V248.892V248.778V248.664V248.55V248.436V248.322V248.208V248.093V247.979V247.864V247.75V247.635V247.521V247.406V247.291V247.177V247.062V246.947V246.832V246.717V246.602V246.486V246.371V246.256V246.141V246.025V245.91V245.794V245.679V245.563V245.447V245.331V245.216V245.1V244.984V244.868V244.752V244.635V244.519V244.403V244.287V244.17V244.054V243.937V243.821V243.704V243.588V243.471V243.354V243.237V243.12V243.003V242.886V242.769V242.652V242.535V242.418V242.3V242.183V242.065V241.948V241.83V241.713V241.595V241.477V241.36V241.242V241.124V241.006V240.888V240.77V240.652V240.533V240.415V240.297V240.179V240.06V239.942V239.823V239.704V239.586V239.467V239.348V239.23V239.111V238.992V238.873V238.754V238.635V238.515V238.396V238.277V238.158V238.038V237.919V237.799V237.68V237.56V237.44V237.321V237.201V237.081V236.961V236.841V236.721V236.601V236.481V236.361V236.241V236.12V236V235.88V235.759V235.639V235.518V235.397V235.277V235.156V235.035V234.914V234.794V234.673V234.552V234.431V234.31V234.188V234.067V233.946V233.825V233.703V233.582V233.46V233.339V233.217V233.096V232.974V232.852V232.73V232.608V232.486V232.365V232.243V232.12V231.998V231.876V231.754V231.632V231.509V231.387V231.264V231.142V231.019V230.897V230.774V230.651V230.529V230.406V230.283V230.16V230.037V229.914V229.791V229.668V229.545V229.422V229.298V229.175V229.052V228.928V228.805V228.681V228.558V228.434V228.31V228.187V228.063V227.939V227.815V227.691V227.567V227.443V227.319V227.195V227.071V226.946V226.822V226.698V226.573V226.449V226.324V226.2V226.075V225.951V225.826V225.701V225.576V225.452V225.327V225.202V225.077V224.952V224.827V224.701V224.576V224.451V224.326V224.2V224.075V223.95V223.824V223.699V223.573V223.447V223.322V223.196V223.07V222.944V222.819V222.693V222.567V222.441V222.315V222.188V222.062V221.936V221.81V221.684V221.557V221.431V221.304V221.178V221.051V220.925V220.798V220.671V220.545V220.418V220.291V220.164V220.037V219.91V219.783V219.656V219.529V219.402V219.275V219.148V219.02V218.893V218.766V218.638V218.511V218.383V218.256V218.128V218V217.873V217.745V217.617V217.489V217.361V217.233V217.105V216.977V216.849V216.721V216.593V216.465V216.337V216.208V216.08V215.952V215.823V215.695V215.566V215.438V215.309V215.18V215.052V214.923V214.794V214.665V214.537V214.408V214.279V214.15V214.021V213.892V213.762V213.633V213.504V213.375V213.245V213.116V212.987V212.857V212.728V212.598V212.469V212.339V212.209V212.08V211.95V211.82V211.69V211.561V211.431V211.301V211.171V211.041V210.911V210.78V210.65V210.52V210.39V210.26V210.129V209.999V209.868V209.738V209.608V209.477V209.346V209.216V209.085V208.954V208.824V208.693V208.562V208.431V208.3V208.169V208.038V207.907V207.776V207.645V207.514V207.383V207.252V207.12V206.989V206.858V206.726V206.595V206.463V206.332V206.2V206.069V205.937V205.805V205.674V205.542V205.41V205.278V205.146V205.014V204.883V204.751V204.619V204.486V204.354V204.222V204.09V203.958V203.826V203.693V203.561V203.429V203.296V203.164V203.031V202.899V202.766V202.633V202.501V202.368V202.235V202.103V201.97V201.837V201.704V201.571V201.438V201.305V201.172V201.039V200.906V200.773V200.64V200.507V200.373V200.24V200.107V199.973V199.84V199.707V199.573V199.44V199.306V199.172V199.039V198.905V198.772V198.638V198.504V198.37V198.236V198.103V197.969V197.835V197.701V197.567V197.433V197.299V197.164V197.03V196.896V196.762V196.628V196.493V196.359V196.225V196.09V195.956V195.821V195.687V195.552V195.418V195.283V195.149V195.014V194.879V194.744V194.61V194.475V194.34V194.205V194.07V193.935V193.8V193.665V193.53V193.395V193.26V193.125V192.99V192.854V192.719V192.584V192.449V192.313V192.178V192.042V191.907V191.771V191.636V191.5V191.365V191.229V191.094V190.958V190.822V190.686V190.551V190.415V190.279V190.143V190.007V189.871V189.735V189.599V189.463V189.327V189.191V189.055V188.919V188.783V188.646V188.51V188.374V188.238V188.101V187.965V187.828V187.692V187.556V187.419V187.282V187.146V187.009V186.873V186.736V186.599V186.463V186.326V186.189V186.052V185.915V185.779V185.642V185.505V185.368V185.338H540.713L540.85 185.202V185.094V185V184.85H541H541.103H541.204L541.322 184.733V184.85H624.669L624.669 184.75L624.77 184.85H624.923H625H625.15V185V185.077V185.077C625.15 185.127 625.15 185.177 625.15 185.227L625.261 185.338H625.15C625.081 224.354 625.047 249.294 625.047 249.932H624.914V250.065H624.914L541.322 250.15ZM541.322 250.15V250L541.15 250M541.322 250.15L541.15 250M541.15 250H541.087H541.086H541.045H541.15ZM624.747 249.765C624.747 249.836 624.747 249.886 624.747 249.915L551.195 249.84L624.747 249.765ZM624.747 249.765H624.747C624.747 249.765 624.747 249.765 624.747 249.765M624.747 249.765C624.747 249.765 624.747 249.765 624.747 249.765M624.747 249.765L624.897 249.765C624.897 247.621 624.895 226.426 624.835 193.469C624.779 226.435 624.749 247.62 624.747 249.765ZM624.747 249.765H624.747M624.747 249.765C624.747 247.448 624.744 222.912 624.67 185.338H541.322V185.367V185.504V185.641V185.778V185.914V186.051V186.188V186.324V186.461V186.597V186.734V186.87V187.007V187.143V187.279V187.416V187.552V187.688V187.825V187.961V188.097V188.233V188.369V188.505V188.641V188.778V188.914V189.05V189.185V189.321V189.457V189.593V189.729V189.865V190.001V190.136V190.272V190.408V190.543V190.679V190.814V190.95V191.086V191.221V191.356V191.492V191.627V191.763V191.898V192.033V192.168V192.304V192.439V192.574V192.709V192.844V192.979V193.114V193.249V193.384V193.519V193.654V193.789V193.924V194.059V194.193V194.328V194.463V194.598V194.732V194.867V195.001V195.136V195.27V195.405V195.539V195.674V195.808V195.942V196.077V196.211V196.345V196.479V196.613V196.748V196.882V197.016V197.15V197.284V197.418V197.552V197.686V197.819V197.953V198.087V198.221V198.354V198.488V198.622V198.755V198.889V199.022V199.156V199.289V199.423V199.556V199.69V199.823V199.956V200.089V200.223V200.356V200.489V200.622V200.755V200.888V201.021V201.154V201.287V201.42V201.553V201.685V201.818V201.951V202.084V202.216V202.349V202.482V202.614V202.747V202.879V203.011V203.144V203.276V203.409V203.541V203.673V203.805V203.937V204.07V204.202V204.334V204.466V204.598V204.73V204.862V204.993V205.125V205.257V205.389V205.521V205.652V205.784V205.915V206.047V206.178V206.31V206.441V206.573V206.704V206.835V206.967V207.098V207.229V207.36V207.491V207.623V207.754V207.885V208.016V208.147V208.277V208.408V208.539V208.67V208.801V208.931V209.062V209.192V209.323V209.454V209.584V209.714V209.845V209.975V210.106V210.236V210.366V210.496V210.626V210.756V210.887V211.017V211.147V211.277V211.406V211.536V211.666V211.796V211.926V212.055V212.185V212.315V212.444V212.574V212.703V212.833V212.962V213.091V213.221V213.35V213.479V213.608V213.737V213.867V213.996V214.125V214.254V214.383V214.511V214.64V214.769V214.898V215.027V215.155V215.284V215.412V215.541V215.669V215.798V215.926V216.055V216.183V216.311V216.439V216.568V216.696V216.824V216.952V217.08V217.208V217.336V217.464V217.592V217.719V217.847V217.975V218.102V218.23V218.358V218.485V218.613V218.74V218.867V218.995V219.122V219.249V219.376V219.504V219.631V219.758V219.885V220.012V220.139V220.266V220.392V220.519V220.646V220.773V220.899V221.026V221.152V221.279V221.405V221.532V221.658V221.784V221.911V222.037V222.163V222.289V222.415V222.541V222.667V222.793V222.919V223.045V223.171V223.297V223.422V223.548V223.674V223.799V223.925V224.05V224.176V224.301V224.426V224.551V224.677V224.802V224.927V225.052V225.177V225.302V225.427V225.552V225.677V225.802V225.926V226.051V226.176V226.3V226.425V226.549V226.674V226.798V226.922V227.047V227.171V227.295V227.419V227.543V227.667V227.791V227.915V228.039V228.163V228.287V228.411V228.534V228.658V228.782V228.905V229.029V229.152V229.275V229.399V229.522V229.645V229.768V229.892V230.015V230.138V230.261V230.384V230.506V230.629V230.752V230.875V230.997V231.12V231.243V231.365V231.488V231.61V231.732V231.855V231.977V232.099V232.221V232.343V232.465V232.587V232.709V232.831V232.953V233.075V233.197V233.318V233.44V233.562V233.683V233.804V233.926V234.047V234.169V234.29V234.411V234.532V234.653V234.774V234.895V235.016V235.137V235.258V235.379V235.499V235.62V235.741V235.861V235.982V236.102V236.223V236.343V236.463V236.583V236.704V236.824V236.944V237.064V237.184V237.304V237.423V237.543V237.663V237.783V237.902V238.022V238.141V238.261V238.38V238.5V238.619V238.738V238.857V238.976V239.095V239.214V239.333V239.452V239.571V239.69V239.809V239.927V240.046V240.164V240.283V240.401V240.52V240.638V240.756V240.875V240.993V241.111V241.229V241.347V241.465V241.583V241.701V241.818V241.936V242.054V242.171V242.289V242.406V242.524V242.641V242.758V242.876V242.993V243.11V243.227V243.344V243.461V243.578V243.695V243.811V243.928V244.045V244.161V244.278V244.394V244.511V244.627V244.743V244.86V244.976V245.092V245.208V245.324V245.44V245.556V245.672V245.787V245.903V246.019V246.134V246.25V246.365V246.481V246.596V246.711V246.827V246.942V247.057V247.172V247.287V247.402V247.517V247.632V247.746V247.861V247.976V248.09V248.205V248.319V248.433V248.548V248.662V248.776V248.89V249.004V249.118V249.232V249.346V249.46V249.574V249.68L624.747 249.765ZM624.897 249.765C624.899 247.621 624.929 226.436 624.985 193.469L624.897 249.765ZM624.897 249.765L624.914 249.765L624.897 249.765Z" fill="#263238" stroke="#272D4E" stroke-width="0.3"/>
<path d="M566.094 242C566.043 242 566 235.504 566 227.5C566 219.496 566 213 566.094 213C566.189 213 566.189 219.488 566.189 227.5C566.189 235.512 566.146 242 566.094 242Z" fill="#263238"/>
<path d="M600.094 242C600.043 242 600 235.504 600 227.5C600 219.496 600 213 600.094 213C600.189 213 600.189 219.488 600.189 227.5C600.189 235.512 600.155 242 600.094 242Z" fill="#263238"/>
<path d="M577.094 241C577.043 241 577 232.716 577 222.496C577 212.276 577.043 204 577.094 204C577.146 204 577.189 212.284 577.189 222.496C577.189 232.707 577.172 241 577.094 241Z" fill="#263238"/>
<path d="M554.094 241C554.043 241 554 232.716 554 222.496C554 212.276 554 204 554.094 204C554.189 204 554.189 212.284 554.189 222.496C554.189 232.707 554.155 241 554.094 241Z" fill="#263238"/>
<path d="M613.094 241C613.043 241 613 232.716 613 222.496C613 212.276 613 204 613.094 204C613.189 204 613.189 212.284 613.189 222.496C613.189 232.707 613.146 241 613.094 241Z" fill="#263238"/>
<path d="M587.094 242C587.043 242 587 232.369 587 220.5C587 208.631 587 199 587.094 199C587.189 199 587.189 208.623 587.189 220.5C587.189 232.377 587.146 242 587.094 242Z" fill="#263238"/>
<path d="M566.5 213C566.5 213.066 566.487 213.131 566.462 213.191C566.437 213.252 566.4 213.307 566.354 213.354C566.307 213.4 566.252 213.437 566.191 213.462C566.131 213.487 566.066 213.5 566 213.5C565.867 213.5 565.74 213.447 565.646 213.354C565.553 213.26 565.5 213.133 565.5 213C565.5 212.867 565.553 212.74 565.646 212.646C565.74 212.553 565.867 212.5 566 212.5C566.066 212.5 566.131 212.513 566.191 212.538C566.252 212.563 566.307 212.6 566.354 212.646C566.4 212.693 566.437 212.748 566.462 212.809C566.487 212.869 566.5 212.934 566.5 213Z" fill="#263238"/>
<path d="M577.58 204.287C577.58 204.386 577.55 204.483 577.495 204.565C577.44 204.647 577.362 204.711 577.271 204.749C577.18 204.787 577.079 204.797 576.982 204.778C576.885 204.758 576.796 204.711 576.726 204.641C576.656 204.571 576.608 204.482 576.589 204.385C576.57 204.288 576.58 204.187 576.618 204.096C576.656 204.005 576.72 203.927 576.802 203.872C576.884 203.817 576.981 203.787 577.08 203.787C577.212 203.787 577.339 203.84 577.433 203.934C577.527 204.028 577.58 204.155 577.58 204.287Z" fill="#263238"/>
<path d="M577 205.481C576.802 205.481 576.609 205.422 576.444 205.312C576.28 205.202 576.152 205.046 576.076 204.863C576 204.681 575.981 204.48 576.019 204.286C576.058 204.092 576.153 203.914 576.293 203.774C576.433 203.634 576.611 203.539 576.805 203.5C576.999 203.461 577.2 203.481 577.383 203.557C577.565 203.633 577.722 203.761 577.831 203.925C577.941 204.09 578 204.283 578 204.481C578 204.746 577.895 205 577.707 205.188C577.52 205.375 577.265 205.481 577 205.481ZM577 203.569C576.827 203.569 576.657 203.62 576.513 203.716C576.368 203.813 576.256 203.95 576.19 204.11C576.123 204.27 576.106 204.447 576.14 204.617C576.174 204.787 576.257 204.943 576.38 205.066C576.502 205.189 576.659 205.272 576.829 205.306C576.999 205.34 577.175 205.323 577.336 205.256C577.496 205.19 577.633 205.077 577.729 204.933C577.826 204.789 577.877 204.619 577.877 204.446C577.877 204.213 577.785 203.99 577.62 203.825C577.456 203.661 577.233 203.569 577 203.569Z" fill="#C2B2F8"/>
<path d="M588 198.5C588 198.599 587.971 198.696 587.916 198.778C587.861 198.86 587.783 198.924 587.691 198.962C587.6 199 587.499 199.01 587.402 198.99C587.305 198.971 587.216 198.923 587.146 198.854C587.077 198.784 587.029 198.695 587.01 198.598C586.99 198.501 587 198.4 587.038 198.309C587.076 198.217 587.14 198.139 587.222 198.084C587.304 198.029 587.401 198 587.5 198C587.633 198 587.76 198.053 587.854 198.146C587.947 198.24 588 198.367 588 198.5Z" fill="#263238"/>
<path d="M600 213.5C600 213.599 599.971 213.696 599.916 213.778C599.861 213.86 599.783 213.924 599.691 213.962C599.6 214 599.499 214.01 599.402 213.99C599.305 213.971 599.216 213.923 599.146 213.854C599.077 213.784 599.029 213.695 599.01 213.598C598.99 213.501 599 213.4 599.038 213.309C599.076 213.217 599.14 213.139 599.222 213.084C599.304 213.029 599.401 213 599.5 213C599.633 213 599.76 213.053 599.854 213.146C599.947 213.24 600 213.367 600 213.5Z" fill="#263238"/>
<path d="M614 204.5C614 204.599 613.971 204.696 613.916 204.778C613.861 204.86 613.783 204.924 613.691 204.962C613.6 205 613.499 205.01 613.402 204.99C613.305 204.971 613.216 204.923 613.146 204.854C613.077 204.784 613.029 204.695 613.01 204.598C612.99 204.501 613 204.4 613.038 204.309C613.076 204.217 613.14 204.139 613.222 204.084C613.304 204.029 613.401 204 613.5 204C613.633 204 613.76 204.053 613.854 204.146C613.947 204.24 614 204.367 614 204.5Z" fill="#263238"/>
<path d="M554.577 204.096C554.58 204.196 554.554 204.294 554.501 204.378C554.448 204.462 554.371 204.528 554.279 204.569C554.188 204.609 554.087 204.621 553.989 204.603C553.892 204.586 553.801 204.539 553.73 204.47C553.658 204.401 553.609 204.312 553.588 204.215C553.568 204.117 553.577 204.016 553.614 203.924C553.652 203.831 553.716 203.752 553.798 203.697C553.881 203.641 553.978 203.611 554.077 203.611C554.142 203.609 554.207 203.62 554.268 203.644C554.328 203.667 554.383 203.703 554.43 203.748C554.477 203.793 554.514 203.847 554.539 203.907C554.564 203.967 554.577 204.031 554.577 204.096Z" fill="#263238"/>
<path d="M616 218.127C616 218.127 615.698 218.205 615.137 218.429C614.371 218.796 613.69 219.318 613.136 219.961C612.385 220.822 611.635 221.924 610.686 223.207C610.181 223.9 609.621 224.551 609.012 225.153C608.674 225.484 608.311 225.786 607.925 226.058C607.508 226.339 607.066 226.581 606.605 226.781C605.604 227.188 604.526 227.37 603.447 227.315C602.866 227.307 602.288 227.237 601.722 227.108C601.125 226.985 600.561 226.739 600.065 226.385C599.558 226.016 599.12 225.562 598.771 225.042C598.409 224.525 598.098 223.991 597.788 223.44C597.175 222.338 596.545 221.244 595.829 220.133C595.113 219.023 594.466 217.817 593.733 216.689C593.02 215.497 592.165 214.396 591.188 213.408C590.673 212.926 590.092 212.52 589.462 212.203C589.151 212.046 588.828 211.914 588.496 211.807L587.978 211.695L587.72 211.635C587.63 211.63 587.541 211.63 587.452 211.635C586.003 211.499 584.545 211.799 583.268 212.496C582.009 213.258 580.922 214.272 580.076 215.475C579.224 216.649 578.455 217.881 577.772 219.16C576.508 221.661 574.831 223.932 572.812 225.877C571.829 226.777 570.646 227.432 569.361 227.788C568.739 227.951 568.096 228.02 567.454 227.995C566.835 227.963 566.223 227.85 565.634 227.659C564.543 227.271 563.512 226.731 562.571 226.058C561.708 225.429 560.845 224.783 560.026 224.198C559.279 223.63 558.476 223.142 557.627 222.742C556.873 222.389 556.066 222.159 555.238 222.062C554.523 221.972 553.797 222.016 553.098 222.191C552.94 222.231 552.784 222.28 552.632 222.338C552.484 222.385 552.34 222.442 552.201 222.51C551.933 222.625 551.676 222.763 551.433 222.923C551.027 223.193 550.643 223.496 550.285 223.827C550.009 224.146 549.742 224.396 549.561 224.628C549.392 224.874 549.204 225.108 549 225.326C549.136 225.057 549.294 224.801 549.474 224.559C549.638 224.31 549.889 224.043 550.165 223.698C550.52 223.344 550.904 223.018 551.312 222.725C551.56 222.557 551.819 222.408 552.089 222.278C552.235 222.2 552.388 222.137 552.546 222.088C552.703 222.02 552.864 221.963 553.029 221.916C553.758 221.713 554.52 221.652 555.272 221.735C556.136 221.822 556.981 222.046 557.774 222.398C558.652 222.797 559.484 223.288 560.259 223.862C561.121 224.439 561.915 225.076 562.847 225.679C563.759 226.325 564.758 226.838 565.815 227.203C566.375 227.375 566.955 227.477 567.54 227.504C568.122 227.518 568.703 227.448 569.266 227.298C570.47 226.945 571.577 226.321 572.501 225.472C574.465 223.559 576.093 221.329 577.315 218.876C578.014 217.577 578.795 216.323 579.653 215.122C580.55 213.857 581.698 212.791 583.026 211.988C584.403 211.223 585.978 210.89 587.547 211.032C587.642 211.032 587.745 211.032 587.84 211.032L588.125 211.092C588.315 211.092 588.505 211.17 588.686 211.221C589.055 211.336 589.413 211.483 589.756 211.66C590.427 212 591.044 212.438 591.585 212.961C592.596 213.981 593.48 215.12 594.216 216.353C594.949 217.542 595.596 218.73 596.295 219.841C596.994 220.951 597.65 222.097 598.245 223.19C598.738 224.262 599.456 225.217 600.35 225.989C600.795 226.313 601.303 226.539 601.842 226.652C602.371 226.783 602.912 226.855 603.456 226.867C604.473 226.928 605.491 226.769 606.441 226.402C606.882 226.22 607.304 225.995 607.7 225.73C608.074 225.472 608.426 225.184 608.753 224.869C609.362 224.291 609.922 223.663 610.427 222.992C611.217 221.885 612.064 220.819 612.963 219.798C613.548 219.146 614.274 218.637 615.086 218.308C615.298 218.23 615.518 218.172 615.741 218.136C615.826 218.118 615.914 218.115 616 218.127Z" fill="#293FCC"/>
<path d="M568 193H554V194H568V193Z" fill="#263238"/>
<path d="M561 195H554V196H561V195Z" fill="#263238"/>
<path d="M625 183H541V188H625V183Z" fill="#263238"/>
<path d="M562 358.224C562 358.344 454.764 358.447 322.509 358.447C190.253 358.447 83 358.344 83 358.224C83 358.103 190.21 358 322.509 358C454.807 358 562 358.095 562 358.224Z" fill="#263238"/>
</svg>
