<svg width="280" height="128" viewBox="0 0 280 128" fill="none" xmlns="http://www.w3.org/2000/svg">
<g clip-path="url(#clip0)">
<path d="M225.409 -0.0643368L224.473 -1.8201C216.573 -16.6133 201.331 -26.1019 184.694 -25.9992C182.549 -25.9825 180.407 -25.8061 178.288 -25.4715C163.031 -23.0947 149.273 -12.4527 143.011 1.81283C139.333 10.2181 137.863 20.0242 131.428 26.4822C123.033 34.8875 109.606 34.4205 97.8365 33.3932C86.0667 32.3659 72.6309 31.9269 64.268 40.3742C59.0313 45.6648 57.0236 53.4957 57.0002 60.9717C56.9394 80.7661 69.7294 99.1829 86.764 108.938C103.799 118.692 124.39 120.612 143.793 117.847C170.968 113.948 197.358 100.532 213.99 78.4686C230.622 56.4049 236.308 25.3709 225.409 -0.0643368Z" fill="white"/>
<path d="M23 46C39.5685 46 53 32.5685 53 16C53 -0.568545 39.5685 -14 23 -14C6.43146 -14 -7 -0.568545 -7 16C-7 32.5685 6.43146 46 23 46Z" fill="white"/>
<path d="M216.363 76.4299L202.447 93.5221C200.299 92.5566 186.387 74 186.387 74L177 88.2882C177 88.2882 193.256 107.981 201.37 107.981C202.695 107.981 204.824 108.24 206.476 106.836C214.332 100.174 224 79.913 224 79.913L216.363 76.4299Z" fill="#FFBE9D"/>
<path d="M153 48.9142C153.707 49.3546 154.712 48.8814 155.085 48.1365C155.392 47.3546 155.41 46.4897 155.136 45.6956C154.859 44.9099 154.682 44.0931 154.608 43.264C154.618 42.505 154.874 41.7694 155.336 41.1655C155.799 40.5615 156.445 40.1212 157.179 39.9094C156.855 39.6007 156.597 39.2301 156.421 38.8199C156.245 38.4097 156.154 37.9683 156.154 37.5224C156.154 37.0764 156.245 36.635 156.421 36.2248C156.597 35.8146 156.855 35.444 157.179 35.1353C157.82 34.5824 158.645 34.306 159.381 33.8844C159.799 33.6385 160.191 33.3513 160.551 33.027C159.909 33.1529 159.248 33.1402 158.612 32.9895C158.103 32.8497 157.637 32.5845 157.258 32.2184C156.878 31.8524 156.598 31.3973 156.443 30.8953C156.3 30.3893 156.303 29.8537 156.452 29.3494C156.6 28.8451 156.888 28.3921 157.282 28.042C157.687 27.7032 158.185 27.4948 158.712 27.4446C159.239 27.3944 159.768 27.5047 160.23 27.7609C161.121 28.2903 161.574 29.307 161.97 30.2581L162.338 31.1436C163.72 29.5085 165.022 27.8171 167.054 27.3205C168.889 26.852 170.799 27.5782 172.685 27.536C174.063 27.5079 175.402 27.0675 176.774 27.0066C178.147 26.9457 179.689 27.2971 180.439 28.4449C180.878 29.1149 180.986 29.9629 181.429 30.6329C182.349 32.0384 184.471 32.3055 185.202 33.7907C185.801 34.9947 185.202 36.4518 185.433 37.7824C185.665 39.2301 186.796 40.3311 187.711 41.4789C188.626 42.6268 189.395 44.1823 188.777 45.5128C188.24 46.6841 186.801 47.2557 186.282 48.4364C185.9 49.2937 186.094 50.2823 186.065 51.224C186.037 52.1657 185.594 53.2527 184.651 53.4213L174.077 55.6327C170.393 56.9071 166.597 58.1955 162.701 57.9753C158.806 57.7551 154.75 55.703 153.396 52.072C153.966 52.0752 154.516 51.8624 154.934 51.477C154.44 51.2199 154.01 50.8563 153.675 50.4129C153.34 49.9695 153.11 49.4575 153 48.9142Z" fill="#263238"/>
<path d="M161.78 52C160.991 49.3694 160.433 46.6755 160.112 43.9488C159.792 41.2089 160.161 38.4328 161.185 35.8699C161.348 35.4904 162.723 32.9409 163.136 33.001C163.434 33.0473 162.542 35.4442 162.672 35.7079C163.978 38.2297 164.214 41.1957 163.838 44.009C163.448 46.7406 162.754 49.4207 161.77 52" fill="#263238"/>
<path d="M173.007 75.9777C168.751 75.6666 161 67.029 161 67.029L162.174 42.282C162.304 35.3719 166.43 29.6925 173.314 30.0129L173.95 30.0826C177.034 30.4072 179.883 31.8818 181.93 34.2129C183.977 36.544 185.072 39.5607 184.996 42.6628C184.848 48.6487 184.611 55.2615 184.235 58.4518C183.46 65.0322 176.762 65.3619 176.762 65.3619C176.762 65.3619 176.646 66.8944 176.526 68.8355C176.256 73.2007 175.472 76.2238 173.773 75.987L173.007 75.9777Z" fill="#FFBE9D"/>
<path d="M176 65.3682C173.071 65.0482 170.295 63.8791 168 62C168 62 169.528 66.9091 175.915 67L176 65.3682Z" fill="#EB996E"/>
<path d="M183 47.0538C182.99 47.1889 182.954 47.3206 182.895 47.4413C182.836 47.562 182.755 47.6693 182.655 47.757C182.556 47.8446 182.441 47.9109 182.318 47.9519C182.194 47.993 182.063 48.0079 181.934 47.996C181.677 47.9828 181.436 47.8655 181.262 47.6693C181.087 47.4731 180.994 47.2136 181 46.9462C181.01 46.8111 181.046 46.6794 181.105 46.5587C181.164 46.4379 181.245 46.3307 181.345 46.243C181.444 46.1554 181.559 46.0891 181.682 46.0481C181.806 46.007 181.937 45.9921 182.066 46.004C182.323 46.0172 182.564 46.1345 182.738 46.3307C182.913 46.5269 183.006 46.7864 183 47.0538Z" fill="#263238"/>
<path d="M182.98 44.9895C182.84 45.0782 182.134 44.5769 181.05 44.492C179.966 44.4072 179.11 44.762 179.011 44.6501C178.956 44.6 179.11 44.4265 179.508 44.2645C180.012 44.0511 180.589 43.9636 181.159 44.0138C181.715 44.0615 182.237 44.2437 182.651 44.5344C182.96 44.7543 183.044 44.9471 182.98 44.9895Z" fill="#263238"/>
<path d="M173 47.0529C172.99 47.1882 172.954 47.32 172.895 47.4408C172.836 47.5616 172.755 47.669 172.655 47.7568C172.556 47.8445 172.441 47.9108 172.318 47.9519C172.194 47.9929 172.063 48.008 171.934 47.996C171.677 47.9827 171.436 47.8654 171.262 47.669C171.087 47.4727 170.994 47.2129 171 46.9453C171.027 46.6747 171.152 46.4252 171.351 46.2493C171.55 46.0734 171.806 45.9848 172.066 46.0021C172.323 46.0154 172.564 46.1328 172.738 46.3292C172.913 46.5255 173.006 46.7853 173 47.0529Z" fill="#263238"/>
<path d="M172.971 43.9895C172.832 44.0782 172.128 43.5769 171.047 43.492C169.966 43.4072 169.113 43.762 169.009 43.6501C168.96 43.6 169.108 43.4264 169.505 43.2645C170.007 43.0511 170.582 42.9636 171.151 43.0138C171.705 43.0615 172.225 43.2437 172.638 43.5344C172.946 43.7427 173.06 43.9355 172.971 43.9895Z" fill="#263238"/>
<path d="M176 52.8208C176.623 52.7067 177.258 52.6646 177.892 52.6953C178.191 52.6953 178.474 52.6664 178.542 52.4879C178.596 52.2125 178.56 51.9285 178.437 51.6724L177.808 49.5445C176.943 46.5143 176.351 44.0341 176.482 44.0003C176.613 43.9666 177.426 46.4129 178.29 49.4335C178.495 50.1766 178.694 50.8811 178.883 51.5711C179.028 51.914 179.039 52.2926 178.914 52.6423C178.86 52.7318 178.785 52.8091 178.694 52.8683C178.603 52.9276 178.499 52.9674 178.39 52.9849C178.216 53.005 178.04 53.005 177.866 52.9849C177.239 53.0028 176.612 52.9477 176 52.8208Z" fill="#263238"/>
<path d="M173.206 53.0005C173.359 53.0005 173.254 54.0472 174.082 54.8749C174.91 55.7026 176.004 55.707 176 55.8559C176 55.9216 175.733 56.0311 175.264 55.9917C174.656 55.9374 174.086 55.6689 173.657 55.234C173.244 54.8176 173.009 54.2571 173 53.6706C172.992 53.2326 173.132 52.9874 173.206 53.0005Z" fill="#263238"/>
<path d="M173.99 39.8585C173.851 40.0955 172.78 39.8835 171.5 39.9001C170.22 39.9167 169.144 40.1163 169.01 39.9001C168.95 39.7878 169.159 39.5716 169.603 39.3679C170.196 39.1258 170.847 39 171.507 39C172.168 39 172.819 39.1258 173.412 39.3679C173.841 39.5301 174.05 39.7463 173.99 39.8585Z" fill="#263238"/>
<path d="M183.958 40.9466C183.723 41.1044 182.946 40.8694 181.982 40.7957C181.018 40.722 180.177 40.7957 180.016 40.5922C179.946 40.4974 180.107 40.3325 180.487 40.1957C180.997 40.0254 181.576 39.9641 182.142 40.0202C182.711 40.0644 183.244 40.2253 183.664 40.4799C183.98 40.6764 184.06 40.8659 183.958 40.9466Z" fill="#263238"/>
<path d="M162 46.3879C161.887 46.3274 157.366 44.5628 157.018 49.0976C156.67 53.6324 161.534 53.0318 161.549 52.9015C161.564 52.7711 162 46.3879 162 46.3879Z" fill="#FFBE9D"/>
<path d="M159.997 51.6665C159.997 51.6665 159.908 51.718 159.766 51.7694C159.562 51.8367 159.338 51.825 159.142 51.7367C158.651 51.5263 158.282 50.7314 158.322 49.9085C158.341 49.5183 158.45 49.1368 158.641 48.791C158.698 48.6526 158.789 48.5291 158.906 48.4307C159.023 48.3323 159.163 48.2619 159.314 48.2253C159.414 48.2043 159.519 48.2183 159.609 48.2646C159.699 48.311 159.769 48.3866 159.805 48.4777C159.859 48.6087 159.805 48.6975 159.845 48.7069C159.884 48.7162 159.958 48.6367 159.933 48.4497C159.914 48.3351 159.855 48.2298 159.766 48.1505C159.642 48.0463 159.479 47.9926 159.314 48.0008C159.115 48.0244 158.926 48.096 158.764 48.209C158.602 48.3219 158.474 48.4724 158.391 48.6461C158.153 49.0246 158.02 49.4539 158.002 49.8945C157.963 50.8296 158.391 51.7086 159.068 51.9471C159.194 51.9915 159.329 52.0083 159.462 51.9962C159.596 51.984 159.725 51.9433 159.84 51.8769C159.977 51.7788 160.012 51.6759 159.997 51.6665Z" fill="#EB996E"/>
<path d="M182.834 34.9793C183.609 34.6131 181.517 32.0406 179.725 31.0848C177.024 29.6583 172.821 28.5883 170.216 29.1542C167.069 29.8294 164.402 31.2037 162.671 33.9094C160.989 36.6772 160.077 39.8437 160.028 43.082C159.93 44.0584 160.094 45.0433 160.503 45.9351C161.083 47.0003 162.281 47.7231 162.138 49.1354C162.077 49.6436 162.217 50.1558 162.528 50.5619C163.318 51.5129 164.406 50.7378 164.939 49.9199C166.075 48.1701 166.327 46.0112 166.55 43.938C166.791 42.4721 166.791 40.9768 166.55 39.5109C166.375 38.7263 166.075 37.9703 165.923 37.1761C165.831 36.7825 165.826 36.3735 165.908 35.9777C165.99 35.5819 166.157 35.2087 166.398 34.8842C166.519 34.7522 166.653 34.6327 166.798 34.5275C167.48 34.0052 168.288 33.6739 169.14 33.5677C169.993 33.4616 170.858 33.5844 171.647 33.9236C174.195 35.0173 178.565 36.6816 179.782 35.8685C181.541 34.7035 181.993 33.8998 181.993 33.8998L182.834 34.9793Z" fill="#263238"/>
<path d="M169.722 28.363C170.997 28.015 172.331 27.9159 173.646 28.0714C174.961 28.2269 176.231 28.6339 177.382 29.2688C178.583 29.9708 179.638 31.0396 179.933 32.371C180.227 33.7025 179.54 35.274 178.209 35.7043L178.116 35.7541C176.135 36.2658 174.888 35.9352 172.977 35.1653C171.385 34.5132 170.002 33.4489 168.404 32.8103C166.694 32.1265 164.812 31.9545 163 32.3167C164.843 30.4482 167.161 29.0844 169.722 28.363Z" fill="#263238"/>
<path d="M161 32.1722C161.039 32.2115 161.445 31.7738 162.246 31.2722C162.706 30.9816 163.198 30.7456 163.713 30.569C164.339 30.3478 165.007 30.2705 165.668 30.3428C166.874 30.5423 168 31.0791 168.918 31.8919C169.627 32.5213 169.944 33.0328 169.988 32.9984C170.032 32.9639 169.949 32.8508 169.802 32.6197C169.593 32.2968 169.349 31.9982 169.074 31.7296C168.157 30.8232 166.982 30.2282 165.712 30.028C165.004 29.9488 164.287 30.0381 163.62 30.2887C163.081 30.4831 162.571 30.7512 162.105 31.0854C161.663 31.3635 161.286 31.7342 161 32.1722Z" fill="#455A64"/>
<path d="M161 34.0005C161.017 34.4601 161.121 34.9133 161.305 35.3396C162.079 37.4586 163.621 39.2591 165.665 40.4302C166.07 40.6931 166.521 40.8861 166.998 41C167.065 40.9145 164.963 40.0503 163.269 38.0463C161.575 36.0424 161.107 33.9625 161 34.0005Z" fill="#455A64"/>
<path d="M159.051 35C159.005 35.177 158.99 35.3605 159.007 35.5425C159.007 36.0342 159.051 36.5249 159.14 37.0087C159.427 38.6303 160.115 40.1565 161.145 41.4512C162.174 42.7458 163.513 43.7684 165.04 44.4277C165.496 44.6319 165.97 44.7955 166.456 44.9164C166.631 44.9759 166.815 45.0041 167 44.9995C167 44.9458 166.253 44.7747 165.134 44.2322C163.675 43.5373 162.397 42.522 161.396 41.2641C160.396 40.0061 159.7 38.5388 159.363 36.9745C159.096 35.7722 159.111 35 159.051 35Z" fill="#455A64"/>
<path d="M175 28C175 28.0489 175.446 28.1906 176.129 28.5375C177.022 28.9879 177.846 29.5861 178.571 30.3111C179.295 31.0402 179.914 31.8853 180.406 32.8176C180.582 33.2244 180.781 33.6192 181 34C180.932 33.5472 180.793 33.1108 180.589 32.7101C180.136 31.7164 179.519 30.8234 178.768 30.0765C178.023 29.3245 177.155 28.7327 176.21 28.3323C175.829 28.1393 175.419 28.0266 175 28Z" fill="#455A64"/>
<path d="M158.016 28.0004C157.947 28.0004 158.068 29.2327 158.962 30.417C159.856 31.6013 160.983 32.0629 161 31.9932C161.017 31.9235 160.015 31.3749 159.186 30.2515C158.356 29.1282 158.102 27.9743 158.016 28.0004Z" fill="#455A64"/>
<path d="M176.834 67.9271C176.834 67.9271 182.85 68.929 185.984 72.0138C189.119 75.0986 199 88.398 199 88.398L190.288 103.442L186.263 100.027L183.114 125.847L134.002 126C133.847 125.536 141.738 84.8122 141.738 84.8122C141.738 84.8122 139.81 73.5029 144.477 70.3671C146.763 68.8316 150.817 67.7462 153.844 66.939C158.44 65.7097 160.915 65 160.915 65C160.915 65 169.645 74.9641 173.261 74.9409C176.778 74.9177 176.834 67.9271 176.834 67.9271Z" fill="#5E88FF"/>
<path d="M229.314 60.0578C228.037 60.299 222.368 66.4792 222.368 66.4792L221.298 66.3245C220.833 66.2577 220.359 66.2857 219.905 66.4068C219.451 66.528 219.027 66.7397 218.659 67.0288C218.291 67.318 217.987 67.6785 217.766 68.088C217.545 68.4976 217.412 68.9476 217.374 69.4101C217.125 72.4092 217 76.141 217 76.141L222.364 79.9866H224.209C225.855 80.2232 228.11 77.2787 229.586 75.1716C231.062 73.0645 229.513 72.2863 229.513 72.2863C229.974 70.0108 227.926 70.0609 227.926 70.0609C228.29 68.0129 226.22 67.6534 226.22 67.6534C226.22 67.6534 229.817 63.4437 230.67 61.8782C231.523 60.3127 230.596 59.8166 229.314 60.0578Z" fill="#FFBE9D"/>
<path d="M152.032 88.1604C150.561 93.0253 144.475 114.302 144.475 114.302L173 119.614L172.456 126L129.179 125.958C128.076 120.769 127.136 114.218 129.323 106.742C132.004 97.6132 136.02 85 136.02 85" fill="#FFBE9D"/>
<path d="M130 93.1303C130 93.1303 141.336 71.2113 143.736 70.3079C147.935 68.7212 157.009 73.5235 155.908 78.8125C154.808 84.1016 148.214 102 148.214 102L130 93.1303Z" fill="#5E88FF"/>
<path d="M186.991 84C187.003 84.0995 187.003 84.2 186.991 84.2995C186.991 84.5194 186.961 84.8002 186.943 85.1465C186.899 85.8859 186.815 86.9482 186.7 88.2632C186.471 90.8932 186.082 94.5199 185.615 98.5164C185.147 102.513 184.732 106.13 184.463 108.756C184.331 110.042 184.225 111.095 184.146 111.863C184.11 112.204 184.079 112.485 184.057 112.705C184.05 112.805 184.034 112.904 184.009 113C183.997 112.901 183.997 112.8 184.009 112.701C184.009 112.481 184.04 112.2 184.057 111.853C184.101 111.114 184.185 110.052 184.3 108.737C184.529 106.107 184.918 102.485 185.385 98.4836C185.853 94.4825 186.268 90.8698 186.537 88.2445C186.669 86.9576 186.775 85.9046 186.855 85.1418C186.89 84.7955 186.921 84.5148 186.943 84.2948C186.95 84.1951 186.966 84.0964 186.991 84Z" fill="#263238"/>
<path d="M155.998 82.0001C156.063 82.0001 154.549 86.2761 152.616 91.5403C150.684 96.8045 149.067 101.042 149.002 101C148.937 100.957 150.456 96.7237 152.389 91.4548C154.321 86.1858 155.928 81.9763 155.998 82.0001Z" fill="#263238"/>
<path d="M155 75.9992C154.962 76.0228 154.632 75.4903 153.985 74.727C152.298 72.7189 150.071 71.2343 147.567 70.4483C146.623 70.1467 145.991 70.0478 146 70.0054C146.147 69.9928 146.295 70.0023 146.439 70.0336C146.836 70.0903 147.228 70.1722 147.614 70.2787C150.193 70.9839 152.475 72.5009 154.122 74.6045C154.368 74.9209 154.595 75.2513 154.802 75.594C154.888 75.7184 154.955 75.855 155 75.9992Z" fill="#263238"/>
<path d="M202.019 97C201.901 97 202.363 96.1285 202.498 95.0087C202.632 93.8889 202.422 93.0131 202.548 93C202.962 93.651 203.094 94.3413 202.934 95.0218C202.92 95.7085 202.607 96.3848 202.019 97Z" fill="#EB996E"/>
<path d="M228 70.213C227.703 70.6716 227.369 71.1109 227 71.5276C226.828 71.7502 226.64 71.9625 226.435 72.163C226.186 72.3863 225.898 72.5728 225.581 72.7152C225.229 72.8902 224.835 72.9879 224.431 73C224.208 72.9963 223.988 72.9519 223.786 72.8697C223.584 72.7874 223.403 72.6691 223.256 72.5224C223.107 72.3613 223.018 72.1639 223.001 71.9571C222.993 71.764 223.03 71.5716 223.111 71.3918C223.268 71.079 223.452 70.7772 223.661 70.4891C224.005 70.0061 224.388 69.5448 224.806 69.1087C225.086 68.8138 225.385 68.5329 225.701 68.2673C225.809 68.1621 225.936 68.072 226.075 68C226.105 68.0263 225.616 68.4382 224.946 69.2095C224.555 69.6538 224.195 70.1176 223.866 70.5986C223.676 70.8803 223.509 71.1732 223.366 71.475C223.287 71.6201 223.255 71.7815 223.273 71.9415C223.292 72.1015 223.36 72.2539 223.471 72.3821C223.597 72.5057 223.751 72.6049 223.923 72.6736C224.095 72.7422 224.282 72.7788 224.471 72.7809C224.831 72.771 225.184 72.687 225.501 72.5355C225.8 72.4047 226.074 72.2348 226.315 72.0316C226.521 71.8458 226.709 71.6465 226.88 71.4356C227.217 71.0036 227.592 70.5948 228 70.213Z" fill="#EB996E"/>
<path d="M229 71.9071C228.962 72.0425 228.905 72.1715 228.832 72.2902C228.711 72.5245 228.525 72.8626 228.267 73.2637C227.96 73.7378 227.583 74.1578 227.149 74.5077C226.89 74.7277 226.586 74.882 226.261 74.9584C226.076 75.015 225.88 75.0138 225.696 74.9549C225.512 74.896 225.348 74.7821 225.225 74.6271C225.103 74.4721 225.026 74.283 225.006 74.0831C224.985 73.8833 225.021 73.6814 225.109 73.5026C225.223 73.1877 225.368 72.8857 225.54 72.6012C225.815 72.116 226.115 71.6466 226.437 71.1949C226.65 70.8826 226.877 70.5817 227.119 70.2935C227.287 70.0907 227.391 69.9915 227.404 70.0006C227.417 70.0096 227.076 70.4873 226.567 71.2761C226.312 71.6727 226.019 72.1505 225.704 72.6958C225.54 72.9708 225.403 73.2622 225.294 73.5657C225.22 73.7066 225.188 73.8674 225.202 74.0275C225.217 74.1875 225.276 74.3395 225.373 74.464C225.471 74.5884 225.602 74.6796 225.749 74.726C225.896 74.7723 226.053 74.7716 226.2 74.724C226.494 74.6522 226.77 74.5137 227.007 74.3184C227.431 73.9903 227.805 73.5967 228.116 73.151C228.676 72.4029 228.965 71.8845 229 71.9071Z" fill="#EB996E"/>
<path d="M230 73.9132C229.923 74.3458 229.771 74.755 229.553 75.1151C229.338 75.5227 229.088 75.9027 228.805 76.2487C228.64 76.4607 228.453 76.6492 228.25 76.8103C228.131 76.9086 227.992 76.971 227.847 76.9921C227.702 77.0131 227.555 76.9921 227.418 76.931C227.284 76.8508 227.173 76.7258 227.099 76.5718C227.025 76.4177 226.991 76.2414 227.002 76.065C227.017 75.7699 227.08 75.481 227.19 75.2148C227.365 74.781 227.584 74.3739 227.843 74.0024C228.06 73.6508 228.297 73.316 228.55 73C228.408 73.4041 228.215 73.7809 227.978 74.1179C227.745 74.4909 227.547 74.8921 227.387 75.3145C227.295 75.5528 227.242 75.8091 227.23 76.0703C227.223 76.1928 227.245 76.3153 227.295 76.4233C227.345 76.5312 227.42 76.62 227.512 76.6791C227.615 76.7217 227.725 76.7354 227.833 76.719C227.941 76.7026 228.044 76.6565 228.134 76.5846C228.323 76.433 228.497 76.257 228.653 76.0598C228.934 75.7381 229.188 75.3867 229.414 75.0101C229.825 74.3278 229.969 73.866 230 73.9132Z" fill="#EB996E"/>
<path d="M221.12 66C222.543 66.2477 224.635 66.6927 225.976 67.1009C226.143 68.0183 225.413 68.8761 224.584 69.133C223.733 69.3171 222.852 69.2634 222.027 68.9771C222.291 69.371 222.475 69.8198 222.567 70.2943C222.658 70.7689 222.656 71.2587 222.559 71.7321C222.462 72.2055 222.273 72.652 222.005 73.0427C221.736 73.4333 221.394 73.7594 221 74" fill="#FFBE9D"/>
<path d="M221 74C221.485 73.6869 221.902 73.2968 222.233 72.8487C222.587 72.3421 222.789 71.76 222.816 71.1608C222.841 70.4054 222.593 69.6632 222.111 69.0462L221.913 68.7986L222.238 68.8674C223.11 69.1052 224.027 69.1755 224.931 69.0738C226.027 68.9087 226.96 67.9821 226.752 67.1244L226.838 67.2069C225.195 66.7895 223.754 66.5235 222.745 66.3263L221.563 66.1015C221.418 66.0846 221.277 66.0506 221.142 66.0006C221.286 65.9974 221.431 66.0066 221.573 66.0281C221.852 66.0602 222.263 66.1153 222.77 66.1932C223.785 66.3538 225.241 66.5877 226.904 66.9914H226.975V67.0602C227.022 67.3165 227.003 67.579 226.92 67.8277C226.837 68.0765 226.693 68.305 226.499 68.4958C226.107 68.9101 225.57 69.1902 224.977 69.2893C224.037 69.3988 223.082 69.3237 222.177 69.0692L222.309 68.8949C222.821 69.5531 223.073 70.3481 223.024 71.1516C222.982 71.7807 222.752 72.3878 222.359 72.9083C222.107 73.245 221.789 73.5372 221.421 73.7707C221.297 73.8696 221.155 73.9473 221 74Z" fill="#EB996E"/>
<path d="M173.585 119C173.585 119 180.989 119.781 182.813 120.888C184.637 121.996 188 125 188 125H173L173.585 119Z" fill="#FFBE9D"/>
<path d="M44.1812 74.0093L44.1299 92.5294L35.9095 90.8466L29 89.4055C29 89.4055 38.4661 108 48.7673 108C59.0685 108 60.3982 92.5201 60.3982 92.5201L61 74L44.1812 74.0093Z" fill="#FFBE9D"/>
<path d="M87 25.801C86.2432 26.2377 85.228 25.6728 84.8865 24.8517C84.6105 23.9978 84.6384 23.071 84.9649 22.2363C85.2901 21.41 85.5164 20.5461 85.6387 19.6636C85.6686 18.8507 85.4439 18.0495 84.9978 17.3778C84.5517 16.7061 83.9077 16.1996 83.1606 15.9327C83.5109 15.6188 83.796 15.2353 83.9988 14.8053C84.2016 14.3753 84.3179 13.9076 84.3408 13.4302C84.3636 12.9529 84.2925 12.4757 84.1317 12.0273C83.971 11.5788 83.7238 11.1684 83.4052 10.8206C82.7729 10.194 81.9285 9.87128 81.1947 9.36339C80.7773 9.07493 80.3864 8.74762 80.0272 8.38558C80.6844 8.55298 81.3688 8.57401 82.0346 8.44729C82.569 8.32816 83.0653 8.07144 83.4769 7.70117C83.8886 7.3309 84.2021 6.85921 84.3881 6.33029C84.5616 5.79601 84.5869 5.2226 84.4614 4.67431C84.3359 4.12602 84.0644 3.62451 83.6774 3.22598C83.2785 2.83982 82.7749 2.58761 82.2334 2.50282C81.6919 2.41804 81.1381 2.50471 80.6456 2.75132C79.6949 3.26396 79.1735 4.33195 78.712 5.32875L78.2829 6.25434C76.9446 4.43163 75.6894 2.54721 73.622 1.90642C71.7531 1.32733 69.7411 1.97288 67.7937 1.83048C66.3723 1.7213 65.0249 1.19442 63.5943 1.03778C62.1638 0.881142 60.5671 1.18968 59.7318 2.37634C59.2427 3.06935 59.0858 3.9712 58.592 4.66421C57.5629 6.0882 55.3617 6.28282 54.5126 7.83497C53.8296 9.09283 54.3557 10.683 54.0511 12.1069C53.7327 13.6449 52.5052 14.7651 51.4946 15.9422C50.484 17.1194 49.6118 18.738 50.1794 20.2142C50.6732 21.5005 52.1314 22.1888 52.6021 23.4799C52.9482 24.4292 52.699 25.4687 52.6806 26.475C52.6621 27.4813 53.0544 28.6775 54.0096 28.9053L64.8587 31.853C68.5966 33.4146 72.4545 35.0047 76.4924 35C80.5302 34.9952 84.8311 33.0017 86.4278 29.1854C85.8378 29.1605 85.2796 28.904 84.868 28.4686C85.3952 28.2171 85.8607 27.8467 86.2297 27.3849C86.5988 26.9231 86.8621 26.3817 87 25.801Z" fill="#263238"/>
<path d="M78.7067 29C79.6277 26.2826 80.322 23.4863 80.7818 20.6427C81.1714 17.7896 81.0883 14.817 80.1295 12.1155C79.985 11.7066 78.7504 8.95911 78.3345 9.00046C78.0368 9.03262 78.7986 11.5963 78.6497 11.8628C77.2225 14.4403 76.8329 17.5369 77.0606 20.5095C77.3085 23.3948 77.8605 26.2424 78.7067 29Z" fill="#263238"/>
<path d="M68.7896 52.9578C73.4299 52.8647 78.6902 42.9727 78.6902 42.9727L78.9906 17.5678C79.2243 10.2488 75.0752 4 67.5735 4L66.8772 4.03722C63.5113 4.21373 60.3369 5.62 57.9854 7.97627C55.6339 10.3325 54.2778 13.4661 54.1868 16.7536C54.0103 23.0955 53.9007 30.1027 54.1296 33.504C54.6065 40.5113 61.8554 41.2278 61.8554 41.2278C61.8554 41.2278 61.8936 42.8563 61.9174 44.9176C61.9651 49.5472 66.9345 53.1532 68.7896 52.995V52.9578Z" fill="#FFBE9D"/>
<path d="M62 41.2087C65.2443 41.0262 68.3681 39.9125 71 38C71 38 69.0471 43.2481 62 42.9908V41.2087Z" fill="#EB996E"/>
<path d="M57 22.0024C57.012 22.2747 57.1255 22.5312 57.3162 22.7175C57.5068 22.9038 57.7597 23.005 58.0209 22.9997C58.1484 23.0029 58.2752 22.9795 58.3938 22.9309C58.5125 22.8822 58.6206 22.8092 58.7119 22.7163C58.8031 22.6234 58.8756 22.5123 58.9251 22.3897C58.9746 22.2671 59 22.1354 59 22.0024C58.988 21.7306 58.8754 21.4742 58.6858 21.2873C58.4963 21.1004 58.2446 20.9975 57.9838 21.0003C57.8557 20.9971 57.7283 21.0206 57.609 21.0695C57.4898 21.1184 57.3812 21.1917 57.2895 21.2851C57.1978 21.3785 57.125 21.4901 57.0753 21.6132C57.0256 21.7364 57 21.8688 57 22.0024Z" fill="#263238"/>
<path d="M56.0171 19.9852C56.1529 20.0916 56.8834 19.5913 57.9698 19.5322C59.0562 19.4731 59.8803 19.9261 59.988 19.7922C60.0442 19.737 59.9037 19.544 59.5432 19.347C59.0564 19.0948 58.4889 18.9751 57.9182 19.0043C57.353 19.0285 56.8117 19.2038 56.3729 19.5046C56.0545 19.7331 55.9562 19.9379 56.0171 19.9852Z" fill="#263238"/>
<path d="M67 22C67.0109 22.2724 67.1233 22.5296 67.3132 22.7164C67.5032 22.9032 67.7555 23.0049 68.0162 22.9996C68.1441 23.0035 68.2714 22.9805 68.3906 22.932C68.5098 22.8835 68.6185 22.8105 68.7102 22.7173C68.802 22.6241 68.8749 22.5126 68.9247 22.3894C68.9744 22.2662 69.0001 22.1338 69 22C68.9891 21.7276 68.8767 21.4704 68.6868 21.2836C68.4968 21.0968 68.2445 20.9951 67.9838 21.0004C67.8559 20.9965 67.7286 21.0195 67.6094 21.068C67.4902 21.1165 67.3815 21.1895 67.2898 21.2827C67.198 21.3759 67.1251 21.4874 67.0753 21.6106C67.0256 21.7338 66.9999 21.8662 67 22Z" fill="#263238"/>
<path d="M67.0193 18.9852C67.1505 19.0916 67.8861 18.5911 68.9685 18.532C70.0509 18.4728 70.8802 18.9261 70.988 18.7921C71.0442 18.7369 70.9037 18.5438 70.5429 18.3467C70.055 18.096 69.4878 17.9764 68.917 18.0038C68.3518 18.0299 67.8108 18.2051 67.3707 18.5044C67.0521 18.733 66.9537 18.9221 67.0193 18.9852Z" fill="#263238"/>
<path d="M62.9703 27.8919C62.9703 27.8276 62.2485 27.7496 61.0787 27.6715C60.7851 27.6715 60.5013 27.6165 60.4416 27.4329C60.4002 27.1543 60.4524 26.8708 60.5909 26.6204L61.3426 24.5088C62.378 21.5068 63.1147 19.0418 62.9852 19.0005C62.8558 18.9592 61.9051 21.3645 60.8647 24.3711C60.6158 25.1117 60.3785 25.8186 60.1529 26.4918C59.9865 26.8289 59.9548 27.2094 60.0633 27.566C60.1105 27.6585 60.1798 27.74 60.266 27.8044C60.3522 27.8688 60.4531 27.9144 60.561 27.9378C60.725 27.9674 60.8918 27.9812 61.0588 27.9791C61.6974 28.0248 62.3397 27.9955 62.9703 27.8919Z" fill="#263238"/>
<path d="M66.7449 29.0002C66.5484 29.0002 66.6174 30.086 65.5232 30.9047C64.4289 31.7233 63 31.663 63 31.8181C63 31.8828 63.3293 32.012 63.9349 31.9991C64.7237 31.978 65.4773 31.7289 66.0597 31.2968C66.6153 30.8857 66.9525 30.3156 66.9999 29.7068C67.0052 29.2544 66.8352 28.9916 66.7449 29.0002Z" fill="#263238"/>
<path d="M66.0085 14.7025C66.1306 14.9215 67.211 14.7731 68.4933 14.8367C69.7756 14.9003 70.8418 15.1193 70.9874 14.9144C71.0532 14.8155 70.8606 14.6142 70.4285 14.4164C69.855 14.1684 69.2106 14.0278 68.5496 14.0067C67.8923 13.9744 67.2341 14.0591 66.6285 14.2539C66.1776 14.4164 65.9521 14.6001 66.0085 14.7025Z" fill="#263238"/>
<path d="M56.0353 15.9328C56.252 16.1097 57.0431 15.8868 58.0105 15.8407C58.978 15.7947 59.8043 15.9009 59.9807 15.6957C60.0563 15.6001 59.9102 15.4197 59.5373 15.2569C59.0451 15.0567 58.4758 14.97 57.9097 15.0092C57.3427 15.0394 56.8027 15.1913 56.3628 15.4444C56.0353 15.6497 55.9396 15.8443 56.0353 15.9328Z" fill="#263238"/>
<path d="M78 23.2969C78.1199 23.2394 82.8879 21.6951 82.9982 26.2615C83.1085 30.8279 78.1103 29.9872 78.1007 29.8545C78.0911 29.7217 78 23.2969 78 23.2969Z" fill="#FFBE9D"/>
<path d="M80.0029 27.6159C80.0245 27.6159 80.085 27.6691 80.2147 27.7311C80.402 27.8077 80.6109 27.8077 80.7982 27.7311C81.2651 27.5407 81.6628 26.7659 81.6628 25.9601C81.6669 25.5684 81.5842 25.1808 81.4207 24.8267C81.3758 24.6847 81.2981 24.5558 81.1943 24.451C81.0904 24.3462 80.9635 24.2685 80.8242 24.2246C80.7374 24.2084 80.6478 24.2223 80.5696 24.264C80.4913 24.3056 80.4288 24.3728 80.3919 24.4548C80.3357 24.5832 80.366 24.6762 80.34 24.685C80.3141 24.6939 80.2449 24.6098 80.2752 24.4194C80.2974 24.3052 80.3569 24.2022 80.4438 24.1272C80.5674 24.0315 80.7218 23.9872 80.876 24.0032C81.0604 24.0364 81.2334 24.1172 81.3787 24.2381C81.5239 24.359 81.6366 24.5159 81.706 24.6939C81.9023 25.0855 82.0032 25.5199 81.9999 25.9601C81.9999 26.881 81.5677 27.7532 80.9063 27.9613C80.7872 27.9993 80.6613 28.0095 80.5379 27.9911C80.4145 27.9727 80.2966 27.9262 80.193 27.855C80.0158 27.7266 79.9899 27.6248 80.0029 27.6159Z" fill="#EB996E"/>
<path d="M57.1546 8.55118C56.3837 8.13693 58.6506 5.61456 60.5228 4.73082C63.3541 3.4006 67.695 2.54447 70.329 3.25791C73.5044 4.11864 76.1476 5.66059 77.772 8.52817C79.3401 11.4475 80.1051 14.7329 79.9884 18.0469C80.0394 19.0558 79.8208 20.0601 79.3551 20.9559C78.7081 22.0145 77.4462 22.6957 77.5196 24.141C77.543 24.4026 77.5145 24.6662 77.4357 24.9166C77.3569 25.1671 77.2295 25.3994 77.0608 25.6001C76.2072 26.5207 75.1335 25.6784 74.6379 24.8176C73.5687 22.9765 73.4264 20.7487 73.3071 18.613C73.2245 17.0987 73.1419 15.5521 73.5503 14.093C73.7706 13.2967 74.1331 12.5418 74.3121 11.7364C74.4254 11.3389 74.4512 10.9214 74.3879 10.5129C74.3245 10.1044 74.1734 9.71463 73.945 9.37049C73.8278 9.22917 73.6972 9.09968 73.5549 8.98385C72.8868 8.41371 72.0795 8.03222 71.2158 7.87852C70.3521 7.72483 69.4632 7.80449 68.6403 8.10931C65.9834 9.08972 61.4497 10.5626 60.2475 9.66968C58.4854 8.38548 58.0724 7.55236 58.0724 7.55236L57.1546 8.55118Z" fill="#263238"/>
<path d="M70.1324 2.59621C68.8043 2.11956 67.3997 1.92559 66 2.02555C64.6004 2.1255 63.2334 2.5174 61.9783 3.17853C60.6684 3.91875 59.4942 5.0883 59.1106 6.59835C58.7269 8.10841 59.3585 9.9639 60.7433 10.5462L60.8368 10.6054C62.9046 11.3111 64.2426 11.0002 66.2869 10.2254C68.0085 9.56911 69.5336 8.42424 71.2552 7.75804C73.103 7.07005 75.1036 6.98068 77 7.50142C75.1587 5.25871 72.7901 3.56693 70.1324 2.59621Z" fill="#263238"/>
<path d="M80 7.59372C79.9586 7.63419 79.5772 7.13346 78.805 6.5417C78.3577 6.19811 77.8748 5.91455 77.3664 5.69705C76.7553 5.42045 76.0958 5.29775 75.436 5.33794C74.2253 5.49176 73.0785 6.01761 72.1268 6.85528C71.3914 7.49762 71.0513 8.03375 71.0099 7.99834C70.9685 7.96294 71.0605 7.8365 71.2167 7.59372C71.4385 7.25295 71.6961 6.94226 71.9843 6.66814C72.9402 5.73523 74.1376 5.1551 75.4084 5.00919C76.1158 4.96146 76.8233 5.10017 77.4721 5.4138C77.9974 5.65471 78.4906 5.97289 78.9383 6.35962C79.3696 6.6811 79.7319 7.10226 80 7.59372Z" fill="#455A64"/>
<path d="M80 9.00061C79.9626 9.48577 79.8415 9.96015 79.6426 10.4014C78.8053 12.5643 77.2628 14.3577 75.2814 15.4724C74.8882 15.7249 74.4547 15.9035 74.0011 16C73.9468 15.9066 75.9645 15.1175 77.6565 13.1143C79.3485 11.1112 79.9005 8.95858 80 9.00061Z" fill="#455A64"/>
<path d="M81.9796 10C82.0068 10.1869 82.0068 10.3773 81.9796 10.5641C81.9556 11.079 81.8892 11.5905 81.7814 12.0924C81.4346 13.7683 80.713 15.3235 79.6815 16.6186C78.65 17.9137 77.3408 18.908 75.8716 19.5123C75.4324 19.6992 74.9783 19.8413 74.5152 19.9366C74.3483 19.9911 74.1735 20.0107 74 19.9944C74 19.9366 74.7134 19.8016 75.7923 19.2954C77.2014 18.6468 78.456 17.6534 79.4598 16.3914C80.4637 15.1294 81.19 13.6324 81.5832 12.0153C81.8915 10.8003 81.9179 9.9952 81.9796 10Z" fill="#455A64"/>
<path d="M65 2.00008C65 2.05413 64.4966 2.17696 63.711 2.4914C62.6908 2.91536 61.7388 3.50029 60.8884 4.22578C60.0466 4.95671 59.3154 5.81643 58.7198 6.77575C58.2493 7.51764 58.047 8.02371 58 7.99914C58.0939 7.52087 58.2709 7.06461 58.5222 6.65291C59.0785 5.62528 59.8122 4.71409 60.6862 3.96537C61.5562 3.21228 62.5534 2.63571 63.6263 2.2654C64.064 2.08695 64.5302 1.99692 65 2.00008Z" fill="#455A64"/>
<path d="M83.9836 3.00056C84.0701 3.00056 83.8412 4.28539 82.6507 5.46315C81.4602 6.64091 80.0154 7.0649 80.0001 6.9921C79.9849 6.91929 81.272 6.40107 82.3811 5.27899C83.4901 4.1569 83.8717 2.97058 83.9836 3.00056Z" fill="#455A64"/>
<path d="M79.1971 41L93.4046 49.3493L93.4941 99.0543L97 126L49.067 125.854C49.067 125.854 48.9162 89.7679 49.067 80.1753C49.1895 73.446 49.0105 60.397 51.2865 52.3914C52.2761 48.9773 61.7901 44.5601 61.7901 44.5601C66.9736 49.1468 72.812 47.7765 79.1971 41Z" fill="#5E88FF"/>
<path opacity="0.3" d="M64 105.045C64 105.045 92.8341 118.622 96 115.546C95.0047 108.992 92.4739 86 92.4739 86L64 105.045Z" fill="black"/>
<path d="M46 92.7166H81.4118L81.5849 74.1038L97.9252 72C97.9252 72 98 90.9019 98 97.1062C98 104.547 91.5509 109.701 86.1399 108.922C80.729 108.143 46 101.673 46 101.673V92.7166Z" fill="#FFBE9D"/>
<path d="M98.938 75.9943L80 78V55.3448C80 55.3448 81.8603 47.6919 88.3993 48.0096C94.9383 48.3273 98.7985 55.5487 98.938 62.1632C99.0775 68.7777 98.938 75.9943 98.938 75.9943Z" fill="#5E88FF"/>
<path d="M53 50C53 50 46.8274 53.9987 45.1719 58.4019C43.4359 63.0236 41 78 41 78H49.6606L53 50Z" fill="#5E88FF"/>
<path d="M79.8498 56C79.8962 56.2745 79.8962 56.5505 79.8498 56.825C79.8498 57.3987 79.7659 58.1574 79.71 59.0772C79.5888 60.9738 79.4769 63.6006 79.4955 66.5024C79.5142 69.4042 79.6634 72.0262 79.8032 73.9275C79.8685 74.8426 79.9244 75.6013 79.971 76.175C80.0097 76.4496 80.0097 76.7253 79.971 77C79.8585 76.7299 79.7899 76.4556 79.7659 76.1797C79.6727 75.6534 79.5608 74.8853 79.4489 73.9323C79.2252 72.0357 79.0201 69.4089 79.0014 66.5024C78.9828 63.5958 79.1506 60.9691 79.3557 59.0677C79.4582 58.1194 79.5608 57.3513 79.6447 56.8203C79.6773 56.5448 79.7458 56.2708 79.8498 56Z" fill="#263238"/>
<path d="M89 48.3018C89 48.3509 88.348 48.1691 87.2962 48.1888C85.9279 48.2053 84.5894 48.6041 83.423 49.3427C82.2566 50.0813 81.3058 51.1322 80.6715 52.3837C80.1956 53.3416 80.0433 54.0145 80.0004 53.9998C79.9963 53.8326 80.0221 53.666 80.0766 53.5086C80.1839 53.0856 80.3305 52.6744 80.5144 52.2805C81.1274 50.9705 82.0929 49.8704 83.2956 49.1116C84.4982 48.3529 85.8871 47.9677 87.2962 48.0021C87.7204 48.0108 88.1427 48.0618 88.5574 48.1544C88.7113 48.1801 88.8606 48.2297 89 48.3018Z" fill="#263238"/>
<path d="M49.3374 61C49.3579 61.0831 49.3658 61.1689 49.3608 61.2544L49.3842 61.9847C49.3842 62.6161 49.3842 63.5302 49.3842 64.661C49.3842 66.9226 49.3468 70.0511 49.2813 73.5C49.2159 76.9489 49.1504 80.0445 49.1084 82.3391C49.1084 83.4416 49.0663 84.3462 49.0522 85.0153C49.0522 85.3074 49.0522 85.5477 49.0289 85.7456C49.031 85.8313 49.0216 85.9169 49.0008 86C48.9973 85.9083 49.0051 85.8165 49.0242 85.7267V84.9964C49.0242 84.3651 49.0242 83.4463 49.0242 82.3155C49.0242 80.0539 49.0616 76.9301 49.1271 73.4764C49.1925 70.0228 49.2533 66.9367 49.3 64.6421C49.3234 63.5396 49.3421 62.6302 49.3562 61.9612C49.3562 61.6691 49.3561 61.4288 49.3795 61.2356C49.3571 61.1588 49.343 61.0798 49.3374 61Z" fill="#263238"/>
<path d="M32.5689 89.2153L35.4274 87.4654C35.9102 87.1667 36.4659 87.0058 37.0341 87H42.5689L48.2905 92.1893L50 93.041L49.3648 102L45.6282 101.535C45.6282 101.535 37.688 101.874 36.922 101.362C36.156 100.85 35.0537 99.2401 35.0537 99.2401C35.0537 99.2401 30.6913 97.8439 30.2709 97.453C29.739 96.9948 29.3962 96.3564 29.3088 95.6612L28.5661 95.3261C28.426 95.5867 27.3424 93.8275 27.4545 92.9432C27.5199 92.4313 27.3704 92.4313 27.3704 92.4313C27.009 92.2987 26.6906 92.0705 26.4495 91.7712C26.2084 91.4719 26.0537 91.1128 26.0019 90.7325C25.9272 90.2066 28.0757 90.323 28.0757 90.323L33.4517 90.3928L32.5689 89.2153Z" fill="#FFBE9D"/>
<path d="M36 90.8428L30.475 83H19V84.0143L24.7809 91L36 90.8428Z" fill="#455A64"/>
<path d="M35 93.7819C34.6178 93.9033 34.2226 93.963 33.8258 93.9594C32.8713 94.0256 31.9137 94.0108 30.961 93.915C30.008 93.8216 29.0621 93.6511 28.1303 93.4048C27.7403 93.3235 27.3606 93.1876 27 93C27.3944 93.0283 27.7857 93.097 28.1693 93.2052C28.8855 93.3494 29.8794 93.5213 30.9805 93.6267C32.0816 93.732 33.0901 93.7598 33.821 93.7598C34.2138 93.7303 34.6082 93.7377 35 93.7819Z" fill="#EB996E"/>
<path d="M37 96.7809C36.6156 96.8985 36.2195 96.9585 35.8217 96.9594C33.9124 97.0908 31.9965 96.9029 30.1345 96.4016C29.7435 96.3213 29.3625 96.1864 29 96C29.3942 96.0245 29.7855 96.0917 30.1686 96.2008C30.8844 96.3458 31.8777 96.5188 32.983 96.6303C34.0883 96.7419 35.0913 96.7642 35.8168 96.7586C36.211 96.7272 36.6069 96.7346 37 96.7809Z" fill="#EB996E"/>
<path d="M26.0124 91C26.0539 91.2157 26.1086 91.4286 26.1761 91.6374C26.404 92.219 26.845 92.688 27.4061 92.9455H27.4435V92.9835C27.4308 93.6047 27.5655 94.2199 27.8364 94.7768C28.1665 95.462 28.718 96.0111 29.3985 96.3322L29.492 96.3798L29.4499 96.4654C29.3991 96.5747 29.3728 96.6941 29.3728 96.815C29.3728 96.9359 29.3991 97.0554 29.4499 97.1647C29.5681 97.4029 29.7356 97.6122 29.941 97.7783C30.4015 98.1359 30.9062 98.4301 31.4423 98.6535C32.6277 99.1543 33.8548 99.5459 35.109 99.8236H35.1605V99.8664C35.4821 100.341 35.8608 100.772 36.2876 101.151C36.6984 101.563 37.2029 101.865 37.7562 102.031C38.1841 102.139 38.625 102.186 39.0657 102.169L40.3846 102.202L42.9195 102.273L47.4982 102.402L52.9515 103.529L54.4715 103.862L54.8644 103.957L55 104H54.8597L54.4575 103.938L52.9328 103.662L47.4608 102.616L42.8821 102.516L40.3425 102.459L39.0236 102.426C38.5639 102.442 38.1042 102.392 37.658 102.278C37.066 102.099 36.5274 101.772 36.0912 101.327C35.6499 100.932 35.2587 100.483 34.9266 99.9901L35.0015 100.042C33.7331 99.7597 32.4931 99.3585 31.2973 98.8438C30.7453 98.6083 30.2264 98.2996 29.7539 97.9257C29.5244 97.7383 29.3391 97.501 29.2114 97.2312C29.148 97.0969 29.115 96.9498 29.115 96.8008C29.115 96.6517 29.148 96.5046 29.2114 96.3703L29.2629 96.4987C28.5463 96.1525 27.9684 95.5665 27.6259 94.8386C27.3554 94.2551 27.227 93.6139 27.2518 92.9693L27.2939 93.0311C27.0051 92.8933 26.7462 92.6982 26.5326 92.4572C26.319 92.2162 26.1548 91.9343 26.0498 91.6279C26.0002 91.4226 25.9875 91.2099 26.0124 91Z" fill="#EB996E"/>
<path d="M38 99.0199C37.5623 99.5275 37.0586 99.8263 36.5373 99.8876C36.0264 100.077 35.4964 100.026 35 99.7391C35 99.6219 35.6852 99.6844 36.5066 99.4812C37.328 99.2779 37.9561 98.9105 38 99.0199Z" fill="#EB996E"/>
<path d="M40 90.0784C39.1772 90.2295 38.3415 90.3002 37.5047 90.2895C36.6709 90.3629 35.8316 90.3519 35 90.2566C35.8231 90.1078 36.6586 90.0371 37.4953 90.0456C38.3292 89.9753 39.1682 89.9863 40 90.0784Z" fill="#EB996E"/>
<path d="M49 91.863C48.9059 91.9389 48.7896 91.984 48.6675 91.9919C48.3379 92.0257 48.006 91.9532 47.7232 91.7857C47.3263 91.5344 46.9551 91.2467 46.6149 90.9265L45.3205 89.831L42.9576 87.8592C42.6125 87.6011 42.292 87.3136 42 87C42.3753 87.2085 42.73 87.4501 43.0595 87.7217C43.6935 88.1943 44.5535 88.8687 45.4756 89.6463C45.9189 90.0372 46.3623 90.411 46.7612 90.759C47.0837 91.0742 47.4337 91.3616 47.8075 91.6182C48.0594 91.7851 48.3579 91.8735 48.6631 91.8716C48.8759 91.8974 48.9911 91.8458 49 91.863Z" fill="#EB996E"/>
<g opacity="0.3">
<path opacity="0.3" d="M162.434 117.233C161.084 112.983 159.471 108.822 157.604 104.775C156.994 103.456 156.357 101.894 157.036 100.607C157.309 100.094 157.771 99.6743 157.983 99.1475C158.307 98.3315 157.983 97.413 157.674 96.5971C154.748 89.1885 150.579 82.0176 144.271 77.2386C143.665 76.7311 142.968 76.3464 142.218 76.1056C141.841 75.9895 141.442 75.9688 141.055 76.0452C140.668 76.1216 140.306 76.2929 140 76.5439L159.134 126.833C159.388 127.118 164.334 126.954 164.967 126.945C165.332 126.936 162.55 117.587 162.434 117.233Z" fill="black"/>
</g>
<path d="M105 73.5919L108.63 72.4761L124.436 72L128 72.9859L127.53 81.7916L119.468 87L111.653 86.8413L106.732 82.3014L105.645 77.7999L105 73.5919Z" fill="#FFBE9D"/>
<path d="M149.352 87.1479C148.422 85.18 147.372 83.2732 146.208 81.4385C144.329 78.5123 141.456 76.3895 138.135 75.4746L125.52 72C125.52 72 124.865 84.7953 116.189 84.7953C107.512 84.7953 105.822 72.8062 105.822 72.8062L91.2188 78.7135C90.7172 78.9115 87.3312 80.0996 83.3925 88.6754C79.6396 96.8457 78 101.023 78 101.023L93.0396 105.431L93.9685 119.16L93.6527 127L139.296 126.901L139.045 117.943L139.236 104.205L139.807 105.148L155 98.9625C155 98.9625 153.049 94.8703 149.352 87.1479Z" fill="#5E88FF"/>
<path d="M140.145 105C140.24 104.948 140.339 104.901 140.44 104.861L141.304 104.5L144.553 103.181L155.771 98.713L155.715 98.875C154.803 97.162 153.822 95.3148 152.812 93.4074L148.605 85.537C147.259 83.1574 146.222 80.8704 144.712 79.4352C143.548 78.2776 142.183 77.3367 140.683 76.6574C140.155 76.4167 139.748 76.2593 139.444 76.1574L139.112 76.0463L139 76H139.117L139.458 76.0926C139.888 76.2245 140.311 76.3791 140.725 76.5556C142.252 77.2058 143.645 78.1303 144.833 79.2824C145.644 80.0891 146.338 81.0038 146.895 82C147.507 83.0602 148.138 84.1991 148.802 85.3982C150.125 87.8056 151.555 90.4583 153.046 93.2685L155.939 98.7361L156 98.8519L155.878 98.8981L144.632 103.292L141.36 104.546L140.482 104.87C140.374 104.923 140.261 104.967 140.145 105Z" fill="#263238"/>
<path d="M139.456 95C139.522 95 139.484 99.9258 139.363 106.002C139.242 112.079 139.097 117 139.032 117C138.967 117 139.004 112.074 139.121 105.998C139.237 99.9211 139.41 95 139.456 95Z" fill="#263238"/>
<path d="M90 79C89.9392 79.0559 89.8727 79.1053 89.8018 79.1474L89.5517 79.3139L89.2356 79.5659C88.5811 80.1356 87.9879 80.7732 87.466 81.4681C85.7756 83.7938 84.2973 86.2688 83.0492 88.8628C81.5297 91.873 80.2934 94.6739 79.4204 96.7045C78.9957 97.6984 78.6465 98.5163 78.3917 99.1202L78.1085 99.7765C78.0778 99.8535 78.0415 99.9282 78 100C78.0092 99.9161 78.0315 99.8343 78.0661 99.7575C78.1274 99.5768 78.2076 99.3533 78.302 99.0822C78.5191 98.502 78.84 97.6556 79.2458 96.6379C80.081 94.5883 81.289 91.7731 82.8132 88.7486C84.0671 86.1411 85.5751 83.6656 87.315 81.3587C87.8548 80.6646 88.4741 80.0373 89.16 79.4898L89.4951 79.252L89.7593 79.1046C89.8338 79.0576 89.915 79.0223 90 79Z" fill="#263238"/>
<path d="M91 93C91.0652 93.1569 91.1126 93.3231 91.141 93.4944C91.2193 93.8148 91.3212 94.2863 91.4426 94.8676C91.6815 96.0303 91.9831 97.6461 92.2612 99.4451C92.5393 101.244 92.7391 102.878 92.8605 104.068C92.9193 104.663 92.9624 105.144 92.9859 105.478C93.0047 105.651 93.0047 105.827 92.9859 106C92.9391 105.833 92.9076 105.662 92.8919 105.487C92.8409 105.107 92.7744 104.64 92.6999 104.091C92.5433 102.91 92.3082 101.281 92.0419 99.4863C91.7755 97.6919 91.4896 96.0715 91.2859 94.9088C91.1919 94.3595 91.1136 93.8972 91.047 93.5356C91.0155 93.3594 90.9997 93.1799 91 93Z" fill="#263238"/>
<path d="M132 56.3494C131.285 56.7609 130.324 56.2312 130.001 55.4602C129.74 54.6559 129.766 53.7824 130.075 52.9961C130.382 52.2164 130.596 51.4018 130.712 50.5698C130.741 49.8045 130.529 49.0499 130.108 48.4173C129.686 47.7846 129.078 47.3073 128.372 47.0556C128.703 46.7596 128.972 46.3981 129.163 45.993C129.355 45.5878 129.464 45.1472 129.485 44.6976C129.506 44.248 129.439 43.7987 129.286 43.3765C129.134 42.9544 128.9 42.5681 128.598 42.2409C128.003 41.6496 127.213 41.328 126.507 40.8645C126.113 40.596 125.745 40.2887 125.408 39.947C126.03 40.1043 126.676 40.1252 127.306 40.0085C127.811 39.8938 128.28 39.6503 128.669 39.3006C129.057 38.9509 129.354 38.5062 129.53 38.0078C129.696 37.5048 129.721 36.9642 129.602 36.4475C129.483 35.9308 129.224 35.4587 128.857 35.0849C128.478 34.7232 128.001 34.4879 127.489 34.4102C126.977 34.3324 126.455 34.416 125.99 34.6498C125.095 35.1227 124.605 36.1396 124.144 37.0808L123.738 37.9511C122.473 36.2342 121.282 34.4606 119.329 33.8552C117.561 33.3113 115.66 33.9214 113.813 33.7842C112.47 33.6849 111.182 33.1883 109.844 33.037C108.505 32.8856 106.982 33.1788 106.192 34.295C105.731 34.9525 105.583 35.8038 105.112 36.4518C104.143 37.7997 102.057 37.9794 101.258 39.4409C100.612 40.628 101.11 42.1273 100.829 43.4564C100.529 44.8753 99.3655 45.9536 98.4146 47.0651C97.4637 48.1766 96.6328 49.6995 97.1683 51.0759C97.6299 52.2819 99.0147 52.9346 99.4763 54.1501C99.804 55.0393 99.5686 56.042 99.5501 56.9879C99.5316 57.9339 99.9055 59.0642 100.806 59.2771L111.09 62.0392C114.626 63.5101 118.272 65.0094 122.09 65C125.907 64.9905 129.978 63.1081 131.483 59.5277C130.926 59.5018 130.4 59.2601 130.011 58.8514C130.502 58.6105 130.935 58.2612 131.279 57.8286C131.623 57.3961 131.869 56.891 132 56.3494Z" fill="#263238"/>
<path d="M123.704 59C124.619 56.4176 125.31 53.7613 125.771 51.0605C126.225 48.3477 126.002 45.5647 125.12 42.9593C124.973 42.5716 123.736 39.9589 123.331 40.0005C123.035 40.0328 123.792 42.4654 123.644 42.7239C122.219 45.1704 121.831 48.1108 122.062 50.9312C122.306 53.6738 122.857 56.3803 123.704 59Z" fill="#263238"/>
<path d="M114.609 82.9999C118.873 82.9102 123.712 73.4186 123.712 73.4186L123.991 49.038C124.214 42.0161 120.386 36.0331 113.486 36L112.846 36.0331C109.749 36.2016 106.829 37.5508 104.666 39.8119C102.502 42.0731 101.255 45.0804 101.172 48.2352C101.01 54.3221 100.908 61.0465 101.121 64.2906C101.557 71.015 108.225 71.7045 108.225 71.7045C108.225 71.7045 108.262 73.2628 108.285 75.2414C108.331 79.685 112.897 83.1463 114.609 82.9952V82.9999Z" fill="#FFBE9D"/>
<path d="M109 71.2102C112.243 71.0301 115.367 69.9158 118 68C118 68 116.035 73.2481 109.029 72.9908L109 71.2102Z" fill="#EB996E"/>
<path d="M104 53.0154C104.01 53.2864 104.123 53.5421 104.314 53.7265C104.504 53.9109 104.757 54.009 105.017 53.9993C105.274 53.9994 105.52 53.895 105.704 53.7083C105.887 53.5215 105.994 53.2674 106 53C105.997 52.8645 105.968 52.731 105.915 52.6072C105.862 52.4834 105.786 52.3718 105.691 52.2789C105.597 52.186 105.485 52.1135 105.364 52.0657C105.242 52.018 105.113 51.9959 104.983 52.0006C104.724 52.0006 104.475 52.1072 104.291 52.2972C104.107 52.4872 104.003 52.7453 104 53.0154Z" fill="#263238"/>
<path d="M103.019 50.9862C103.152 51.0907 103.885 50.5684 104.969 50.535C106.053 50.5016 106.88 50.9068 106.989 50.7899C107.043 50.7397 106.904 50.5434 106.543 50.347C106.057 50.0944 105.49 49.9747 104.919 50.0044C104.355 50.0269 103.814 50.2011 103.375 50.5016C103.053 50.7147 102.954 50.9403 103.019 50.9862Z" fill="#263238"/>
<path d="M114 53.0003C114.013 53.2718 114.126 53.5276 114.315 53.714C114.505 53.9004 114.757 54.0029 115.017 53.9999C115.274 54 115.52 53.8955 115.704 53.7087C115.887 53.522 115.994 53.2677 116 53.0003C115.997 52.8647 115.968 52.7312 115.915 52.6074C115.862 52.4836 115.786 52.372 115.691 52.279C115.597 52.186 115.485 52.1136 115.364 52.0658C115.242 52.018 115.113 51.9959 114.983 52.0006C114.726 52.0006 114.48 52.1051 114.296 52.2918C114.113 52.4786 114.006 52.7328 114 53.0003Z" fill="#263238"/>
<path d="M113.018 49.9863C113.152 50.0904 113.885 49.5699 114.969 49.5324C116.053 49.4949 116.88 49.9071 116.989 49.7906C117.043 49.7364 116.904 49.5449 116.543 49.3492C116.056 49.0977 115.49 48.9771 114.919 49.0036C114.354 49.028 113.813 49.203 113.375 49.5033C113.058 49.7323 112.954 49.9363 113.018 49.9863Z" fill="#263238"/>
<path d="M109.974 58.8918C109.361 58.7443 108.73 58.6709 108.097 58.6733C107.804 58.6733 107.521 58.615 107.464 58.4354C107.419 58.1559 107.47 57.8705 107.61 57.6196C107.846 56.9494 108.097 56.2453 108.358 55.5072C109.404 52.5062 110.115 50.0393 109.985 50.0005C109.854 49.9616 108.912 52.3702 107.893 55.3761L107.155 57.4933C106.988 57.8311 106.955 58.2129 107.061 58.5713C107.111 58.6667 107.184 58.7497 107.275 58.8138C107.366 58.878 107.472 58.9213 107.584 58.9404C107.747 58.9733 107.914 58.9864 108.081 58.9792C108.713 59.0247 109.35 58.9954 109.974 58.8918Z" fill="#263238"/>
<path d="M112.821 59.0005C112.669 59.0005 112.719 60.0807 111.899 60.9011C111.078 61.7215 110 61.6623 110 61.8127C110 61.881 110.25 62.0087 110.702 61.9995C111.291 61.9744 111.853 61.7258 112.288 61.2976C112.707 60.887 112.962 60.3165 112.998 59.707C113.015 59.2512 112.889 58.9868 112.821 59.0005Z" fill="#263238"/>
<path d="M113.009 46.7021C113.134 46.9182 114.214 46.7729 115.498 46.8363C116.782 46.8996 117.842 47.1195 117.986 46.9145C118.056 46.8139 117.862 46.6126 117.429 46.4151C116.853 46.1731 116.211 46.0329 115.552 46.0051C114.893 45.9773 114.235 46.0628 113.627 46.2548C113.174 46.4151 112.95 46.5977 113.009 46.7021Z" fill="#263238"/>
<path d="M103.038 46.9314C103.256 47.1108 104.045 46.8866 105.009 46.8418C105.974 46.7969 106.805 46.8978 106.981 46.696C107.056 46.5988 106.912 46.4195 106.539 46.255C106.039 46.0596 105.468 45.9733 104.899 46.0072C104.329 46.0412 103.787 46.1939 103.342 46.4456C103.038 46.6474 102.937 46.8455 103.038 46.9314Z" fill="#263238"/>
<path d="M124 53.2971C124.122 53.2409 128.892 51.6923 128.998 56.2633C129.105 60.8343 124.112 59.9828 124.101 59.8565C124.091 59.7301 124 53.2971 124 53.2971Z" fill="#FFBE9D"/>
<path d="M126.005 58.6332C126.005 58.6332 126.085 58.6894 126.22 58.7456C126.41 58.8239 126.623 58.8239 126.813 58.7456C127.281 58.5583 127.682 57.809 127.687 56.9613C127.688 56.5684 127.604 56.1799 127.439 55.8233C127.392 55.6817 127.312 55.5534 127.206 55.4492C127.099 55.3449 126.97 55.2676 126.827 55.2238C126.735 55.2013 126.638 55.2119 126.552 55.2538C126.467 55.2957 126.399 55.3663 126.36 55.4533C126.299 55.5844 126.332 55.6734 126.309 55.6828C126.285 55.6921 126.206 55.6078 126.239 55.4205C126.263 55.306 126.325 55.2034 126.416 55.1301C126.477 55.0814 126.546 55.0451 126.621 55.0234C126.695 55.0017 126.774 54.995 126.851 55.0037C127.039 55.0361 127.215 55.1164 127.363 55.237C127.511 55.3576 127.626 55.5143 127.696 55.6921C127.897 56.085 128.001 56.5201 128 56.9613C128 57.8979 127.533 58.755 126.883 58.961C126.762 58.9994 126.633 59.0096 126.507 58.9909C126.381 58.9723 126.26 58.9252 126.155 58.8533C126.015 58.7456 125.986 58.6426 126.005 58.6332Z" fill="#EB996E"/>
<path d="M104.148 40.295C103.41 39.8997 105.578 37.5042 107.37 36.6483C110.081 35.3785 114.231 34.5599 116.751 35.2529C119.783 36.0716 122.322 37.5461 123.868 40.2857C125.367 43.0748 126.099 46.2132 125.989 49.3792C126.038 50.3466 125.83 51.3097 125.386 52.17C124.764 53.184 123.557 53.8305 123.626 55.2167C123.645 55.4685 123.614 55.7216 123.534 55.9611C123.455 56.2007 123.328 56.422 123.162 56.6121C122.345 57.5051 121.305 56.6865 120.841 55.8632C119.825 54.0957 119.685 51.9746 119.569 49.9373C119.49 48.4908 119.411 47.0116 119.801 45.6162C120.015 44.858 120.363 44.1371 120.53 43.3649C120.639 42.9854 120.664 42.5866 120.604 42.1963C120.544 41.806 120.4 41.4334 120.182 41.1044C120.07 40.9705 119.946 40.8475 119.811 40.7369C119.171 40.1919 118.399 39.8271 117.573 39.6799C116.746 39.5328 115.896 39.6086 115.108 39.8997C112.569 40.8299 108.229 42.2253 107.077 41.3927C105.425 40.1648 105.021 39.3554 105.021 39.3554L104.148 40.295Z" fill="#263238"/>
<path d="M116.534 34.5306C115.278 34.1067 113.95 33.9341 112.626 34.0225C111.303 34.111 110.01 34.4589 108.823 35.046C107.583 35.7054 106.483 36.7456 106.109 38.0922C105.735 39.4389 106.343 41.0827 107.653 41.5935L107.742 41.6492C109.698 42.2761 110.961 42.0021 112.889 41.3056C114.512 40.7251 115.954 39.7035 117.568 39.1324C119.315 38.5196 121.207 38.4404 123 38.9049C121.268 36.9093 119.038 35.4007 116.534 34.5306Z" fill="#263238"/>
<path d="M126 39.6291C125.961 39.6666 125.579 39.1692 124.813 38.5595C124.362 38.2139 123.874 37.9302 123.36 37.7146C122.747 37.4354 122.085 37.3129 121.423 37.3562C120.218 37.5054 119.075 38.0262 118.125 38.859C117.393 39.5008 117.054 40.0356 117.011 39.9981C116.967 39.9607 117.059 39.8377 117.214 39.597C117.438 39.2567 117.694 38.9446 117.979 38.6665C118.935 37.7369 120.128 37.1577 121.394 37.0086C122.1 36.9625 122.805 37.1018 123.452 37.4151C123.974 37.6547 124.463 37.9733 124.905 38.3617C125.354 38.685 125.729 39.1188 126 39.6291Z" fill="#455A64"/>
<path d="M126 41.0007C125.96 41.4799 125.838 41.9481 125.641 42.3837C124.802 44.5515 123.261 46.3495 121.283 47.4696C120.89 47.724 120.455 47.9036 120.001 48C119.948 47.9058 121.962 47.1127 123.661 45.1051C125.359 43.0975 125.904 40.9561 126 41.0007Z" fill="#455A64"/>
<path d="M127.978 42C128.007 42.1686 128.007 42.3407 127.978 42.5093C127.952 42.973 127.885 43.4335 127.778 43.8858C127.43 45.3925 126.708 46.7907 125.678 47.9557C124.647 49.1206 123.34 50.0159 121.872 50.5617C121.432 50.7296 120.977 50.8571 120.512 50.9425C120.346 50.9885 120.173 51.0071 120 50.9976C120 50.9425 120.713 50.8186 121.789 50.3644C123.194 49.7829 124.446 48.8921 125.447 47.7604C126.449 46.6287 127.175 45.286 127.569 43.8353C127.899 42.7204 127.923 41.9954 127.978 42Z" fill="#455A64"/>
<path d="M112 34C111.579 34.1647 111.148 34.3085 110.709 34.4306C108.658 35.1364 106.915 36.3786 105.723 37.9832C105.264 38.599 105.05 39.0167 105 38.9995C105.085 38.6043 105.254 38.2261 105.499 37.8842C106.624 36.1666 108.447 34.8703 110.614 34.2454C111.054 34.0892 111.524 34.0059 112 34Z" fill="#455A64"/>
<path d="M128.988 35.0005C129.052 35.0005 128.883 36.2827 127.99 37.4607C127.098 38.6388 126.012 39.0647 126 38.9922C125.988 38.9197 126.957 38.4032 127.789 37.2704C128.62 36.1377 128.911 34.9733 128.988 35.0005Z" fill="#455A64"/>
<path d="M78.9865 101L72.93 113.175C72.2539 114.534 71.9372 116.043 72.0103 117.559C72.1202 119.835 73.1003 121.981 74.7476 123.552C76.3949 125.124 78.583 126 80.8582 126L98.2274 125.01L99 117.062L85.7834 113.871L90.7959 104.389L78.9865 101Z" fill="#FFBE9D"/>
<path d="M85.9999 114.282C85.9999 114.342 85.382 114.232 84.3887 114.237C83.0943 114.264 81.8117 114.503 80.5865 114.947C79.3626 115.377 78.2156 116.023 77.1931 116.855C76.4184 117.5 76.0524 118.034 76.0096 117.998C75.9668 117.963 76.0714 117.847 76.233 117.601C76.4776 117.264 76.753 116.953 77.0552 116.674C78.0631 115.764 79.2286 115.071 80.4867 114.634C81.736 114.177 83.0533 113.964 84.3744 114.005C84.772 114.023 85.1677 114.073 85.5579 114.156C85.8573 114.216 86.0046 114.257 85.9999 114.282Z" fill="#EB996E"/>
<path d="M74 111C74.0165 110.852 74.0526 110.706 74.1074 110.568C74.188 110.295 74.3268 109.905 74.5103 109.432C75.0078 108.2 75.5758 107 76.2113 105.838C76.9499 104.474 77.6526 103.268 78.154 102.391C78.4087 101.91 78.6913 101.446 79 101C78.9637 101.145 78.908 101.284 78.8344 101.413C78.718 101.673 78.5345 102.039 78.2972 102.489C77.8496 103.389 77.1513 104.613 76.4172 105.972C75.6831 107.331 75.0743 108.583 74.6625 109.511C74.2507 110.439 74.0448 111.014 74 111Z" fill="#EB996E"/>
<path d="M91 105C90.9488 105.332 90.8585 105.655 90.7314 105.961C90.1901 107.48 89.4738 108.916 88.6001 110.231C88.4335 110.517 88.2324 110.775 88.0024 111C87.9504 110.952 88.7691 109.713 89.5921 108.05C90.4152 106.388 90.935 105 91 105Z" fill="#EB996E"/>
<path d="M154.578 99C154.578 99 158.403 110.549 162.564 121.047C162.648 121.261 162.742 121.646 162.817 121.865C163.752 124.464 160.946 127 158.075 127L134 126.962V118.996L148.962 115.76L143.539 103.502L154.578 99Z" fill="#FFBE9D"/>
<path d="M157.999 117.996C157.966 118.043 157.502 117.638 156.675 117.11C154.511 115.747 152.028 115.126 149.543 115.326C148.613 115.408 148.009 115.551 148 115.495C148.122 115.417 148.256 115.363 148.395 115.336C148.765 115.223 149.143 115.14 149.524 115.09C150.786 114.92 152.066 114.991 153.306 115.3C154.545 115.608 155.726 116.153 156.795 116.91C157.122 117.134 157.433 117.386 157.725 117.663C157.906 117.863 158.013 117.981 157.999 117.996Z" fill="#EB996E"/>
<path d="M154 99C154.058 99.0869 154.104 99.1802 154.138 99.2778L154.482 100.093L155.703 103.102L159.639 113.06C160.387 115.009 161.165 116.847 161.794 118.546C162.109 119.394 162.405 120.204 162.66 120.968C162.724 121.157 162.788 121.347 162.847 121.532C162.907 121.718 162.936 121.917 162.98 122.102C163.025 122.287 162.98 122.486 162.98 122.667C162.953 122.845 162.912 123.022 162.857 123.194C162.631 123.786 162.244 124.311 161.735 124.718C161.366 125.027 160.959 125.296 160.525 125.519C160.254 125.665 159.973 125.793 159.683 125.903C159.584 125.944 159.48 125.977 159.373 126C159.465 125.945 159.56 125.898 159.659 125.856C159.851 125.769 160.151 125.634 160.471 125.44C160.891 125.207 161.282 124.93 161.637 124.616C162.115 124.218 162.476 123.711 162.685 123.144C162.733 122.981 162.767 122.815 162.788 122.648C162.788 122.481 162.788 122.301 162.788 122.125C162.788 121.949 162.71 121.773 162.656 121.588L162.464 121.028C162.198 120.273 161.898 119.468 161.573 118.62C160.938 116.931 160.151 115.097 159.403 113.144L155.535 103.162C155.043 101.898 154.674 100.87 154.394 100.125L154.098 99.3194C154.056 99.2157 154.023 99.1089 154 99Z" fill="#EB996E"/>
<path d="M143.52 104C143.52 104 143.572 104.069 143.637 104.202L143.934 104.793L144.979 106.994C145.85 108.861 147.037 111.438 148.336 114.295C148.543 114.753 148.746 115.212 148.944 115.638L149 115.767L148.859 115.799L141.853 117.404L139.763 117.862C139.512 117.925 139.257 117.971 139 118C139.241 117.906 139.49 117.832 139.744 117.78L141.815 117.262L148.802 115.57L148.722 115.735L148.11 114.391C146.811 111.539 145.648 108.943 144.815 107.054L143.84 104.825L143.59 104.211C143.559 104.143 143.536 104.073 143.52 104Z" fill="#EB996E"/>
<path d="M95.8623 117.556H99.3603C99.3603 117.556 107.224 114.765 108.841 115.016C110.297 115.258 115.629 118.738 116.676 119.445C116.792 119.524 116.88 119.636 116.93 119.766C117.032 120.04 117.022 120.342 116.904 120.609C116.785 120.876 116.567 121.087 116.294 121.199L116.181 121.245L116.228 121.399C116.292 121.602 116.32 121.815 116.308 122.027C116.292 122.184 116.227 122.332 116.122 122.451C116.016 122.57 115.876 122.654 115.72 122.69C115.564 122.726 115.401 122.714 115.253 122.654C115.105 122.595 114.979 122.491 114.894 122.357L115.096 122.706C115.177 122.848 115.216 123.009 115.209 123.171V123.492C115.199 123.666 115.136 123.833 115.028 123.97C114.921 124.108 114.774 124.211 114.606 124.265C114.447 124.316 114.276 124.321 114.113 124.279C113.951 124.237 113.805 124.15 113.691 124.027C113.013 123.292 111.551 121.822 110.566 121.659C109.495 121.532 108.416 121.479 107.337 121.501C107.117 121.502 106.903 121.569 106.722 121.691C106.542 121.814 106.403 121.988 106.323 122.19C106.908 122.232 110.995 124.334 112.452 125.088C112.675 125.197 112.868 125.359 113.014 125.558C113.161 125.757 113.255 125.989 113.291 126.233C113.343 126.698 113.116 127.163 112.221 126.944C110.297 126.502 106.842 124.93 106.842 124.93C106.842 124.93 105.06 124.427 103.905 125.232C102.278 126.363 101.548 126.782 100.133 126.321C99.2842 126.042 98.4697 125.669 97.7056 125.209L94.9572 124.939C94.9572 124.939 92.2889 118.538 95.8623 117.556Z" fill="#FFBE9D"/>
<path d="M106 118.332C106 118.365 106.575 118.188 107.525 118.132C108.763 118.053 110.004 118.253 111.145 118.718C112.287 119.182 113.297 119.897 114.094 120.805C114.708 121.502 114.971 122.014 115 122C114.951 121.874 114.891 121.753 114.82 121.637C114.632 121.323 114.418 121.023 114.181 120.74C113.392 119.798 112.37 119.057 111.206 118.584C110.043 118.111 108.775 117.921 107.515 118.03C107.137 118.059 106.762 118.12 106.395 118.211C106.259 118.237 106.126 118.277 106 118.332Z" fill="#EB996E"/>
<path d="M107 116.414C107.846 116.129 108.741 116.052 109.618 116.189C110.495 116.326 111.333 116.674 112.067 117.207C113.121 117.934 114.082 118.806 114.926 119.801L115.701 120.679C115.795 120.792 115.894 120.9 116 121C115.926 120.87 115.84 120.749 115.743 120.639C115.575 120.418 115.318 120.097 114.996 119.711C114.167 118.683 113.204 117.789 112.138 117.057C111.054 116.33 109.795 115.963 108.518 116.003C108.132 116.022 107.75 116.096 107.383 116.224C107.285 116.258 107.188 116.299 107.093 116.344C107.059 116.362 107.027 116.385 107 116.414Z" fill="#EB996E"/>
<path d="M139.122 117.551H135.639C135.639 117.551 127.772 114.761 126.155 115.017C124.699 115.254 119.367 118.736 118.326 119.443C118.208 119.517 118.118 119.629 118.071 119.759C117.968 120.032 117.977 120.335 118.096 120.602C118.215 120.869 118.434 121.08 118.707 121.191L118.816 121.238L118.769 121.391C118.709 121.595 118.681 121.807 118.689 122.019C118.704 122.176 118.77 122.324 118.875 122.443C118.98 122.562 119.121 122.645 119.276 122.681C119.432 122.718 119.595 122.705 119.744 122.646C119.892 122.586 120.017 122.482 120.103 122.349L119.905 122.702C119.822 122.843 119.782 123.004 119.792 123.167V123.488C119.805 123.669 119.875 123.841 119.992 123.98C120.11 124.12 120.269 124.219 120.447 124.264C120.606 124.316 120.777 124.321 120.939 124.279C121.102 124.237 121.248 124.149 121.361 124.027C122.035 123.293 123.497 121.823 124.486 121.661C125.556 121.534 126.633 121.481 127.711 121.503C127.931 121.503 128.146 121.569 128.328 121.691C128.509 121.814 128.649 121.988 128.729 122.191C128.14 122.232 124.058 124.334 122.601 125.087C122.377 125.197 122.183 125.359 122.036 125.559C121.889 125.759 121.793 125.991 121.757 126.236C121.705 126.701 121.936 127.166 122.832 126.942C124.75 126.501 128.21 124.934 128.21 124.934C128.21 124.934 129.992 124.427 131.147 125.231C132.773 126.366 133.504 126.78 134.918 126.324C135.765 126.043 136.577 125.671 137.341 125.213L140.093 124.938C140.093 124.938 142.676 118.532 139.122 117.551Z" fill="#FFBE9D"/>
<path d="M129 118.332C129 118.365 128.424 118.188 127.472 118.133C126.234 118.056 124.994 118.258 123.853 118.722C122.711 119.186 121.701 119.9 120.903 120.805C120.58 121.188 120.279 121.587 120 122C120.043 121.874 120.104 121.753 120.181 121.642C120.367 121.325 120.581 121.023 120.82 120.74C121.609 119.798 122.632 119.057 123.797 118.584C124.961 118.11 126.231 117.92 127.492 118.03C127.872 118.062 128.249 118.122 128.619 118.212C128.75 118.241 128.877 118.281 129 118.332Z" fill="#EB996E"/>
<path d="M127.999 117.389C127.503 117.23 126.992 117.134 126.475 117.103C125.226 117.105 124.001 117.482 122.941 118.192C121.888 118.921 120.928 119.792 120.085 120.786L119.299 121.684C119.21 121.8 119.109 121.906 119 122C119.076 121.872 119.162 121.751 119.257 121.639C119.43 121.418 119.683 121.097 120.01 120.711C120.838 119.683 121.8 118.789 122.866 118.057C123.952 117.33 125.214 116.963 126.494 117.003C126.878 117.022 127.259 117.096 127.625 117.224C127.756 117.264 127.85 117.319 127.92 117.344C127.99 117.369 128.004 117.389 127.999 117.389Z" fill="#EB996E"/>
<path d="M134.087 127H97.9963C97.5027 126.999 97.0284 126.806 96.6716 126.461C96.3149 126.116 96.1033 125.645 96.0806 125.147L95.0018 100.023C94.9905 99.7616 95.0316 99.5008 95.1225 99.2561C95.2134 99.0114 95.3523 98.7879 95.5308 98.5989C95.7094 98.41 95.9238 98.2595 96.1614 98.1566C96.3989 98.0536 96.6545 98.0004 96.9129 98H135.087C135.345 97.9998 135.601 98.0524 135.838 98.1548C136.076 98.2572 136.29 98.4073 136.469 98.5959C136.648 98.7844 136.786 99.0077 136.877 99.2521C136.968 99.4965 137.009 99.7571 136.998 100.018L135.989 125.137C135.969 125.635 135.76 126.106 135.406 126.453C135.052 126.8 134.58 126.996 134.087 127Z" fill="#E0E0E0"/>
<path d="M118 113C118 113.396 117.883 113.782 117.663 114.111C117.443 114.44 117.131 114.696 116.765 114.848C116.4 114.999 115.998 115.039 115.61 114.962C115.222 114.884 114.865 114.694 114.586 114.414C114.306 114.135 114.116 113.778 114.038 113.39C113.961 113.002 114.001 112.6 114.152 112.235C114.304 111.869 114.56 111.557 114.889 111.337C115.218 111.117 115.604 111 116 111C116.53 111 117.039 111.211 117.414 111.586C117.789 111.961 118 112.47 118 113Z" fill="white"/>
<path d="M13.4989 61.0959L34.1591 61C34.2391 60.9987 34.3165 61.0302 34.3744 61.0876C34.4323 61.145 34.4661 61.2238 34.4685 61.3068L34.9997 75.6644C35.0016 75.7082 34.9948 75.7519 34.9798 75.7928C34.9648 75.8338 34.9419 75.8712 34.9125 75.9026C34.8831 75.934 34.8478 75.9589 34.8088 75.9756C34.7697 75.9924 34.7278 76.0007 34.6856 76L13.3049 75.7315C13.2642 75.7309 13.2241 75.7219 13.1868 75.7052C13.1495 75.6885 13.1157 75.6643 13.0874 75.634C13.0591 75.6038 13.0368 75.568 13.0218 75.5288C13.0068 75.4896 12.9994 75.4477 13 75.4055L13.194 61.4123C13.194 61.3284 13.2261 61.2479 13.2833 61.1886C13.3405 61.1293 13.418 61.0959 13.4989 61.0959Z" fill="#5E88FF"/>
<path d="M13 61L22.9704 53.2482C23.1741 53.0877 23.4289 53 23.6917 53C23.9546 53 24.2094 53.0877 24.413 53.2482L34 60.9029" fill="#5E88FF"/>
<g opacity="0.3">
<path opacity="0.3" d="M16 61L23.5911 55.1853C23.7461 55.0654 23.9398 55 24.1394 55C24.3391 55 24.5327 55.0654 24.6877 55.1853L32 60.928" fill="black"/>
</g>
<g opacity="0.5">
<path opacity="0.5" d="M34 61L23.4316 70L13 61.0978" fill="black"/>
</g>
<path d="M14.0187 62.5771L14 58L32.972 58.0548L33 62.7552L23.605 70L14.0187 62.5771Z" fill="#FAFAFA"/>
<path d="M14.0466 62.5982L14.2235 62.7306L14.7311 63.1233L16.673 64.621L23.6257 70L33 62.758C33 62.0913 33 61.3881 33 60.6621C33 59.7808 33 58.9087 33 58.0548L14.0233 58.032C14.0233 59.4795 14.0233 60.621 14.0233 61.4064V62.5982C14.0233 62.5982 14.0233 62.5708 14.0233 62.5205V62.2877C14.0233 62.0868 14.0233 61.7854 14.0233 61.3744C14.0233 60.5936 14.0233 59.4475 14 58L32.9395 58.0457C32.9395 58.8995 32.9395 59.7717 32.9395 60.653C32.9395 61.3699 32.9395 62.0822 32.9395 62.7489L23.5605 69.9817L16.6078 64.589L14.6799 63.0868L14.1723 62.6895L14.0466 62.5982Z" fill="#263238"/>
<path d="M28 61.0118C28 61.0118 25.9858 61.0399 23.5 61.0539C21.0142 61.0679 19 61.0539 19 61.0539C19 61.0539 21.0142 61.0212 23.5 61.0072C25.9858 60.9931 28 61.0025 28 61.0118Z" fill="#263238"/>
<path d="M30 63.0118C30 63.0118 27.0922 63.0399 23.5 63.0492C19.9078 63.0586 17 63.0492 17 63.0492C17 63.0492 19.9125 63.0212 23.5 63.0072C27.0875 62.9931 30 63.0025 30 63.0118Z" fill="#263238"/>
<path d="M30 65.0088C30 65.0088 27.314 65.0369 23.9977 65.0462C20.6814 65.0556 18 65.0462 18 65.0462C18 65.0462 20.686 65.0229 23.9977 65.0088C27.3095 64.9948 30 64.9995 30 65.0088Z" fill="#263238"/>
<path d="M27 67.0047H26.7259H25.9698L23.4849 67.0327C22.5166 67.0327 21.6367 67.0327 21 67.0327L23.4849 67C24.4576 67 25.3331 67 25.9698 67H27V67.0047Z" fill="#263238"/>
<path d="M25 69.0337C25 69.0337 24.3305 69.0337 23.4974 69.0337C22.6644 69.0337 22 69.0337 22 69.0104C22 68.987 22.6695 69.0104 23.4974 69.0104C24.3254 69.0104 25 69.001 25 69.0337Z" fill="#263238"/>
<path d="M34.9993 76L34.9432 75.9769L34.775 75.889L34.13 75.5467L31.7931 74.2608L28.3158 72.3459L26.2641 71.2127L25.1798 70.6114L24.8993 70.4587C24.8105 70.4078 24.7171 70.3523 24.6236 70.3061C24.4346 70.2171 24.2328 70.1578 24.0254 70.1303C23.6108 70.0715 23.188 70.1461 22.8195 70.3431L21.7352 70.9398L19.6835 72.0776L16.2062 73.9972L13.8693 75.2831L13.229 75.6253L13.0608 75.7132L13 75.741L13.0561 75.704L13.2197 75.6068L13.8506 75.246L16.1875 73.9278L19.6507 71.9897L21.6885 70.8473L22.7728 70.2459C23.1633 70.039 23.6099 69.9597 24.0487 70.0193C24.2677 70.0499 24.4805 70.1139 24.6797 70.2089L24.9601 70.3616L25.2359 70.5142L26.3202 71.1155L28.3719 72.258L31.8399 74.1914L34.1767 75.5051L34.775 75.889L34.9385 75.9861C34.9853 75.9861 35.004 76 34.9993 76Z" fill="#263238"/>
<path d="M273 31H227V67H273V31Z" fill="white"/>
<path d="M272.944 66.9527C272.944 66.4129 272.943 52.6001 272.901 31.1039H227.094V66.9056L272.944 66.9527ZM272.944 66.9527L227.047 67M272.944 66.9527C272.944 66.9564 272.944 66.9594 272.944 66.9618V66.9622L227.047 67M272.944 66.9527C272.944 66.4126 272.963 52.5818 273 31.0425M272.944 66.9527L273 31.0425M227.047 67H227M227.047 67H227M227 67V66.9528M227 67V66.9528M227 66.9528V31.052M227 66.9528V31.052M227 31.052V31M227 31.052V31M227 31H227.056M227 31H227.056M227.056 31H272.958M227.056 31H272.958M272.958 31H273M272.958 31H273M273 31V31.0425M273 31V31.0425" fill="#263238"/>
<path d="M272.944 66.9527C272.944 66.4129 272.943 52.6001 272.901 31.1039H227.094V66.9056L272.944 66.9527ZM272.944 66.9527L227.047 67M272.944 66.9527C272.944 66.9564 272.944 66.9594 272.944 66.9618V66.9622L227.047 67M272.944 66.9527C272.944 66.4126 272.963 52.5818 273 31.0425M272.944 66.9527L273 31.0425M227.047 67H227M227.047 67H227M227 67V66.9528M227 67V66.9528M227 66.9528V31.052M227 66.9528V31.052M227 31.052V31M227 31.052V31M227 31H227.056M227 31H227.056M227.056 31H272.958M227.056 31H272.958M272.958 31H273M272.958 31H273M273 31V31.0425M273 31V31.0425" stroke="black"/>
<path d="M241.052 62C241.024 62 241 58.4159 241 54V53.9982C241 49.5832 241 46 241.052 46C241.104 46 241.104 49.5794 241.104 54C241.104 58.4206 241.08 62 241.052 62Z" fill="#263238"/>
<path d="M241.052 62C241.024 62 241 58.4159 241 54V53.9982C241 49.5832 241 46 241.052 46C241.104 46 241.104 49.5794 241.104 54C241.104 58.4206 241.08 62 241.052 62Z" stroke="black"/>
<path d="M259.052 62C259.024 62 259 58.4159 259 54V53.9982C259 49.5832 259 46 259.052 46C259.103 46 259.103 49.5785 259.103 53.9982V54C259.103 58.4206 259.085 62 259.052 62Z" fill="#263238"/>
<path d="M259.052 62C259.024 62 259 58.4159 259 54V53.9982C259 49.5832 259 46 259.052 46C259.103 46 259.103 49.5785 259.103 53.9982V54C259.103 58.4206 259.085 62 259.052 62Z" stroke="black"/>
<path d="M247.052 63C247.024 63 247 58.2982 247 52.4976C247 46.6971 247.024 42 247.052 42C247.08 42 247.103 46.7019 247.103 52.4976C247.103 58.2934 247.094 63 247.052 63Z" fill="#263238"/>
<path d="M247.052 63C247.024 63 247 58.2982 247 52.4976C247 46.6971 247.024 42 247.052 42C247.08 42 247.103 46.7019 247.103 52.4976C247.103 58.2934 247.094 63 247.052 63Z" stroke="black"/>
<path d="M234.052 63C234.024 63 234 58.2982 234 52.4976V52.4953C234 46.6958 234 42 234.052 42C234.103 42 234.103 46.7006 234.103 52.4953V52.4976C234.103 58.2934 234.085 63 234.052 63Z" fill="#263238"/>
<path d="M234.052 63C234.024 63 234 58.2982 234 52.4976V52.4953C234 46.6958 234 42 234.052 42C234.103 42 234.103 46.7006 234.103 52.4953V52.4976C234.103 58.2934 234.085 63 234.052 63Z" stroke="black"/>
<path d="M266.052 63C266.024 63 266 58.2982 266 52.4976C266 46.6971 266 42 266.052 42C266.103 42 266.103 46.7019 266.103 52.4976C266.103 58.2934 266.08 63 266.052 63Z" fill="#263238"/>
<path d="M252.052 63C252.023 63 252 57.6245 252 51V50.9974C252 44.3741 252 39 252.052 39C252.103 39 252.103 44.3694 252.103 50.9974V51C252.103 57.6292 252.08 63 252.052 63Z" fill="#263238"/>
<path d="M252.052 63C252.023 63 252 57.6245 252 51V50.9974C252 44.3741 252 39 252.052 39C252.103 39 252.103 44.3694 252.103 50.9974V51C252.103 57.6292 252.08 63 252.052 63Z" stroke="black"/>
<path d="M240.301 46.1513C240.301 46.1712 240.297 46.1909 240.29 46.2092C240.282 46.2276 240.271 46.2443 240.257 46.2583C240.243 46.2724 240.226 46.2835 240.208 46.2911C240.19 46.2987 240.17 46.3026 240.15 46.3026C240.111 46.3026 240.072 46.2867 240.044 46.2583C240.016 46.2299 240 46.1914 240 46.1513C240 46.1112 240.016 46.0727 240.044 46.0443C240.072 46.0159 240.111 46 240.15 46C240.17 46 240.19 46.0039 240.208 46.0115C240.226 46.0191 240.243 46.0303 240.257 46.0443C240.271 46.0584 240.282 46.0751 240.29 46.0934C240.297 46.1118 240.301 46.1314 240.301 46.1513Z" fill="#263238"/>
<path d="M247.301 42.1513C247.301 42.1812 247.292 42.2105 247.276 42.2354C247.259 42.2603 247.236 42.2797 247.208 42.2911C247.181 42.3026 247.15 42.3056 247.121 42.2997C247.092 42.2939 247.065 42.2795 247.044 42.2583C247.023 42.2371 247.009 42.2102 247.003 42.1808C246.997 42.1515 247 42.1211 247.011 42.0934C247.023 42.0658 247.042 42.0421 247.067 42.0255C247.092 42.0089 247.121 42 247.151 42C247.19 42 247.229 42.0159 247.257 42.0443C247.285 42.0727 247.301 42.1112 247.301 42.1513Z" fill="#263238"/>
<path d="M246.5 42C246.401 42 246.304 41.9707 246.222 41.9157C246.14 41.8608 246.076 41.7827 246.038 41.6913C246 41.6 245.99 41.4994 246.01 41.4025C246.029 41.3055 246.077 41.2164 246.146 41.1464C246.216 41.0765 246.305 41.0289 246.402 41.0096C246.499 40.9903 246.6 41.0002 246.691 41.0381C246.783 41.0759 246.861 41.14 246.916 41.2222C246.971 41.3044 247 41.4011 247 41.5C247 41.6326 246.947 41.7598 246.854 41.8536C246.76 41.9473 246.633 42 246.5 42ZM246.5 41.0439C246.413 41.0439 246.328 41.0696 246.256 41.1178C246.184 41.166 246.128 41.2345 246.095 41.3146C246.062 41.3948 246.053 41.4829 246.07 41.568C246.087 41.6531 246.129 41.7313 246.19 41.7926C246.251 41.8539 246.329 41.8957 246.414 41.9126C246.5 41.9295 246.588 41.9209 246.668 41.8877C246.748 41.8545 246.816 41.7983 246.865 41.7261C246.913 41.654 246.939 41.5692 246.939 41.4825C246.939 41.3661 246.892 41.2546 246.81 41.1723C246.728 41.0901 246.616 41.0439 246.5 41.0439Z" fill="#C2B2F8"/>
<path d="M252.301 39.1513C252.301 39.1812 252.292 39.2105 252.276 39.2354C252.259 39.2603 252.236 39.2796 252.208 39.2911C252.181 39.3025 252.15 39.3055 252.121 39.2997C252.092 39.2939 252.065 39.2795 252.044 39.2583C252.023 39.2371 252.009 39.2102 252.003 39.1808C251.997 39.1515 252 39.1211 252.011 39.0934C252.023 39.0658 252.042 39.0421 252.067 39.0255C252.092 39.0089 252.121 39 252.151 39C252.19 39 252.229 39.0159 252.257 39.0443C252.285 39.0727 252.301 39.1112 252.301 39.1513Z" fill="#263238"/>
<path d="M259.301 46.1513C259.301 46.1812 259.292 46.2105 259.276 46.2354C259.259 46.2603 259.236 46.2797 259.208 46.2911C259.181 46.3026 259.15 46.3056 259.121 46.2997C259.092 46.2939 259.065 46.2795 259.044 46.2583C259.023 46.2372 259.009 46.2102 259.003 46.1808C258.997 46.1515 259 46.1211 259.011 46.0934C259.023 46.0658 259.042 46.0421 259.067 46.0255C259.092 46.0089 259.121 46 259.151 46C259.19 46 259.229 46.0159 259.257 46.0443C259.285 46.0727 259.301 46.1112 259.301 46.1513Z" fill="#263238"/>
<path d="M266.301 42.1513C266.301 42.1812 266.292 42.2105 266.276 42.2354C266.259 42.2603 266.236 42.2797 266.208 42.2911C266.181 42.3026 266.15 42.3056 266.121 42.2997C266.092 42.2939 266.065 42.2795 266.044 42.2583C266.023 42.2371 266.009 42.2102 266.003 42.1808C265.997 42.1515 266 42.1211 266.011 42.0934C266.023 42.0658 266.042 42.0421 266.067 42.0255C266.092 42.0089 266.121 42 266.151 42C266.19 42 266.229 42.0159 266.257 42.0443C266.285 42.0727 266.301 42.1112 266.301 42.1513Z" fill="#263238"/>
<path d="M234.31 42.1514C234.311 42.1824 234.303 42.2131 234.287 42.2393C234.27 42.2656 234.246 42.2863 234.218 42.2989C234.19 42.3114 234.158 42.3152 234.128 42.3097C234.097 42.3042 234.069 42.2898 234.047 42.2681C234.025 42.2465 234.01 42.2187 234.003 42.1883C233.997 42.1579 234 42.1263 234.011 42.0975C234.023 42.0688 234.043 42.0441 234.068 42.0267C234.094 42.0094 234.124 42.0001 234.155 42.0001C234.175 41.9994 234.195 42.0029 234.214 42.0102C234.233 42.0175 234.25 42.0286 234.265 42.0427C234.279 42.0568 234.291 42.0737 234.299 42.0924C234.306 42.111 234.31 42.1311 234.31 42.1514Z" fill="#263238"/>
<path d="M268.119 49.2587L268.12 49.2587C268.12 49.2587 268.12 49.2587 268.119 49.2582L268.068 48.2778C267.969 48.2643 267.868 48.2668 267.77 48.2852C267.62 48.3093 267.472 48.3468 267.329 48.3974L267.321 48.4L267.314 48.4028C266.797 48.6033 266.333 48.9152 265.958 49.3159L265.955 49.3193C265.448 49.8708 264.971 50.4468 264.525 51.0449C264.265 51.3763 263.976 51.6866 263.661 51.9728L263.659 51.9747C263.499 52.1222 263.327 52.2576 263.144 52.3795C262.954 52.5002 262.753 52.6032 262.542 52.6871C262.084 52.8562 261.593 52.9293 261.101 52.901L261.092 52.9005L261.083 52.9003C260.818 52.8948 260.555 52.8611 260.298 52.7998L260.289 52.7977L260.28 52.7959C260.055 52.751 259.845 52.6623 259.66 52.5366C259.229 52.1755 258.883 51.7324 258.646 51.2373L258.638 51.2218L258.63 51.2068C258.297 50.6215 257.93 50.0055 257.536 49.406C257.349 49.1201 257.167 48.8228 256.978 48.5128L256.945 48.4574C256.769 48.1676 256.586 47.8674 256.392 47.5667C255.965 46.8798 255.451 46.2458 254.864 45.6785L254.864 45.6784L254.857 45.6713C254.522 45.3611 254.141 45.1015 253.727 44.9008C253.513 44.7942 253.289 44.7063 253.058 44.6379L253.058 44.6377L253.048 44.6349C253.031 44.6304 253.014 44.6252 252.989 44.6175L252.984 44.6162C252.959 44.6086 252.926 44.5986 252.891 44.5893C252.834 44.5743 252.756 44.5566 252.666 44.5508L252.549 44.5269L252.499 44.5169H252.449H252.449H252.449H252.448H252.448H252.448H252.447H252.447H252.447H252.446H252.446H252.446H252.445H252.445H252.445H252.445H252.444H252.444H252.444H252.443H252.443H252.443H252.442H252.442H252.442H252.441H252.441H252.441H252.44H252.44H252.44H252.44H252.439H252.439H252.439H252.438H252.438H252.438H252.437H252.437H252.437H252.436H252.436H252.436H252.436H252.435H252.435H252.435H252.434H252.434H252.434H252.433H252.433H252.433H252.432H252.432H252.432H252.431H252.431H252.431H252.431H252.43H252.43H252.43H252.429H252.429H252.429H252.428H252.428H252.428H252.427H252.427H252.427H252.426H252.426H252.426H252.426H252.425H252.425H252.425H252.424H252.424H252.424H252.423H252.423H252.423H252.422H252.422H252.422H252.421H252.421H252.421H252.42H252.42H252.42H252.42H252.419H252.419H252.419H252.418H252.418H252.418H252.417H252.417H252.417H252.416H252.416H252.416H252.415H252.415H252.415H252.414H252.414H252.414H252.414H252.413H252.413H252.413H252.412H252.412H252.412H252.411H252.411H252.411H252.41H252.41H252.41H252.409H252.409H252.409H252.408H252.408H252.408H252.407H252.407H252.407H252.407H252.406H252.406H252.406H252.405H252.405H252.405H252.404H252.404H252.404H252.403H252.403H252.403H252.402H252.402H252.402H252.401H252.401H252.401H252.4H252.4H252.4H252.4H252.399H252.399H252.399H252.398H252.398H252.398H252.397H252.397H252.397H252.396H252.396H252.396H252.395H252.395H252.395H252.394H252.394H252.394H252.393H252.393H252.393H252.393H252.392H252.392H252.392H252.391H252.391H252.391H252.39H252.39H252.39H252.389H252.389H252.389H252.388H252.388H252.388H252.387H252.387H252.387H252.386H252.386H252.386H252.385H252.385H252.385H252.385H252.384H252.384H252.384H252.383H252.383H252.383H252.382H252.382H252.382H252.381H252.381H252.381H252.38H252.38H252.38H252.379H252.379H252.379H252.378H252.378H252.378H252.377H252.377H252.377H252.376H252.376H252.376H252.376H252.375H252.375H252.375H252.374H252.374H252.374H252.373H252.373H252.373H252.372H252.372H252.372H252.371H252.371H252.371H252.37H252.37H252.37H252.369H252.369H252.369H252.368H252.368H252.368H252.367H252.367H252.367H252.367H252.366H252.366H252.366H252.365H252.365H252.365H252.364H252.364H252.364H252.363H252.363H252.363H252.362H252.362H252.362H252.361H252.361H252.361H252.36H252.36H252.36H252.359H252.359H252.359H252.359H252.358H252.358H252.358H252.357H252.357H252.357H252.356H252.356H252.356H252.355H252.355H252.355H252.354H252.354H252.354H252.353H252.353H252.353H252.352H252.352H252.352H252.351H252.351H252.351H252.35H252.35H252.35H252.35H252.349H252.349H252.349H252.348H252.348H252.348H252.347H252.347H252.347H252.346H252.346H252.346H252.345H252.345H252.345H252.344H252.344H252.344H252.343H252.343H252.343H252.342H252.342H252.342H252.342H252.341H252.341H252.341H252.34H252.34H252.34H252.339H252.339H252.339H252.338H252.338H252.338H252.337H252.337H252.337H252.336H252.336H252.336H252.335H252.335H252.335H252.335H252.334H252.334H252.334H252.333H252.333H252.333H252.332H252.332H252.332H252.331H252.331H252.331H252.33H252.33H252.33H252.329H252.329H252.329H252.328H252.328H252.328H252.328H252.327H252.327H252.327H252.326H252.326H252.326H252.325H252.325H252.325H252.324H252.324H252.324H252.323H252.323H252.323H252.322H252.322H252.322H252.321H252.321H252.321H252.321H252.32H252.32H252.32H252.319H252.319H252.319H252.318H252.318H252.318H252.317H252.317H252.317H252.316H252.316H252.316H252.315H252.315H252.315H252.315H252.314H252.314H252.314H252.313H252.313H252.313H252.312H252.312H252.312H252.311H252.311H252.311H252.31H252.31H252.31H252.31H252.309H252.309H252.309H252.308H252.308C251.354 44.4384 250.395 44.6344 249.556 45.0816L249.548 45.0858L249.54 45.0903C248.749 45.5489 248.063 46.1592 247.526 46.8844C247.04 47.5371 246.597 48.2186 246.201 48.925L246.197 48.932L246.193 48.9392C245.546 50.1844 244.684 51.3177 243.642 52.2912C243.192 52.6863 242.652 52.9789 242.062 53.1452C241.799 53.2121 241.528 53.2433 241.255 53.2378C240.977 53.2248 240.701 53.1787 240.435 53.1007C239.898 52.9221 239.39 52.6718 238.928 52.3575L238.919 52.3516L238.91 52.3462C238.665 52.1942 238.436 52.0367 238.203 51.8746C238.18 51.8585 238.157 51.8423 238.134 51.8261C237.928 51.6831 237.717 51.5358 237.497 51.3947C237.044 51.0737 236.557 50.7993 236.045 50.5759L236.045 50.5759L236.041 50.5742C235.556 50.3679 235.041 50.2369 234.514 50.1858C234.039 50.1356 233.557 50.1729 233.096 50.2958L233.096 50.2958L233.093 50.2967C232.99 50.3248 232.889 50.3588 232.791 50.3985C232.687 50.4309 232.585 50.4716 232.488 50.5202C232.32 50.5982 232.159 50.6879 232.004 50.7885L232.004 50.7883L231.993 50.7956C231.746 50.9657 231.513 51.1549 231.298 51.3612L231.278 51.3805L231.26 51.4019C231.21 51.4616 231.164 51.5138 231.117 51.5676C231.096 51.5916 231.074 51.6158 231.052 51.6412C230.989 51.7134 230.92 51.7957 230.859 51.8827C230.745 52.0302 230.644 52.187 230.557 52.3514L231.358 52.9337C231.484 52.8044 231.6 52.6663 231.706 52.5204C231.738 52.4822 231.782 52.4366 231.846 52.3709C231.853 52.3638 231.861 52.3564 231.868 52.3488C231.925 52.2915 231.992 52.2231 232.061 52.1475C232.233 51.9966 232.417 51.8586 232.611 51.7347C232.721 51.6657 232.837 51.6057 232.958 51.5557L232.969 51.5515L232.979 51.5468C233.034 51.5209 233.092 51.4987 233.151 51.4807L233.164 51.4768L233.177 51.4722C233.243 51.448 233.311 51.4276 233.38 51.411L268.119 49.2587ZM268.119 49.2587L268.119 49.2589L268.103 49.2631C268.088 49.2675 268.062 49.2749 268.027 49.2858C267.959 49.307 267.855 49.3416 267.718 49.3937C267.362 49.56 267.046 49.7934 266.79 50.0785L266.788 50.0806C266.505 50.3919 266.226 50.7606 265.892 51.2021C265.759 51.3784 265.617 51.5663 265.462 51.7668C265.167 52.1547 264.84 52.5189 264.485 52.8559L264.483 52.8577C264.277 53.0508 264.055 53.2276 263.82 53.3862L263.813 53.3913L263.812 53.3913C263.557 53.5569 263.286 53.6993 263.003 53.8165L262.993 53.8205L262.993 53.8204C262.377 54.0605 261.715 54.1684 261.052 54.1371C260.702 54.1319 260.354 54.0917 260.013 54.0173C259.62 53.9388 259.247 53.7826 258.918 53.5575L258.915 53.5553C258.588 53.3282 258.305 53.0473 258.079 52.7248C257.865 52.4312 257.683 52.1319 257.511 51.8393L257.51 51.8366C257.174 51.2573 256.833 50.6892 256.446 50.1144C256.248 49.8199 256.06 49.5146 255.878 49.2179L255.86 49.1891C255.67 48.8803 255.485 48.5806 255.289 48.2925L255.284 48.2846L255.279 48.2765C254.909 47.6831 254.465 47.1339 253.957 46.641C253.71 46.4202 253.431 46.2336 253.127 46.0871L253.127 46.087C252.985 46.0183 252.837 45.9597 252.686 45.9118L252.424 45.8575L252.416 45.856L252.416 45.8559L252.319 45.8342C252.299 45.834 252.279 45.8344 252.259 45.8354L252.225 45.8371L252.19 45.834C251.488 45.7709 250.783 45.9093 250.165 46.2299C249.533 46.5988 248.988 47.0877 248.564 47.665L248.56 47.6708L248.56 47.6708C248.105 48.2725 247.694 48.9032 247.329 49.5585M268.119 49.2587L247.329 49.5585M247.329 49.5585C246.604 50.9313 245.644 52.1768 244.489 53.2433L244.48 53.2518L244.48 53.2517C243.878 53.7801 243.155 54.1631 242.372 54.3712L242.365 54.3731L242.365 54.373C241.976 54.4703 241.574 54.5121 241.172 54.497L241.166 54.4968L241.166 54.4967C240.783 54.4778 240.403 54.4107 240.037 54.2971L240.024 54.2929L240.024 54.2927C239.379 54.0724 238.769 53.7666 238.211 53.3839L238.208 53.3816C238.024 53.2531 237.843 53.1252 237.664 52.999C237.372 52.7928 237.086 52.5913 236.806 52.3995L236.8 52.3954L236.794 52.3911C236.41 52.1111 235.996 51.8703 235.559 51.6725C235.19 51.5069 234.795 51.399 234.389 51.3533L234.385 51.3529C234.049 51.3123 233.708 51.3321 233.38 51.411L247.329 49.5585Z" fill="#C2B2F8" stroke="black"/>
<mask id="path-149-inside-1" fill="white">
<path d="M241 36H234V36.4161H241V36Z"/>
</mask>
<path d="M241 36H234V36.4161H241V36Z" fill="#263238"/>
<path d="M234 36V35H233V36H234ZM241 36H242V35H241V36ZM241 36.4161V37.4161H242V36.4161H241ZM234 36.4161H233V37.4161H234V36.4161ZM234 37H241V35H234V37ZM240 36V36.4161H242V36H240ZM241 35.4161H234V37.4161H241V35.4161ZM235 36.4161V36H233V36.4161H235Z" fill="black" mask="url(#path-149-inside-1)"/>
<path d="M238 37H234V37.4161H238V37Z" fill="#263238"/>
<path d="M273 30H227V33H273V30Z" fill="#263238"/>
<path d="M108.005 126.743C143.899 126.743 176.398 126.729 199.923 126.707C211.686 126.696 221.206 126.683 227.785 126.668C231.074 126.661 233.629 126.653 235.361 126.646C236.227 126.642 236.888 126.638 237.333 126.634C237.556 126.632 237.725 126.63 237.84 126.628C237.897 126.627 237.943 126.626 237.976 126.624C237.991 126.624 238.009 126.623 238.025 126.622C238.032 126.621 238.049 126.62 238.069 126.617C238.081 126.615 238.115 126.608 238.138 126.602C238.195 126.582 238.433 126.372 238.5 126.122C238.437 125.878 238.206 125.666 238.147 125.643C238.123 125.637 238.087 125.629 238.074 125.627C238.052 125.623 238.034 125.622 238.028 125.621C238.011 125.62 237.992 125.619 237.977 125.619C237.944 125.617 237.897 125.616 237.84 125.615C237.726 125.613 237.556 125.611 237.334 125.609C236.889 125.604 236.228 125.6 235.362 125.596C233.63 125.588 231.076 125.58 227.788 125.573C221.211 125.558 211.693 125.545 199.932 125.534C176.409 125.513 143.91 125.5 108.005 125.5C72.0989 125.5 39.5976 125.514 16.0726 125.536C4.31017 125.547 -5.20835 125.561 -11.7863 125.575C-15.0753 125.582 -17.6294 125.59 -19.3615 125.598C-20.2274 125.601 -20.8885 125.605 -21.3334 125.609C-21.5557 125.611 -21.7253 125.614 -21.8399 125.616C-21.8967 125.617 -21.9427 125.618 -21.9756 125.619C-21.991 125.619 -22.0089 125.62 -22.0253 125.621C-22.0316 125.622 -22.0487 125.623 -22.0686 125.626C-22.0811 125.628 -22.1154 125.635 -22.1378 125.641C-22.1952 125.661 -22.4329 125.871 -22.5 126.122C-22.4329 126.372 -22.1951 126.582 -22.1377 126.602C-22.1153 126.608 -22.081 126.615 -22.0686 126.617C-22.0486 126.62 -22.0316 126.621 -22.0253 126.622C-22.0089 126.623 -21.991 126.624 -21.9755 126.624C-21.9426 126.626 -21.8967 126.627 -21.8398 126.628C-21.7251 126.63 -21.5555 126.632 -21.3332 126.634C-20.8881 126.638 -20.2268 126.642 -19.3605 126.646C-17.6279 126.653 -15.0729 126.661 -11.7831 126.668C-5.20324 126.683 4.31747 126.696 16.0814 126.707C39.6092 126.729 72.1106 126.743 108.005 126.743Z" fill="#263238" stroke="black"/>
</g>
<defs>
<clipPath id="clip0">
<rect width="280" height="128" fill="white"/>
</clipPath>
</defs>
</svg>
