<svg width="55" height="55" viewBox="0 0 55 55" fill="none" xmlns="http://www.w3.org/2000/svg">
<path d="M2.67563 0.0119154C2.27037 0.143488 1.97993 0.562121 2.00108 0.984205V49.5379C2.00114 50.047 2.46852 50.5102 2.98224 50.5102H7.45875C7.9771 50.5174 8.45388 50.0517 8.45388 49.5379C8.45388 49.0242 7.9771 48.5584 7.45875 48.5656H3.96339V1.9565H28.4922C29.0106 1.96377 29.4873 1.49793 29.4873 0.984205C29.4873 0.470481 29.0106 0.00465085 28.4922 0.0119154H2.98224C2.88088 -0.0039718 2.77699 -0.0039718 2.67563 0.0119154ZM32.1102 0.558828C31.705 0.690401 31.4145 1.10903 31.4357 1.53112V9.30944C31.4357 9.81851 31.9031 10.2817 32.4168 10.2817H40.2661C41.015 10.2533 41.4563 9.17993 40.9406 8.64099L33.0914 0.862669C32.8772 0.632396 32.5458 0.515108 32.2329 0.558828C32.192 0.556301 32.1511 0.556301 32.1102 0.558828ZM33.398 3.84031L37.9358 8.33715H33.398V3.84031ZM7.888 7.79023V9.73481H25.5488V7.79023H7.888ZM40.0208 11.6794C39.5719 11.7922 39.2418 12.2556 39.2849 12.7125V14.5355C39.2776 15.0492 39.7477 15.5216 40.2661 15.5216C40.7845 15.5216 41.2545 15.0492 41.2472 14.5355V12.7125C41.288 12.1405 40.7174 11.6064 40.1434 11.6794C40.1026 11.6769 40.0616 11.6769 40.0208 11.6794ZM47.686 11.6794C46.6798 11.6794 45.6892 12.0174 44.9265 12.7732L43.1482 14.5963C43.0309 14.6558 42.9259 14.739 42.8416 14.8393C42.7403 14.9229 42.6564 15.0269 42.5963 15.1432L12.6098 44.8588C12.305 45.1609 12.2254 45.4513 12.0579 45.7095L9.29841 53.7309C9.06199 54.4278 9.89532 55.2143 10.5862 54.9463L18.8647 52.2117C19.1415 52.0534 19.2141 52.0731 19.4166 51.7256L49.5257 21.8884C49.5914 21.855 49.6532 21.8141 49.7097 21.7669L49.771 21.7061C49.8722 21.6226 49.9562 21.5185 50.0163 21.4023L51.8559 19.64C53.3813 18.1283 53.3814 15.6826 51.8559 14.1709L50.5068 12.7732C49.7441 12.0174 48.6922 11.6794 47.686 11.6794ZM47.686 13.5632C48.1846 13.5632 48.7061 13.7841 49.0964 14.1709L50.5068 15.5686C51.2876 16.3421 51.2875 17.5296 50.5068 18.3031L49.0964 19.7008L47.686 18.3031L47.0115 17.5739L46.3369 16.9055L44.9265 15.5686L46.3369 14.1709C46.7273 13.7841 47.1874 13.563 47.686 13.5632ZM7.888 13.624V15.5686H29.4734V13.624H7.888ZM43.5161 16.9055L44.9265 18.3031L15.7986 47.168L14.3881 45.7703L43.5161 16.9055ZM7.888 19.4577V21.4023H33.398V19.4577H7.888ZM46.3369 19.7008L47.686 21.0377L18.558 49.9025L17.209 48.5656L46.3369 19.7008ZM40.0208 33.0698C39.5719 33.1825 39.2418 33.646 39.2849 34.1028V40.3619V48.5656H30.9451H24.5676C24.0493 48.5584 23.5725 49.0242 23.5725 49.5379C23.5725 50.0517 24.0493 50.5175 24.5676 50.5102H30.9451H40.2661C40.7798 50.5102 41.2472 50.047 41.2472 49.5379V40.3619V34.1028C41.288 33.5308 40.7174 32.9967 40.1434 33.0698C40.1026 33.0672 40.0616 33.0672 40.0208 33.0698ZM13.4683 47.6541L16.7797 50.8748L11.8126 52.5156L13.4683 47.6541Z" fill="white"/>
</svg>
