<svg width="70" height="70" viewBox="0 0 70 70" fill="none" xmlns="http://www.w3.org/2000/svg">
<path d="M62.4163 50.9158L57.8138 46.2923C57.7921 46.2706 57.7486 46.2489 57.7269 46.2272C57.7188 46.2101 57.7066 46.1953 57.6915 46.184C57.6764 46.1726 57.6587 46.1651 57.6401 46.1621L54.5573 43.0581L46.937 35.4391L61.4611 20.8959C61.9699 20.3937 62.3739 19.7955 62.6497 19.136C62.9255 18.4764 63.0675 17.7687 63.0675 17.0538C63.0675 16.339 62.9255 15.6313 62.6497 14.9717C62.3739 14.3122 61.9699 13.714 61.4611 13.2118L53.7974 5.54948C52.7643 4.55723 51.3873 4.00309 49.9547 4.00309C48.5222 4.00309 47.1452 4.55723 46.112 5.54948L35.3656 16.2941L31.588 20.0927L22.6434 11.1497L22.231 10.8024L21.9487 10.6939L9.13978 5.76654L2.17085 3.07496C1.97667 2.9982 1.76427 2.9799 1.55982 3.02233C1.35537 3.06476 1.1678 3.16605 1.02021 3.31373C0.869307 3.46379 0.764569 3.65395 0.718398 3.86168C0.672227 4.06941 0.686557 4.28602 0.759691 4.48587L3.43003 11.4102V11.4319L3.49516 11.5621L8.37993 24.2604C8.44954 24.5365 8.61014 24.7812 8.83584 24.955L17.7804 33.898L12.5048 39.1726C12.449 39.2096 12.398 39.2534 12.3529 39.3029L7.90231 43.7744C7.84643 43.8113 7.79538 43.855 7.75034 43.9046L3.12609 48.5281C3.07658 48.5732 3.03283 48.6242 2.99583 48.68L1.60638 50.0475C1.09754 50.5497 0.693516 51.1479 0.417758 51.8074C0.141999 52.467 0 53.1747 0 53.8895C0 54.6044 0.141999 55.3121 0.417758 55.9716C0.693516 56.6312 1.09754 57.2294 1.60638 57.7315L9.27004 65.3939C9.77229 65.9026 10.3706 66.3066 11.0303 66.5823C11.6899 66.858 12.3978 67 13.1127 67C13.8277 67 14.5355 66.858 15.1952 66.5823C15.8548 66.3066 16.4532 65.9026 16.9554 65.3939L33.1294 49.2444L43.9193 60.0324C43.941 60.0541 43.9627 60.0975 43.9845 60.1192L48.6087 64.721C49.1075 65.2268 49.7026 65.6276 50.3589 65.8997C51.0151 66.1719 51.7192 66.3098 52.4297 66.3056C53.1431 66.308 53.8499 66.1693 54.5094 65.8973C55.169 65.6254 55.7681 65.2256 56.2724 64.721L62.4163 58.5781C63.4305 57.5609 64 56.1832 64 54.7469C64 53.3106 63.4305 51.9329 62.4163 50.9158ZM36.1471 18.595L38.4484 20.8959C38.6573 21.0723 38.9251 21.1634 39.1983 21.151C39.4715 21.1385 39.7299 21.0234 39.9219 20.8287C40.1138 20.634 40.2253 20.3741 40.2338 20.1008C40.2424 19.8275 40.1475 19.5611 39.9681 19.3547L37.6668 17.0538L40.7497 13.9933L43.0509 16.2941C43.257 16.4872 43.5283 16.5957 43.8108 16.598C44.0997 16.5959 44.3779 16.4878 44.5923 16.2941C44.7911 16.0868 44.9021 15.8107 44.9021 15.5235C44.9021 15.2364 44.7911 14.9603 44.5923 14.753L42.2694 12.4521L45.3522 9.3698L50.7146 14.753C50.8169 14.8561 50.9387 14.938 51.0728 14.9939C51.2069 15.0498 51.3508 15.0786 51.4961 15.0786C51.6382 15.0784 51.7788 15.0494 51.9094 14.9934C52.04 14.9375 52.1579 14.8557 52.256 14.753C52.3577 14.6521 52.4385 14.532 52.4936 14.3998C52.5487 14.2675 52.5771 14.1257 52.5771 13.9824C52.5771 13.8391 52.5487 13.6973 52.4936 13.565C52.4385 13.4328 52.3577 13.3127 52.256 13.2118L46.8936 7.85035L47.6535 7.06892C48.2641 6.45919 49.0918 6.11671 49.9547 6.11671C50.8177 6.11671 51.6454 6.45919 52.256 7.06892L59.9414 14.753C60.5512 15.3635 60.8937 16.191 60.8937 17.0538C60.8937 17.9167 60.5512 18.7442 59.9414 19.3547L45.3956 33.898L33.1077 21.6122L36.1471 18.595ZM30.611 22.1765C30.6405 22.2678 30.6928 22.35 30.763 22.4153L30.7847 22.437L31.5446 23.1967L36.907 28.5582C36.9723 28.6284 37.0545 28.6807 37.1458 28.7102L43.8759 35.4391L44.6358 36.1988L45.3956 36.9586L52.2777 43.8395L50.7363 45.3589L43.8759 38.4997H43.8542L43.0943 37.74V37.7183L42.3345 36.9803V36.9586L30.0466 24.6945V24.6728L29.2867 23.9348V23.9131L28.5269 23.1533H28.5052L23.7724 18.4213V18.3996C23.1615 17.7896 22.8179 16.962 22.8171 16.0988V14.384L30.0466 21.6122L30.611 22.1765ZM44.5923 51.5018L37.732 44.6426H37.7102L36.9504 43.8829V43.8612L36.1905 43.1232V43.1015L23.9026 30.8374V30.8157L23.1428 30.0777V30.056L22.3829 29.2962H22.3612L17.6284 24.5425L17.5633 24.4774C16.9962 23.8704 16.6784 23.0723 16.6732 22.2417V20.071C16.6732 19.7832 16.7875 19.5071 16.9911 19.3036C17.1947 19.1001 17.4708 18.9857 17.7587 18.9857H19.9297C20.7514 18.9832 21.5432 19.2937 22.1441 19.854L22.231 19.9408L26.9855 24.6945L27.7453 25.4542L27.7019 25.4976L28.4618 26.2573L28.5052 26.2139L40.7931 38.4997L41.5529 39.2594L42.3345 40.0409L49.1949 46.9001L44.5923 51.5018ZM7.31613 7.39452C6.78923 8.33758 6.00655 9.1126 5.05829 9.63027L3.66884 5.98361L7.31613 7.39452ZM9.37859 8.17595L20.6461 12.5172V16.0988C20.6462 16.3606 20.668 16.622 20.7113 16.8802C20.453 16.8369 20.1916 16.8152 19.9297 16.8151H17.7587C16.895 16.8151 16.0667 17.1581 15.456 17.7687C14.8453 18.3793 14.5022 19.2075 14.5022 20.071V22.2417C14.5023 22.5035 14.5241 22.7649 14.5673 23.0231C14.309 22.9798 14.0476 22.9581 13.7857 22.958H10.2036L5.86156 11.6707C7.36805 10.8987 8.59715 9.67738 9.37859 8.17595ZM15.414 63.8744C14.7908 64.4599 13.9678 64.7858 13.1127 64.7858C12.2576 64.7858 11.4346 64.4599 10.8115 63.8744L3.12609 56.1904C2.51625 55.5799 2.17371 54.7524 2.17371 53.8895C2.17371 53.0267 2.51625 52.1991 3.12609 51.5886L3.90765 50.8289L9.27004 56.1904C9.3702 56.2935 9.49001 56.3754 9.62239 56.4313C9.75477 56.4873 9.89703 56.5161 10.0407 56.5161C10.1845 56.5161 10.3267 56.4873 10.4591 56.4313C10.5915 56.3754 10.7113 56.2935 10.8115 56.1904C11.0102 55.9831 11.1212 55.707 11.1212 55.4198C11.1212 55.1326 11.0102 54.8566 10.8115 54.6492L5.42736 49.2878L8.51019 46.2055L10.8115 48.5281C11.0176 48.7212 11.2888 48.8297 11.5713 48.8319C11.8603 48.8299 12.1384 48.7217 12.3529 48.5281C12.5516 48.3207 12.6626 48.0447 12.6626 47.7575C12.6626 47.4703 12.5516 47.1942 12.3529 46.9869L10.0516 44.686L13.1127 41.6037L15.414 43.9046C15.6144 44.1091 15.8875 44.2261 16.1738 44.2302C16.3192 44.2302 16.4631 44.2014 16.5972 44.1455C16.7313 44.0897 16.8531 44.0078 16.9554 43.9046C17.1543 43.7017 17.2657 43.429 17.2657 43.1449C17.2657 42.8608 17.1543 42.588 16.9554 42.3852L14.6541 40.0843L19.3001 35.4174L31.588 47.7032L15.414 63.8744ZM33.8893 46.9435L33.1294 46.1838L20.8415 33.898L20.0817 33.1383L19.3001 32.3568L12.0706 25.1286H13.7857C14.6491 25.1294 15.4769 25.4729 16.087 26.0837L20.8415 30.8374L21.406 31.4017C21.4354 31.493 21.4877 31.5752 21.5579 31.6405L22.3178 32.4002L24.6191 34.7011C24.6844 34.7713 24.7666 34.8236 24.8579 34.8531L34.6491 44.6426L35.409 45.4023L36.1905 46.1838L43.0509 53.043L41.5312 54.5841L34.6491 47.7032L33.8893 46.9435ZM43.0509 56.1036L45.2871 53.8461L45.3956 53.7376L51.431 47.7032L51.5396 47.5947L53.7974 45.3589L55.5125 47.0737L44.766 57.8184L43.0509 56.1036ZM60.8749 57.0369L54.7309 63.1798C54.4299 63.4841 54.0715 63.7256 53.6765 63.8905C53.2815 64.0553 52.8577 64.1402 52.4297 64.1402C52.0016 64.1402 51.5778 64.0553 51.1828 63.8905C50.7878 63.7256 50.4294 63.4841 50.1284 63.1798L46.2857 59.3378L57.0322 48.5932L60.8749 52.4352C61.1792 52.7362 61.4208 53.0945 61.5857 53.4894C61.7505 53.8844 61.8354 54.3081 61.8354 54.7361C61.8354 55.164 61.7505 55.5878 61.5857 55.9827C61.4208 56.3776 61.1792 56.736 60.8749 57.0369Z" fill="white"/>
</svg>
