<svg width="55" height="55" viewBox="0 0 55 55" fill="none" xmlns="http://www.w3.org/2000/svg">
<path d="M20.996 0V3.495H22.7523V0H20.996ZM12.1593 3.71344L10.8969 4.96945L13.4217 7.42688L14.6292 6.17086L12.1593 3.71344ZM32.0281 3.71344L29.5582 6.17086L30.7657 7.42688L33.2905 4.96945L32.0281 3.71344ZM22.423 5.2425C17.3409 5.2425 13.2021 9.36031 13.2021 14.4169C13.2021 17.933 15.2039 21.0155 18.1419 22.5537V32.3288H15.0683C12.8268 32.3288 11.1165 34.351 11.1165 36.6975V36.9706C11.1165 36.9915 11.1147 37.0042 11.1165 37.0252C11.1165 37.0241 11.1719 37.2447 11.1714 37.2436C11.3788 43.464 14.9181 49.4725 20.3373 52.5888C25.934 55.8037 33.1825 55.8037 38.7791 52.5888C44.3652 49.3799 47.9874 43.1152 48 36.6975V33.2025C48 30.856 46.2896 28.8338 44.0482 28.8338H26.9237V22.3352C29.7197 20.7681 31.6439 17.8418 31.6439 14.4169C31.6439 9.36031 27.5052 5.2425 22.423 5.2425ZM22.423 6.99H22.4779C26.5856 7.01908 29.8876 10.323 29.8876 14.4169C29.8876 16.7538 28.6262 18.6353 26.9237 19.987V19.2225C26.9237 18.9219 26.8726 18.6325 26.8139 18.3488C26.6409 17.5122 26.2414 16.7533 25.6613 16.1644C25.4539 15.9538 25.2488 15.7839 25.0027 15.6183C24.5353 15.3036 23.9816 15.0797 23.411 14.963C22.1041 14.2122 18.4163 15.5425 18.4163 17.7481C18.3443 17.9446 18.3496 18.1403 18.3066 18.3488C18.24 18.6353 18.1968 18.9101 18.1968 19.2225V20.1509C16.362 18.8041 15.0134 16.8837 15.0134 14.4169C15.0134 10.323 18.3154 7.01908 22.423 6.99ZM7 13.98V15.7275H10.5127V13.98H7ZM33.2905 13.98V15.7275H36.8032V13.98H33.2905ZM22.5328 16.6013C22.9015 16.6013 23.2595 16.6886 23.5756 16.8197C23.8917 16.9508 24.1618 17.1299 24.3989 17.3658C24.8732 17.8378 25.1673 18.4889 25.1673 19.2225V21.8438C25.1656 21.8805 25.1656 21.918 25.1673 21.953V22.0076V29.7075C25.1674 30.165 25.5857 30.5813 26.0455 30.5813H44.0482C45.2123 30.5813 46.2436 31.6766 46.2436 33.2025V36.6975C46.2331 42.4567 42.914 48.1801 37.9009 51.0598C32.8786 53.9447 26.2378 53.9447 21.2155 51.0598C16.2922 48.2287 12.9871 42.6817 12.8728 37.0252C12.8728 37.0248 12.8763 36.9915 12.8728 36.9706C12.864 36.9059 12.873 36.8085 12.8728 36.8067C12.8726 36.806 12.8869 36.7325 12.8728 36.6975C12.8728 35.1716 13.9042 34.0763 15.0683 34.0763H19.0201C19.4799 34.0763 19.8982 33.66 19.8983 33.2025V22.1714C19.9035 22.1172 19.9035 22.0618 19.8983 22.0076V19.2225C19.8983 19.0565 19.925 18.8871 19.9531 18.731C19.9567 18.7135 19.9496 18.6921 19.9531 18.6764C19.9842 18.5209 20.0612 18.3825 20.1178 18.2395C20.1231 18.2221 20.1108 18.1989 20.1178 18.1849C20.1837 18.0277 20.2436 17.8872 20.3373 17.7481C20.4311 17.6083 20.5481 17.4837 20.6667 17.3658C20.9038 17.1299 21.1739 16.9508 21.49 16.8197C21.8061 16.6886 22.1641 16.6013 22.5328 16.6013ZM13.4217 21.5707L10.8969 24.0281L12.1593 25.2295L14.6292 22.7721L13.4217 21.5707ZM30.7657 21.5707L29.5582 22.7721L32.0281 25.2295L33.2905 24.0281L30.7657 21.5707Z" fill="white"/>
</svg>
