<svg width="55" height="55" viewBox="0 0 55 55" fill="none" xmlns="http://www.w3.org/2000/svg">
<path d="M31.0455 0.0168188C30.8492 0.0815258 30.6794 0.209348 30.5623 0.380613C30.4453 0.551878 30.3874 0.757092 30.3977 0.964672V1.91252H29.4553C29.3966 1.90696 29.3374 1.90696 29.2786 1.91252C29.1549 1.92419 29.0346 1.96025 28.9247 2.01866C28.8148 2.07708 28.7175 2.15669 28.6381 2.25296C28.5588 2.34923 28.4992 2.46027 28.4625 2.57974C28.4259 2.69921 28.413 2.82476 28.4246 2.94924C28.4362 3.07372 28.4721 3.19469 28.5301 3.30522C28.5882 3.41576 28.6674 3.51371 28.7631 3.59347C28.8588 3.67324 28.9692 3.73326 29.088 3.77011C29.2068 3.80695 29.3316 3.81991 29.4553 3.80823H30.3977V4.75608C30.3959 4.88168 30.419 5.00639 30.4655 5.12294C30.5121 5.2395 30.5812 5.34558 30.6689 5.43503C30.7566 5.52448 30.8611 5.59551 30.9763 5.64399C31.0915 5.69247 31.2151 5.71743 31.34 5.71743C31.4649 5.71743 31.5885 5.69247 31.7037 5.64399C31.8189 5.59551 31.9234 5.52448 32.0111 5.43503C32.0988 5.34558 32.1679 5.2395 32.2145 5.12294C32.261 5.00639 32.2841 4.88168 32.2823 4.75608V3.80823H33.2247C33.3495 3.81001 33.4735 3.7868 33.5894 3.73996C33.7053 3.69313 33.8107 3.62359 33.8997 3.5354C33.9886 3.44721 34.0592 3.34212 34.1074 3.22623C34.1556 3.11035 34.1804 2.98599 34.1804 2.86038C34.1804 2.73476 34.1556 2.6104 34.1074 2.49452C34.0592 2.37864 33.9886 2.27355 33.8997 2.18535C33.8107 2.09716 33.7053 2.02763 33.5894 1.98079C33.4735 1.93395 33.3495 1.91075 33.2247 1.91252H32.2823V0.964672C32.2848 0.823731 32.256 0.684009 32.198 0.555682C32.14 0.427354 32.0543 0.313651 31.9471 0.222852C31.8399 0.132053 31.7139 0.0664436 31.5783 0.0308019C31.4428 -0.00483976 31.301 -0.00961687 31.1633 0.0168188C31.1241 0.0143483 31.0847 0.0143483 31.0455 0.0168188ZM47.8308 6.47407C47.7078 6.45063 47.5446 6.49933 47.4186 6.53331C46.9496 6.6597 46.7418 7.12224 46.8296 7.65888L28.5719 12.5759C28.4514 12.6099 28.3389 12.6677 28.2409 12.746C28.1429 12.8243 28.0613 12.9214 28.001 13.0317C27.9407 13.1419 27.9028 13.2632 27.8896 13.3884C27.8764 13.5135 27.8881 13.6401 27.924 13.7607L28.1596 14.6493L12.67 18.8554C12.5496 18.8894 12.437 18.9473 12.339 19.0255C12.241 19.1038 12.1595 19.2009 12.0992 19.3112C12.0388 19.4215 12.001 19.5427 11.9878 19.6679C11.9745 19.7931 11.9862 19.9196 12.0222 20.0402L12.2578 20.9288L4.95469 22.8838L4.83689 22.5283C4.75899 22.2359 4.28103 22.0962 3.77677 22.2321C3.27251 22.368 2.93322 22.7098 3.01112 23.0022L3.89456 26.142L4.36573 27.9785L4.7191 29.341C4.79695 29.6333 5.27496 29.7731 5.77923 29.6372C6.28349 29.5013 6.62272 29.1593 6.54487 28.8671L6.42708 28.3932L13.7302 26.4382L13.9657 27.3268C13.9996 27.448 14.0571 27.5612 14.1349 27.6598C14.2127 27.7584 14.3092 27.8404 14.4189 27.9011C14.5285 27.9617 14.6491 27.9998 14.7735 28.0131C14.898 28.0264 15.0238 28.0146 15.1437 27.9785L21.4455 26.3197V28.4524H20.5032C20.2533 28.4524 20.0136 28.5523 19.8369 28.73C19.6602 28.9078 19.5609 29.1489 19.5608 29.4003V33.1917C19.5609 33.443 19.6602 33.6841 19.8369 33.8619C20.0136 34.0396 20.2533 34.1395 20.5032 34.1395H20.9743L13.3768 47.4095C13.2279 47.3847 13.061 47.3502 12.9056 47.3502C11.3555 47.3502 10.0786 48.6344 10.0786 50.1938C10.0706 50.3231 10.089 50.4528 10.1327 50.5747C10.1765 50.6966 10.2446 50.8082 10.3329 50.9026C10.4213 50.997 10.5279 51.0722 10.6462 51.1235C10.7646 51.1748 10.8921 51.2011 11.021 51.2009C11.1498 51.2011 11.2774 51.1748 11.3957 51.1235C11.514 51.0722 11.6207 50.997 11.709 50.9026C11.7973 50.8082 11.8654 50.6966 11.9092 50.5747C11.9529 50.4528 11.9713 50.3231 11.9633 50.1938C11.9633 49.659 12.374 49.2459 12.9056 49.2459C13.4372 49.2459 13.8479 49.659 13.8479 50.1938C13.8462 50.3194 13.8693 50.4441 13.9158 50.5606C13.9624 50.6772 14.0315 50.7833 14.1192 50.8727C14.2069 50.9622 14.3113 51.0332 14.4266 51.0817C14.5418 51.1302 14.6654 51.1551 14.7903 51.1551C14.9152 51.1551 15.0388 51.1302 15.154 51.0817C15.2692 51.0332 15.3737 50.9622 15.4614 50.8727C15.5491 50.7833 15.6182 50.6772 15.6647 50.5606C15.7113 50.4441 15.7344 50.3194 15.7326 50.1938C15.7326 49.4737 15.4716 48.8607 15.0259 48.3573L23.2124 34.1395H23.3302V51.3194C22.2276 51.7083 21.3866 52.7507 21.3866 53.9852C21.3697 54.2273 21.4458 54.4667 21.5992 54.6541C21.7526 54.8415 21.9717 54.9625 22.2112 54.9923C22.3495 55.0102 22.4901 54.9969 22.6228 54.9535C22.7554 54.9101 22.8769 54.8376 22.9783 54.7412C23.0797 54.6449 23.1586 54.5271 23.2093 54.3963C23.2599 54.2656 23.2811 54.1252 23.2713 53.9852C23.2713 53.4504 23.682 53.0373 24.2136 53.0373C24.7452 53.0373 25.1559 53.4504 25.1559 53.9852C25.1542 54.1108 25.1772 54.2355 25.2238 54.352C25.2704 54.4686 25.3395 54.5747 25.4272 54.6641C25.5149 54.7536 25.6193 54.8246 25.7345 54.8731C25.8498 54.9216 25.9734 54.9465 26.0983 54.9465C26.2232 54.9465 26.3468 54.9216 26.462 54.8731C26.5772 54.8246 26.6817 54.7536 26.7694 54.6641C26.857 54.5747 26.9262 54.4686 26.9727 54.352C27.0193 54.2355 27.0424 54.1108 27.0406 53.9852C27.0406 52.7701 26.2905 51.7229 25.2148 51.3194V34.1395H25.3326L33.5191 48.3573C33.0582 48.8641 32.6946 49.4599 32.6946 50.1938C32.6928 50.3194 32.7159 50.4441 32.7625 50.5606C32.809 50.6772 32.8782 50.7833 32.9658 50.8727C33.0535 50.9622 33.158 51.0332 33.2732 51.0817C33.3884 51.1302 33.5121 51.1551 33.6369 51.1551C33.7618 51.1551 33.8855 51.1302 34.0007 51.0817C34.1159 51.0332 34.2204 50.9622 34.308 50.8727C34.3957 50.7833 34.4648 50.6772 34.5114 50.5606C34.558 50.4441 34.581 50.3194 34.5793 50.1938C34.5793 49.659 34.99 49.2459 35.5216 49.2459C36.0532 49.2459 36.4639 49.659 36.4639 50.1938C36.4559 50.3231 36.4743 50.4528 36.5181 50.5747C36.5618 50.6966 36.6299 50.8082 36.7183 50.9026C36.8066 50.997 36.9132 51.0722 37.0315 51.1235C37.1499 51.1748 37.2774 51.2011 37.4063 51.2009C37.5351 51.2011 37.6627 51.1748 37.781 51.1235C37.8993 51.0722 38.006 50.997 38.0943 50.9026C38.1826 50.8082 38.2507 50.6966 38.2945 50.5747C38.3382 50.4528 38.3566 50.3231 38.3486 50.1938C38.3486 48.6344 37.0717 47.3502 35.5216 47.3502C35.3704 47.3502 35.2544 47.3859 35.1093 47.4095L27.5118 34.1395H28.0418C28.2918 34.1395 28.5314 34.0396 28.7081 33.8619C28.8849 33.6841 28.9841 33.443 28.9842 33.1917V29.4003C28.9848 29.3805 28.9848 29.3608 28.9842 29.341C28.9691 29.1 28.8633 28.8739 28.6882 28.7088C28.513 28.5436 28.2819 28.452 28.0418 28.4524H27.0995V24.7795L30.5744 23.8316L30.8099 24.7795C30.8438 24.9007 30.9013 25.0138 30.9791 25.1124C31.0569 25.211 31.1534 25.293 31.2631 25.3537C31.3727 25.4144 31.4933 25.4524 31.6177 25.4657C31.7422 25.479 31.868 25.4673 31.9879 25.4311L50.2456 20.5141C50.4528 20.9821 50.9166 21.2865 51.3646 21.1658C51.8688 21.0299 52.108 20.4422 51.9535 19.8625L51.8357 19.3293C51.8189 19.2885 51.7992 19.2489 51.7768 19.2108V19.1516C51.7775 19.1319 51.7775 19.1121 51.7768 19.0924L50.6578 14.8863L48.6554 7.30344C48.5396 6.86868 48.1999 6.54438 47.8308 6.47407ZM15.9093 6.65179C15.7129 6.7165 15.5432 6.84432 15.4261 7.01558C15.3091 7.18685 15.2512 7.39206 15.2614 7.59964V8.54749H14.3191C14.2604 8.54193 14.2012 8.54193 14.1424 8.54749C14.0187 8.55915 13.8984 8.59522 13.7885 8.65363C13.6786 8.71204 13.5812 8.79166 13.5019 8.88793C13.4226 8.9842 13.3629 9.09524 13.3263 9.21471C13.2897 9.33418 13.2768 9.45973 13.2884 9.58421C13.3 9.70869 13.3358 9.82965 13.3939 9.94019C13.452 10.0507 13.5312 10.1487 13.6269 10.2284C13.7226 10.3082 13.833 10.3682 13.9518 10.4051C14.0705 10.4419 14.1954 10.4549 14.3191 10.4432H15.2614V11.3911C15.2597 11.5167 15.2828 11.6414 15.3293 11.7579C15.3759 11.8745 15.445 11.9806 15.5327 12.07C15.6204 12.1594 15.7248 12.2305 15.8401 12.279C15.9553 12.3274 16.0789 12.3524 16.2038 12.3524C16.3287 12.3524 16.4523 12.3274 16.5675 12.279C16.6827 12.2305 16.7872 12.1594 16.8749 12.07C16.9626 11.9806 17.0317 11.8745 17.0782 11.7579C17.1248 11.6414 17.1479 11.5167 17.1461 11.3911V10.4432H18.0884C18.2133 10.445 18.3373 10.4218 18.4532 10.3749C18.569 10.3281 18.6745 10.2586 18.7634 10.1704C18.8524 10.0822 18.923 9.97709 18.9712 9.8612C19.0194 9.74532 19.0442 9.62096 19.0442 9.49535C19.0442 9.36973 19.0194 9.24537 18.9712 9.12949C18.923 9.01361 18.8524 8.90852 18.7634 8.82032C18.6745 8.73213 18.569 8.66259 18.4532 8.61576C18.3373 8.56892 18.2133 8.54572 18.0884 8.54749H17.1461V7.59964C17.1486 7.4587 17.1198 7.31898 17.0618 7.19065C17.0038 7.06232 16.9181 6.94862 16.8109 6.85782C16.7037 6.76702 16.5777 6.70141 16.4421 6.66577C16.3065 6.63013 16.1648 6.62535 16.0271 6.65179C15.9879 6.64932 15.9485 6.64932 15.9093 6.65179ZM47.2419 9.49535L49.7155 18.6777L32.4001 23.3577L29.9854 14.1754L47.2419 9.49535ZM28.6308 16.4858L30.1032 21.9952L15.5559 25.9643L14.378 21.6397C14.415 21.3886 14.3514 21.1329 14.2013 20.9288L14.0835 20.4549L28.6308 16.4858ZM12.7289 22.7653L13.259 24.6017L5.95591 26.5567L5.72033 25.6088L5.48475 24.7202L12.7289 22.7653ZM25.2148 25.3126V28.4524H23.3302V25.7866L25.2148 25.3126ZM21.4455 30.3481H27.0995V32.2438H21.4455V30.3481ZM46.1228 32.2438C45.9265 32.3085 45.7567 32.4363 45.6397 32.6076C45.5226 32.7789 45.4647 32.9841 45.475 33.1917V34.1395H44.5327C44.4739 34.134 44.4147 34.134 44.356 34.1395C44.2322 34.1512 44.112 34.1872 44.0021 34.2457C43.8922 34.3041 43.7948 34.3837 43.7155 34.48C43.6362 34.5762 43.5765 34.6873 43.5398 34.8067C43.5032 34.9262 43.4903 35.0518 43.5019 35.1762C43.5135 35.3007 43.5494 35.4217 43.6075 35.5322C43.6655 35.6428 43.7447 35.7407 43.8404 35.8205C43.9361 35.9002 44.0465 35.9603 44.1653 35.9971C44.2841 36.0339 44.4089 36.0469 44.5327 36.0352H45.475V36.9831C45.4732 37.1087 45.4963 37.2334 45.5429 37.3499C45.5894 37.4665 45.6586 37.5726 45.7462 37.662C45.8339 37.7515 45.9384 37.8225 46.0536 37.871C46.1688 37.9195 46.2924 37.9444 46.4173 37.9444C46.5422 37.9444 46.6658 37.9195 46.7811 37.871C46.8963 37.8225 47.0007 37.7515 47.0884 37.662C47.1761 37.5726 47.2452 37.4665 47.2918 37.3499C47.3384 37.2334 47.3614 37.1087 47.3597 36.9831V36.0352H48.302C48.4269 36.037 48.5508 36.0138 48.6667 35.967C48.7826 35.9201 48.8881 35.8506 48.977 35.7624C49.0659 35.6742 49.1365 35.5691 49.1847 35.4532C49.2329 35.3373 49.2577 35.213 49.2577 35.0874C49.2577 34.9618 49.2329 34.8374 49.1847 34.7215C49.1365 34.6056 49.0659 34.5005 48.977 34.4123C48.8881 34.3242 48.7826 34.2546 48.6667 34.2078C48.5508 34.1609 48.4269 34.1377 48.302 34.1395H47.3597V33.1917C47.3621 33.0507 47.3333 32.911 47.2753 32.7827C47.2173 32.6543 47.1316 32.5406 47.0244 32.4498C46.9172 32.359 46.7913 32.2934 46.6557 32.2578C46.5201 32.2222 46.3783 32.2174 46.2406 32.2438C46.2014 32.2413 46.1621 32.2413 46.1228 32.2438Z" fill="white"/>
</svg>
