<svg width="70" height="70" viewBox="0 0 70 70" fill="none" xmlns="http://www.w3.org/2000/svg">
<path d="M5.83333 17H1.16667C0.857247 17 0.560501 16.8946 0.341709 16.7071C0.122916 16.5196 0 16.2652 0 16C0 15.7348 0.122916 15.4804 0.341709 15.2929C0.560501 15.1054 0.857247 15 1.16667 15H5.83333C6.14275 15 6.4395 15.1054 6.65829 15.2929C6.87708 15.4804 7 15.7348 7 16C7 16.2652 6.87708 16.5196 6.65829 16.7071C6.4395 16.8946 6.14275 17 5.83333 17Z" fill="white"/>
<path d="M63.7149 70H5.47658C4.02415 70 2.63121 69.4231 1.60418 68.3962C0.577157 67.3693 0.000180361 65.9766 0.000180361 64.5243V6.29373C-0.00669714 5.64235 0.183259 5.00407 0.545188 4.46242C0.907116 3.92077 1.42416 3.50099 2.02864 3.25801C2.62811 3.0035 3.29032 2.93529 3.9291 3.06225C4.56788 3.18921 5.15365 3.50546 5.61021 3.96985L66.0368 64.3907C66.4966 64.8501 66.8097 65.4354 66.9367 66.0727C67.0636 66.71 66.9988 67.3706 66.7502 67.9711C66.5017 68.5715 66.0806 69.0847 65.5403 69.4459C65 69.807 64.3648 69.9999 63.7149 70ZM3.30574 5.1964C3.15544 5.19735 3.00672 5.22709 2.86763 5.28401C2.66611 5.36442 2.49362 5.50388 2.37282 5.68408C2.25202 5.86428 2.18855 6.0768 2.19074 6.29373V64.5243C2.19074 65.3957 2.53693 66.2313 3.15314 66.8475C3.76936 67.4636 4.60512 67.8097 5.47658 67.8097H63.7149C63.9318 67.8101 64.1439 67.7461 64.3244 67.6258C64.5049 67.5055 64.6455 67.3343 64.7286 67.1339C64.8117 66.9336 64.8334 66.7131 64.7909 66.5004C64.7485 66.2877 64.6439 66.0924 64.4903 65.9392L4.06148 5.52056C3.96407 5.41813 3.84684 5.33657 3.71692 5.28084C3.587 5.22512 3.44711 5.19639 3.30574 5.1964Z" fill="white"/>
<path d="M33.1892 56.8H16.5C15.6248 56.8 14.7854 56.4523 14.1665 55.8335C13.5477 55.2146 13.2 54.3752 13.2 53.5V36.8108C13.1997 36.1579 13.3931 35.5196 13.7557 34.9766C14.1183 34.4337 14.6338 34.0105 15.2369 33.7606C15.8401 33.5107 16.5039 33.4453 17.1442 33.5728C17.7845 33.7003 18.3727 34.0148 18.8342 34.4766L35.5234 51.1658C35.9852 51.6273 36.2998 52.2155 36.4272 52.8558C36.5547 53.4961 36.4893 54.1599 36.2394 54.7631C35.9895 55.3662 35.5663 55.8817 35.0234 56.2443C34.4804 56.6069 33.8421 56.8003 33.1892 56.8ZM16.5198 35.7086C16.3689 35.7096 16.2195 35.7394 16.0798 35.7966C15.8774 35.8774 15.7042 36.0174 15.5829 36.1984C15.4615 36.3794 15.3978 36.5929 15.4 36.8108V53.5C15.4 53.7917 15.5159 54.0715 15.7222 54.2778C15.9285 54.4841 16.2083 54.6 16.5 54.6H33.1892C33.407 54.6004 33.6201 54.5361 33.8014 54.4152C33.9826 54.2944 34.1239 54.1225 34.2073 53.9212C34.2907 53.72 34.3125 53.4985 34.2699 53.2849C34.2273 53.0712 34.1222 52.875 33.968 52.7212L17.2788 36.0342C17.181 35.9313 17.0632 35.8494 16.9328 35.7934C16.8023 35.7374 16.6618 35.7086 16.5198 35.7086ZM9.9 70C9.60826 70 9.32847 69.8841 9.12218 69.6778C8.91589 69.4715 8.8 69.1917 8.8 68.9V64.5C8.8 64.2083 8.91589 63.9285 9.12218 63.7222C9.32847 63.5159 9.60826 63.4 9.9 63.4C10.1917 63.4 10.4715 63.5159 10.6778 63.7222C10.8841 63.9285 11 64.2083 11 64.5V68.9C11 69.1917 10.8841 69.4715 10.6778 69.6778C10.4715 69.8841 10.1917 70 9.9 70ZM20.9 70C20.6083 70 20.3285 69.8841 20.1222 69.6778C19.9159 69.4715 19.8 69.1917 19.8 68.9V64.5C19.8 64.2083 19.9159 63.9285 20.1222 63.7222C20.3285 63.5159 20.6083 63.4 20.9 63.4C21.1917 63.4 21.4715 63.5159 21.6778 63.7222C21.8841 63.9285 22 64.2083 22 64.5V68.9C22 69.1917 21.8841 69.4715 21.6778 69.6778C21.4715 69.8841 21.1917 70 20.9 70ZM31.9 70C31.6083 70 31.3285 69.8841 31.1222 69.6778C30.9159 69.4715 30.8 69.1917 30.8 68.9V64.5C30.8 64.2083 30.9159 63.9285 31.1222 63.7222C31.3285 63.5159 31.6083 63.4 31.9 63.4C32.1917 63.4 32.4715 63.5159 32.6778 63.7222C32.8841 63.9285 33 64.2083 33 64.5V68.9C33 69.1917 32.8841 69.4715 32.6778 69.6778C32.4715 69.8841 32.1917 70 31.9 70ZM42.9 70C42.6083 70 42.3285 69.8841 42.1222 69.6778C41.9159 69.4715 41.8 69.1917 41.8 68.9V64.5C41.8 64.2083 41.9159 63.9285 42.1222 63.7222C42.3285 63.5159 42.6083 63.4 42.9 63.4C43.1917 63.4 43.4715 63.5159 43.6778 63.7222C43.8841 63.9285 44 64.2083 44 64.5V68.9C44 69.1917 43.8841 69.4715 43.6778 69.6778C43.4715 69.8841 43.1917 70 42.9 70ZM53.9 70C53.6083 70 53.3285 69.8841 53.1222 69.6778C52.9159 69.4715 52.8 69.1917 52.8 68.9V64.5C52.8 64.2083 52.9159 63.9285 53.1222 63.7222C53.3285 63.5159 53.6083 63.4 53.9 63.4C54.1917 63.4 54.4715 63.5159 54.6778 63.7222C54.8841 63.9285 55 64.2083 55 64.5V68.9C55 69.1917 54.8841 69.4715 54.6778 69.6778C54.4715 69.8841 54.1917 70 53.9 70ZM5.5 28.2H1.1C0.808262 28.2 0.528473 28.0841 0.322183 27.8778C0.115893 27.6715 0 27.3917 0 27.1C0 26.8083 0.115893 26.5285 0.322183 26.3222C0.528473 26.1159 0.808262 26 1.1 26H5.5C5.79174 26 6.07153 26.1159 6.27782 26.3222C6.48411 26.5285 6.6 26.8083 6.6 27.1C6.6 27.3917 6.48411 27.6715 6.27782 27.8778C6.07153 28.0841 5.79174 28.2 5.5 28.2ZM5.5 39.2H1.1C0.808262 39.2 0.528473 39.0841 0.322183 38.8778C0.115893 38.6715 0 38.3917 0 38.1C0 37.8083 0.115893 37.5285 0.322183 37.3222C0.528473 37.1159 0.808262 37 1.1 37H5.5C5.79174 37 6.07153 37.1159 6.27782 37.3222C6.48411 37.5285 6.6 37.8083 6.6 38.1C6.6 38.3917 6.48411 38.6715 6.27782 38.8778C6.07153 39.0841 5.79174 39.2 5.5 39.2ZM5.5 50.2H1.1C0.808262 50.2 0.528473 50.0841 0.322183 49.8778C0.115893 49.6715 0 49.3917 0 49.1C0 48.8083 0.115893 48.5285 0.322183 48.3222C0.528473 48.1159 0.808262 48 1.1 48H5.5C5.79174 48 6.07153 48.1159 6.27782 48.3222C6.48411 48.5285 6.6 48.8083 6.6 49.1C6.6 49.3917 6.48411 49.6715 6.27782 49.8778C6.07153 50.0841 5.79174 50.2 5.5 50.2ZM5.5 61.2H1.1C0.808262 61.2 0.528473 61.0841 0.322183 60.8778C0.115893 60.6715 0 60.3917 0 60.1C0 59.8083 0.115893 59.5285 0.322183 59.3222C0.528473 59.1159 0.808262 59 1.1 59H5.5C5.79174 59 6.07153 59.1159 6.27782 59.3222C6.48411 59.5285 6.6 59.8083 6.6 60.1C6.6 60.3917 6.48411 60.6715 6.27782 60.8778C6.07153 61.0841 5.79174 61.2 5.5 61.2Z" fill="white"/>
</svg>
