<svg width="27" height="27" viewBox="0 0 27 27" fill="none" xmlns="http://www.w3.org/2000/svg">
<path d="M23.8594 7.1525C23.7119 7 23.4849 6.9565 23.2914 7.0455L23.2094 7.083C23.1399 7.115 23.0704 7.147 23.0004 7.1785C23.2039 6.854 23.3654 6.507 23.4769 6.148C23.5389 5.95 23.4714 5.7335 23.3074 5.6055C23.1434 5.4775 22.9174 5.464 22.7399 5.5725C22.1695 5.919 21.6215 6.1685 21.055 6.3425C20.2 5.513 19.0355 5 17.75 5C15.1266 5 13.0001 7.1265 13.0001 9.75C13.0001 9.7525 13.0001 9.8515 13.0001 10L12.5006 9.96C7.6392 9.385 6.25523 6.115 6.19773 5.974C6.10473 5.739 5.89973 5.5675 5.65224 5.516C5.40524 5.4635 5.14874 5.541 4.96975 5.7195C4.87075 5.819 4.00026 6.74 4.00026 8.5C4.00026 9.754 4.55925 10.771 5.28274 11.562C4.94575 11.3565 4.74925 11.19 4.74425 11.1855C4.51375 10.9845 4.18376 10.9425 3.90977 11.0815C3.63677 11.221 3.47577 11.5125 3.50327 11.818C3.51277 11.9235 3.72577 13.9245 6.03723 15.4355L5.61574 15.512C5.36024 15.5585 5.14674 15.734 5.05175 15.976C4.95725 16.2185 4.99425 16.492 5.15024 16.7C5.20274 16.7705 6.17923 18.04 8.29969 18.77C7.16721 19.1475 5.61124 19.5 3.75027 19.5C3.45627 19.5 3.18878 19.672 3.06728 19.94C2.94528 20.208 2.99178 20.5225 3.18578 20.7435C3.26628 20.836 5.21774 23 10.2502 23C18.6065 23 22.4999 15.2425 22.4999 10V9.75C22.4999 9.676 22.4919 9.6035 22.4889 9.5305C23.5349 8.5195 23.9284 7.761 23.9474 7.7235C24.0419 7.5335 24.0069 7.3045 23.8594 7.1525Z" fill="#C4C4C4"/>
</svg>
